<svg width="39" height="38" viewBox="0 0 39 38" fill="none" xmlns="http://www.w3.org/2000/svg">
<g clip-path="url(#clip0_1_48419)">
<g clip-path="url(#clip1_1_48419)">
<g clip-path="url(#clip2_1_48419)">
<path fill-rule="evenodd" clip-rule="evenodd" d="M19.72 38C23.4778 38 27.1513 36.8857 30.2758 34.7979C33.4003 32.7102 35.8356 29.7428 37.2737 26.271C38.7117 22.7992 39.088 18.9789 38.3549 15.2933C37.6218 11.6077 35.8122 8.22218 33.155 5.56498C30.4978 2.90778 27.1123 1.09821 23.4267 0.365088C19.741 -0.368031 15.9208 0.00823236 12.449 1.4463C8.97719 2.88436 6.0098 5.31964 3.92205 8.44417C1.8343 11.5687 0.719971 15.2422 0.719971 19C0.719971 24.0391 2.72175 28.8718 6.28494 32.435C9.84813 35.9982 14.6809 38 19.72 38ZM19.72 37.263C23.3321 37.263 26.863 36.1919 29.8664 34.1851C32.8697 32.1784 35.2105 29.3261 36.5928 25.989C37.9751 22.6518 38.3367 18.9797 37.6321 15.4371C36.9274 11.8944 35.188 8.64024 32.6339 6.08612C30.0797 3.53199 26.8256 1.79261 23.2829 1.08793C19.7402 0.383245 16.0681 0.744914 12.731 2.1272C9.3939 3.50948 6.5416 5.85029 4.53484 8.85363C2.52808 11.857 1.45697 15.3879 1.45697 19C1.45697 23.8437 3.3811 28.4889 6.80608 31.9139C10.2311 35.3389 14.8763 37.263 19.72 37.263Z" fill="black"/>
<path fill-rule="evenodd" clip-rule="evenodd" d="M19.721 32.2921C22.3501 32.2921 24.9202 31.5124 27.1062 30.0518C29.2922 28.5911 30.996 26.515 32.0021 24.0861C33.0082 21.6571 33.2715 18.9843 32.7586 16.4057C32.2456 13.8271 30.9796 11.4585 29.1205 9.59949C27.2615 7.74043 24.8929 6.4744 22.3143 5.96148C19.7357 5.44857 17.0629 5.71181 14.634 6.71793C12.205 7.72404 10.1289 9.42785 8.66825 11.6139C7.2076 13.7999 6.42798 16.37 6.42798 18.9991C6.43459 22.5226 7.83722 25.8998 10.3287 28.3913C12.8202 30.8828 16.1975 32.2855 19.721 32.2921ZM19.865 31.5921C23.1763 31.5503 26.3379 30.2056 28.6647 27.8493C30.9915 25.4929 32.2963 22.3147 32.2963 19.0031C32.2963 15.6915 30.9915 12.5132 28.6647 10.1569C26.3379 7.80051 23.1763 6.4558 19.865 6.41406V31.5921ZM19.32 6.41306C17.8961 6.39294 16.4846 6.67906 15.181 7.25206V17.2851H19.32V6.41306ZM19.32 20.8301H15.184V30.7301C16.5036 31.2532 17.9041 31.5431 19.323 31.5871L19.32 20.8301ZM11.61 9.36406C9.217 11.373 7.65012 14.1948 7.20998 17.2881H11.572L11.61 9.36406ZM7.18798 20.8351C7.66462 23.8862 9.23667 26.6592 11.61 28.6351L11.618 20.8261L7.18798 20.8351Z" fill="black"/>
<path fill-rule="evenodd" clip-rule="evenodd" d="M22.7149 14.1524C22.5829 14.0414 22.5879 13.8424 22.5899 13.6524C22.5899 13.3314 22.6019 12.9634 22.5899 12.6524C22.5761 12.577 22.5329 12.5101 22.4699 12.4664C22.1759 12.2494 21.8819 12.0434 21.5879 11.8254C21.2779 11.5254 20.9879 11.9994 21.1709 12.2034C21.4632 12.3984 21.7349 12.6226 21.9819 12.8724C22.0512 13.2597 22.0683 13.6545 22.0329 14.0464C21.9719 14.2844 21.6269 14.4074 21.3129 14.3374C21.1909 14.3104 21.1419 14.1954 20.9719 14.1704C20.0359 14.0344 19.8919 15.3704 20.9719 15.2314C21.1429 15.2104 21.1909 15.0914 21.3129 15.0644C21.6269 14.9954 21.9719 15.1174 22.0329 15.3554C22.0683 15.7472 22.0512 16.1421 21.9819 16.5294C21.7349 16.7792 21.4632 17.0034 21.1709 17.1984C20.9849 17.3984 21.2779 17.8754 21.5879 17.5764C21.8819 17.3594 22.1759 17.1534 22.4699 16.9364C22.5329 16.8926 22.576 16.8258 22.5899 16.7504C22.6019 16.4434 22.5899 16.0754 22.5899 15.7504C22.5736 15.663 22.5763 15.573 22.5979 15.4868C22.6195 15.4005 22.6594 15.3199 22.7149 15.2504C22.8949 15.0954 23.0979 14.8344 23.2769 14.6774C23.0994 14.4881 22.9118 14.3085 22.7149 14.1394" fill="black"/>
<path fill-rule="evenodd" clip-rule="evenodd" d="M23.155 13.4445C24.087 13.4595 24.841 13.5255 25.772 13.4905C26.062 13.4795 26.554 13.2905 26.493 12.9755C26.432 12.6605 26.514 12.5655 26.816 12.5585C27.286 12.5465 27.757 12.5675 28.228 12.5585C28.3449 12.57 28.4628 12.5509 28.5701 12.503C28.6774 12.4551 28.7704 12.3802 28.84 12.2855C28.967 12.1325 29.125 12.3105 29.249 12.3995C29.9555 12.8164 30.5052 13.4542 30.8135 14.2144C31.1218 14.9747 31.1715 15.8152 30.955 16.6065C30.762 17.2885 30.372 17.8983 29.8339 18.3596C29.2958 18.8209 28.6335 19.113 27.93 19.1995H23.472C23.4646 19.5028 23.457 19.8058 23.449 20.1085H27.949C28.218 20.0883 28.4881 20.1283 28.7396 20.2258C28.9911 20.3232 29.2178 20.4755 29.403 20.6716C29.5882 20.8677 29.7273 21.1027 29.8101 21.3594C29.893 21.6161 29.9175 21.8881 29.882 22.1555C29.8956 22.4242 29.8547 22.6929 29.7616 22.9454C29.6685 23.1979 29.5251 23.4289 29.3403 23.6244C29.1554 23.8199 28.9328 23.9759 28.6859 24.083C28.4391 24.1901 28.1731 24.2461 27.904 24.2475C26.441 24.2475 24.977 24.2335 23.514 24.2475C23.066 24.2475 22.974 25.0875 23.514 25.0885C24.599 25.0885 25.683 25.1045 26.767 25.0885C26.9265 25.0996 27.0819 25.1442 27.223 25.2193C27.3642 25.2944 27.4879 25.3984 27.5862 25.5246C27.6845 25.6507 27.7551 25.7961 27.7935 25.9513C27.8319 26.1065 27.8372 26.2681 27.809 26.4255C27.8129 26.5738 27.7861 26.7214 27.7301 26.8588C27.6741 26.9963 27.5903 27.1206 27.4838 27.224C27.3773 27.3274 27.2505 27.4076 27.1115 27.4595C26.9725 27.5114 26.8241 27.5338 26.676 27.5255C26.0093 27.5255 25.3426 27.5255 24.676 27.5255C24.198 27.5255 24.244 28.3335 24.731 28.3355C25.201 28.3355 25.616 28.3055 26.085 28.3355C26.498 28.3615 26.593 28.7625 26.385 29.1175C26.223 29.3885 25.948 29.3435 25.885 29.0715C25.836 28.8625 25.759 28.8415 25.612 28.8445C25.324 28.8495 25.036 28.8445 24.747 28.8445C24.094 28.8555 23.686 28.4955 23.682 27.9575C23.6637 27.8276 23.6734 27.6954 23.7105 27.5696C23.7476 27.4439 23.8113 27.3276 23.8971 27.2284C23.983 27.1293 24.089 27.0498 24.2082 26.9951C24.3274 26.9404 24.4569 26.9119 24.588 26.9115C25.157 26.9115 25.725 26.9195 26.294 26.9115C26.777 26.9045 27.043 26.7525 27.022 26.4795C26.994 26.1245 26.741 26.0435 26.431 26.0475C25.4756 26.0608 24.5203 26.0608 23.565 26.0475C23.1621 26.0476 22.7738 25.8973 22.4759 25.6261C22.178 25.3549 21.9922 24.9822 21.9546 24.5811C21.9171 24.18 22.0306 23.7794 22.273 23.4576C22.5154 23.1358 22.8691 22.9161 23.265 22.8415C24.765 22.8215 26.265 22.8535 27.765 22.8415C28.42 22.8365 28.444 21.9225 27.833 21.9315C26.264 21.9555 24.694 21.9395 23.125 21.9315C22.5826 21.936 22.0605 21.7257 21.6728 21.3464C21.2851 20.9671 21.0634 20.4498 21.056 19.9075C21.0103 19.2797 21.2099 18.6587 21.6127 18.1751C22.0156 17.6915 22.5903 17.383 23.216 17.3145C24.671 17.3145 25.916 17.2985 27.375 17.3145C27.4816 17.321 27.5884 17.3052 27.6885 17.2681C27.7886 17.2309 27.8798 17.1732 27.9564 17.0987C28.0329 17.0242 28.093 16.9345 28.1328 16.8354C28.1726 16.7364 28.1912 16.63 28.1875 16.5233C28.1838 16.4166 28.1578 16.3118 28.1112 16.2157C28.0646 16.1196 27.9985 16.0343 27.9169 15.9653C27.8354 15.8963 27.7404 15.8451 27.6379 15.815C27.5355 15.7849 27.4279 15.7765 27.322 15.7905H23.194C23.182 15.2115 23.575 15.0095 24.081 15.0395H26.242C26.634 15.0695 26.551 14.1865 26.242 14.1745H23.763C23.6716 14.177 23.5809 14.1589 23.4974 14.1215C23.414 14.0841 23.3401 14.0285 23.2811 13.9586C23.2221 13.8888 23.1796 13.8066 23.1568 13.7181C23.1339 13.6296 23.1312 13.5371 23.149 13.4475" fill="black"/>
<path fill-rule="evenodd" clip-rule="evenodd" d="M27.062 10.025C27.1261 10.0252 27.1889 10.0063 27.2423 9.97084C27.2957 9.93536 27.3374 9.88482 27.3621 9.82564C27.3867 9.76645 27.3933 9.70128 27.3809 9.63836C27.3685 9.57544 27.3377 9.51762 27.2925 9.47221C27.2472 9.42679 27.1895 9.39584 27.1266 9.38326C27.0637 9.37067 26.9985 9.37703 26.9392 9.40152C26.88 9.42602 26.8293 9.46754 26.7937 9.52084C26.758 9.57415 26.739 9.63683 26.739 9.70095C26.739 9.78671 26.773 9.86897 26.8336 9.9297C26.8941 9.99044 26.9763 10.0247 27.062 10.025ZM26.077 10.025C26.1411 10.025 26.2037 10.006 26.257 9.97035C26.3103 9.93475 26.3518 9.88415 26.3763 9.82494C26.4009 9.76574 26.4073 9.7006 26.3948 9.63775C26.3823 9.5749 26.3514 9.51716 26.3061 9.47185C26.2608 9.42654 26.2031 9.39568 26.1402 9.38318C26.0774 9.37068 26.0122 9.37709 25.953 9.40162C25.8938 9.42614 25.8432 9.46767 25.8076 9.52095C25.772 9.57423 25.753 9.63687 25.753 9.70095C25.753 9.78688 25.7871 9.8693 25.8479 9.93006C25.9087 9.99082 25.9911 10.025 26.077 10.025ZM25.092 10.025C25.1561 10.025 25.2187 10.006 25.272 9.97035C25.3253 9.93475 25.3668 9.88415 25.3913 9.82494C25.4159 9.76574 25.4223 9.7006 25.4098 9.63775C25.3973 9.5749 25.3664 9.51716 25.3211 9.47185C25.2758 9.42654 25.2181 9.39568 25.1552 9.38318C25.0924 9.37068 25.0272 9.37709 24.968 9.40162C24.9088 9.42614 24.8582 9.46767 24.8226 9.52095C24.787 9.57423 24.768 9.63687 24.768 9.70095C24.768 9.78688 24.8021 9.8693 24.8629 9.93006C24.9237 9.99082 25.0061 10.025 25.092 10.025ZM24.163 10.025C24.2271 10.025 24.2897 10.006 24.343 9.97035C24.3963 9.93475 24.4378 9.88415 24.4623 9.82494C24.4869 9.76574 24.4933 9.7006 24.4808 9.63775C24.4683 9.5749 24.4374 9.51716 24.3921 9.47185C24.3468 9.42654 24.2891 9.39568 24.2262 9.38318C24.1634 9.37068 24.0982 9.37709 24.039 9.40162C23.9798 9.42614 23.9292 9.46767 23.8936 9.52095C23.858 9.57423 23.839 9.63687 23.839 9.70095C23.8389 9.74354 23.8472 9.78573 23.8634 9.8251C23.8796 9.86447 23.9035 9.90024 23.9336 9.93035C23.9637 9.96046 23.9995 9.98433 24.0389 10.0006C24.0782 10.0168 24.1204 10.0251 24.163 10.025ZM23.178 10.025C23.2421 10.025 23.3047 10.006 23.358 9.97035C23.4113 9.93475 23.4528 9.88415 23.4773 9.82494C23.5019 9.76574 23.5083 9.7006 23.4958 9.63775C23.4833 9.5749 23.4524 9.51716 23.4071 9.47185C23.3618 9.42654 23.3041 9.39568 23.2412 9.38318C23.1784 9.37068 23.1132 9.37709 23.054 9.40162C22.9948 9.42614 22.9442 9.46767 22.9086 9.52095C22.873 9.57423 22.854 9.63687 22.854 9.70095C22.8539 9.74354 22.8622 9.78573 22.8784 9.8251C22.8946 9.86447 22.9185 9.90024 22.9486 9.93035C22.9787 9.96046 23.0145 9.98433 23.0539 10.0006C23.0932 10.0168 23.1354 10.0251 23.178 10.025Z" fill="black"/>
<path d="M27.356 10.375H22.973V11.787H27.356V10.375Z" fill="black"/>
<path d="M5.52793 16.2472L5.34992 17.6552L5.99892 18.0132L5.86293 19.0922L2.12292 17.0862L2.26393 15.9722L6.38193 14.9902L6.24392 16.0802L5.52793 16.2472ZM4.71493 16.4262L3.41493 16.6862L4.61492 17.2742L4.71493 16.4262Z" fill="black"/>
<path d="M3.73892 11.374L6.55392 12.642L7.06292 11.516L7.86292 11.876L6.92692 13.942L3.31592 12.31L3.73892 11.374Z" fill="black"/>
<path d="M7.67603 7.17852L6.86203 8.11652L7.36203 8.54852L8.10203 7.69651L8.76103 8.26952L8.02103 9.12152L9.19603 10.1415L8.52203 10.9175L5.53003 8.31752L7.01703 6.60352L7.67603 7.17852Z" fill="black"/>
<path d="M12.605 6.39589L11.405 7.16189L11.547 7.88989L10.632 8.47589L9.77502 4.31889L10.72 3.71289L14.113 6.24489L13.197 6.83489L12.605 6.39589ZM11.947 5.88589L10.912 5.05289L11.226 6.34689L11.947 5.88589Z" fill="black"/>
<path d="M19.353 3.60387L20.715 5.12587L19.441 5.22587L18.341 3.78487L18.457 5.30087L17.432 5.37987L17.132 1.42887L18.732 1.30587C19.0744 1.26424 19.42 1.35392 19.699 1.55687C19.8323 1.66624 19.9401 1.8035 20.0147 1.95898C20.0894 2.11447 20.129 2.28441 20.131 2.45687C20.1612 2.70979 20.0994 2.96513 19.957 3.17627C19.8145 3.38741 19.6008 3.54025 19.355 3.60687M18.293 3.12187L18.4 3.11387C18.4355 3.11124 18.4709 3.10657 18.506 3.09987C18.651 3.0789 18.7908 3.03072 18.918 2.95787C18.9808 2.91626 19.0297 2.85677 19.0584 2.78707C19.0871 2.71737 19.0943 2.64067 19.079 2.56687C19.0816 2.49511 19.0633 2.42412 19.0264 2.36253C18.9895 2.30093 18.9355 2.25137 18.871 2.21987C18.7414 2.16493 18.6026 2.13506 18.462 2.13187C18.418 2.13187 18.377 2.13787 18.337 2.13887C18.297 2.13987 18.258 2.13887 18.218 2.14487L18.293 3.12187Z" fill="black"/>
<path d="M22.23 3.34614C22.3003 3.07367 22.4269 2.81897 22.6018 2.59849C22.7766 2.37801 22.9957 2.19666 23.245 2.06614C23.7634 1.80795 24.3594 1.7525 24.9165 1.91064C25.4736 2.06877 25.9516 2.42912 26.257 2.92114C26.3947 3.16529 26.4826 3.43429 26.5157 3.7126C26.5488 3.99092 26.5265 4.27305 26.45 4.54268C26.3735 4.81231 26.2443 5.06412 26.0699 5.28355C25.8955 5.50298 25.6794 5.6857 25.434 5.82114C24.915 6.07543 24.3202 6.12878 23.7642 5.97094C23.2081 5.8131 22.7301 5.45522 22.422 4.96614C22.2782 4.72522 22.1868 4.45675 22.1535 4.17817C22.1203 3.89959 22.146 3.61713 22.229 3.34914M23.264 3.64314C23.2217 3.78313 23.2088 3.93034 23.226 4.07557C23.2432 4.22079 23.2902 4.3609 23.364 4.48714C23.4895 4.71059 23.6885 4.88365 23.9272 4.97685C24.1659 5.07006 24.4295 5.07764 24.6732 4.99831C24.9169 4.91898 25.1255 4.75765 25.2636 4.54178C25.4017 4.32591 25.4606 4.06885 25.4305 3.81437C25.4003 3.5599 25.2829 3.32374 25.0982 3.14612C24.9135 2.96849 24.673 2.86038 24.4175 2.84019C24.162 2.81999 23.9075 2.88897 23.6972 3.03538C23.4868 3.18178 23.3338 3.39656 23.264 3.64314Z" fill="black"/>
<path d="M26.927 7.05119L30.027 4.49219L30.796 5.15619L30.02 7.28119L32.046 6.23619L32.824 6.90819L30.682 10.2942L29.904 9.62219L31.175 7.70619L28.96 8.80619L28.65 8.53819L29.45 6.21419L27.702 7.71419L26.927 7.05119Z" fill="black"/>
<path d="M35.0709 11.9299L34.4569 10.8709L33.8869 11.2019L34.4679 12.2019L33.7119 12.6399L33.1309 11.6399L32.5399 11.9829L33.1539 13.0419L32.3989 13.4799L31.2689 11.5319L34.6969 9.54395L35.8269 11.4909L35.0709 11.9299Z" fill="black"/>
<path d="M34.822 14.2043C35.0981 14.1469 35.3833 14.1481 35.6589 14.2078C35.9345 14.2676 36.1945 14.3847 36.422 14.5513C36.882 14.9032 37.1942 15.414 37.2974 15.9838C37.4006 16.5537 37.2874 17.1416 36.98 17.6324C36.8213 17.8631 36.6186 18.0601 36.3834 18.2121C36.1483 18.3641 35.8854 18.4681 35.6098 18.518C35.3343 18.5679 35.0516 18.5628 34.7781 18.503C34.5045 18.4431 34.2455 18.3297 34.016 18.1693C33.5594 17.8152 33.2499 17.3048 33.1469 16.7363C33.0439 16.1677 33.1547 15.5811 33.458 15.0894C33.6108 14.854 33.8115 14.6534 34.0471 14.5009C34.2826 14.3484 34.5477 14.2474 34.825 14.2043M35.017 15.2623C34.8726 15.2865 34.7348 15.3402 34.6121 15.42C34.4894 15.4998 34.3846 15.6041 34.304 15.7263C34.2205 15.8467 34.1616 15.9823 34.1305 16.1254C34.0994 16.2686 34.0969 16.4164 34.123 16.5606C34.1491 16.7047 34.2033 16.8423 34.2826 16.9654C34.3619 17.0886 34.4646 17.1949 34.585 17.2783C34.7361 17.3821 34.9103 17.447 35.0924 17.4673C35.2745 17.4877 35.4588 17.4628 35.629 17.395C35.7992 17.3272 35.95 17.2185 36.0682 17.0785C36.1864 16.9385 36.2683 16.7715 36.3066 16.5923C36.3449 16.4132 36.3385 16.2273 36.2879 16.0512C36.2372 15.8751 36.144 15.7142 36.0164 15.5827C35.8888 15.4513 35.7308 15.3532 35.5563 15.2974C35.3818 15.2415 35.1973 15.2294 35.017 15.2623Z" fill="black"/>
</g>
</g>
</g>
<defs>
<clipPath id="clip0_1_48419">
<rect width="38" height="38" fill="white" transform="translate(0.719971)"/>
</clipPath>
<clipPath id="clip1_1_48419">
<rect width="38" height="38" fill="white" transform="translate(0.719971)"/>
</clipPath>
<clipPath id="clip2_1_48419">
<rect width="38" height="38" fill="white" transform="translate(0.719971)"/>
</clipPath>
</defs>
</svg>
