<svg width="29" height="40" viewBox="0 0 29 40" fill="none" xmlns="http://www.w3.org/2000/svg">
<path d="M15.3717 11.8989C15.7771 11.6997 16.1032 11.3691 16.2967 10.961C16.4903 10.5528 16.54 10.0912 16.4378 9.6512C16.3355 9.21121 16.0873 8.8188 15.7336 8.53786C15.3799 8.25692 14.9415 8.104 14.4897 8.104C14.038 8.104 13.5996 8.25692 13.2459 8.53786C12.8922 8.8188 12.644 9.21121 12.5417 9.6512C12.4395 10.0912 12.4892 10.5528 12.6827 10.961C12.8763 11.3691 13.2023 11.6997 13.6078 11.8989L3.11409 38.6131C3.0397 38.8079 3.02671 39.0209 3.07686 39.2233C3.12701 39.4258 3.23791 39.608 3.39466 39.7456C3.55142 39.8832 3.74652 39.9696 3.95376 39.993C4.16101 40.0165 4.37048 39.976 4.55405 39.877L14.4897 34.3562L24.4304 39.879C24.6143 39.9747 24.8225 40.0135 25.0285 39.9906C25.2346 39.9676 25.4291 39.8839 25.5874 39.75C25.7462 39.612 25.8584 39.4283 25.9087 39.2241C25.959 39.0198 25.9449 38.805 25.8684 38.6091L15.3717 11.8989ZM18.8866 26.4074L16.1207 24.1925L17.5616 23.0385L18.8866 26.4074ZM14.4867 15.2178L16.7867 21.0726L14.4867 22.8916L12.2788 21.1226L12.1878 21.0696L14.4867 15.2178ZM11.4138 23.0395L12.8568 24.1925L10.0889 26.4074L11.4138 23.0395ZM6.044 36.7221L8.31993 30.9223L12.3958 33.1872L6.044 36.7221ZM9.67389 29.3503L14.4887 25.4975L19.3056 29.3503L14.4907 32.0253L9.67389 29.3503ZM16.5877 33.1902L20.6615 30.9263L22.9405 36.7201L16.5877 33.1902Z" fill="#008FA4"/>
<path d="M7.21514 17.3038C7.31042 17.4013 7.42421 17.4787 7.54982 17.5316C7.67544 17.5844 7.81036 17.6117 7.94664 17.6117C8.08293 17.6117 8.21785 17.5844 8.34346 17.5316C8.46908 17.4787 8.58287 17.4013 8.67814 17.3038C8.87031 17.1066 8.97786 16.8422 8.97786 16.5668C8.97786 16.2915 8.87031 16.027 8.67814 15.8298C7.19077 14.293 6.35921 12.238 6.35921 10.0993C6.35921 7.96059 7.19077 5.90565 8.67814 4.36882C8.86925 4.17147 8.9761 3.90753 8.9761 3.63282C8.9761 3.3581 8.86925 3.09416 8.67814 2.89682C8.58281 2.79875 8.46877 2.7208 8.34278 2.66757C8.2168 2.61434 8.08141 2.58691 7.94464 2.58691C7.80787 2.58691 7.67249 2.61434 7.5465 2.66757C7.42052 2.7208 7.30648 2.79875 7.21114 2.89682C5.33986 4.82767 4.29346 7.41097 4.29346 10.0998C4.29346 12.7887 5.33986 15.372 7.21114 17.3028" fill="#008FA4"/>
<path d="M5.12008 20.2C5.25638 20.2005 5.39137 20.1735 5.51698 20.1205C5.64258 20.0676 5.75622 19.9899 5.85108 19.892C6.04348 19.6949 6.15119 19.4304 6.15119 19.155C6.15119 18.8796 6.04348 18.6151 5.85108 18.418C3.69146 16.1882 2.48392 13.2057 2.48392 10.1015C2.48392 6.9973 3.69146 4.01483 5.85108 1.785C6.0439 1.58821 6.15164 1.32351 6.15108 1.048C6.15195 0.911232 6.12581 0.775635 6.07416 0.648991C6.0225 0.522347 5.94635 0.407148 5.85008 0.310001C5.75537 0.212067 5.64194 0.134162 5.51654 0.080909C5.39114 0.0276564 5.25632 0.000142706 5.12008 1.43433e-06C4.98274 -0.000228079 4.84676 0.0270886 4.72017 0.0803355C4.59358 0.133582 4.47896 0.211678 4.38308 0.310001C1.84118 2.93469 0.419922 6.44521 0.419922 10.099C0.419922 13.7528 1.84118 17.2633 4.38308 19.888C4.47844 19.9871 4.59292 20.0659 4.7196 20.1195C4.84628 20.1732 4.98252 20.2005 5.12008 20.2Z" fill="#008FA4"/>
<path d="M20.3004 15.8297C20.1093 16.0271 20.0024 16.291 20.0024 16.5657C20.0024 16.8405 20.1093 17.1044 20.3004 17.3017C20.3957 17.3998 20.5098 17.4778 20.6358 17.531C20.7617 17.5842 20.8971 17.6116 21.0339 17.6116C21.1707 17.6116 21.306 17.5842 21.432 17.531C21.558 17.4778 21.6721 17.3998 21.7674 17.3017C23.6387 15.3709 24.6851 12.7876 24.6851 10.0987C24.6851 7.4099 23.6387 4.8266 21.7674 2.89574C21.6721 2.79829 21.5583 2.72086 21.4327 2.66799C21.3071 2.61512 21.1722 2.58789 21.0359 2.58789C20.8996 2.58789 20.7647 2.61512 20.6391 2.66799C20.5135 2.72086 20.3997 2.79829 20.3044 2.89574C20.1122 3.09294 20.0047 3.3574 20.0047 3.63274C20.0047 3.90809 20.1122 4.17255 20.3044 4.36974C21.7918 5.90658 22.6233 7.96152 22.6233 10.1002C22.6233 12.239 21.7918 14.2939 20.3044 15.8307" fill="#008FA4"/>
<path d="M23.1301 18.4158C22.9372 18.6126 22.8294 18.8773 22.8301 19.1528C22.8288 19.4279 22.9366 19.6923 23.1301 19.8878C23.2256 19.9856 23.3397 20.0634 23.4656 20.1165C23.5916 20.1695 23.7269 20.1969 23.8636 20.1969C24.0003 20.1969 24.1356 20.1695 24.2616 20.1165C24.3875 20.0634 24.5016 19.9856 24.5971 19.8878C27.139 17.2631 28.5602 13.7526 28.5602 10.0988C28.5602 6.44503 27.139 2.93452 24.5971 0.309829C24.5018 0.212222 24.3879 0.134659 24.2622 0.0817024C24.1365 0.0287457 24.0015 0.00146484 23.8651 0.00146484C23.7287 0.00146484 23.5936 0.0287457 23.4679 0.0817024C23.3422 0.134659 23.2284 0.212222 23.1331 0.309829C22.9407 0.506903 22.833 0.771406 22.833 1.04683C22.833 1.32225 22.9407 1.58675 23.1331 1.78383C25.2927 4.01365 26.5002 6.99612 26.5002 10.1003C26.5002 13.2045 25.2927 16.187 23.1331 18.4168" fill="#008FA4"/>
<path d="M10.0445 14.7177C10.1397 14.8157 10.2536 14.8937 10.3794 14.9469C10.5052 15.0001 10.6404 15.0275 10.777 15.0275C10.9137 15.0275 11.0489 15.0001 11.1747 14.9469C11.3005 14.8937 11.4144 14.8157 11.5095 14.7177C11.7002 14.52 11.8068 14.256 11.8068 13.9812C11.8068 13.7065 11.7002 13.4425 11.5095 13.2447C10.6921 12.4023 10.235 11.2746 10.235 10.1007C10.235 8.92689 10.6921 7.7992 11.5095 6.95673C11.7031 6.75877 11.8108 6.49256 11.8095 6.21573C11.8101 6.07999 11.7839 5.94548 11.7324 5.81987C11.6809 5.69427 11.6052 5.58005 11.5095 5.48373C11.4142 5.38566 11.3002 5.30771 11.1742 5.25448C11.0482 5.20125 10.9128 5.17383 10.776 5.17383C10.6393 5.17383 10.5039 5.20125 10.3779 5.25448C10.2519 5.30771 10.1379 5.38566 10.0425 5.48373C8.84224 6.72053 8.1709 8.37624 8.1709 10.0997C8.1709 11.8232 8.84224 13.4789 10.0425 14.7157" fill="#008FA4"/>
<path d="M17.1724 13.9841C17.1718 14.1198 17.198 14.2543 17.2495 14.3799C17.301 14.5055 17.3767 14.6197 17.4724 14.7161C17.5677 14.8141 17.6817 14.8921 17.8077 14.9453C17.9337 14.9985 18.0691 15.026 18.2059 15.026C18.3426 15.026 18.478 14.9985 18.604 14.9453C18.73 14.8921 18.844 14.8141 18.9394 14.7161C20.1397 13.4793 20.811 11.8236 20.811 10.1001C20.811 8.37658 20.1397 6.72086 18.9394 5.48406C18.8442 5.38605 18.7303 5.30814 18.6045 5.25494C18.4787 5.20173 18.3435 5.17432 18.2069 5.17432C18.0703 5.17432 17.935 5.20173 17.8092 5.25494C17.6834 5.30814 17.5695 5.38605 17.4744 5.48406C17.2839 5.68194 17.1775 5.94591 17.1775 6.22056C17.1775 6.49521 17.2839 6.75919 17.4744 6.95706C18.2915 7.79949 18.7484 8.92697 18.7484 10.1006C18.7484 11.2742 18.2915 12.4016 17.4744 13.2441C17.2809 13.442 17.1731 13.7082 17.1744 13.9851" fill="#008FA4"/>
</svg>
