<svg width="142" height="28" viewBox="0 0 142 28" fill="none" xmlns="http://www.w3.org/2000/svg">
<g clip-path="url(#clip0_1_48403)">
<g clip-path="url(#clip1_1_48403)">
<g clip-path="url(#clip2_1_48403)">
<path d="M135.352 3.54753C135.347 2.78209 135.646 2.04601 136.182 1.49982C136.719 0.953626 137.449 0.641631 138.214 0.631877C138.972 0.640276 139.697 0.941636 140.237 1.47278C140.776 2.01869 141.079 2.75515 141.079 3.52253C141.079 4.2899 140.776 5.02636 140.237 5.57228C139.841 5.98262 139.33 6.26421 138.772 6.38042C138.213 6.49663 137.633 6.44208 137.106 6.22387C136.579 6.00566 136.13 5.63388 135.817 5.15691C135.504 4.67995 135.342 4.11986 135.352 3.54953M135.116 3.54953C135.112 4.38177 135.44 5.18131 136.026 5.77233C136.611 6.36335 137.408 6.69744 138.24 6.70115C138.647 6.70633 139.051 6.62739 139.426 6.46927C139.801 6.31115 140.14 6.07726 140.42 5.78226C141.004 5.1848 141.333 4.38458 141.339 3.54953C141.342 3.13496 141.262 2.72397 141.105 2.3406C140.947 1.95722 140.714 1.60917 140.42 1.31679C140.137 1.02586 139.798 0.794667 139.423 0.636849C139.049 0.479031 138.647 0.397785 138.24 0.397905C137.828 0.399609 137.42 0.48248 137.04 0.641786C136.66 0.801092 136.315 1.03371 136.025 1.32637C135.735 1.61903 135.505 1.96598 135.349 2.34743C135.193 2.72888 135.113 3.13735 135.115 3.54953M137.064 5.4123H137.51V3.94148H138.51C138.644 3.92956 138.779 3.94766 138.904 3.99447C138.975 4.04613 139.033 4.11323 139.074 4.19068C139.115 4.26813 139.138 4.35388 139.14 4.44142L139.193 5.01935V5.28132C139.219 5.33431 139.219 5.36031 139.246 5.3863H139.798V5.30731C139.719 5.28132 139.693 5.20233 139.667 5.09734C139.641 5.00334 139.633 4.90548 139.641 4.80837L139.615 4.36143C139.623 4.21412 139.586 4.06791 139.51 3.94148C139.421 3.85096 139.313 3.77953 139.195 3.7315C139.338 3.66252 139.456 3.55292 139.536 3.41654C139.617 3.2628 139.653 3.08975 139.641 2.9166C139.654 2.75221 139.618 2.58773 139.539 2.44322C139.459 2.29871 139.34 2.18039 139.194 2.1027C139.005 2.02359 138.8 1.98772 138.594 1.99771H137.095L137.064 5.4123ZM137.484 3.54753V2.36567H138.534C138.662 2.35791 138.789 2.38523 138.902 2.44466C138.985 2.49728 139.051 2.57214 139.092 2.66059C139.134 2.74904 139.15 2.8475 139.138 2.9446C139.138 3.18057 139.085 3.33855 138.954 3.41754C138.815 3.51096 138.649 3.55689 138.481 3.54853L137.484 3.54753ZM13.0435 7.881L0.280029 27.9456H8.99898L21.2905 8.7739L13.0435 7.881ZM65.5962 7.43406V0.00195312H40.7752C39.6255 0.0457112 38.4987 0.33559 37.4706 0.852024C36.4426 1.36846 35.5373 2.09943 34.8159 2.99559C33.9479 4.13513 33.3218 5.43999 32.9761 6.83013V0.0549467H19.7677C19.2424 0.0513931 18.7245 0.179245 18.2612 0.426871C17.7979 0.674496 17.4039 1.03403 17.115 1.47278C16.3801 2.44466 13.3595 7.43406 13.3595 7.43406H65.5962ZM133.088 7.43406V0.00195312H106.541C105.392 0.0490251 104.266 0.340347 103.238 0.856528C102.21 1.37271 101.304 2.10191 100.58 2.99559C99.7123 4.13522 99.0866 5.44007 98.7412 6.83013V7.43006L133.088 7.43406ZM74.3161 0.02795H66.884V7.43406H74.3161V0.02795ZM98.6622 0.02795H91.2561V7.43406H98.6622V0.02795ZM98.6622 10.1127L91.3631 9.66579V18.2538C91.3689 18.5752 91.3108 18.8946 91.192 19.1933C91.0733 19.4921 90.8963 19.7642 90.6714 19.9939C90.4465 20.2237 90.1782 20.4064 89.882 20.5315C89.5859 20.6565 89.2678 20.7214 88.9464 20.7225H76.4479C75.8482 20.6644 75.2935 20.3789 74.8978 19.9246C74.502 19.4703 74.2953 18.8817 74.3201 18.2798V8.51093L66.962 7.98599V21.1434C67.2173 22.8693 68.0263 24.4656 69.2674 25.6919C70.5084 26.9181 72.1143 27.708 73.8432 27.9426C73.8432 27.9426 74.4211 27.9686 74.5261 27.9956H91.469C91.469 27.9956 98.7182 27.4176 98.7182 20.4315L98.6622 10.1127ZM25.414 27.9456H60.1338C61.8078 27.66 63.3507 26.8584 64.5468 25.653C65.7429 24.4476 66.5324 22.8985 66.805 21.2224C66.979 20.2432 67.023 19.2454 66.936 18.2548C66.752 17.1549 64.6513 12.2665 60.1368 11.8465C57.4321 11.5836 33.348 9.66679 33.348 9.66679C33.6056 11.325 34.4089 12.85 35.6308 14.0003C36.876 15.048 38.3672 15.762 39.9642 16.075L58.532 17.6248C58.7358 17.6084 58.9409 17.6334 59.1348 17.6984C59.3287 17.7635 59.5074 17.8671 59.6601 18.0032C59.8128 18.1392 59.9363 18.3048 60.0232 18.4899C60.1101 18.675 60.1586 18.8758 60.1657 19.0802C60.1728 19.2846 60.1384 19.4883 60.0645 19.679C59.9907 19.8697 59.8789 20.0434 59.7361 20.1897C59.5932 20.336 59.4221 20.4519 59.2332 20.5302C59.0443 20.6085 58.8415 20.6477 58.637 20.6455H32.6621V9.61479L25.44 9.08986C25.414 9.08986 25.414 27.9456 25.414 27.9456ZM98.7152 27.9986H125.294C127.139 27.9133 128.9 27.2003 130.286 25.9777C131.671 24.755 132.596 23.096 132.91 21.2754C133.053 20.2746 133.07 19.2599 132.963 18.2548C132.779 16.7549 130.652 12.2405 126.108 11.7935C123.429 11.5306 99.1881 10.1127 99.1881 10.1127C99.5312 11.6589 100.382 13.0458 101.605 14.0523C102.786 15.0909 104.231 15.7829 105.78 16.052L124.532 17.6278C125.11 17.6538 126.292 17.7068 126.292 19.1276C126.284 19.542 126.114 19.9368 125.819 20.2275C125.436 20.4276 125.015 20.5439 124.584 20.5685H98.7932L98.7152 27.9986Z" fill="black"/>
</g>
</g>
</g>
<defs>
<clipPath id="clip0_1_48403">
<rect width="141.06" height="28" fill="white" transform="translate(0.280029)"/>
</clipPath>
<clipPath id="clip1_1_48403">
<rect width="141.06" height="28" fill="white" transform="translate(0.280029)"/>
</clipPath>
<clipPath id="clip2_1_48403">
<rect width="141.06" height="27.9966" fill="white" transform="translate(0.280029 0.00195312)"/>
</clipPath>
</defs>
</svg>
