<svg width="41" height="42" viewBox="0 0 41 42" fill="none" xmlns="http://www.w3.org/2000/svg">
<rect width="40" height="40" transform="translate(0.310059 2)" fill="white"/>
<g clip-path="url(#clip0_1_80924)">
<g clip-path="url(#clip1_1_80924)">
<g clip-path="url(#clip2_1_80924)">
<path opacity="0.25" d="M20.3101 0C16.3544 0 12.4876 1.17298 9.19866 3.37061C5.90968 5.56824 3.34623 8.69181 1.83248 12.3463C0.318724 16.0009 -0.0773424 20.0222 0.694362 23.9018C1.46607 27.7814 3.37088 31.3451 6.16793 34.1421C8.96498 36.9392 12.5286 38.844 16.4083 39.6157C20.2879 40.3874 24.3092 39.9913 27.9637 38.4776C31.6183 36.9638 34.7418 34.4004 36.9395 31.1114C39.1371 27.8224 40.3101 23.9556 40.3101 20C40.3101 14.6957 38.2029 9.60859 34.4522 5.85786C30.7015 2.10714 25.6144 0 20.3101 0ZM24.2921 18.155C24.9471 18.8098 25.4657 19.5882 25.8178 20.4449C26.1699 21.3017 26.3484 22.2198 26.3431 23.146C26.3488 24.0754 26.1675 24.9964 25.8098 25.8542C25.4521 26.712 24.9254 27.489 24.2611 28.139C22.9363 29.4603 21.1441 30.2062 19.2731 30.215C18.349 30.2197 17.4335 30.0385 16.5808 29.6822C15.7282 29.3259 14.956 28.8018 14.3101 28.141C14.2117 28.0503 14.1328 27.9407 14.0779 27.8186C14.0231 27.6966 13.9936 27.5647 13.9911 27.431C13.988 27.2878 14.0136 27.1454 14.0665 27.0123C14.1194 26.8792 14.1985 26.758 14.2991 26.656C14.3898 26.557 14.4997 26.4775 14.6221 26.4223C14.7445 26.3671 14.8768 26.3374 15.0111 26.335C15.1559 26.3312 15.2999 26.3572 15.4343 26.4114C15.5686 26.4655 15.6904 26.5468 15.7921 26.65C16.4834 27.3404 17.3639 27.8102 18.3223 28C19.2807 28.1899 20.2738 28.0913 21.1761 27.7166C22.0784 27.3419 22.8493 26.7081 23.3913 25.8952C23.9333 25.0823 24.2221 24.127 24.2211 23.15C24.2153 21.8456 23.6945 20.5963 22.7722 19.6739C21.8498 18.7515 20.6005 18.2308 19.2961 18.225C19.0311 18.224 18.7762 18.1233 18.5821 17.943H18.5571L18.4571 17.843C18.2563 17.642 18.1436 17.3696 18.1436 17.0855C18.1436 16.8014 18.2563 16.529 18.4571 16.328L22.7821 11.879H16.0561C15.7753 11.879 15.5061 11.7675 15.3076 11.569C15.1091 11.3705 14.9976 11.1012 14.9976 10.8205C14.9976 10.5398 15.1091 10.2705 15.3076 10.072C15.5061 9.87352 15.7753 9.762 16.0561 9.762H25.2851C25.4244 9.76053 25.5627 9.78689 25.6917 9.83954C25.8207 9.89219 25.9379 9.97006 26.0365 10.0686C26.135 10.1671 26.2129 10.2844 26.2655 10.4134C26.3182 10.5424 26.3445 10.6807 26.3431 10.82C26.3446 10.9827 26.3036 11.143 26.2241 11.285C26.1761 11.4038 26.1051 11.5119 26.0151 11.603L21.3361 16.4C22.4526 16.7288 23.4688 17.3322 24.2921 18.155Z" fill="black"/>
</g>
</g>
</g>
<defs>
<clipPath id="clip0_1_80924">
<rect width="40" height="40" fill="white" transform="translate(0.310059)"/>
</clipPath>
<clipPath id="clip1_1_80924">
<rect width="40" height="40" fill="white" transform="translate(0.310059)"/>
</clipPath>
<clipPath id="clip2_1_80924">
<rect width="40" height="40" fill="white" transform="translate(0.310059)"/>
</clipPath>
</defs>
</svg>
