<svg width="41" height="42" viewBox="0 0 41 42" fill="none" xmlns="http://www.w3.org/2000/svg">
<rect width="40" height="40" transform="translate(0.969727 2)" fill="white"/>
<g clip-path="url(#clip0_1_80910)">
<g clip-path="url(#clip1_1_80910)">
<g clip-path="url(#clip2_1_80910)">
<g opacity="0.25">
<path d="M20.9697 39C31.4631 39 39.9697 30.4934 39.9697 20C39.9697 9.50659 31.4631 1 20.9697 1C10.4763 1 1.96973 9.50659 1.96973 20C1.96973 30.4934 10.4763 39 20.9697 39Z" fill="black"/>
<path d="M20.9697 38.5C31.187 38.5 39.4697 30.2173 39.4697 20C39.4697 9.78273 31.187 1.5 20.9697 1.5C10.7525 1.5 2.46973 9.78273 2.46973 20C2.46973 30.2173 10.7525 38.5 20.9697 38.5Z" stroke="black"/>
<path d="M20.9697 0C17.0141 0 13.1473 1.17298 9.85833 3.37061C6.56935 5.56824 4.0059 8.69181 2.49214 12.3463C0.978392 16.0009 0.582326 20.0222 1.35403 23.9018C2.12573 27.7814 4.03055 31.3451 6.8276 34.1421C9.62465 36.9392 13.1883 38.844 17.0679 39.6157C20.9475 40.3874 24.9689 39.9913 28.6234 38.4776C32.2779 36.9638 35.4015 34.4004 37.5991 31.1114C39.7968 27.8224 40.9697 23.9556 40.9697 20C40.9697 14.6957 38.8626 9.60859 35.1119 5.85786C31.3611 2.10714 26.2741 0 20.9697 0ZM33.6977 32.728C30.3221 36.1037 25.7437 38.0001 20.9697 38.0001C16.1958 38.0001 11.6174 36.1037 8.24174 32.728C4.86606 29.3523 2.96963 24.7739 2.96963 20C2.96963 15.2261 4.86606 10.6477 8.24174 7.272C11.6174 3.89632 16.1958 1.99989 20.9697 1.99989C25.7437 1.99989 30.3221 3.89632 33.6977 7.272C37.0734 10.6477 38.9698 15.2261 38.9698 20C38.9698 24.7739 37.0734 29.3523 33.6977 32.728Z" fill="black"/>
<path d="M26.2748 24.3368H25.3628V10.2488C25.3626 10.195 25.3539 10.1417 25.3368 10.0908V10.0408L25.2818 9.91477C25.2226 9.74878 25.1261 9.59858 24.9998 9.47576C24.9091 9.38142 24.7982 9.3089 24.6754 9.26368C24.5526 9.21846 24.4212 9.20172 24.291 9.21473C24.1608 9.22773 24.0352 9.27013 23.9238 9.33873C23.8124 9.40734 23.718 9.50036 23.6478 9.61077L23.6198 9.64277L12.9078 24.7428C12.7285 24.9803 12.6453 25.2766 12.6748 25.5728C12.6964 25.8474 12.8219 26.1035 13.0258 26.2888C13.1057 26.3685 13.2012 26.4308 13.3063 26.4718C13.4115 26.5127 13.524 26.5314 13.6368 26.5268H23.4038V29.7458C23.3885 29.8833 23.4024 30.0225 23.4446 30.1543C23.4868 30.2861 23.5563 30.4075 23.6486 30.5106C23.7409 30.6137 23.8539 30.6962 23.9802 30.7526C24.1066 30.8091 24.2434 30.8383 24.3818 30.8383C24.5201 30.8383 24.657 30.8091 24.7833 30.7526C24.9096 30.6962 25.0226 30.6137 25.1149 30.5106C25.2072 30.4075 25.2767 30.2861 25.3189 30.1543C25.3611 30.0225 25.375 29.8833 25.3598 29.7458V26.5228H26.2718C26.5403 26.4923 26.7883 26.3641 26.9683 26.1625C27.1484 25.9609 27.2479 25.7001 27.2479 25.4298C27.2479 25.1595 27.1484 24.8987 26.9683 24.6971C26.7883 24.4955 26.5403 24.3672 26.2718 24.3368H26.2748ZM23.4068 24.3368H15.6798L23.4068 13.4938V24.3368Z" fill="white"/>
</g>
</g>
</g>
</g>
<defs>
<clipPath id="clip0_1_80910">
<rect width="40" height="40" fill="white" transform="translate(0.969727)"/>
</clipPath>
<clipPath id="clip1_1_80910">
<rect width="40" height="40" fill="white" transform="translate(0.969727)"/>
</clipPath>
<clipPath id="clip2_1_80910">
<rect width="40" height="40" fill="white" transform="translate(0.969727)"/>
</clipPath>
</defs>
</svg>
