<svg width="40" height="42" viewBox="0 0 40 42" fill="none" xmlns="http://www.w3.org/2000/svg">
<rect width="40" height="40" transform="translate(0 2)" fill="white"/>
<g clip-path="url(#clip0_1_80940)">
<g clip-path="url(#clip1_1_80940)">
<g clip-path="url(#clip2_1_80940)">
<path d="M20 0C16.0444 0 12.1776 1.17298 8.8886 3.37061C5.59962 5.56824 3.03617 8.69181 1.52242 12.3463C0.00866568 16.0009 -0.387401 20.0222 0.384303 23.9018C1.15601 27.7814 3.06082 31.3451 5.85787 34.1421C8.65492 36.9392 12.2186 38.844 16.0982 39.6157C19.9778 40.3874 23.9992 39.9913 27.6537 38.4776C31.3082 36.9638 34.4318 34.4004 36.6294 31.1114C38.827 27.8224 40 23.9556 40 20C40 14.6957 37.8929 9.60859 34.1421 5.85786C30.3914 2.10714 25.3043 0 20 0ZM22.936 11.065V29.185C22.9375 29.3207 22.9118 29.4553 22.8606 29.5809C22.8094 29.7065 22.7336 29.8207 22.6376 29.9166C22.5417 30.0125 22.4275 30.0884 22.3019 30.1396C22.1763 30.1908 22.0417 30.2165 21.906 30.215C21.634 30.2114 21.3741 30.1017 21.1817 29.9093C20.9893 29.7169 20.8796 29.457 20.876 29.185V12.727L18.621 14.048C18.464 14.1492 18.2827 14.2065 18.096 14.214C17.9139 14.2148 17.7347 14.1675 17.5767 14.0769C17.4187 13.9863 17.2873 13.8556 17.196 13.698C17.123 13.5716 17.0766 13.4317 17.0594 13.2868C17.0422 13.1419 17.0546 12.995 17.096 12.855C17.1352 12.7324 17.1983 12.6188 17.2817 12.5208C17.3652 12.4227 17.4672 12.3423 17.582 12.284L21.4 9.967C21.6394 9.84177 21.9174 9.81177 22.178 9.883C22.3102 9.91607 22.4344 9.97556 22.543 10.0579C22.6516 10.1402 22.7424 10.2436 22.81 10.362C22.9237 10.5776 22.9678 10.8233 22.936 11.065Z" fill="#008FA4"/>
</g>
</g>
</g>
<defs>
<clipPath id="clip0_1_80940">
<rect width="40" height="40" fill="white"/>
</clipPath>
<clipPath id="clip1_1_80940">
<rect width="40" height="40" fill="white"/>
</clipPath>
<clipPath id="clip2_1_80940">
<rect width="40" height="40" fill="white"/>
</clipPath>
</defs>
</svg>
