<svg width="41" height="42" viewBox="0 0 41 42" fill="none" xmlns="http://www.w3.org/2000/svg">
<rect width="40" height="40" transform="translate(0.629883 2)" fill="white"/>
<g clip-path="url(#clip0_1_80881)">
<g clip-path="url(#clip1_1_80881)">
<g clip-path="url(#clip2_1_80881)">
<g opacity="0.25">
<path d="M20.6299 39C31.1233 39 39.6299 30.4934 39.6299 20C39.6299 9.50659 31.1233 1 20.6299 1C10.1365 1 1.62988 9.50659 1.62988 20C1.62988 30.4934 10.1365 39 20.6299 39Z" fill="black"/>
<path d="M20.6299 38.5C30.8472 38.5 39.1299 30.2173 39.1299 20C39.1299 9.78273 30.8472 1.5 20.6299 1.5C10.4126 1.5 2.12988 9.78273 2.12988 20C2.12988 30.2173 10.4126 38.5 20.6299 38.5Z" stroke="black"/>
<path d="M20.6299 0C16.6743 0 12.8075 1.17298 9.51849 3.37061C6.2295 5.56824 3.66605 8.69181 2.1523 12.3463C0.638548 16.0009 0.242482 20.0222 1.01419 23.9018C1.78589 27.7814 3.69071 31.3451 6.48776 34.1421C9.28481 36.9392 12.8485 38.844 16.7281 39.6157C20.6077 40.3874 24.629 39.9913 28.2836 38.4776C31.9381 36.9638 35.0617 34.4004 37.2593 31.1114C39.4569 27.8224 40.6299 23.9556 40.6299 20C40.6299 14.6957 38.5228 9.60859 34.772 5.85786C31.0213 2.10714 25.9342 0 20.6299 0ZM33.3579 32.728C29.9822 36.1037 25.4038 38.0001 20.6299 38.0001C15.856 38.0001 11.2776 36.1037 7.90189 32.728C4.52622 29.3523 2.62978 24.7739 2.62978 20C2.62978 15.2261 4.52622 10.6477 7.90189 7.272C11.2776 3.89632 15.856 1.99989 20.6299 1.99989C25.4038 1.99989 29.9822 3.89632 33.3579 7.272C36.7336 10.6477 38.63 15.2261 38.63 20C38.63 24.7739 36.7336 29.3523 33.3579 32.728Z" fill="black"/>
</g>
<path d="M25.8917 11.7841C26.0357 11.7874 26.1789 11.7614 26.3127 11.7078C26.4464 11.6542 26.5679 11.574 26.6697 11.4722C26.7716 11.3703 26.8518 11.2488 26.9054 11.1151C26.959 10.9814 26.985 10.8382 26.9817 10.6941C26.9833 10.5505 26.9562 10.4081 26.902 10.2751C26.8478 10.1421 26.7676 10.0213 26.666 9.91979C26.5645 9.81826 26.4437 9.73802 26.3107 9.68382C26.1777 9.62961 26.0353 9.60251 25.8917 9.60412H16.4197C16.1648 9.6003 15.9175 9.69116 15.7257 9.85912C15.5975 9.94596 15.4921 10.0623 15.4183 10.1984C15.3445 10.3345 15.3045 10.4863 15.3017 10.6411L14.3157 18.8151V18.8411V18.8531C14.3 18.902 14.2916 18.9528 14.2907 19.0041C14.286 19.1085 14.2971 19.213 14.3237 19.3141C14.3288 19.3557 14.3396 19.3964 14.3557 19.4351L14.3667 19.4681C14.4181 19.6236 14.515 19.7602 14.6447 19.8601C14.8321 20.0513 15.0871 20.1611 15.3547 20.1661C15.5031 20.1693 15.6505 20.1421 15.788 20.0864C15.9256 20.0307 16.0503 19.9476 16.1547 19.8421C17.1074 18.8921 18.3963 18.3561 19.7417 18.3507C21.0872 18.3453 22.3804 18.8708 23.3407 19.8131C24.0444 20.5279 24.5218 21.4343 24.713 22.419C24.9042 23.4037 24.8008 24.4229 24.4157 25.3491C24.0306 26.2753 23.3809 27.0674 22.548 27.6263C21.715 28.1851 20.7358 28.486 19.7327 28.4911C18.3945 28.4906 17.1099 27.9653 16.1547 27.0281C15.9494 26.8217 15.6707 26.7051 15.3796 26.7038C15.0885 26.7024 14.8088 26.8166 14.6017 27.0211C14.4997 27.1145 14.4178 27.2276 14.3609 27.3536C14.304 27.4796 14.2733 27.6159 14.2707 27.7541C14.268 27.9024 14.2953 28.0497 14.351 28.1872C14.4066 28.3247 14.4895 28.4495 14.5947 28.5541C15.269 29.2282 16.0703 29.7619 16.9522 30.1243C17.8342 30.4866 18.7792 30.6705 19.7327 30.6651C21.653 30.6541 23.494 29.8979 24.8677 28.5561C25.5426 27.8816 26.0769 27.0799 26.4398 26.1974C26.8027 25.315 26.9869 24.3693 26.9817 23.4151C26.9871 22.4641 26.8043 21.5214 26.4437 20.6414C26.0831 19.7613 25.552 18.9613 24.8808 18.2875C24.2097 17.6137 23.4119 17.0793 22.5333 16.7152C21.6547 16.3511 20.7127 16.1645 19.7617 16.1661C18.7213 16.1657 17.6931 16.3891 16.7467 16.8211L17.3527 11.7791L25.8917 11.7841Z" fill="white"/>
</g>
</g>
</g>
<defs>
<clipPath id="clip0_1_80881">
<rect width="40" height="40" fill="white" transform="translate(0.629883)"/>
</clipPath>
<clipPath id="clip1_1_80881">
<rect width="40" height="40" fill="white" transform="translate(0.629883)"/>
</clipPath>
<clipPath id="clip2_1_80881">
<rect width="40" height="40" fill="white" transform="translate(0.629883)"/>
</clipPath>
</defs>
</svg>
