<svg width="41" height="42" viewBox="0 0 41 42" fill="none" xmlns="http://www.w3.org/2000/svg">
<rect width="40" height="40" transform="translate(0.280273 2)" fill="white"/>
<g clip-path="url(#clip0_1_80895)">
<g clip-path="url(#clip1_1_80895)">
<g clip-path="url(#clip2_1_80895)">
<g opacity="0.25">
<path d="M20.2803 39C30.7737 39 39.2803 30.4934 39.2803 20C39.2803 9.50659 30.7737 1 20.2803 1C9.78686 1 1.28027 9.50659 1.28027 20C1.28027 30.4934 9.78686 39 20.2803 39Z" fill="black"/>
<path d="M20.2803 38.5C30.4975 38.5 38.7803 30.2173 38.7803 20C38.7803 9.78273 30.4975 1.5 20.2803 1.5C10.063 1.5 1.78027 9.78273 1.78027 20C1.78027 30.2173 10.063 38.5 20.2803 38.5Z" stroke="black"/>
<path d="M20.2803 0C16.3247 0 12.4579 1.17298 9.16888 3.37061C5.87989 5.56824 3.31644 8.69181 1.80269 12.3463C0.288939 16.0009 -0.107128 20.0222 0.664577 23.9018C1.43628 27.7814 3.3411 31.3451 6.13815 34.1421C8.9352 36.9392 12.4989 38.844 16.3785 39.6157C20.2581 40.3874 24.2794 39.9913 27.934 38.4776C31.5885 36.9638 34.712 34.4004 36.9097 31.1114C39.1073 27.8224 40.2803 23.9556 40.2803 20C40.2803 14.6957 38.1731 9.60859 34.4224 5.85786C30.6717 2.10714 25.5846 0 20.2803 0ZM33.0083 32.728C29.6326 36.1037 25.0542 38.0001 20.2803 38.0001C15.5064 38.0001 10.928 36.1037 7.55228 32.728C4.17661 29.3523 2.28017 24.7739 2.28017 20C2.28017 15.2261 4.17661 10.6477 7.55228 7.272C10.928 3.89632 15.5064 1.99989 20.2803 1.99989C25.0542 1.99989 29.6326 3.89632 33.0083 7.272C36.384 10.6477 38.2804 15.2261 38.2804 20C38.2804 24.7739 36.384 29.3523 33.0083 32.728Z" fill="black"/>
</g>
<path d="M20.2943 16.5739C18.6937 16.5773 17.1419 17.1254 15.8943 18.1279C16.1484 17.1572 16.5272 16.2234 17.0213 15.3499C17.56 14.3068 18.3705 13.4285 19.3671 12.8078C20.3637 12.1872 21.5094 11.8472 22.6833 11.8239C22.9649 11.8007 23.2276 11.6726 23.4194 11.4651C23.6112 11.2575 23.7182 10.9856 23.7193 10.7029V10.6749C23.7035 10.3949 23.5781 10.1323 23.3702 9.94403C23.1622 9.75576 22.8885 9.65694 22.6083 9.66895C21.0709 9.70918 19.5719 10.1576 18.265 10.9682C16.9581 11.7789 15.8904 12.9225 15.1713 14.2819C13.8101 16.8292 13.112 19.678 13.1413 22.566C13.1311 23.0234 13.1508 23.4811 13.2003 23.9359C13.2488 25.3318 13.7071 26.6824 14.5182 27.8195C15.3292 28.9565 16.4571 29.8297 17.7611 30.33C19.0651 30.8302 20.4875 30.9356 21.851 30.6328C23.2144 30.33 24.4586 29.6326 25.4283 28.6274C26.3979 27.6222 27.0502 26.3538 27.3038 24.9803C27.5574 23.6068 27.401 22.1891 26.8541 20.9039C26.3073 19.6188 25.3942 18.523 24.2287 17.7534C23.0632 16.9837 21.6969 16.5742 20.3003 16.5759L20.2943 16.5739ZM20.2943 28.611C19.1105 28.6077 17.9666 28.1822 17.0684 27.4111C16.1703 26.6399 15.5766 25.5736 15.3943 24.4039C15.4109 24.3258 15.418 24.2458 15.4153 24.1659V24.121L15.4063 24.0779C15.3782 23.9834 15.3624 23.8856 15.3593 23.7869V23.6709C15.3536 22.6857 15.6408 21.721 16.1846 20.8995C16.7284 20.0779 17.5042 19.4365 18.4133 19.0568C19.3224 18.6771 20.3239 18.5763 21.2905 18.7671C22.2571 18.9579 23.1451 19.4318 23.8418 20.1284C24.5385 20.8251 25.0123 21.7131 25.2031 22.6797C25.3939 23.6463 25.2931 24.6478 24.9134 25.5569C24.5337 26.4661 23.8924 27.2418 23.0708 27.7856C22.2492 28.3294 21.2845 28.6167 20.2993 28.611H20.2943Z" fill="white"/>
</g>
</g>
</g>
<defs>
<clipPath id="clip0_1_80895">
<rect width="40" height="40" fill="white" transform="translate(0.280273)"/>
</clipPath>
<clipPath id="clip1_1_80895">
<rect width="40" height="40" fill="white" transform="translate(0.280273)"/>
</clipPath>
<clipPath id="clip2_1_80895">
<rect width="40" height="40" fill="white" transform="translate(0.280273)"/>
</clipPath>
</defs>
</svg>
