<svg width="41" height="42" viewBox="0 0 41 42" fill="none" xmlns="http://www.w3.org/2000/svg">
<rect width="40" height="40" transform="translate(0.660156 2)" fill="white"/>
<g clip-path="url(#clip0_1_80932)">
<g clip-path="url(#clip1_1_80932)">
<g clip-path="url(#clip2_1_80932)">
<path opacity="0.25" d="M20.6602 0C16.7045 0 12.8377 1.17298 9.54876 3.37061C6.25978 5.56824 3.69633 8.69181 2.18257 12.3463C0.668822 16.0009 0.272755 20.0222 1.04446 23.9018C1.81616 27.7814 3.72098 31.3451 6.51803 34.1421C9.31508 36.9392 12.8787 38.844 16.7584 39.6157C20.638 40.3874 24.6593 39.9913 28.3138 38.4776C31.9684 36.9638 35.0919 34.4004 37.2896 31.1114C39.4872 27.8224 40.6602 23.9556 40.6602 20C40.6602 14.6957 38.553 9.60859 34.8023 5.85786C31.0516 2.10714 25.9645 0 20.6602 0ZM26.2292 28.127C26.5062 28.127 26.7719 28.237 26.9677 28.4329C27.1636 28.6288 27.2737 28.8945 27.2737 29.1715C27.2737 29.4485 27.1636 29.7142 26.9677 29.9101C26.7719 30.106 26.5062 30.216 26.2292 30.216H15.1092C14.9622 30.2239 14.8153 30.1983 14.6797 30.1411C14.5441 30.0839 14.4232 29.9967 14.3262 29.886C14.1458 29.6773 14.0511 29.408 14.0612 29.1324C14.0712 28.8567 14.1851 28.5951 14.3802 28.4L14.3932 28.388L23.6222 20.062C24.116 19.6178 24.5115 19.0751 24.7831 18.4689C25.0547 17.8626 25.1964 17.2063 25.1992 16.542C25.1884 15.2941 24.686 14.1009 23.8011 13.221C22.9162 12.3411 21.7201 11.8456 20.4722 11.842C19.2894 11.8333 18.1457 12.2645 17.2632 13.052L16.3122 13.918C16.2105 14.0179 16.0892 14.0956 15.956 14.1462C15.8228 14.1968 15.6805 14.2192 15.5382 14.212C15.4056 14.2053 15.2757 14.1715 15.1567 14.1127C15.0377 14.0539 14.932 13.9713 14.8462 13.87C14.748 13.7683 14.6719 13.6474 14.6227 13.5149C14.5734 13.3824 14.5522 13.2411 14.5602 13.1C14.5668 12.9668 14.6009 12.8364 14.6603 12.717C14.7196 12.5976 14.803 12.4917 14.9052 12.406L15.8552 11.511C17.1263 10.3785 18.7688 9.75193 20.4712 9.75C22.268 9.76361 23.9874 10.4837 25.2577 11.7546C26.5281 13.0254 27.2473 14.7451 27.2602 16.542C27.2631 17.4944 27.0659 18.4368 26.6814 19.3081C26.2969 20.1794 25.7337 20.9602 25.0282 21.6L17.8042 28.128L26.2292 28.127Z" fill="black"/>
</g>
</g>
</g>
<defs>
<clipPath id="clip0_1_80932">
<rect width="40" height="40" fill="white" transform="translate(0.660156)"/>
</clipPath>
<clipPath id="clip1_1_80932">
<rect width="40" height="40" fill="white" transform="translate(0.660156)"/>
</clipPath>
<clipPath id="clip2_1_80932">
<rect width="40" height="40" fill="white" transform="translate(0.660156)"/>
</clipPath>
</defs>
</svg>
