<svg width="39" height="38" viewBox="0 0 39 38" fill="none" xmlns="http://www.w3.org/2000/svg">
<g clip-path="url(#clip0_1_48393)">
<g clip-path="url(#clip1_1_48393)">
<g clip-path="url(#clip2_1_48393)">
<path d="M19.2801 8.34752e-05C14.2427 0.00564193 9.41337 2.00921 5.85138 5.57119C2.28939 9.13318 0.285648 13.9627 0.28009 19.0001C0.273775 21.4955 0.762369 23.9675 1.71759 26.2729C2.67281 28.5783 4.07588 30.6714 5.84528 32.4311C7.60552 34.2009 9.69908 35.604 12.0052 36.5592C14.3113 37.5144 16.784 38.0028 19.2801 37.9961C21.7762 38.0029 24.2491 37.5146 26.5552 36.5594C28.8614 35.6041 30.955 34.201 32.7151 32.4311C34.485 30.6709 35.8883 28.5772 36.8436 26.271C37.7988 23.9649 38.2869 21.4922 38.2801 18.9961C38.2869 16.5 37.7988 14.0273 36.8436 11.7211C35.8883 9.41501 34.485 7.32126 32.7151 5.56108C30.9547 3.79189 28.8609 2.38942 26.5547 1.43488C24.2486 0.480333 21.7759 -0.00733922 19.2801 8.34752e-05ZM19.2801 37.3421C16.8704 37.3487 14.4834 36.8773 12.2571 35.9552C10.0308 35.0331 8.00945 33.6786 6.31012 31.9701C4.60158 30.2708 3.24712 28.2495 2.32501 26.0232C1.40291 23.7969 0.931651 21.4098 0.938293 19.0001C0.931183 16.5909 1.40183 14.2042 2.32306 11.9781C3.24429 9.75204 4.59777 7.73071 6.30524 6.03108C8.00454 4.32255 10.0257 2.96803 12.252 2.04592C14.4783 1.12382 16.8655 0.652442 19.2752 0.659084C21.6849 0.652497 24.0719 1.12389 26.2982 2.046C28.5245 2.9681 30.5458 4.32259 32.2452 6.03108C33.9538 7.73033 35.3085 9.7516 36.2308 11.9779C37.153 14.2042 37.6247 16.5913 37.6182 19.0011C37.6124 23.8633 35.6785 28.5247 32.2405 31.963C28.8026 35.4013 24.1423 37.3357 19.2801 37.3421Z" fill="black"/>
<path d="M19.3771 11.9745L19.363 11.9385L19.3491 11.9745H19.3771Z" fill="black"/>
<path d="M19.2742 1.41309C14.61 1.41335 10.1369 3.26637 6.83887 6.56454C3.54088 9.86272 1.68799 14.3359 1.68799 19.0001C1.68799 23.6643 3.54088 28.1374 6.83887 31.4356C10.1369 34.7338 14.61 36.5868 19.2742 36.5871C23.9385 36.5871 28.4118 34.7342 31.71 31.436C35.0082 28.1378 36.8611 23.6645 36.8611 19.0001C36.8611 14.3357 35.0082 9.8624 31.71 6.56419C28.4118 3.26599 23.9385 1.41309 19.2742 1.41309ZM16.7051 2.37309H18.0972L19.3572 5.67308L20.6172 2.37309H22.009V7.00009H21.082V3.77008L19.863 7.00209H18.8501L17.6311 3.77008V7.00009H16.7041L16.7051 2.37309ZM5.03101 9.98808L7.29004 7.29608C7.75704 6.73908 8.41098 6.29608 9.03198 6.81508C9.25198 6.98185 9.42618 7.20172 9.53809 7.45409C9.61596 7.6782 9.61374 7.92236 9.53198 8.14508C9.7576 7.99255 10.0291 7.92277 10.3003 7.94756C10.5715 7.97234 10.8258 8.09018 11.02 8.28108C11.593 8.83708 11.5081 9.48109 10.9641 10.1291L8.58203 12.9681L5.03101 9.98808ZM19.2751 30.2331C16.2959 30.2328 13.4386 29.0491 11.332 26.9424C9.22546 24.8356 8.04199 21.9784 8.04199 18.9991C8.04199 16.0198 9.22546 13.1626 11.332 11.0558C13.4386 8.94905 16.2959 7.76536 19.2751 7.76509C22.2546 7.76509 25.112 8.94867 27.2188 11.0555C29.3255 13.1622 30.509 16.0196 30.509 18.9991C30.509 20.4744 30.2184 21.9353 29.6538 23.2984C29.0892 24.6614 28.2615 25.8999 27.2183 26.9431C26.175 27.9863 24.9366 28.8137 23.5735 29.3782C22.2104 29.9427 20.7505 30.2332 19.2751 30.2331ZM33.2852 10.1141L34.002 10.9981L29.7441 13.0621L28.9031 12.0161L30.5781 9.56709L30.5681 9.55508L27.824 10.6841L26.9751 9.64409L29.875 5.90909L30.5911 6.79309L28.772 9.17209L31.552 7.97908L32.3201 8.92809L30.575 11.3981L33.2852 10.1141Z" fill="black"/>
<path d="M19.28 8.48926C16.4923 8.48926 13.8189 9.59668 11.8477 11.5679C9.87646 13.5391 8.76904 16.2126 8.76904 19.0002H19.28V29.5112C22.0676 29.511 24.741 28.4035 26.7122 26.4324C28.6833 24.4612 29.7908 21.7879 29.791 19.0002H19.28V8.48926Z" fill="black"/>
<path d="M10.175 9.84936C10.2211 9.78979 10.2549 9.72159 10.2742 9.6488C10.2934 9.57601 10.2979 9.50004 10.2874 9.42547C10.2768 9.35091 10.2516 9.27926 10.2129 9.21466C10.1742 9.15005 10.1228 9.0938 10.062 9.04931C9.95285 8.95906 9.81376 8.91352 9.67236 8.92187C9.53097 8.93022 9.39783 8.99188 9.30005 9.09436L7.87402 10.7943L8.76123 11.5383L10.175 9.84936Z" fill="black"/>
<path d="M8.52905 7.97731C8.42883 7.88415 8.29771 7.83139 8.16089 7.82917C8.02407 7.82696 7.89128 7.87542 7.78809 7.96528L6.43213 9.58229L7.271 10.2823L8.61206 8.68232C8.65488 8.63143 8.68697 8.57227 8.70605 8.50856C8.72514 8.44484 8.73092 8.3779 8.72314 8.31184C8.71537 8.24579 8.69401 8.182 8.66064 8.12446C8.62728 8.06692 8.58252 8.01687 8.52905 7.97731Z" fill="black"/>
</g>
</g>
</g>
<defs>
<clipPath id="clip0_1_48393">
<rect width="38" height="38" fill="white" transform="translate(0.280029)"/>
</clipPath>
<clipPath id="clip1_1_48393">
<rect width="38" height="38" fill="white" transform="translate(0.280029)"/>
</clipPath>
<clipPath id="clip2_1_48393">
<rect width="38" height="38" fill="white" transform="translate(0.280029)"/>
</clipPath>
</defs>
</svg>
