<svg width="350" height="54" viewBox="0 0 350 54" fill="none" xmlns="http://www.w3.org/2000/svg">
<path d="M349.989 0.822754H141.517V53.4206H349.989V0.822754Z" fill="#008FA4"/>
<path d="M168.637 39.732H154.863V14.5288H168.637V16.1495H156.62V25.6828H167.963V27.3035H156.62V38.1113H168.637V39.732Z" fill="white"/>
<path d="M177.661 39.731L170.421 20.993H172.174L177.019 33.7327C177.583 35.1283 178.066 36.5551 178.466 38.0062H178.57C179.041 36.4429 179.523 35.0063 180.018 33.6965L184.862 20.9854H186.616L179.376 39.7233L177.661 39.731Z" fill="white"/>
<path d="M196.976 40.0769C195.795 40.1431 194.614 39.952 193.514 39.5168C192.414 39.0817 191.421 38.4129 190.605 37.5566C188.982 35.5814 188.166 33.0648 188.323 30.5129C188.193 27.9345 188.974 25.3925 190.53 23.3322C191.242 22.4506 192.151 21.7475 193.184 21.279C194.216 20.8104 195.344 20.5893 196.476 20.6333C197.466 20.5894 198.453 20.7752 199.359 21.1761C200.265 21.577 201.067 22.1822 201.7 22.9443C203.059 24.7439 203.738 26.9668 203.614 29.2188V30.5973H190.115C189.992 32.7147 190.63 34.8065 191.916 36.4937C192.555 37.1877 193.341 37.7304 194.216 38.0823C195.092 38.4341 196.034 38.5862 196.976 38.5275C197.92 38.5392 198.864 38.4658 199.794 38.3083C200.848 38.0841 201.878 37.7609 202.871 37.3429V38.8946C201.933 39.3161 200.95 39.6311 199.941 39.8337C198.963 40.0062 197.97 40.0876 196.976 40.0769ZM196.477 22.1498C195.668 22.1167 194.86 22.2595 194.111 22.5682C193.361 22.8769 192.688 23.3443 192.136 23.9382C190.94 25.3925 190.266 27.2058 190.222 29.0884H201.805C201.912 27.2803 201.414 25.4882 200.391 23.994C199.937 23.3928 199.343 22.9108 198.662 22.5894C197.981 22.268 197.231 22.1168 196.479 22.1487L196.477 22.1498Z" fill="white"/>
<path d="M215.813 20.6311C216.669 20.6369 217.523 20.7175 218.365 20.8721L218.036 22.5104C217.241 22.3132 216.425 22.215 215.605 22.2178C214.834 22.2101 214.072 22.3915 213.387 22.746C212.702 23.1006 212.114 23.6174 211.675 24.2516C210.608 25.7465 210.068 27.5535 210.141 29.3886V39.7318H208.435V20.9938H209.882L210.055 24.3732H210.177C210.751 23.2191 211.597 22.2221 212.642 21.4683C213.596 20.8881 214.697 20.5972 215.813 20.6311Z" fill="white"/>
<path d="M221.739 20.9941H223.492L227.457 31.5137C228.663 34.7441 229.427 36.9218 229.75 38.0468H229.854C230.336 36.5638 231.124 34.3514 232.216 31.4096L236.179 20.9996H237.932L229.537 42.774C229.111 44.0317 228.538 45.235 227.831 46.3595C227.412 46.9456 226.86 47.4241 226.219 47.7555C225.522 48.083 224.757 48.2422 223.987 48.2201C223.243 48.2058 222.505 48.0837 221.796 47.8574V46.3748C222.498 46.5637 223.223 46.6566 223.951 46.6509C224.497 46.6619 225.035 46.5183 225.503 46.2367C226.002 45.9082 226.418 45.4686 226.719 44.9525C227.22 44.0724 227.641 43.1494 227.978 42.1944C228.455 40.9349 228.762 40.1164 228.9 39.7387L221.739 20.9941Z" fill="white"/>
<path d="M258.775 39.7319L254.673 27.1982C254.407 26.3472 254.068 25.1005 253.655 23.4583H253.545L253.182 24.7327L252.405 27.2311L248.234 39.7297H246.545L241.185 20.9917H243.012L246.012 31.8521C246.712 34.5411 247.172 36.5176 247.391 37.7814H247.495C248.174 35.0923 248.668 33.3054 248.978 32.4208L252.84 20.9917H254.392L258.064 32.3879C258.892 35.0909 259.397 36.8777 259.581 37.7485H259.685C259.778 37.0012 260.237 35.001 261.064 31.748L263.927 20.9917H265.65L260.565 39.7297H258.773L258.775 39.7319Z" fill="white"/>
<path d="M282.624 39.7341V27.5785C282.754 26.1079 282.33 24.6419 281.436 23.4671C280.946 23.0062 280.364 22.6537 279.728 22.4324C279.092 22.2111 278.417 22.1261 277.747 22.1828C276.853 22.1043 275.953 22.215 275.105 22.5077C274.257 22.8003 273.48 23.2684 272.825 23.8813C271.786 25.0129 271.266 26.8487 271.266 29.3887V39.7341H269.56V12.9092H271.266V21.4432L271.18 23.8397H271.301C271.928 22.7816 272.852 21.9305 273.957 21.3917C275.212 20.8484 276.572 20.5891 277.938 20.6323C282.191 20.6323 284.317 22.9134 284.317 27.4755V39.7341H282.624Z" fill="white"/>
<path d="M297.599 40.0769C296.418 40.1431 295.237 39.952 294.137 39.5168C293.037 39.0817 292.044 38.4129 291.228 37.5566C289.604 35.5817 288.788 33.0651 288.944 30.5129C288.813 27.9346 289.594 25.3925 291.149 23.3322C291.862 22.4506 292.771 21.7476 293.804 21.2791C294.836 20.8105 295.963 20.5894 297.096 20.6332C298.086 20.5894 299.073 20.7753 299.979 21.1762C300.885 21.5771 301.686 22.1823 302.319 22.9443C303.678 24.7439 304.356 26.9668 304.233 29.2187V30.5972H290.734C290.61 32.7148 291.248 34.8068 292.534 36.4937C293.174 37.1876 293.96 37.7303 294.835 38.0821C295.71 38.434 296.653 38.5861 297.595 38.5275C298.539 38.5391 299.482 38.4658 300.413 38.3083C301.467 38.0841 302.497 37.7609 303.49 37.3429V38.8946C302.552 39.3161 301.569 39.6311 300.56 39.8336C299.583 40.0059 298.592 40.0874 297.599 40.0769ZM297.098 22.1498C296.288 22.1159 295.481 22.2579 294.731 22.5661C293.981 22.8742 293.307 23.3412 292.755 23.9348C291.559 25.3892 290.885 27.2026 290.84 29.085H302.425C302.532 27.277 302.034 25.4849 301.01 23.9907C300.556 23.3901 299.963 22.9088 299.282 22.5879C298.601 22.2671 297.852 22.1164 297.1 22.1487L297.098 22.1498Z" fill="white"/>
<path d="M316.428 20.6311C317.284 20.6369 318.138 20.7175 318.98 20.8721L318.652 22.5103C317.857 22.3133 317.04 22.215 316.221 22.2178C315.45 22.21 314.688 22.3914 314.003 22.7459C313.318 23.1004 312.73 23.6174 312.291 24.2515C311.224 25.7464 310.684 27.5535 310.756 29.3886V39.7318H309.05V20.9938H310.498L310.671 24.3732H310.793C311.367 23.2192 312.213 22.2222 313.258 21.4682C314.212 20.8881 315.313 20.5973 316.428 20.6311Z" fill="white"/>
<path d="M330.013 40.077C328.832 40.1429 327.651 39.9518 326.551 39.5166C325.451 39.0815 324.459 38.4128 323.643 37.5566C322.018 35.582 321.202 33.0653 321.357 30.5129C321.227 27.9345 322.008 25.3924 323.564 23.3322C324.277 22.4506 325.186 21.7476 326.218 21.279C327.25 20.8105 328.378 20.5894 329.511 20.6333C330.501 20.5893 331.488 20.7751 332.394 21.176C333.3 21.5769 334.101 22.1821 334.735 22.9443C336.094 24.7439 336.772 26.9668 336.649 29.2188V30.5973H323.15C323.026 32.7148 323.665 34.8065 324.95 36.4937C325.589 37.1877 326.375 37.7304 327.251 38.0822C328.126 38.434 329.069 38.5862 330.011 38.5275C330.955 38.5392 331.898 38.4659 332.829 38.3083C333.883 38.0842 334.913 37.761 335.906 37.343V38.8946C334.967 39.3162 333.985 39.6312 332.976 39.8337C331.998 40.0061 331.006 40.0875 330.013 40.077ZM329.513 22.1498C328.703 22.1159 327.895 22.2578 327.145 22.566C326.395 22.8741 325.721 23.3412 325.168 23.9349C323.972 25.3891 323.298 27.2025 323.254 29.0851H334.839C334.945 27.2771 334.448 25.4849 333.424 23.9908C332.97 23.3904 332.376 22.9092 331.695 22.5884C331.014 22.2675 330.265 22.1178 329.513 22.1498Z" fill="white"/>
<path d="M12.1131 15.7528C10.7225 15.6823 9.33347 15.9175 8.04363 16.4417C6.75379 16.9659 5.59453 17.7665 4.64745 18.7871C2.72695 21.1156 1.75603 24.0831 1.9288 27.0964C1.9288 30.6936 2.78534 33.486 4.49842 35.4737C5.42078 36.489 6.5593 37.2841 7.83 37.8005C9.1007 38.317 10.4711 38.5415 11.8402 38.4576C13.812 38.4775 15.7759 38.2046 17.6676 37.6478V39.1994C15.649 39.8374 13.5379 40.1337 11.4216 40.0761C9.86123 40.1547 8.30273 39.8879 6.85731 39.2949C5.41188 38.7018 4.11516 37.797 3.05965 36.6451C1.0266 34.3586 0.010437 31.1647 0.0111676 27.0636C-0.0383454 24.7224 0.460764 22.4021 1.46857 20.2883C2.38128 18.3955 3.83899 16.8187 5.65448 15.7605C7.59124 14.6676 9.78675 14.1168 12.0101 14.1661C14.2861 14.1267 16.5421 14.5978 18.6122 15.5446L17.9065 17.1313C16.1106 16.2227 14.1257 15.7504 12.1131 15.7528Z" fill="white"/>
<path d="M38.002 30.3369C38.1571 32.9157 37.3662 35.4626 35.7775 37.5C35.0136 38.3625 34.0654 39.042 33.0031 39.4881C31.9408 39.9343 30.7918 40.1357 29.6411 40.0773C28.1085 40.108 26.5998 39.6951 25.2963 38.8884C24.0163 38.0646 23.0131 36.8755 22.4166 35.475C21.7218 33.8532 21.3808 32.1019 21.4161 30.3379C21.2588 27.7642 22.0502 25.222 23.6406 23.1923C24.4013 22.3376 25.3438 21.6642 26.3989 21.2214C27.4539 20.7786 28.5947 20.5778 29.7376 20.6336C30.8782 20.5774 32.0167 20.7819 33.0665 21.2315C34.1163 21.6811 35.0498 22.3641 35.7962 23.2285C37.3636 25.2549 38.1468 27.7791 38.002 30.3369ZM23.2088 30.3369C23.0808 32.4797 23.6792 34.6031 24.9073 36.3637C25.5088 37.0438 26.248 37.5884 27.0757 37.9613C27.9035 38.3343 28.8011 38.5272 29.7091 38.5272C30.617 38.5272 31.5146 38.3343 32.3424 37.9613C33.1702 37.5884 33.9093 37.0438 34.5108 36.3637C35.7394 34.6033 36.3378 32.4797 36.2093 30.3369C36.3423 28.1943 35.7366 26.0709 34.4933 24.321C33.9142 23.6108 33.1758 23.0472 32.3381 22.6757C31.5004 22.3043 30.5869 22.1355 29.6718 22.1831C28.7627 22.133 27.8548 22.2999 27.023 22.6699C26.1911 23.0399 25.4592 23.6025 24.8876 24.3111C23.6638 26.0726 23.0721 28.1963 23.2088 30.3369Z" fill="white"/>
<path d="M55.8973 39.7318V27.5784C56.0268 26.1077 55.6029 24.6416 54.7083 23.467C54.2176 23.0065 53.6356 22.6541 53 22.4329C52.3644 22.2117 51.6894 22.1264 51.0188 22.1827C50.1252 22.1042 49.2251 22.2149 48.3772 22.5076C47.5293 22.8002 46.7525 23.2683 46.0976 23.8812C45.0581 25.0128 44.5383 26.8486 44.5383 29.3887V39.7318H42.8354V20.9938H44.2819L44.6106 23.5634H44.7147C45.9325 21.61 48.0985 20.6333 51.2128 20.6333C55.4652 20.6333 57.5913 22.9144 57.5913 27.4765V39.734L55.8973 39.7318Z" fill="white"/>
<path d="M76.3722 39.7318V27.5784C76.5018 26.1077 76.0778 24.6416 75.1833 23.467C74.6926 23.0065 74.1106 22.6541 73.475 22.4329C72.8394 22.2117 72.1644 22.1264 71.4938 22.1827C70.6002 22.1042 69.7001 22.2149 68.8522 22.5076C68.0043 22.8002 67.2275 23.2683 66.5726 23.8812C65.5331 25.0128 65.0133 26.8486 65.0133 29.3887V39.7318H63.3071V20.9938H64.7547L65.0834 23.5634H65.1875C66.4053 21.61 68.5713 20.6333 71.6855 20.6333C75.9379 20.6333 78.0641 22.9144 78.0641 27.4765V39.734L76.3722 39.7318Z" fill="white"/>
<path d="M91.3452 40.077C90.1642 40.143 88.9828 39.9519 87.8829 39.5168C86.7829 39.0816 85.7905 38.4128 84.9743 37.5566C83.351 35.5814 82.5355 33.0649 82.6918 30.5129C82.5617 27.9345 83.3429 25.3925 84.8987 23.3322C85.6115 22.4506 86.5203 21.7476 87.5527 21.279C88.5851 20.8105 89.7126 20.5894 90.8455 20.6333C91.8355 20.5893 92.8222 20.7751 93.7285 21.176C94.6347 21.5769 95.4358 22.1821 96.0692 22.9443C97.4287 24.7439 98.1069 26.9668 97.9835 29.2188V30.5973H84.4845C84.3608 32.7148 84.9995 34.8065 86.2849 36.4937C86.924 37.1877 87.7099 37.7304 88.5853 38.0822C89.4607 38.434 90.4036 38.5862 91.3452 38.5275C92.2894 38.5392 93.2326 38.4658 94.1636 38.3083C95.2174 38.0842 96.2476 37.7609 97.2406 37.343V38.8946C96.302 39.3161 95.3192 39.6311 94.3104 39.8337C93.3317 40.0062 92.339 40.0876 91.3452 40.077ZM90.8455 22.1477C90.0354 22.1137 89.2275 22.2556 88.4774 22.5638C87.7274 22.872 87.053 23.339 86.5007 23.9327C85.3045 25.387 84.6305 27.2004 84.5864 29.0829H96.1711C96.2778 27.275 95.7806 25.483 94.7575 23.9886C94.3032 23.3879 93.7098 22.9065 93.0284 22.5857C92.3471 22.2648 91.598 22.1152 90.8455 22.1477Z" fill="white"/>
<path d="M110.284 40.0771C109.113 40.1395 107.944 39.945 106.857 39.5071C105.77 39.0693 104.792 38.3987 103.992 37.5425C102.373 35.5553 101.561 33.0319 101.717 30.4736C101.555 27.8449 102.4 25.2532 104.078 23.2239C104.904 22.3489 105.909 21.6637 107.026 21.2157C108.142 20.7677 109.342 20.5675 110.543 20.629C112.134 20.6237 113.711 20.9101 115.198 21.4739L114.734 22.9905C113.377 22.4996 111.952 22.2263 110.51 22.1807C109.535 22.1141 108.558 22.2712 107.653 22.64C106.748 23.0088 105.939 23.5796 105.288 24.3087C103.994 26.0797 103.365 28.2501 103.513 30.4385C103.388 32.5654 104.016 34.6683 105.288 36.3777C105.894 37.094 106.657 37.6604 107.518 38.0326C108.379 38.4048 109.315 38.5727 110.252 38.5233C111.877 38.5382 113.489 38.2275 114.992 37.6094V39.1961C113.509 39.8412 111.9 40.1423 110.284 40.0771Z" fill="white"/>
<path d="M125.347 38.5604C126.296 38.5738 127.244 38.4812 128.173 38.2843V39.6628C127.247 39.9537 126.281 40.0936 125.312 40.077C124.641 40.1335 123.966 40.044 123.334 39.8147C122.701 39.5855 122.126 39.2218 121.647 38.7489C120.761 37.5472 120.342 36.065 120.466 34.5772V22.4731H117.691V21.4727L120.467 20.6958L121.328 16.4551H122.205V20.9895H127.705V22.4731H122.206V34.3362C122.123 35.452 122.388 36.5662 122.965 37.5249C123.247 37.8797 123.611 38.1598 124.027 38.3404C124.442 38.521 124.895 38.5966 125.347 38.5604Z" fill="white"/>
</svg>
