<svg width="40" height="27" viewBox="0 0 40 27" fill="none" xmlns="http://www.w3.org/2000/svg">
<g opacity="0.01">
<path opacity="0.75" d="M20.7401 19.7L39.6881 1.72196C39.7855 1.63094 39.8632 1.52085 39.9163 1.39854C39.9694 1.27623 39.9968 1.14431 39.9968 1.01096C39.9968 0.87762 39.9694 0.745699 39.9163 0.62339C39.8632 0.501081 39.7855 0.390995 39.6881 0.299965C39.4844 0.110173 39.2164 0.00463867 38.9381 0.00463867C38.6597 0.00463867 38.3917 0.110173 38.1881 0.299965L19.9881 17.57L1.81406 0.316965C1.61043 0.127173 1.34242 0.0216387 1.06406 0.0216387C0.785698 0.0216387 0.517689 0.127173 0.31406 0.316965C0.215984 0.408037 0.137756 0.518363 0.084259 0.641045C0.0307617 0.763727 0.00314713 0.896126 0.00314713 1.02996C0.00314713 1.1638 0.0307617 1.2962 0.084259 1.41888C0.137756 1.54157 0.215984 1.65189 0.31406 1.74296L19.2371 19.7C19.4409 19.8906 19.7095 19.9967 19.9886 19.9967C20.2676 19.9967 20.5363 19.8906 20.7401 19.7Z" fill="#D3D3D3"/>
</g>
</svg>
