<svg width="60" height="58" viewBox="0 0 60 58" fill="none" xmlns="http://www.w3.org/2000/svg">
<g clip-path="url(#clip0_1_39532)">
<g clip-path="url(#clip1_1_39532)">
<g clip-path="url(#clip2_1_39532)">
<path d="M30 0.791992C13.463 0.791992 0 11.986 0 25.669C0 32.401 3.366 38.913 9.219 43.592L5.854 52.892C5.601 53.4578 5.53557 54.0896 5.66727 54.6952C5.79897 55.3008 6.12089 55.8484 6.586 56.258C7.15039 56.7627 7.87795 57.0467 8.635 57.058C9.15527 57.059 9.66424 56.9063 10.098 56.619L22.171 49.592C24.7294 50.2422 27.3603 50.5632 30 50.547C46.537 50.547 60 39.347 60 25.669C60 11.991 46.537 0.791992 30 0.791992ZM30 47.621C27.5394 47.6161 25.0865 47.3479 22.683 46.821L22.244 46.748C21.871 46.6872 21.4883 46.738 21.144 46.894L8.561 54.206L8.488 54.133C8.488 54.06 8.561 54.06 8.561 53.987L12.293 43.67C12.3967 43.3714 12.403 43.0476 12.311 42.7451C12.219 42.4427 12.0334 42.1773 11.781 41.987L11.561 41.768C6.073 37.592 2.927 31.742 2.927 25.669C2.927 13.592 15.073 3.71799 30 3.71799C44.927 3.71799 57.073 13.592 57.073 25.669C57.073 37.746 44.927 47.621 30 47.621Z" fill="#008FA4"/>
<path d="M28.868 39.5001C28.6055 39.8042 28.4733 40.1993 28.5 40.6001C28.5353 41.0354 28.6938 41.4516 28.957 41.8001C29.294 42.0307 29.6991 42.1405 30.1065 42.1118C30.5138 42.0831 30.8995 41.9176 31.201 41.6421C31.418 41.339 31.5239 40.9703 31.501 40.5981C31.4715 40.192 31.3295 39.8021 31.091 39.4721C30.7628 39.2475 30.3732 39.1299 29.9755 39.1354C29.5779 39.141 29.1917 39.2694 28.87 39.5031" fill="#008FA4"/>
<path d="M39.245 16.935C38.891 15.1501 38.0151 13.5104 36.7284 12.2236C35.4416 10.9369 33.8019 10.0611 32.017 9.70702C31.3821 9.58574 30.7373 9.52414 30.091 9.52302C27.8951 9.51471 25.7646 10.2698 24.064 11.659C22.9621 12.546 22.0761 13.6717 21.4729 14.9512C20.8697 16.2307 20.5651 17.6306 20.582 19.045C20.5441 19.2787 20.5563 19.5178 20.6178 19.7464C20.6794 19.9751 20.7888 20.188 20.939 20.371C21.0859 20.5281 21.2647 20.6519 21.4634 20.7342C21.6621 20.8164 21.8761 20.8552 22.091 20.848C22.525 20.8317 22.9368 20.652 23.2439 20.3449C23.551 20.0378 23.7307 19.626 23.747 19.192C23.7432 18.2696 23.943 17.3576 24.3323 16.5213C24.7216 15.685 25.2907 14.945 25.999 14.354C27.1656 13.445 28.601 12.9491 30.08 12.944C30.4513 12.944 30.8218 12.9774 31.187 13.044C32.3351 13.309 33.386 13.8904 34.2206 14.7221C35.0552 15.5539 35.6401 16.6028 35.909 17.75C36.1757 18.8875 36.1024 20.0784 35.6981 21.1746C35.2938 22.2708 34.5764 23.2241 33.635 23.916C31.9914 25.1615 30.6526 26.7645 29.7199 28.6037C28.7871 30.4429 28.2848 32.4701 28.251 34.532C28.251 34.9715 28.4256 35.3929 28.7363 35.7037C29.0471 36.0144 29.4685 36.189 29.908 36.189C30.3475 36.189 30.7689 36.0144 31.0797 35.7037C31.3904 35.3929 31.565 34.9715 31.565 34.532C31.6227 32.9572 32.0276 31.4145 32.7507 30.0142C33.4738 28.614 34.4973 27.3908 35.748 26.432C37.1632 25.3358 38.2418 23.8638 38.8607 22.184C39.4795 20.5043 39.6137 18.6844 39.248 16.932M29.956 9.57601H30.094C30.152 9.57601 30.211 9.57601 30.269 9.57601C30.169 9.57601 30.06 9.57601 29.956 9.57601Z" fill="#008FA4"/>
</g>
</g>
</g>
<defs>
<clipPath id="clip0_1_39532">
<rect width="60" height="56.27" fill="white" transform="translate(0 0.790039)"/>
</clipPath>
<clipPath id="clip1_1_39532">
<rect width="60" height="56.27" fill="white" transform="translate(0 0.790039)"/>
</clipPath>
<clipPath id="clip2_1_39532">
<rect width="60" height="56.268" fill="white" transform="translate(0 0.791016)"/>
</clipPath>
</defs>
</svg>
