<svg width="38" height="28" viewBox="0 0 38 28" fill="none" xmlns="http://www.w3.org/2000/svg">
<g clip-path="url(#clip0_1_48414)">
<g clip-path="url(#clip1_1_48414)">
<g clip-path="url(#clip2_1_48414)">
<path d="M16.3557 0.0318987L16.3337 27.9854H20.1067L20.1347 15.3638H24.3335C24.7084 17.6701 24.7474 27.1856 24.7474 27.9294V27.9914H28.5984C28.7163 20.8933 28.6544 7.67884 24.6804 0.0378971H16.3557V0.0318987ZM20.0947 12.1106V3.22204H22.1211C22.8563 4.99308 23.3769 6.84577 23.6717 8.74055C23.9966 10.5711 24.1646 12.1106 24.1646 12.1106H20.0947ZM10.1863 27.9964L14.3672 27.9904V0.0378971L10.2253 0.0488941L10.1863 27.9964ZM0.659912 27.9684L4.7968 27.9964L4.83079 15.3348H7.86997V12.0886H4.82979V3.25003H8.74773V0.00390625H0.66591L0.659912 27.9684ZM27.5667 0.0318987V3.26203H30.5518L30.5628 27.9854H34.6997L34.6887 3.26203H37.7199V0.00990463L27.5667 0.0318987Z" fill="black"/>
</g>
</g>
</g>
<defs>
<clipPath id="clip0_1_48414">
<rect width="37.06" height="28" fill="white" transform="translate(0.659912)"/>
</clipPath>
<clipPath id="clip1_1_48414">
<rect width="37.06" height="28" fill="white" transform="translate(0.659912)"/>
</clipPath>
<clipPath id="clip2_1_48414">
<rect width="37.06" height="27.9924" fill="white" transform="translate(0.659912 0.00390625)"/>
</clipPath>
</defs>
</svg>
