<svg width="13" height="8" viewBox="0 0 13 8" fill="none" xmlns="http://www.w3.org/2000/svg">
<g clip-path="url(#clip0_1_4525)">
<g clip-path="url(#clip1_1_4525)">
<g clip-path="url(#clip2_1_4525)">
<path d="M0.252944 1.49987C0.252944 1.34989 0.313738 1.20958 0.42412 1.10477C0.643256 0.89678 0.999773 0.89678 1.21887 1.10476L6.49681 6.11361L11.7817 1.09815C12.0008 0.890303 12.3572 0.890303 12.5763 1.09811C12.6868 1.20298 12.7476 1.34329 12.7476 1.49329C12.7476 1.64329 12.6868 1.7836 12.5764 1.8884L6.89416 7.28096C6.67507 7.48893 6.31855 7.48893 6.09945 7.28094L0.42416 1.895C0.313708 1.79004 0.252944 1.64975 0.252944 1.49987Z" fill="#373737"/>
<path d="M12.4978 1.49315C12.4978 1.41575 12.4667 1.33835 12.4044 1.27928C12.28 1.16123 12.0782 1.16123 11.9538 1.27928L6.4969 6.45798L1.04693 1.28586C0.922483 1.16773 0.720731 1.16773 0.596284 1.28586C0.471853 1.40398 0.471901 1.59541 0.596284 1.7136L6.27158 7.09956C6.39603 7.21769 6.59779 7.21769 6.72224 7.09956L12.4044 1.70702C12.4667 1.64795 12.4978 1.57055 12.4978 1.49315ZM12.9976 1.49314C12.9976 1.70917 12.9068 1.91923 12.7485 2.06948L7.06628 7.46209C6.74703 7.76513 6.24679 7.76513 5.9275 7.46205L0.252241 2.07612C0.0938587 1.92563 0.00314808 1.71562 0.00314808 1.49973C0.00314808 1.28369 0.0939283 1.07362 0.252201 0.923379C0.571494 0.620298 1.07172 0.620298 1.39101 0.923379L6.4969 5.76895L11.6097 0.916752C11.929 0.613861 12.4292 0.613861 12.7484 0.916682C12.9068 1.06703 12.9976 1.27711 12.9976 1.49314Z" fill="#373737"/>
</g>
</g>
</g>
<defs>
<clipPath id="clip0_1_4525">
<rect width="13" height="7" fill="white" transform="translate(0 0.689941)"/>
</clipPath>
<clipPath id="clip1_1_4525">
<rect width="13" height="7" fill="white" transform="translate(0 0.689941)"/>
</clipPath>
<clipPath id="clip2_1_4525">
<rect width="12.9944" height="7" fill="white" transform="translate(0.00292969 0.689941)"/>
</clipPath>
</defs>
</svg>
