<svg width="13" height="8" viewBox="0 0 13 8" fill="none" xmlns="http://www.w3.org/2000/svg">
<g clip-path="url(#clip0_1_50805)">
<g clip-path="url(#clip1_1_50805)">
<g clip-path="url(#clip2_1_50805)">
<path d="M0.252639 1.0791C0.252639 0.92911 0.313433 0.7888 0.423815 0.683995C0.642951 0.476004 0.999468 0.476004 1.21856 0.683985L6.4965 5.69283L11.7814 0.677378C12.0005 0.469527 12.3569 0.469527 12.576 0.677338C12.6865 0.782203 12.7473 0.922513 12.7473 1.07252C12.7473 1.22251 12.6865 1.36282 12.5761 1.46762L6.89385 6.86019C6.67477 7.06816 6.31825 7.06816 6.09914 6.86017L0.423855 1.47423C0.313403 1.36926 0.252639 1.22897 0.252639 1.0791Z" fill="#373737"/>
<path d="M12.4975 1.07311C12.4975 0.995704 12.4664 0.918302 12.4041 0.859232C12.2797 0.741183 12.0779 0.741183 11.9535 0.859232L6.4966 6.03793L1.04663 0.865819C0.922178 0.74769 0.720426 0.74769 0.595979 0.865819C0.471548 0.983931 0.471596 1.17537 0.595979 1.29356L6.27128 6.67952C6.39572 6.79765 6.59749 6.79765 6.72193 6.67952L12.4041 1.28698C12.4664 1.22791 12.4975 1.15051 12.4975 1.07311ZM12.9973 1.0731C12.9973 1.28913 12.9065 1.49919 12.7482 1.64943L7.06598 7.04204C6.74672 7.34508 6.24649 7.34508 5.92719 7.042L0.251936 1.65608C0.0935535 1.50559 0.0028429 1.29558 0.0028429 1.07969C0.0028429 0.86365 0.0936232 0.65358 0.251896 0.503335C0.571189 0.200254 1.07141 0.200254 1.39071 0.503335L6.4966 5.34891L11.6094 0.496708C11.9287 0.193817 12.4289 0.193817 12.7481 0.496638C12.9065 0.646983 12.9973 0.857063 12.9973 1.0731Z" fill="#373737"/>
</g>
</g>
</g>
<defs>
<clipPath id="clip0_1_50805">
<rect width="13" height="7" fill="white" transform="translate(0 0.269531)"/>
</clipPath>
<clipPath id="clip1_1_50805">
<rect width="13" height="7" fill="white" transform="translate(0 0.269531)"/>
</clipPath>
<clipPath id="clip2_1_50805">
<rect width="12.9944" height="7" fill="white" transform="translate(0.00280762 0.269531)"/>
</clipPath>
</defs>
</svg>
