<svg width="105" height="15" viewBox="0 0 105 15" fill="none" xmlns="http://www.w3.org/2000/svg">
<path d="M60.0725 13.4938C61.8092 13.4162 63.5689 13.2948 65.3027 13.1396C65.5146 13.1277 65.7146 13.0379 65.8644 12.8876C66.0142 12.7372 66.1032 12.5369 66.1144 12.325C66.1082 12.2247 66.081 12.1268 66.0347 12.0376C65.9883 11.9484 65.9238 11.87 65.8452 11.8073C65.7667 11.7446 65.6759 11.699 65.5787 11.6736C65.4815 11.6481 65.38 11.6433 65.2808 11.6595C63.5749 11.8147 61.8441 11.9311 60.1342 12.0077H60.1252C59.1086 12.0534 58.0771 12.0852 57.0565 12.1071C56.8452 12.1071 56.6409 12.1832 56.481 12.3215C56.3212 12.4597 56.2165 12.651 56.1861 12.8601C56.1821 12.9601 56.1994 13.0597 56.2369 13.1524C56.2743 13.2451 56.3312 13.3288 56.4036 13.3978C56.476 13.4668 56.5623 13.5196 56.6567 13.5526C56.7511 13.5856 56.8514 13.5981 56.9511 13.5893C57.9866 13.5713 59.04 13.5385 60.0685 13.4898L60.0725 13.4938ZM45.9983 13.2421C46.1929 13.2361 46.3802 13.1668 46.5319 13.0447C46.6836 12.9227 46.7913 12.7545 46.8388 12.5657C46.8563 12.4677 46.8522 12.3671 46.827 12.2709C46.8017 12.1746 46.7559 12.085 46.6926 12.0082C46.6293 11.9314 46.5501 11.8692 46.4605 11.826C46.3708 11.7828 46.2729 11.7596 46.1734 11.758C43.4648 11.5362 40.7641 11.2089 38.145 10.7852C37.9328 10.7506 37.7152 10.7922 37.5308 10.9027C37.3463 11.0132 37.207 11.1855 37.1374 11.3889C37.1101 11.4843 37.1041 11.5844 37.1197 11.6824C37.1353 11.7803 37.1722 11.8736 37.2278 11.9557C37.2833 12.0378 37.3562 12.1068 37.4413 12.1577C37.5264 12.2086 37.6217 12.2402 37.7203 12.2504C40.3841 12.6811 43.1305 13.0143 45.8839 13.2401C45.922 13.243 45.9602 13.2437 45.9983 13.2421ZM76.2903 11.5939C76.3354 11.5918 76.3802 11.5865 76.4246 11.5779C79.2098 11.0458 81.983 10.4032 84.6727 9.66909C84.8773 9.6249 85.0569 9.50361 85.1744 9.33041C85.2918 9.1572 85.338 8.94541 85.3034 8.73903C85.2727 8.64172 85.2228 8.55155 85.1567 8.47386C85.0905 8.39616 85.0095 8.33253 84.9183 8.28671C84.8271 8.24089 84.7277 8.21383 84.6259 8.20712C84.5241 8.20041 84.422 8.21419 84.3256 8.24764C81.6836 8.96881 78.9541 9.60045 76.2206 10.1237C76.0121 10.1538 75.8226 10.2615 75.69 10.4252C75.5574 10.589 75.4915 10.7967 75.5054 11.007C75.5385 11.1856 75.6376 11.3451 75.7831 11.4539C75.9285 11.5627 76.1096 11.6126 76.2903 11.5939ZM27.4091 9.95159C27.5774 9.94556 27.7408 9.89314 27.8813 9.80011C28.0217 9.70707 28.1337 9.57705 28.2049 9.42439C28.2457 9.33432 28.2661 9.23631 28.2645 9.13743C28.2629 9.03854 28.2395 8.94124 28.1958 8.8525C28.1522 8.76376 28.0894 8.68579 28.012 8.62421C27.9346 8.56262 27.8446 8.51895 27.7483 8.49632C27.5881 8.45057 27.429 8.4058 27.2708 8.36005C25.1282 7.74134 22.9757 7.02614 20.8937 6.33481L20.1875 6.09608C19.9809 6.03095 19.7579 6.04072 19.5578 6.12368C19.3577 6.20664 19.1932 6.35747 19.0933 6.54967C19.0478 6.63738 19.0223 6.7341 19.0187 6.83286C19.0151 6.93162 19.0334 7.02995 19.0725 7.12074C19.1115 7.21153 19.1702 7.29253 19.2443 7.35788C19.3184 7.42323 19.4062 7.4713 19.5011 7.49863L20.2044 7.73238C22.3012 8.42868 24.4697 9.14885 26.6422 9.77652L27.1296 9.91578C27.2202 9.94296 27.3146 9.95506 27.4091 9.95159ZM95.1063 6.16074C95.2107 6.15598 95.3135 6.13379 95.4106 6.09509C98.0715 5.0387 100.678 3.86494 103.154 2.60762C103.248 2.56812 103.333 2.51001 103.404 2.43679C103.475 2.36357 103.53 2.27676 103.567 2.18158C103.603 2.08641 103.62 1.98484 103.616 1.88301C103.612 1.78117 103.588 1.68117 103.544 1.58904C103.43 1.41392 103.253 1.28911 103.05 1.24011C102.846 1.19112 102.632 1.22164 102.45 1.32544C100.024 2.55689 97.4767 3.70678 94.8655 4.74128C94.6693 4.80631 94.5068 4.94643 94.4135 5.13098C94.3203 5.31554 94.304 5.5295 94.3682 5.72605C94.4318 5.86545 94.5367 5.98193 94.6687 6.05969C94.8008 6.13744 94.9535 6.17272 95.1063 6.16074ZM9.57887 4.59705C9.75622 4.59107 9.92789 4.53311 10.0726 4.43036C10.2172 4.3276 10.3285 4.1846 10.3925 4.01912C10.4267 3.92561 10.4396 3.82569 10.4304 3.72657C10.4212 3.62745 10.3902 3.53161 10.3394 3.44596C10.2887 3.36031 10.2196 3.28699 10.1371 3.23129C10.0546 3.17559 9.96077 3.13891 9.86237 3.12388C8.90247 2.92494 7.95252 2.74887 7.03838 2.6116C5.23024 2.3428 3.40441 2.21079 1.57641 2.2167C1.36281 2.21161 1.15467 2.28456 0.990975 2.42189C0.827282 2.55921 0.71926 2.7515 0.687138 2.96274C0.680372 3.06266 0.695242 3.16286 0.730731 3.25652C0.76622 3.35017 0.821494 3.43506 0.892782 3.50541C0.96407 3.57575 1.04969 3.62989 1.14381 3.66413C1.23793 3.69836 1.33832 3.7119 1.43815 3.7038C3.17642 3.70042 4.91247 3.8281 6.63154 4.08577C7.51186 4.21707 8.427 4.38418 9.35407 4.58312C9.42812 4.59721 9.50365 4.60189 9.57887 4.59705Z" fill="white" stroke="white" stroke-width="0.994713"/>
</svg>
