<svg width="49" height="17" viewBox="0 0 49 17" fill="none" xmlns="http://www.w3.org/2000/svg">
<g clip-path="url(#clip0_1_71366)">
<g clip-path="url(#clip1_1_71366)">
<g clip-path="url(#clip2_1_71366)">
<path d="M45.3471 7.21248H43.9091C43.7325 7.20762 43.5567 7.23821 43.3921 7.30244C43.2275 7.36666 43.0775 7.46323 42.9509 7.58642C42.8242 7.70961 42.7236 7.85694 42.6549 8.01969C42.5861 8.18244 42.5507 8.35732 42.5507 8.53398C42.5507 8.71065 42.5861 8.88553 42.6549 9.04828C42.7236 9.21103 42.8242 9.35835 42.9509 9.48154C43.0775 9.60474 43.2275 9.7013 43.3921 9.76553C43.5567 9.82975 43.7325 9.86034 43.9091 9.85548H44.5791C44.879 9.85548 45.1667 9.97464 45.3788 10.1867C45.5909 10.3988 45.7101 10.6865 45.7101 10.9865V11.8485C45.7088 12.2661 45.5425 12.6662 45.2475 12.9618C44.9525 13.2573 44.5527 13.4244 44.1351 13.4265H43.6051C42.9717 13.4586 42.3388 13.3541 41.7493 13.1199C41.1599 12.8858 40.6278 12.5275 40.1891 12.0695C39.3023 11.0167 38.854 9.66344 38.9371 8.28948C38.8721 6.87642 39.3706 5.49533 40.3231 4.44948C40.7899 3.96526 41.3538 3.58522 41.9779 3.33429C42.6019 3.08337 43.272 2.96722 43.9441 2.99348C44.8293 2.98447 45.7119 3.09206 46.5691 3.31348C46.926 3.39589 47.301 3.33595 47.6144 3.14639C47.9279 2.95683 48.1551 2.65258 48.2479 2.29822C48.3407 1.94386 48.2917 1.56729 48.1114 1.24844C47.9311 0.929595 47.6336 0.693575 47.2821 0.590483C46.2131 0.333492 45.1165 0.209222 44.0171 0.220483C42.8849 0.169577 41.754 0.345887 40.6911 0.739016C39.6281 1.13215 38.6547 1.73413 37.8281 2.50948C37.0459 3.28246 36.4331 4.20974 36.0287 5.23237C35.6243 6.255 35.4371 7.3506 35.4791 8.44948C35.4232 9.49162 35.5841 10.534 35.9516 11.5108C36.3191 12.4876 36.8852 13.3776 37.6141 14.1245C38.3988 14.8395 39.3179 15.3913 40.318 15.7475C41.3181 16.1038 42.379 16.2574 43.4391 16.1995C43.8281 16.1995 44.2051 16.1735 44.5731 16.1585C45.1852 16.1599 45.791 16.0346 46.3523 15.7904C46.9137 15.5462 47.4183 15.1884 47.8346 14.7395C48.2508 14.2907 48.5696 13.7605 48.7709 13.1824C48.9722 12.6043 49.0516 11.9908 49.0041 11.3805V10.8665C49.017 10.3831 48.9314 9.90217 48.7523 9.45299C48.5733 9.00382 48.3046 8.59583 47.9626 8.25391C47.6207 7.91199 47.2127 7.64331 46.7636 7.46426C46.3144 7.28521 45.8335 7.19954 45.3501 7.21248" fill="white"/>
<path d="M0.969727 1.4037C0.969991 1.7179 1.09492 2.01916 1.3171 2.24133C1.53927 2.46351 1.84053 2.58844 2.15473 2.5887H19.8137C20.1277 2.5887 20.4289 2.46396 20.6509 2.24192C20.873 2.01987 20.9977 1.71872 20.9977 1.4047C20.9977 1.09069 20.873 0.789532 20.6509 0.567489C20.4289 0.345446 20.1277 0.220703 19.8137 0.220703L2.15473 0.220703C1.84079 0.220703 1.53968 0.345276 1.31751 0.567074C1.09534 0.788872 0.970256 1.08977 0.969727 1.4037Z" fill="#008FA4"/>
<path d="M13.894 15.0161C13.8943 15.3297 14.019 15.6305 14.2408 15.8523C14.4626 16.0741 14.7634 16.1988 15.077 16.1991H19.809C20.1231 16.1991 20.4242 16.0743 20.6463 15.8523C20.8683 15.6302 20.993 15.3291 20.993 15.0151C20.993 14.701 20.8683 14.3999 20.6463 14.1778C20.4242 13.9558 20.1231 13.8311 19.809 13.8311H15.077C14.7631 13.8316 14.4622 13.9567 14.2404 14.1788C14.0186 14.401 13.894 14.7021 13.894 15.0161Z" fill="#008FA4"/>
<path d="M9.72021 10.478C9.72048 10.7916 9.8452 11.0924 10.067 11.3142C10.2888 11.536 10.5895 11.6607 10.9032 11.661H19.8132C20.1272 11.661 20.4284 11.5362 20.6504 11.3142C20.8725 11.0921 20.9972 10.791 20.9972 10.477C20.9972 10.163 20.8725 9.86179 20.6504 9.63975C20.4284 9.41771 20.1272 9.29297 19.8132 9.29297H10.9032C10.5893 9.2935 10.2884 9.41858 10.0666 9.64075C9.84479 9.86292 9.72021 10.164 9.72021 10.478Z" fill="#008FA4"/>
<path d="M5.2247 5.94032C5.22496 6.25383 5.34935 6.55449 5.57066 6.77654C5.79197 6.9986 6.0922 7.124 6.4057 7.12532H19.8057C20.1197 7.12532 20.4209 7.00058 20.6429 6.77854C20.865 6.55649 20.9897 6.25534 20.9897 5.94132C20.9897 5.62731 20.865 5.32615 20.6429 5.10411C20.4209 4.88207 20.1197 4.75732 19.8057 4.75732H6.4057C6.09177 4.75732 5.79066 4.8819 5.56849 5.10369C5.34632 5.32549 5.22123 5.62639 5.2207 5.94032" fill="#008FA4"/>
<path d="M30.8576 5.56452L33.5376 2.81052C33.6478 2.69839 33.7369 2.56729 33.8006 2.42352C33.8974 2.23846 33.9472 2.03239 33.9456 1.82352C33.9453 1.46149 33.8014 1.11435 33.5455 0.858257C33.2896 0.602168 32.9426 0.458049 32.5806 0.45752H26.0246C25.6624 0.45752 25.3151 0.601384 25.059 0.857465C24.8029 1.11355 24.6591 1.46087 24.6591 1.82302C24.6591 2.18517 24.8029 2.53249 25.059 2.78857C25.3151 3.04465 25.6624 3.18852 26.0246 3.18852H29.3526L27.2976 5.30252C27.0404 5.56045 26.896 5.90981 26.896 6.27402C26.896 6.63823 27.0404 6.98759 27.2976 7.24552L27.5506 7.49852H27.6236C27.836 7.62895 28.0803 7.69816 28.3296 7.69852C28.7067 7.69498 29.0806 7.76764 29.4289 7.91216C29.7772 8.05668 30.0928 8.27006 30.3566 8.53952L30.3736 8.55652C30.643 8.82034 30.8564 9.13588 31.0009 9.48419C31.1455 9.83251 31.2181 10.2064 31.2146 10.5835C31.2163 10.9633 31.1429 11.3397 30.9985 11.691C30.8542 12.0423 30.6418 12.3616 30.3736 12.6305C29.8221 13.1692 29.0814 13.47 28.3106 13.4685C27.55 13.4685 26.8196 13.171 26.2756 12.6395C26.1438 12.5084 25.9868 12.4053 25.8141 12.3365C25.6413 12.2678 25.4564 12.2348 25.2706 12.2395C25.0949 12.2443 24.922 12.2837 24.7617 12.3556C24.6014 12.4275 24.4569 12.5305 24.3366 12.6585C24.2098 12.7895 24.1103 12.9444 24.0439 13.1142C23.9775 13.284 23.9454 13.4653 23.9496 13.6475C23.9587 13.999 24.1065 14.3325 24.3606 14.5755C24.8757 15.1001 25.4907 15.5163 26.1693 15.7993C26.8479 16.0824 27.5763 16.2266 28.3116 16.2235C29.801 16.2171 31.228 15.6243 32.2836 14.5735C32.8141 14.0547 33.2347 13.4345 33.5205 12.7497C33.8062 12.0648 33.9511 11.3295 33.9466 10.5875C33.9505 9.84906 33.8079 9.11716 33.5271 8.43417C33.2463 7.75118 32.8328 7.13066 32.3106 6.60852C31.8868 6.18461 31.3967 5.83266 30.8596 5.56652" fill="white"/>
</g>
</g>
</g>
<defs>
<clipPath id="clip0_1_71366">
<rect width="48.03" height="16" fill="white" transform="translate(0.969727 0.220215)"/>
</clipPath>
<clipPath id="clip1_1_71366">
<rect width="48.03" height="16" fill="white" transform="translate(0.969727 0.220215)"/>
</clipPath>
<clipPath id="clip2_1_71366">
<rect width="48.03" height="15.9993" fill="white" transform="translate(0.969727 0.220703)"/>
</clipPath>
</defs>
</svg>
