<svg width="75" height="45" viewBox="0 0 75 45" fill="none" xmlns="http://www.w3.org/2000/svg">
<g clip-path="url(#clip0_1_14)">
<g clip-path="url(#clip1_1_14)">
<g clip-path="url(#clip2_1_14)">
<path d="M15.0324 25.922C15.0159 25.9901 15.0081 26.06 15.009 26.13C15.0041 26.4332 15.0799 26.7322 15.2287 26.9964C15.3742 27.2503 15.5713 27.4708 15.8073 27.6438C16.0519 27.8243 16.326 27.9611 16.6173 28.0481C16.9205 28.1412 17.236 28.1881 17.5532 28.1873C18.0876 28.1978 18.6174 28.0871 19.1029 27.8635C19.5535 27.6451 19.9611 27.3474 20.3062 26.9847L22.641 28.8156C21.9573 29.5621 21.1118 30.1423 20.1693 30.5118C19.2308 30.8638 18.2355 31.0401 17.2332 31.0318C16.4764 31.0384 15.7232 30.9254 15.0017 30.6971C14.3434 30.4897 13.7338 30.1514 13.2095 29.7025C12.6938 29.2539 12.283 28.6973 12.0063 28.0723C11.7025 27.3726 11.5526 26.6158 11.5668 25.8532C11.5591 24.9068 11.7357 23.968 12.0868 23.0892C12.4164 22.2597 12.9036 21.5018 13.5215 20.8577C14.1401 20.2181 14.8818 19.7104 15.7018 19.3651C16.5878 18.9959 17.5397 18.8113 18.4995 18.8224C19.2026 18.8145 19.9021 18.9239 20.5691 19.1461C21.1634 19.3443 21.7104 19.663 22.1759 20.0821C22.6313 20.5033 22.9871 21.0207 23.2174 21.5967C23.4747 22.2596 23.6003 22.9663 23.5872 23.6773C23.5819 24.0292 23.5552 24.3804 23.5074 24.729C23.4579 25.13 23.3846 25.5276 23.2877 25.9198H15.0324V25.922ZM20.282 23.6517C20.2979 23.5756 20.3057 23.498 20.3055 23.4203V23.1888C20.3108 22.9504 20.2652 22.7135 20.1716 22.4941C20.078 22.2747 19.9386 22.0779 19.7628 21.9167C19.3274 21.5526 18.7684 21.3703 18.2021 21.4077C17.8171 21.4017 17.4351 21.4765 17.0809 21.6274C16.7661 21.7631 16.4739 21.9461 16.2145 22.1701C15.9768 22.3752 15.7738 22.6173 15.6132 22.8871C15.4692 23.1246 15.3601 23.3816 15.2895 23.6502H20.2828L20.282 23.6517Z" fill="#008FA4"/>
<path d="M34.3045 18.569C33.9486 18.1271 33.493 17.7757 32.9752 17.5437C32.4815 17.3022 31.9407 17.1722 31.3911 17.1629C31.1237 17.1633 30.8569 17.1866 30.5935 17.2324C30.3364 17.2742 30.0894 17.3641 29.8656 17.4975C29.6513 17.6277 29.4665 17.801 29.3229 18.0065C29.1684 18.243 29.0916 18.5219 29.1032 18.8041C29.094 19.0472 29.1539 19.2879 29.276 19.4984C29.4059 19.6974 29.5801 19.8636 29.785 19.9839C30.0377 20.1367 30.3049 20.2643 30.5826 20.3648C30.8906 20.4805 31.2378 20.5996 31.624 20.7222C32.1791 20.9072 32.757 21.1113 33.3575 21.3344C33.9444 21.5504 34.4969 21.8501 34.998 22.2243C35.4935 22.5973 35.9102 23.0647 36.224 23.5996C36.5672 24.2256 36.7349 24.9325 36.7096 25.6459C36.7309 26.4887 36.5527 27.3246 36.1896 28.0854C35.8591 28.7513 35.3806 29.3327 34.7908 29.7852C34.1885 30.2397 33.5064 30.5771 32.7797 30.7798C32.0203 30.9958 31.2344 31.1048 30.4449 31.1035C29.2843 31.1051 28.133 30.8977 27.0459 30.4912C26.0154 30.1247 25.0823 29.5275 24.3179 28.7453L26.9075 26.1087C27.342 26.6286 27.8819 27.0503 28.4916 27.3457C29.0944 27.6637 29.7642 27.8339 30.4456 27.8423C30.7335 27.8432 31.0206 27.8122 31.3017 27.75C31.5609 27.6955 31.8078 27.5935 32.0297 27.449C32.2393 27.3087 32.4101 27.1177 32.5263 26.8938C32.6555 26.6357 32.7191 26.3497 32.7116 26.0611C32.72 25.781 32.6389 25.5055 32.4801 25.2746C32.301 25.0379 32.077 24.8388 31.821 24.6887C31.4849 24.4888 31.1281 24.3259 30.7569 24.2031C30.3331 24.0566 29.8514 23.8989 29.3119 23.73C28.7875 23.561 28.2739 23.3602 27.7739 23.1287C27.2829 22.9041 26.8302 22.6038 26.4322 22.2389C26.0304 21.8672 25.7067 21.419 25.4801 20.9206C25.2262 20.3257 25.1043 19.6828 25.1227 19.0363C25.0994 18.2227 25.2909 17.4174 25.6779 16.7015C26.0367 16.0659 26.535 15.52 27.1353 15.1049C27.753 14.681 28.4419 14.3717 29.1691 14.1916C29.9169 14.0002 30.6858 13.9033 31.4577 13.9031C32.4241 13.9102 33.3822 14.0823 34.2906 14.4121C35.2279 14.7364 36.0896 15.2479 36.8231 15.9156L34.3045 18.569Z" fill="#008FA4"/>
<path d="M42.8967 14.314H38.9192V30.6846H42.8967V14.314Z" fill="#008FA4"/>
<path d="M60.2619 30.6846L60.3542 19.1015H60.2846L56.0295 30.6846H53.2553L49.1159 19.1015H49.0464L49.1387 30.6846H45.4167V14.314H51.0421L54.7706 24.8118H54.8629L58.4273 14.314H64.1449V30.6846H60.2619Z" fill="#008FA4"/>
<path d="M66.386 43.6256C66.386 43.4528 66.4372 43.2839 66.5333 43.1402C66.6293 42.9965 66.7657 42.8845 66.9254 42.8184C67.085 42.7523 67.2607 42.735 67.4302 42.7687C67.5996 42.8024 67.7553 42.8856 67.8775 43.0078C67.9997 43.13 68.0829 43.2857 68.1166 43.4552C68.1504 43.6246 68.133 43.8003 68.0669 43.96C68.0008 44.1196 67.8888 44.2561 67.7451 44.3521C67.6014 44.4481 67.4325 44.4993 67.2597 44.4993C67.0281 44.4991 66.8059 44.407 66.6421 44.2432C66.4783 44.0794 66.3862 43.8573 66.386 43.6256Z" fill="#008FA4"/>
<path d="M63.4478 43.6256C63.4478 43.4528 63.499 43.2839 63.595 43.1402C63.691 42.9965 63.8275 42.8845 63.9871 42.8184C64.1468 42.7523 64.3224 42.735 64.4919 42.7687C64.6614 42.8024 64.8171 42.8856 64.9393 43.0078C65.0615 43.13 65.1447 43.2857 65.1784 43.4552C65.2121 43.6246 65.1948 43.8003 65.1287 43.96C65.0625 44.1196 64.9505 44.2561 64.8069 44.3521C64.6632 44.4481 64.4943 44.4993 64.3215 44.4993C64.0898 44.4991 63.8677 44.407 63.7039 44.2432C63.5401 44.0794 63.4479 43.8573 63.4478 43.6256Z" fill="#008FA4"/>
<path d="M60.5095 43.6256C60.5095 43.4528 60.5608 43.2839 60.6568 43.1402C60.7528 42.9965 60.8892 42.8845 61.0489 42.8184C61.2085 42.7523 61.3842 42.735 61.5537 42.7687C61.7232 42.8024 61.8789 42.8856 62.0011 43.0078C62.1233 43.13 62.2064 43.2857 62.2402 43.4552C62.2739 43.6246 62.2566 43.8003 62.1905 43.96C62.1243 44.1196 62.0123 44.2561 61.8687 44.3521C61.725 44.4481 61.556 44.4993 61.3832 44.4993C61.1516 44.4991 60.9294 44.407 60.7656 44.2432C60.6018 44.0794 60.5097 43.8573 60.5095 43.6256Z" fill="#008FA4"/>
<path d="M57.571 43.6256C57.571 43.4528 57.6223 43.2839 57.7183 43.1402C57.8143 42.9965 57.9508 42.8845 58.1104 42.8184C58.2701 42.7523 58.4457 42.735 58.6152 42.7687C58.7847 42.8024 58.9404 42.8856 59.0626 43.0078C59.1848 43.13 59.268 43.2857 59.3017 43.4552C59.3354 43.6246 59.3181 43.8003 59.252 43.96C59.1858 44.1196 59.0739 44.2561 58.9302 44.3521C58.7865 44.4481 58.6176 44.4993 58.4448 44.4993C58.2131 44.4991 57.991 44.407 57.8272 44.2432C57.6634 44.0794 57.5712 43.8573 57.571 43.6256Z" fill="#008FA4"/>
<path d="M54.6313 43.6256C54.6313 43.4528 54.6826 43.2839 54.7786 43.1402C54.8746 42.9965 55.0111 42.8845 55.1707 42.8184C55.3304 42.7523 55.506 42.735 55.6755 42.7687C55.845 42.8024 56.0007 42.8856 56.1229 43.0078C56.2451 43.13 56.3283 43.2857 56.362 43.4552C56.3957 43.6246 56.3784 43.8003 56.3123 43.96C56.2462 44.1196 56.1342 44.2561 55.9905 44.3521C55.8468 44.4481 55.6779 44.4993 55.5051 44.4993C55.2734 44.4991 55.0513 44.407 54.8875 44.2432C54.7236 44.0794 54.6315 43.8573 54.6313 43.6256Z" fill="#008FA4"/>
<path d="M51.6938 43.6256C51.6938 43.4528 51.7451 43.2839 51.8411 43.1402C51.9371 42.9965 52.0736 42.8845 52.2332 42.8184C52.3929 42.7523 52.5685 42.735 52.738 42.7687C52.9075 42.8024 53.0632 42.8856 53.1854 43.0078C53.3076 43.13 53.3908 43.2857 53.4245 43.4552C53.4582 43.6246 53.4409 43.8003 53.3748 43.96C53.3087 44.1196 53.1967 44.2561 53.053 44.3521C52.9093 44.4481 52.7404 44.4993 52.5676 44.4993C52.3359 44.4991 52.1138 44.407 51.95 44.2432C51.7862 44.0794 51.694 43.8573 51.6938 43.6256Z" fill="#008FA4"/>
<path d="M48.7556 43.6256C48.7556 43.4528 48.8069 43.2839 48.9029 43.1402C48.9989 42.9965 49.1353 42.8845 49.295 42.8184C49.4546 42.7523 49.6303 42.735 49.7998 42.7687C49.9693 42.8024 50.1249 42.8856 50.2471 43.0078C50.3693 43.13 50.4525 43.2857 50.4863 43.4552C50.52 43.6246 50.5027 43.8003 50.4365 43.96C50.3704 44.1196 50.2584 44.2561 50.1147 44.3521C49.971 44.4481 49.8021 44.4993 49.6293 44.4993C49.3977 44.4991 49.1755 44.407 49.0117 44.2432C48.8479 44.0794 48.7558 43.8573 48.7556 43.6256Z" fill="#008FA4"/>
<path d="M45.8152 43.6256C45.8152 43.4528 45.8664 43.2839 45.9624 43.1402C46.0584 42.9965 46.1949 42.8845 46.3546 42.8184C46.5142 42.7523 46.6899 42.735 46.8594 42.7687C47.0288 42.8024 47.1845 42.8856 47.3067 43.0078C47.4289 43.13 47.5121 43.2857 47.5458 43.4552C47.5795 43.6246 47.5622 43.8003 47.4961 43.96C47.43 44.1196 47.318 44.2561 47.1743 44.3521C47.0306 44.4481 46.8617 44.4993 46.6889 44.4993C46.4572 44.4991 46.2351 44.407 46.0713 44.2432C45.9075 44.0794 45.8154 43.8573 45.8152 43.6256Z" fill="#008FA4"/>
<path d="M42.8777 43.6256C42.8777 43.4528 42.9289 43.2839 43.0249 43.1402C43.1209 42.9965 43.2574 42.8845 43.4171 42.8184C43.5767 42.7523 43.7524 42.735 43.9219 42.7687C44.0913 42.8024 44.247 42.8856 44.3692 43.0078C44.4914 43.13 44.5746 43.2857 44.6083 43.4552C44.642 43.6246 44.6247 43.8003 44.5586 43.96C44.4925 44.1196 44.3805 44.2561 44.2368 44.3521C44.0931 44.4481 43.9242 44.4993 43.7514 44.4993C43.5197 44.4991 43.2976 44.407 43.1338 44.2432C42.97 44.0794 42.8779 43.8573 42.8777 43.6256Z" fill="#008FA4"/>
<path d="M39.9392 43.6256C39.9392 43.4528 39.9904 43.2839 40.0865 43.1402C40.1825 42.9965 40.3189 42.8845 40.4786 42.8184C40.6382 42.7523 40.8139 42.735 40.9834 42.7687C41.1529 42.8024 41.3085 42.8856 41.4307 43.0078C41.5529 43.13 41.6361 43.2857 41.6698 43.4552C41.7036 43.6246 41.6863 43.8003 41.6201 43.96C41.554 44.1196 41.442 44.2561 41.2983 44.3521C41.1547 44.4481 40.9857 44.4993 40.8129 44.4993C40.5813 44.4991 40.3591 44.407 40.1953 44.2432C40.0315 44.0794 39.9394 43.8573 39.9392 43.6256Z" fill="#008FA4"/>
<path d="M37.001 43.6256C37.001 43.4528 37.0522 43.2839 37.1482 43.1402C37.2442 42.9965 37.3807 42.8845 37.5403 42.8184C37.7 42.7523 37.8757 42.735 38.0452 42.7687C38.2146 42.8024 38.3703 42.8856 38.4925 43.0078C38.6147 43.13 38.6979 43.2857 38.7316 43.4552C38.7653 43.6246 38.748 43.8003 38.6819 43.96C38.6158 44.1196 38.5038 44.2561 38.3601 44.3521C38.2164 44.4481 38.0475 44.4993 37.8747 44.4993C37.643 44.4991 37.4209 44.407 37.2571 44.2432C37.0933 44.0794 37.0012 43.8573 37.001 43.6256Z" fill="#008FA4"/>
<path d="M34.0613 43.6256C34.0613 43.4528 34.1125 43.2839 34.2085 43.1402C34.3045 42.9965 34.441 42.8845 34.6006 42.8184C34.7603 42.7523 34.936 42.735 35.1054 42.7687C35.2749 42.8024 35.4306 42.8856 35.5528 43.0078C35.675 43.13 35.7582 43.2857 35.7919 43.4552C35.8256 43.6246 35.8083 43.8003 35.7422 43.96C35.6761 44.1196 35.5641 44.2561 35.4204 44.3521C35.2767 44.4481 35.1078 44.4993 34.935 44.4993C34.7033 44.4991 34.4812 44.407 34.3174 44.2432C34.1536 44.0794 34.0615 43.8573 34.0613 43.6256Z" fill="#008FA4"/>
<path d="M31.123 43.6256C31.123 43.4528 31.1743 43.2839 31.2703 43.1402C31.3663 42.9965 31.5028 42.8845 31.6624 42.8184C31.8221 42.7523 31.9977 42.735 32.1672 42.7687C32.3367 42.8024 32.4924 42.8856 32.6146 43.0078C32.7368 43.13 32.82 43.2857 32.8537 43.4552C32.8874 43.6246 32.8701 43.8003 32.804 43.96C32.7378 44.1196 32.6259 44.2561 32.4822 44.3521C32.3385 44.4481 32.1696 44.4993 31.9968 44.4993C31.7651 44.4991 31.543 44.407 31.3792 44.2432C31.2154 44.0794 31.1232 43.8573 31.123 43.6256Z" fill="#008FA4"/>
<path d="M28.1848 43.6256C28.1848 43.4528 28.2361 43.2839 28.3321 43.1402C28.4281 42.9965 28.5645 42.8845 28.7242 42.8184C28.8838 42.7523 29.0595 42.735 29.229 42.7687C29.3985 42.8024 29.5541 42.8856 29.6763 43.0078C29.7985 43.13 29.8817 43.2857 29.9155 43.4552C29.9492 43.6246 29.9319 43.8003 29.8657 43.96C29.7996 44.1196 29.6876 44.2561 29.5439 44.3521C29.4003 44.4481 29.2313 44.4993 29.0585 44.4993C28.8269 44.4991 28.6047 44.407 28.4409 44.2432C28.2771 44.0794 28.185 43.8573 28.1848 43.6256Z" fill="#008FA4"/>
<path d="M25.2451 43.6256C25.2451 43.4528 25.2964 43.2839 25.3924 43.1402C25.4884 42.9965 25.6248 42.8845 25.7845 42.8184C25.9441 42.7523 26.1198 42.735 26.2893 42.7687C26.4588 42.8024 26.6145 42.8856 26.7366 43.0078C26.8588 43.13 26.9421 43.2857 26.9758 43.4552C27.0095 43.6246 26.9922 43.8003 26.926 43.96C26.8599 44.1196 26.7479 44.2561 26.6042 44.3521C26.4606 44.4481 26.2916 44.4993 26.1188 44.4993C25.8872 44.4991 25.6651 44.407 25.5012 44.2432C25.3374 44.0794 25.2453 43.8573 25.2451 43.6256Z" fill="#008FA4"/>
<path d="M22.3069 43.6256C22.3069 43.4528 22.3581 43.2839 22.4541 43.1402C22.5501 42.9965 22.6866 42.8845 22.8462 42.8184C23.0059 42.7523 23.1816 42.735 23.3511 42.7687C23.5205 42.8024 23.6762 42.8856 23.7984 43.0078C23.9206 43.13 24.0038 43.2857 24.0375 43.4552C24.0712 43.6246 24.0539 43.8003 23.9878 43.96C23.9217 44.1196 23.8097 44.2561 23.666 44.3521C23.5223 44.4481 23.3534 44.4993 23.1806 44.4993C22.9489 44.4991 22.7268 44.407 22.563 44.2432C22.3992 44.0794 22.3071 43.8573 22.3069 43.6256Z" fill="#008FA4"/>
<path d="M74.0664 9.08557C73.8936 9.08557 73.7246 9.03433 73.5809 8.93832C73.4373 8.84231 73.3253 8.70586 73.2591 8.54621C73.193 8.38656 73.1757 8.21088 73.2094 8.0414C73.2431 7.87191 73.3263 7.71623 73.4485 7.59404C73.5707 7.47185 73.7264 7.38864 73.8959 7.35492C74.0654 7.32121 74.241 7.33851 74.4007 7.40464C74.5603 7.47077 74.6968 7.58276 74.7928 7.72644C74.8888 7.87012 74.9401 8.03905 74.9401 8.21185C74.9399 8.44352 74.8478 8.66564 74.6839 8.82945C74.5201 8.99326 74.298 9.08537 74.0664 9.08557Z" fill="#008FA4"/>
<path d="M74.0664 11.933C73.8936 11.933 73.7246 11.8818 73.5809 11.7858C73.4373 11.6898 73.3253 11.5533 73.2591 11.3937C73.193 11.234 73.1757 11.0584 73.2094 10.8889C73.2431 10.7194 73.3263 10.5637 73.4485 10.4415C73.5707 10.3193 73.7264 10.2361 73.8959 10.2024C74.0654 10.1687 74.241 10.186 74.4007 10.2521C74.5603 10.3182 74.6968 10.4302 74.7928 10.5739C74.8888 10.7176 74.9401 10.8865 74.9401 11.0593C74.9399 11.291 74.8478 11.5131 74.6839 11.6769C74.5201 11.8407 74.298 11.9328 74.0664 11.933Z" fill="#008FA4"/>
<path d="M74.0664 14.7819C73.8936 14.7819 73.7246 14.7307 73.5809 14.6347C73.4373 14.5387 73.3253 14.4022 73.2591 14.2426C73.193 14.0829 73.1757 13.9072 73.2094 13.7377C73.2431 13.5683 73.3263 13.4126 73.4485 13.2904C73.5707 13.1682 73.7264 13.085 73.8959 13.0513C74.0654 13.0176 74.241 13.0349 74.4007 13.101C74.5603 13.1671 74.6968 13.2791 74.7928 13.4228C74.8888 13.5665 74.9401 13.7354 74.9401 13.9082C74.9399 14.1399 74.8478 14.362 74.6839 14.5258C74.5201 14.6896 74.298 14.7817 74.0664 14.7819Z" fill="#008FA4"/>
<path d="M74.0664 17.6294C73.8936 17.6294 73.7246 17.5781 73.5809 17.4821C73.4373 17.3861 73.3253 17.2497 73.2591 17.09C73.193 16.9304 73.1757 16.7547 73.2094 16.5852C73.2431 16.4157 73.3263 16.2601 73.4485 16.1379C73.5707 16.0157 73.7264 15.9325 73.8959 15.8987C74.0654 15.865 74.241 15.8823 74.4007 15.9485C74.5603 16.0146 74.6968 16.1266 74.7928 16.2703C74.8888 16.4139 74.9401 16.5829 74.9401 16.7557C74.9399 16.9873 74.8478 17.2095 74.6839 17.3733C74.5201 17.5371 74.298 17.6292 74.0664 17.6294Z" fill="#008FA4"/>
<path d="M74.0664 20.4783C73.8936 20.4783 73.7246 20.4271 73.5809 20.3311C73.4373 20.2351 73.3253 20.0986 73.2591 19.939C73.193 19.7793 73.1757 19.6036 73.2094 19.4342C73.2431 19.2647 73.3263 19.109 73.4485 18.9868C73.5707 18.8646 73.7264 18.7814 73.8959 18.7477C74.0654 18.714 74.241 18.7313 74.4007 18.7974C74.5603 18.8635 74.6968 18.9755 74.7928 19.1192C74.8888 19.2629 74.9401 19.4318 74.9401 19.6046C74.9399 19.8363 74.8478 20.0584 74.6839 20.2222C74.5201 20.386 74.298 20.4781 74.0664 20.4783Z" fill="#008FA4"/>
<path d="M74.0664 23.3257C73.8936 23.3257 73.7246 23.2745 73.5809 23.1785C73.4373 23.0825 73.3253 22.946 73.2591 22.7864C73.193 22.6267 73.1757 22.4511 73.2094 22.2816C73.2431 22.1121 73.3263 21.9564 73.4485 21.8342C73.5707 21.712 73.7264 21.6288 73.8959 21.5951C74.0654 21.5614 74.241 21.5787 74.4007 21.6448C74.5603 21.7109 74.6968 21.8229 74.7928 21.9666C74.8888 22.1103 74.9401 22.2792 74.9401 22.452C74.9399 22.6837 74.8478 22.9058 74.6839 23.0696C74.5201 23.2334 74.298 23.3255 74.0664 23.3257Z" fill="#008FA4"/>
<path d="M74.0664 26.1732C73.8936 26.1732 73.7246 26.122 73.5809 26.026C73.4373 25.93 73.3253 25.7935 73.2591 25.6339C73.193 25.4742 73.1757 25.2985 73.2094 25.129C73.2431 24.9596 73.3263 24.8039 73.4485 24.6817C73.5707 24.5595 73.7264 24.4763 73.8959 24.4426C74.0654 24.4089 74.241 24.4262 74.4007 24.4923C74.5603 24.5584 74.6968 24.6704 74.7928 24.8141C74.8888 24.9578 74.9401 25.1267 74.9401 25.2995C74.9399 25.5312 74.8478 25.7533 74.6839 25.9171C74.5201 26.0809 74.298 26.173 74.0664 26.1732Z" fill="#008FA4"/>
<path d="M74.0664 29.0221C73.8936 29.0221 73.7246 28.9709 73.5809 28.8749C73.4373 28.7788 73.3253 28.6424 73.2591 28.4827C73.193 28.3231 73.1757 28.1474 73.2094 27.9779C73.2431 27.8084 73.3263 27.6528 73.4485 27.5306C73.5707 27.4084 73.7264 27.3252 73.8959 27.2914C74.0654 27.2577 74.241 27.275 74.4007 27.3412C74.5603 27.4073 74.6968 27.5193 74.7928 27.663C74.8888 27.8067 74.9401 27.9756 74.9401 28.1484C74.9399 28.38 74.8478 28.6022 74.6839 28.766C74.5201 28.9298 74.298 29.0219 74.0664 29.0221Z" fill="#008FA4"/>
<path d="M74.0664 31.8696C73.8936 31.8696 73.7246 31.8183 73.5809 31.7223C73.4373 31.6263 73.3253 31.4899 73.2591 31.3302C73.193 31.1706 73.1757 30.9949 73.2094 30.8254C73.2431 30.6559 73.3263 30.5002 73.4485 30.378C73.5707 30.2559 73.7264 30.1726 73.8959 30.1389C74.0654 30.1052 74.241 30.1225 74.4007 30.1886C74.5603 30.2548 74.6968 30.3668 74.7928 30.5104C74.8888 30.6541 74.9401 30.8231 74.9401 30.9959C74.9399 31.2275 74.8478 31.4496 74.6839 31.6134C74.5201 31.7773 74.298 31.8694 74.0664 31.8696Z" fill="#008FA4"/>
<path d="M74.0664 34.7185C73.8936 34.7185 73.7246 34.6673 73.5809 34.5713C73.4373 34.4752 73.3253 34.3388 73.2591 34.1791C73.193 34.0195 73.1757 33.8438 73.2094 33.6743C73.2431 33.5048 73.3263 33.3492 73.4485 33.227C73.5707 33.1048 73.7264 33.0216 73.8959 32.9879C74.0654 32.9541 74.241 32.9714 74.4007 33.0376C74.5603 33.1037 74.6968 33.2157 74.7928 33.3594C74.8888 33.5031 74.9401 33.672 74.9401 33.8448C74.9399 34.0764 74.8478 34.2986 74.6839 34.4624C74.5201 34.6262 74.298 34.7183 74.0664 34.7185Z" fill="#008FA4"/>
<path d="M74.0664 37.566C73.8936 37.566 73.7246 37.5147 73.5809 37.4187C73.4373 37.3227 73.3253 37.1863 73.2591 37.0266C73.193 36.867 73.1757 36.6913 73.2094 36.5218C73.2431 36.3523 73.3263 36.1966 73.4485 36.0744C73.5707 35.9523 73.7264 35.869 73.8959 35.8353C74.0654 35.8016 74.241 35.8189 74.4007 35.885C74.5603 35.9512 74.6968 36.0632 74.7928 36.2068C74.8888 36.3505 74.9401 36.5195 74.9401 36.6923C74.9399 36.9239 74.8478 37.146 74.6839 37.3099C74.5201 37.4737 74.298 37.5658 74.0664 37.566Z" fill="#008FA4"/>
<path d="M1.77411 12.0348C1.57223 12.0361 1.37616 11.9672 1.21935 11.8401C1.06254 11.7129 0.954694 11.5353 0.914206 11.3375C0.873718 11.1397 0.903094 10.934 0.997325 10.7555C1.09156 10.5769 1.24481 10.4366 1.43094 10.3584C1.61708 10.2802 1.82457 10.269 2.01804 10.3267C2.21151 10.3844 2.37897 10.5075 2.49186 10.6748C2.60476 10.8422 2.6561 11.0436 2.63713 11.2446C2.61816 11.4456 2.53006 11.6337 2.38784 11.777C2.30784 11.8587 2.21234 11.9235 2.10696 11.9678C2.00158 12.0121 1.88842 12.0349 1.77411 12.0348Z" fill="#008FA4"/>
<path d="M3.59611 9.99883C3.42352 9.99969 3.25454 9.94938 3.11053 9.85424C2.96652 9.7591 2.85395 9.62341 2.78703 9.46431C2.72012 9.30522 2.70186 9.12985 2.73458 8.96039C2.76729 8.79092 2.8495 8.63495 2.97083 8.51219C3.09216 8.38944 3.24715 8.3054 3.41622 8.27069C3.58529 8.23599 3.76086 8.25219 3.92073 8.31723C4.0806 8.38228 4.2176 8.49325 4.31442 8.63613C4.41124 8.77902 4.46354 8.94739 4.4647 9.11998C4.46567 9.2348 4.44393 9.34868 4.40075 9.45507C4.35757 9.56147 4.29379 9.65828 4.21307 9.73994C4.13236 9.82161 4.0363 9.88652 3.93042 9.93095C3.82455 9.97538 3.71093 9.99845 3.59611 9.99883Z" fill="#008FA4"/>
<path d="M5.54289 8.06243C5.37029 8.06329 5.20132 8.01298 5.05731 7.91784C4.9133 7.8227 4.80072 7.68701 4.73381 7.52791C4.66689 7.36881 4.64864 7.19345 4.68135 7.02398C4.71407 6.85452 4.79628 6.69855 4.91761 6.57579C5.03893 6.45303 5.19393 6.36899 5.363 6.33429C5.53207 6.29959 5.70763 6.31579 5.8675 6.38083C6.02738 6.44588 6.16438 6.55685 6.2612 6.69973C6.35802 6.84262 6.41032 7.01099 6.41148 7.18358C6.41244 7.2984 6.39071 7.41228 6.34753 7.51867C6.30435 7.62506 6.24057 7.72187 6.15985 7.80354C6.07914 7.88521 5.98308 7.95012 5.8772 7.99455C5.77132 8.03898 5.65771 8.06204 5.54289 8.06243Z" fill="#008FA4"/>
<path d="M7.49163 6.12828C7.31885 6.12915 7.1497 6.07873 7.00559 5.9834C6.86149 5.88807 6.74891 5.75212 6.68212 5.59277C6.61533 5.43341 6.59733 5.25783 6.63039 5.08824C6.66346 4.91864 6.74611 4.76268 6.86788 4.64009C6.98964 4.51751 7.14505 4.43381 7.31441 4.3996C7.48378 4.3654 7.65948 4.38222 7.81928 4.44794C7.97908 4.51365 8.11578 4.62531 8.21208 4.76877C8.30837 4.91224 8.35993 5.08105 8.36023 5.25383C8.36119 5.36865 8.33946 5.48253 8.29628 5.58892C8.25309 5.69531 8.18931 5.79213 8.1086 5.87379C8.02789 5.95546 7.93183 6.02037 7.82595 6.0648C7.72007 6.10923 7.60646 6.1323 7.49163 6.13268" fill="#008FA4"/>
<path d="M9.43839 4.19188C9.2658 4.19275 9.09682 4.14243 8.95282 4.04729C8.80881 3.95215 8.69623 3.81646 8.62932 3.65737C8.5624 3.49827 8.54415 3.32291 8.57686 3.15344C8.60957 2.98397 8.69179 2.828 8.81312 2.70525C8.93444 2.58249 9.08943 2.49845 9.2585 2.46375C9.42758 2.42905 9.60314 2.44524 9.76301 2.51029C9.92288 2.57533 10.0599 2.68631 10.1567 2.82919C10.2535 2.97207 10.3058 3.14045 10.307 3.31304C10.308 3.42786 10.2862 3.54173 10.243 3.64813C10.1999 3.75452 10.1361 3.85133 10.0554 3.933C9.97465 4.01466 9.87859 4.07958 9.77271 4.124C9.66683 4.16843 9.55322 4.1915 9.43839 4.19188Z" fill="#008FA4"/>
<path d="M1.64374 14.7819C1.47093 14.7819 1.30201 14.7307 1.15833 14.6347C1.01464 14.5387 0.902657 14.4022 0.836528 14.2426C0.770398 14.0829 0.753096 13.9072 0.786808 13.7377C0.820521 13.5683 0.903734 13.4126 1.02593 13.2904C1.14812 13.1682 1.3038 13.085 1.47328 13.0513C1.64277 13.0176 1.81844 13.0349 1.97809 13.101C2.13774 13.1671 2.2742 13.2791 2.37021 13.4228C2.46621 13.5665 2.51745 13.7354 2.51745 13.9082C2.51726 14.1399 2.42515 14.362 2.26133 14.5258C2.09752 14.6896 1.8754 14.7817 1.64374 14.7819Z" fill="#008FA4"/>
<path d="M1.64374 17.6294C1.47108 17.6292 1.30234 17.5779 1.15886 17.4819C1.01538 17.3858 0.903597 17.2494 0.837657 17.0898C0.771716 16.9302 0.754576 16.7547 0.788402 16.5854C0.822228 16.4161 0.905503 16.2606 1.02769 16.1386C1.14989 16.0166 1.30551 15.9336 1.47488 15.9001C1.64425 15.8665 1.81976 15.8839 1.97922 15.9502C2.13868 16.0164 2.27493 16.1284 2.37074 16.272C2.46654 16.4157 2.5176 16.5845 2.51745 16.7571C2.51707 16.9886 2.42484 17.2105 2.26103 17.374C2.09722 17.5375 1.87521 17.6294 1.64374 17.6294Z" fill="#008FA4"/>
<path d="M1.64374 20.4783C1.47093 20.4783 1.30201 20.4271 1.15833 20.3311C1.01464 20.2351 0.902657 20.0986 0.836528 19.939C0.770398 19.7793 0.753096 19.6036 0.786808 19.4342C0.820521 19.2647 0.903734 19.109 1.02593 18.9868C1.14812 18.8646 1.3038 18.7814 1.47328 18.7477C1.64277 18.714 1.81844 18.7313 1.97809 18.7974C2.13774 18.8635 2.2742 18.9755 2.37021 19.1192C2.46621 19.2629 2.51745 19.4318 2.51745 19.6046C2.51726 19.8363 2.42515 20.0584 2.26133 20.2222C2.09752 20.386 1.8754 20.4781 1.64374 20.4783Z" fill="#008FA4"/>
<path d="M1.64374 23.3257C1.47093 23.3257 1.30201 23.2745 1.15833 23.1785C1.01464 23.0825 0.902657 22.946 0.836528 22.7864C0.770398 22.6267 0.753096 22.4511 0.786808 22.2816C0.820521 22.1121 0.903734 21.9564 1.02593 21.8342C1.14812 21.712 1.3038 21.6288 1.47328 21.5951C1.64277 21.5614 1.81844 21.5787 1.97809 21.6448C2.13774 21.7109 2.2742 21.8229 2.37021 21.9666C2.46621 22.1103 2.51745 22.2792 2.51745 22.452C2.51726 22.6837 2.42515 22.9058 2.26133 23.0696C2.09752 23.2334 1.8754 23.3255 1.64374 23.3257Z" fill="#008FA4"/>
<path d="M1.64374 26.1732C1.47093 26.1732 1.30201 26.122 1.15833 26.026C1.01464 25.93 0.902657 25.7935 0.836528 25.6339C0.770398 25.4742 0.753096 25.2985 0.786808 25.129C0.820521 24.9596 0.903734 24.8039 1.02593 24.6817C1.14812 24.5595 1.3038 24.4763 1.47328 24.4426C1.64277 24.4089 1.81844 24.4262 1.97809 24.4923C2.13774 24.5584 2.2742 24.6704 2.37021 24.8141C2.46621 24.9578 2.51745 25.1267 2.51745 25.2995C2.51726 25.5312 2.42515 25.7533 2.26133 25.9171C2.09752 26.0809 1.8754 26.173 1.64374 26.1732Z" fill="#008FA4"/>
<path d="M1.64374 29.0221C1.47093 29.0221 1.30201 28.9709 1.15833 28.8749C1.01464 28.7788 0.902657 28.6424 0.836528 28.4827C0.770398 28.3231 0.753096 28.1474 0.786808 27.9779C0.820521 27.8084 0.903734 27.6528 1.02593 27.5306C1.14812 27.4084 1.3038 27.3252 1.47328 27.2914C1.64277 27.2577 1.81844 27.275 1.97809 27.3412C2.13774 27.4073 2.2742 27.5193 2.37021 27.663C2.46621 27.8067 2.51745 27.9756 2.51745 28.1484C2.51726 28.38 2.42515 28.6022 2.26133 28.766C2.09752 28.9298 1.8754 29.0219 1.64374 29.0221Z" fill="#008FA4"/>
<path d="M1.64374 31.8696C1.47093 31.8696 1.30201 31.8183 1.15833 31.7223C1.01464 31.6263 0.902657 31.4899 0.836528 31.3302C0.770398 31.1706 0.753096 30.9949 0.786808 30.8254C0.820521 30.6559 0.903734 30.5002 1.02593 30.378C1.14812 30.2559 1.3038 30.1726 1.47328 30.1389C1.64277 30.1052 1.81844 30.1225 1.97809 30.1886C2.13774 30.2548 2.2742 30.3668 2.37021 30.5104C2.46621 30.6541 2.51745 30.8231 2.51745 30.9959C2.51726 31.2275 2.42515 31.4496 2.26133 31.6134C2.09752 31.7773 1.8754 31.8694 1.64374 31.8696Z" fill="#008FA4"/>
<path d="M1.64374 34.7185C1.47093 34.7185 1.30201 34.6673 1.15833 34.5713C1.01464 34.4752 0.902657 34.3388 0.836528 34.1791C0.770398 34.0195 0.753096 33.8438 0.786808 33.6743C0.820521 33.5048 0.903734 33.3492 1.02593 33.227C1.14812 33.1048 1.3038 33.0216 1.47328 32.9879C1.64277 32.9541 1.81844 32.9714 1.97809 33.0376C2.13774 33.1037 2.2742 33.2157 2.37021 33.3594C2.46621 33.5031 2.51745 33.672 2.51745 33.8448C2.51726 34.0764 2.42515 34.2986 2.26133 34.4624C2.09752 34.6262 1.8754 34.7183 1.64374 34.7185Z" fill="#008FA4"/>
<path d="M1.64374 37.566C1.47093 37.566 1.30201 37.5147 1.15833 37.4187C1.01464 37.3227 0.902657 37.1863 0.836528 37.0266C0.770398 36.867 0.753096 36.6913 0.786808 36.5218C0.820521 36.3523 0.903734 36.1966 1.02593 36.0744C1.14812 35.9523 1.3038 35.869 1.47328 35.8353C1.64277 35.8016 1.81844 35.8189 1.97809 35.885C2.13774 35.9512 2.2742 36.0632 2.37021 36.2068C2.46621 36.3505 2.51745 36.5195 2.51745 36.6923C2.51726 36.9239 2.42515 37.146 2.26133 37.3099C2.09752 37.4737 1.8754 37.5658 1.64374 37.566Z" fill="#008FA4"/>
<path d="M19.3687 43.6256C19.3687 43.4528 19.4199 43.2839 19.5159 43.1402C19.6119 42.9965 19.7484 42.8845 19.908 42.8184C20.0677 42.7523 20.2433 42.735 20.4128 42.7687C20.5823 42.8024 20.738 42.8856 20.8602 43.0078C20.9824 43.13 21.0656 43.2857 21.0993 43.4552C21.133 43.6246 21.1157 43.8003 21.0496 43.96C20.9834 44.1196 20.8715 44.2561 20.7278 44.3521C20.5841 44.4481 20.4152 44.4993 20.2424 44.4993C20.0107 44.4991 19.7886 44.407 19.6248 44.2432C19.461 44.0794 19.3688 43.8573 19.3687 43.6256Z" fill="#008FA4"/>
<path d="M16.4312 43.6256C16.4312 43.4528 16.4824 43.2839 16.5784 43.1402C16.6744 42.9965 16.8109 42.8845 16.9705 42.8184C17.1302 42.7523 17.3058 42.735 17.4753 42.7687C17.6448 42.8024 17.8005 42.8856 17.9227 43.0078C18.0449 43.13 18.1281 43.2857 18.1618 43.4552C18.1955 43.6246 18.1782 43.8003 18.1121 43.96C18.0459 44.1196 17.934 44.2561 17.7903 44.3521C17.6466 44.4481 17.4777 44.4993 17.3049 44.4993C17.0732 44.4991 16.8511 44.407 16.6873 44.2432C16.5235 44.0794 16.4313 43.8573 16.4312 43.6256Z" fill="#008FA4"/>
<path d="M13.4907 43.6256C13.4907 43.4528 13.542 43.2839 13.638 43.1402C13.734 42.9965 13.8704 42.8845 14.0301 42.8184C14.1897 42.7523 14.3654 42.735 14.5349 42.7687C14.7044 42.8024 14.8601 42.8856 14.9822 43.0078C15.1044 43.13 15.1877 43.2857 15.2214 43.4552C15.2551 43.6246 15.2378 43.8003 15.1716 43.96C15.1055 44.1196 14.9935 44.2561 14.8498 44.3521C14.7062 44.4481 14.5372 44.4993 14.3644 44.4993C14.1328 44.4991 13.9107 44.407 13.7468 44.2432C13.583 44.0794 13.4909 43.8573 13.4907 43.6256Z" fill="#008FA4"/>
<path d="M10.5522 43.6256C10.5522 43.4528 10.6035 43.2839 10.6995 43.1402C10.7955 42.9965 10.932 42.8845 11.0916 42.8184C11.2513 42.7523 11.4269 42.735 11.5964 42.7687C11.7659 42.8024 11.9216 42.8856 12.0438 43.0078C12.166 43.13 12.2492 43.2857 12.2829 43.4552C12.3166 43.6246 12.2993 43.8003 12.2332 43.96C12.167 44.1196 12.0551 44.2561 11.9114 44.3521C11.7677 44.4481 11.5988 44.4993 11.426 44.4993C11.1943 44.4991 10.9722 44.407 10.8084 44.2432C10.6446 44.0794 10.5524 43.8573 10.5522 43.6256Z" fill="#008FA4"/>
<path d="M7.61475 43.6256C7.61475 43.4528 7.66599 43.2839 7.76199 43.1402C7.858 42.9965 7.99445 42.8845 8.15411 42.8184C8.31376 42.7523 8.48943 42.735 8.65892 42.7687C8.8284 42.8024 8.98408 42.8856 9.10627 43.0078C9.22847 43.13 9.31168 43.2857 9.34539 43.4552C9.37911 43.6246 9.3618 43.8003 9.29567 43.96C9.22954 44.1196 9.11756 44.2561 8.97388 44.3521C8.83019 44.4481 8.66127 44.4993 8.48846 44.4993C8.2568 44.4991 8.03468 44.407 7.87087 44.2432C7.70706 44.0794 7.61494 43.8573 7.61475 43.6256Z" fill="#008FA4"/>
<path d="M66.386 1.37445C66.386 1.20155 66.4373 1.03254 66.5334 0.888808C66.6295 0.745079 66.7661 0.633094 66.9258 0.56703C67.0856 0.500965 67.2614 0.483791 67.431 0.517682C67.6005 0.551574 67.7562 0.635005 67.8783 0.757417C68.0004 0.879828 68.0834 1.03572 68.1169 1.20534C68.1504 1.37497 68.1328 1.55072 68.0663 1.71033C67.9998 1.86994 67.8875 2.00624 67.7435 2.10199C67.5995 2.19773 67.4304 2.2486 67.2575 2.24816C67.0258 2.24797 66.8037 2.15586 66.6399 1.99204C66.4761 1.82823 66.384 1.60611 66.3838 1.37445" fill="#008FA4"/>
<path d="M63.4478 1.37445C63.4478 1.20164 63.499 1.03272 63.595 0.889039C63.691 0.745357 63.8275 0.63337 63.9871 0.567241C64.1468 0.501111 64.3224 0.483808 64.4919 0.517521C64.6614 0.551234 64.8171 0.634447 64.9393 0.756639C65.0615 0.87883 65.1447 1.03451 65.1784 1.204C65.2121 1.37348 65.1948 1.54916 65.1287 1.70881C65.0625 1.86846 64.9505 2.00491 64.8069 2.10092C64.6632 2.19692 64.4943 2.24817 64.3215 2.24817C64.0898 2.24797 63.8677 2.15586 63.7039 1.99205C63.5401 1.82823 63.4479 1.60611 63.4478 1.37445Z" fill="#008FA4"/>
<path d="M60.5095 1.37445C60.5095 1.20164 60.5608 1.03272 60.6568 0.889039C60.7528 0.745357 60.8892 0.63337 61.0489 0.567241C61.2085 0.501111 61.3842 0.483808 61.5537 0.517521C61.7232 0.551234 61.8789 0.634447 62.0011 0.756639C62.1233 0.87883 62.2064 1.03451 62.2402 1.204C62.2739 1.37348 62.2566 1.54916 62.1905 1.70881C62.1243 1.86846 62.0123 2.00491 61.8687 2.10092C61.725 2.19692 61.556 2.24817 61.3832 2.24817C61.1516 2.24797 60.9294 2.15586 60.7656 1.99205C60.6018 1.82823 60.5097 1.60611 60.5095 1.37445Z" fill="#008FA4"/>
<path d="M57.571 1.37445C57.571 1.20164 57.6223 1.03272 57.7183 0.889039C57.8143 0.745357 57.9508 0.63337 58.1104 0.567241C58.2701 0.501111 58.4457 0.483808 58.6152 0.517521C58.7847 0.551234 58.9404 0.634447 59.0626 0.756639C59.1848 0.87883 59.268 1.03451 59.3017 1.204C59.3354 1.37348 59.3181 1.54916 59.252 1.70881C59.1858 1.86846 59.0739 2.00491 58.9302 2.10092C58.7865 2.19692 58.6176 2.24817 58.4448 2.24817C58.2131 2.24797 57.991 2.15586 57.8272 1.99205C57.6634 1.82823 57.5712 1.60611 57.571 1.37445Z" fill="#008FA4"/>
<path d="M54.6313 1.37445C54.6313 1.20164 54.6826 1.03272 54.7786 0.889039C54.8746 0.745357 55.0111 0.63337 55.1707 0.567241C55.3304 0.501111 55.506 0.483808 55.6755 0.517521C55.845 0.551234 56.0007 0.634447 56.1229 0.756639C56.2451 0.87883 56.3283 1.03451 56.362 1.204C56.3957 1.37348 56.3784 1.54916 56.3123 1.70881C56.2462 1.86846 56.1342 2.00491 55.9905 2.10092C55.8468 2.19692 55.6779 2.24817 55.5051 2.24817C55.2734 2.24797 55.0513 2.15586 54.8875 1.99205C54.7236 1.82823 54.6315 1.60611 54.6313 1.37445Z" fill="#008FA4"/>
<path d="M51.6938 1.37445C51.6938 1.20164 51.7451 1.03272 51.8411 0.889039C51.9371 0.745357 52.0736 0.63337 52.2332 0.567241C52.3929 0.501111 52.5685 0.483808 52.738 0.517521C52.9075 0.551234 53.0632 0.634447 53.1854 0.756639C53.3076 0.87883 53.3908 1.03451 53.4245 1.204C53.4582 1.37348 53.4409 1.54916 53.3748 1.70881C53.3087 1.86846 53.1967 2.00491 53.053 2.10092C52.9093 2.19692 52.7404 2.24817 52.5676 2.24817C52.3359 2.24797 52.1138 2.15586 51.95 1.99205C51.7862 1.82823 51.694 1.60611 51.6938 1.37445Z" fill="#008FA4"/>
<path d="M48.7556 1.37445C48.7556 1.20164 48.8069 1.03272 48.9029 0.889039C48.9989 0.745357 49.1353 0.63337 49.295 0.567241C49.4546 0.501111 49.6303 0.483808 49.7998 0.517521C49.9693 0.551234 50.1249 0.634447 50.2471 0.756639C50.3693 0.87883 50.4525 1.03451 50.4863 1.204C50.52 1.37348 50.5027 1.54916 50.4365 1.70881C50.3704 1.86846 50.2584 2.00491 50.1147 2.10092C49.971 2.19692 49.8021 2.24817 49.6293 2.24817C49.3977 2.24797 49.1755 2.15586 49.0117 1.99205C48.8479 1.82823 48.7558 1.60611 48.7556 1.37445Z" fill="#008FA4"/>
<path d="M45.8152 1.37445C45.8152 1.20164 45.8664 1.03272 45.9624 0.889039C46.0584 0.745357 46.1949 0.63337 46.3546 0.567241C46.5142 0.501111 46.6899 0.483808 46.8594 0.517521C47.0288 0.551234 47.1845 0.634447 47.3067 0.756639C47.4289 0.87883 47.5121 1.03451 47.5458 1.204C47.5795 1.37348 47.5622 1.54916 47.4961 1.70881C47.43 1.86846 47.318 2.00491 47.1743 2.10092C47.0306 2.19692 46.8617 2.24817 46.6889 2.24817C46.4572 2.24797 46.2351 2.15586 46.0713 1.99205C45.9075 1.82823 45.8154 1.60611 45.8152 1.37445Z" fill="#008FA4"/>
<path d="M42.8777 1.37445C42.8777 1.20155 42.929 1.03254 43.0251 0.888808C43.1212 0.745079 43.2578 0.633094 43.4176 0.56703C43.5773 0.500965 43.7531 0.483791 43.9227 0.517682C44.0922 0.551574 44.2479 0.635005 44.37 0.757417C44.4921 0.879828 44.5751 1.03572 44.6086 1.20534C44.6421 1.37497 44.6245 1.55072 44.558 1.71033C44.4915 1.86994 44.3792 2.00624 44.2352 2.10199C44.0912 2.19773 43.9221 2.2486 43.7492 2.24816C43.5175 2.24797 43.2954 2.15586 43.1316 1.99204C42.9678 1.82823 42.8757 1.60611 42.8755 1.37445" fill="#008FA4"/>
<path d="M39.9392 1.37445C39.9392 1.20164 39.9904 1.03272 40.0865 0.889039C40.1825 0.745357 40.3189 0.63337 40.4786 0.567241C40.6382 0.501111 40.8139 0.483808 40.9834 0.517521C41.1529 0.551234 41.3085 0.634447 41.4307 0.756639C41.5529 0.87883 41.6361 1.03451 41.6698 1.204C41.7036 1.37348 41.6863 1.54916 41.6201 1.70881C41.554 1.86846 41.442 2.00491 41.2983 2.10092C41.1547 2.19692 40.9857 2.24817 40.8129 2.24817C40.5813 2.24797 40.3591 2.15586 40.1953 1.99205C40.0315 1.82823 39.9394 1.60611 39.9392 1.37445Z" fill="#008FA4"/>
<path d="M37.001 1.37445C37.001 1.20164 37.0522 1.03272 37.1482 0.889039C37.2442 0.745357 37.3807 0.63337 37.5403 0.567241C37.7 0.501111 37.8757 0.483808 38.0452 0.517521C38.2146 0.551234 38.3703 0.634447 38.4925 0.756639C38.6147 0.87883 38.6979 1.03451 38.7316 1.204C38.7653 1.37348 38.748 1.54916 38.6819 1.70881C38.6158 1.86846 38.5038 2.00491 38.3601 2.10092C38.2164 2.19692 38.0475 2.24817 37.8747 2.24817C37.643 2.24797 37.4209 2.15586 37.2571 1.99205C37.0933 1.82823 37.0012 1.60611 37.001 1.37445Z" fill="#008FA4"/>
<path d="M34.0613 1.37445C34.0613 1.20164 34.1125 1.03272 34.2085 0.889039C34.3045 0.745357 34.441 0.63337 34.6006 0.567241C34.7603 0.501111 34.936 0.483808 35.1054 0.517521C35.2749 0.551234 35.4306 0.634447 35.5528 0.756639C35.675 0.87883 35.7582 1.03451 35.7919 1.204C35.8256 1.37348 35.8083 1.54916 35.7422 1.70881C35.6761 1.86846 35.5641 2.00491 35.4204 2.10092C35.2767 2.19692 35.1078 2.24817 34.935 2.24817C34.7033 2.24797 34.4812 2.15586 34.3174 1.99205C34.1536 1.82823 34.0615 1.60611 34.0613 1.37445Z" fill="#008FA4"/>
<path d="M31.123 1.37445C31.123 1.20164 31.1743 1.03272 31.2703 0.889039C31.3663 0.745357 31.5028 0.63337 31.6624 0.567241C31.8221 0.501111 31.9977 0.483808 32.1672 0.517521C32.3367 0.551234 32.4924 0.634447 32.6146 0.756639C32.7368 0.87883 32.82 1.03451 32.8537 1.204C32.8874 1.37348 32.8701 1.54916 32.804 1.70881C32.7378 1.86846 32.6259 2.00491 32.4822 2.10092C32.3385 2.19692 32.1696 2.24817 31.9968 2.24817C31.7651 2.24797 31.543 2.15586 31.3792 1.99205C31.2154 1.82823 31.1232 1.60611 31.123 1.37445Z" fill="#008FA4"/>
<path d="M28.1848 1.37445C28.1848 1.20164 28.2361 1.03272 28.3321 0.889039C28.4281 0.745357 28.5645 0.63337 28.7242 0.567241C28.8838 0.501111 29.0595 0.483808 29.229 0.517521C29.3985 0.551234 29.5541 0.634447 29.6763 0.756639C29.7985 0.87883 29.8817 1.03451 29.9155 1.204C29.9492 1.37348 29.9319 1.54916 29.8657 1.70881C29.7996 1.86846 29.6876 2.00491 29.5439 2.10092C29.4003 2.19692 29.2313 2.24817 29.0585 2.24817C28.8269 2.24797 28.6047 2.15586 28.4409 1.99205C28.2771 1.82823 28.185 1.60611 28.1848 1.37445Z" fill="#008FA4"/>
<path d="M25.2451 1.37445C25.2451 1.20164 25.2964 1.03272 25.3924 0.889039C25.4884 0.745357 25.6248 0.63337 25.7845 0.567241C25.9441 0.501111 26.1198 0.483808 26.2893 0.517521C26.4588 0.551234 26.6145 0.634447 26.7366 0.756639C26.8588 0.87883 26.9421 1.03451 26.9758 1.204C27.0095 1.37348 26.9922 1.54916 26.926 1.70881C26.8599 1.86846 26.7479 2.00491 26.6042 2.10092C26.4606 2.19692 26.2916 2.24817 26.1188 2.24817C25.8872 2.24797 25.6651 2.15586 25.5012 1.99205C25.3374 1.82823 25.2453 1.60611 25.2451 1.37445Z" fill="#008FA4"/>
<path d="M22.3069 1.37445C22.3069 1.20164 22.3581 1.03272 22.4541 0.889039C22.5501 0.745357 22.6866 0.63337 22.8462 0.567241C23.0059 0.501111 23.1816 0.483808 23.3511 0.517521C23.5205 0.551234 23.6762 0.634447 23.7984 0.756639C23.9206 0.87883 24.0038 1.03451 24.0375 1.204C24.0712 1.37348 24.0539 1.54916 23.9878 1.70881C23.9217 1.86846 23.8097 2.00491 23.666 2.10092C23.5223 2.19692 23.3534 2.24817 23.1806 2.24817C22.9489 2.24797 22.7268 2.15586 22.563 1.99205C22.3992 1.82823 22.3071 1.60611 22.3069 1.37445Z" fill="#008FA4"/>
<path d="M19.3684 1.37445C19.3684 1.20155 19.4197 1.03254 19.5158 0.888808C19.6119 0.745079 19.7485 0.633094 19.9083 0.56703C20.0681 0.500965 20.2438 0.483791 20.4134 0.517682C20.5829 0.551574 20.7386 0.635005 20.8607 0.757417C20.9828 0.879828 21.0659 1.03572 21.0993 1.20534C21.1328 1.37497 21.1152 1.55072 21.0487 1.71033C20.9822 1.86994 20.8699 2.00624 20.7259 2.10199C20.582 2.19773 20.4128 2.2486 20.2399 2.24816C20.0083 2.24797 19.7861 2.15586 19.6223 1.99204C19.4585 1.82823 19.3664 1.60611 19.3662 1.37445" fill="#008FA4"/>
<path d="M16.4312 1.37445C16.4313 1.20179 16.4826 1.03305 16.5787 0.889569C16.6747 0.746088 16.8112 0.63431 16.9707 0.56837C17.1303 0.502429 17.3059 0.485289 17.4752 0.519115C17.6445 0.552941 17.8 0.636216 17.9219 0.758407C18.0439 0.880598 18.1269 1.03622 18.1605 1.20559C18.194 1.37496 18.1766 1.55047 18.1104 1.70994C18.0442 1.8694 17.9322 2.00564 17.7885 2.10145C17.6449 2.19725 17.4761 2.24831 17.3034 2.24817C17.1888 2.24807 17.0753 2.22539 16.9694 2.18143C16.8635 2.13747 16.7673 2.07309 16.6863 1.99196C16.6053 1.91083 16.5411 1.81453 16.4973 1.70858C16.4535 1.60263 16.4311 1.48909 16.4312 1.37445Z" fill="#008FA4"/>
<path d="M13.4907 1.37445C13.4907 1.20164 13.542 1.03272 13.638 0.889039C13.734 0.745357 13.8704 0.63337 14.0301 0.567241C14.1897 0.501111 14.3654 0.483808 14.5349 0.517521C14.7044 0.551234 14.8601 0.634447 14.9822 0.756639C15.1044 0.87883 15.1877 1.03451 15.2214 1.204C15.2551 1.37348 15.2378 1.54916 15.1716 1.70881C15.1055 1.86846 14.9935 2.00491 14.8498 2.10092C14.7062 2.19692 14.5372 2.24817 14.3644 2.24817C14.1328 2.24797 13.9107 2.15586 13.7468 1.99205C13.583 1.82823 13.4909 1.60611 13.4907 1.37445Z" fill="#008FA4"/>
<path d="M10.5952 1.49896C10.5962 1.32628 10.6484 1.15778 10.7451 1.01473C10.8418 0.871673 10.9788 0.760487 11.1386 0.695208C11.2985 0.62993 11.4741 0.613486 11.6433 0.647954C11.8125 0.682422 11.9677 0.766255 12.0893 0.888868C12.2109 1.01148 12.2934 1.16737 12.3265 1.33686C12.3595 1.50635 12.3416 1.68183 12.275 1.84114C12.2084 2.00045 12.0961 2.13646 11.9522 2.23197C11.8084 2.32749 11.6394 2.37823 11.4667 2.3778C11.3518 2.37742 11.238 2.35437 11.132 2.30998C11.026 2.26559 10.9297 2.20072 10.8488 2.11909C10.7678 2.03747 10.7037 1.94068 10.6602 1.83427C10.6167 1.72786 10.5946 1.61392 10.5952 1.49896Z" fill="#008FA4"/>
<path d="M69.3257 43.5721C69.3257 43.3993 69.3769 43.2304 69.4729 43.0867C69.5689 42.943 69.7054 42.8311 69.865 42.7649C70.0247 42.6988 70.2004 42.6815 70.3698 42.7152C70.5393 42.7489 70.695 42.8321 70.8172 42.9543C70.9394 43.0765 71.0226 43.2322 71.0563 43.4017C71.09 43.5712 71.0727 43.7468 71.0066 43.9065C70.9405 44.0662 70.8285 44.2026 70.6848 44.2986C70.5411 44.3946 70.3722 44.4459 70.1994 44.4459C69.9677 44.4457 69.7456 44.3535 69.5818 44.1897C69.418 44.0259 69.3259 43.8038 69.3257 43.5721Z" fill="#008FA4"/>
<path d="M71.9717 42.1931C71.9717 42.0202 72.0229 41.8513 72.1189 41.7076C72.2149 41.564 72.3514 41.452 72.511 41.3858C72.6707 41.3197 72.8464 41.3024 73.0159 41.3361C73.1853 41.3698 73.341 41.453 73.4632 41.5752C73.5854 41.6974 73.6686 41.8531 73.7023 42.0226C73.736 42.1921 73.7187 42.3678 73.6526 42.5274C73.5865 42.6871 73.4745 42.8235 73.3308 42.9195C73.1871 43.0155 73.0182 43.0668 72.8454 43.0668C72.6137 43.0666 72.3916 42.9745 72.2278 42.8106C72.064 42.6468 71.9719 42.4247 71.9717 42.1931Z" fill="#008FA4"/>
<path d="M73.1589 39.5412C73.1589 39.3684 73.2102 39.1995 73.3062 39.0558C73.4022 38.9121 73.5387 38.8001 73.6983 38.734C73.858 38.6679 74.0336 38.6506 74.2031 38.6843C74.3726 38.718 74.5283 38.8012 74.6505 38.9234C74.7727 39.0456 74.8559 39.2013 74.8896 39.3707C74.9233 39.5402 74.906 39.7159 74.8399 39.8756C74.7737 40.0352 74.6618 40.1717 74.5181 40.2677C74.3744 40.3637 74.2055 40.4149 74.0327 40.4149C73.801 40.4147 73.5789 40.3226 73.4151 40.1588C73.2513 39.995 73.1591 39.7729 73.1589 39.5412Z" fill="#008FA4"/>
<path d="M69.3257 43.5721C69.3257 43.3993 69.3769 43.2304 69.4729 43.0867C69.5689 42.943 69.7054 42.8311 69.865 42.7649C70.0247 42.6988 70.2004 42.6815 70.3698 42.7152C70.5393 42.7489 70.695 42.8321 70.8172 42.9543C70.9394 43.0765 71.0226 43.2322 71.0563 43.4017C71.09 43.5712 71.0727 43.7468 71.0066 43.9065C70.9405 44.0662 70.8285 44.2026 70.6848 44.2986C70.5411 44.3946 70.3722 44.4459 70.1994 44.4459C69.9677 44.4457 69.7456 44.3535 69.5818 44.1897C69.418 44.0259 69.3259 43.8038 69.3257 43.5721Z" fill="#008FA4"/>
<path d="M71.9717 42.1931C71.9717 42.0202 72.0229 41.8513 72.1189 41.7076C72.2149 41.564 72.3514 41.452 72.511 41.3858C72.6707 41.3197 72.8464 41.3024 73.0159 41.3361C73.1853 41.3698 73.341 41.453 73.4632 41.5752C73.5854 41.6974 73.6686 41.8531 73.7023 42.0226C73.736 42.1921 73.7187 42.3678 73.6526 42.5274C73.5865 42.6871 73.4745 42.8235 73.3308 42.9195C73.1871 43.0155 73.0182 43.0668 72.8454 43.0668C72.6137 43.0666 72.3916 42.9745 72.2278 42.8106C72.064 42.6468 71.9719 42.4247 71.9717 42.1931Z" fill="#008FA4"/>
<path d="M73.1589 39.5412C73.1589 39.3684 73.2102 39.1995 73.3062 39.0558C73.4022 38.9121 73.5387 38.8001 73.6983 38.734C73.858 38.6679 74.0336 38.6506 74.2031 38.6843C74.3726 38.718 74.5283 38.8012 74.6505 38.9234C74.7727 39.0456 74.8559 39.2013 74.8896 39.3707C74.9233 39.5402 74.906 39.7159 74.8399 39.8756C74.7737 40.0352 74.6618 40.1717 74.5181 40.2677C74.3744 40.3637 74.2055 40.4149 74.0327 40.4149C73.801 40.4147 73.5789 40.3226 73.4151 40.1588C73.2513 39.995 73.1591 39.7729 73.1589 39.5412Z" fill="#008FA4"/>
<path d="M69.3257 1.37445C69.3257 1.54725 69.3769 1.71618 69.4729 1.85986C69.5689 2.00354 69.7054 2.11553 69.865 2.18166C70.0247 2.24779 70.2004 2.26509 70.3698 2.23138C70.5393 2.19767 70.695 2.11445 70.8172 1.99226C70.9394 1.87007 71.0226 1.71439 71.0563 1.5449C71.09 1.37542 71.0727 1.19974 71.0066 1.04009C70.9405 0.880441 70.8285 0.743986 70.6848 0.64798C70.5411 0.551975 70.3722 0.500732 70.1994 0.500732C69.9677 0.500926 69.7456 0.593041 69.5818 0.756852C69.418 0.920664 69.3259 1.14278 69.3257 1.37445Z" fill="#008FA4"/>
<path d="M71.9717 2.75348C71.9717 2.92628 72.0229 3.09521 72.1189 3.23889C72.2149 3.38257 72.3514 3.49456 72.511 3.56069C72.6707 3.62682 72.8464 3.64412 73.0159 3.61041C73.1853 3.57669 73.341 3.49348 73.4632 3.37129C73.5854 3.2491 73.6686 3.09342 73.7023 2.92393C73.736 2.75445 73.7187 2.57877 73.6526 2.41912C73.5865 2.25947 73.4745 2.12301 73.3308 2.02701C73.1871 1.931 73.0182 1.87976 72.8454 1.87976C72.6137 1.87995 72.3916 1.97207 72.2278 2.13588C72.064 2.29969 71.9719 2.52181 71.9717 2.75348Z" fill="#008FA4"/>
<path d="M73.1589 5.40539C73.1589 5.5782 73.2102 5.74712 73.3062 5.89081C73.4022 6.03449 73.5387 6.14647 73.6983 6.2126C73.858 6.27873 74.0336 6.29604 74.2031 6.26232C74.3726 6.22861 74.5283 6.1454 74.6505 6.02321C74.7727 5.90101 74.8559 5.74533 74.8896 5.57585C74.9233 5.40636 74.906 5.23069 74.8399 5.07104C74.7737 4.91139 74.6618 4.77493 74.5181 4.67893C74.3744 4.58292 74.2055 4.53168 74.0327 4.53168C73.801 4.53187 73.5789 4.62399 73.4151 4.7878C73.2513 4.95161 73.1591 5.17373 73.1589 5.40539Z" fill="#008FA4"/>
<path d="M6.36609 43.5736C6.36609 43.4008 6.31484 43.2319 6.21884 43.0882C6.12283 42.9445 5.98638 42.8325 5.82673 42.7664C5.66708 42.7003 5.4914 42.683 5.32192 42.7167C5.15243 42.7504 4.99675 42.8336 4.87456 42.9558C4.75237 43.078 4.66915 43.2337 4.63544 43.4032C4.60173 43.5726 4.61903 43.7483 4.68516 43.908C4.75129 44.0676 4.86328 44.2041 5.00696 44.3001C5.15064 44.3961 5.31956 44.4473 5.49237 44.4473C5.72403 44.4471 5.94616 44.355 6.10997 44.1912C6.27378 44.0274 6.36589 43.8053 6.36609 43.5736Z" fill="#008FA4"/>
<path d="M3.71716 42.1945C3.71716 42.0217 3.66592 41.8528 3.56991 41.7091C3.47391 41.5654 3.33745 41.4534 3.1778 41.3873C3.01815 41.3212 2.84247 41.3039 2.67299 41.3376C2.50351 41.3713 2.34782 41.4545 2.22563 41.5767C2.10344 41.6989 2.02023 41.8546 1.98652 42.0241C1.9528 42.1935 1.9701 42.3692 2.03623 42.5289C2.10236 42.6885 2.21435 42.825 2.35803 42.921C2.50171 43.017 2.67064 43.0682 2.84344 43.0682C3.07511 43.068 3.29723 42.9759 3.46104 42.8121C3.62485 42.6483 3.71697 42.4262 3.71716 42.1945Z" fill="#008FA4"/>
<path d="M2.52868 39.5433C2.52868 39.3705 2.47744 39.2016 2.38144 39.0579C2.28543 38.9142 2.14898 38.8023 1.98932 38.7361C1.82967 38.67 1.654 38.6527 1.48451 38.6864C1.31503 38.7201 1.15935 38.8033 1.03716 38.9255C0.914965 39.0477 0.831751 39.2034 0.798039 39.3729C0.764326 39.5424 0.781629 39.718 0.847758 39.8777C0.913888 40.0373 1.02587 40.1738 1.16956 40.2698C1.31324 40.3658 1.48216 40.417 1.65497 40.417C1.88663 40.4169 2.10875 40.3247 2.27256 40.1609C2.43638 39.9971 2.52849 39.775 2.52868 39.5433Z" fill="#008FA4"/>
</g>
</g>
</g>
<defs>
<clipPath id="clip0_1_14">
<rect width="74.17" height="44" fill="white" transform="translate(0.77002 0.5)"/>
</clipPath>
<clipPath id="clip1_1_14">
<rect width="74.17" height="44" fill="white" transform="translate(0.77002 0.5)"/>
</clipPath>
<clipPath id="clip2_1_14">
<rect width="74.17" height="43.9986" fill="white" transform="translate(0.77002 0.500732)"/>
</clipPath>
</defs>
</svg>
