<svg width="30" height="45" viewBox="0 0 30 45" fill="none" xmlns="http://www.w3.org/2000/svg">
<g clip-path="url(#clip0_1_102)">
<g clip-path="url(#clip1_1_102)">
<g clip-path="url(#clip2_1_102)">
<path fill-rule="evenodd" clip-rule="evenodd" d="M13.0362 1.04822C12.9614 1.05052 12.8878 1.06771 12.8197 1.09877C12.7517 1.12983 12.6905 1.17415 12.6397 1.22913C12.589 1.28411 12.5497 1.34865 12.5242 1.41899C12.4986 1.48932 12.4874 1.56404 12.4911 1.63877V5.9969C12.4897 6.14458 12.5458 6.28699 12.6477 6.39396C12.7495 6.50093 12.8889 6.56406 13.0365 6.56997C13.1841 6.57587 13.3281 6.52409 13.4382 6.4256C13.5482 6.32711 13.6156 6.18964 13.626 6.04233V1.63877C13.6234 1.48308 13.5605 1.33448 13.4504 1.22431C13.3404 1.11413 13.1919 1.051 13.0362 1.04822ZM5.86156 3.31814C5.70575 3.32073 5.55704 3.38379 5.44685 3.49398C5.33666 3.60417 5.27361 3.75288 5.27101 3.90869C5.26693 3.98634 5.28126 4.06385 5.31284 4.1349C5.34442 4.20596 5.39235 4.26853 5.45272 4.31754L8.5872 7.359C8.69553 7.46733 8.84247 7.5282 8.99568 7.5282C9.14889 7.5282 9.29583 7.46733 9.40417 7.359C9.5125 7.25066 9.57337 7.10372 9.57337 6.95051C9.57337 6.7973 9.5125 6.65036 9.40417 6.54203L6.27185 3.49985C6.2199 3.44264 6.15656 3.39693 6.08591 3.36563C6.01525 3.33434 5.93884 3.31816 5.86156 3.31814ZM20.1625 3.31814C20.0855 3.31836 20.0093 3.33464 19.9389 3.36593C19.8685 3.39721 19.8054 3.44282 19.7536 3.49985L16.6228 6.54203C16.518 6.64986 16.4557 6.79191 16.4474 6.94202C16.439 7.09213 16.4852 7.24021 16.5773 7.359C16.6852 7.46376 16.8272 7.52605 16.9773 7.53439C17.1274 7.54274 17.2755 7.49659 17.3943 7.40442L20.5273 4.36513C20.5811 4.31154 20.6237 4.24787 20.6528 4.17778C20.6819 4.10768 20.6969 4.03253 20.6969 3.95664C20.6969 3.88075 20.6819 3.8056 20.6528 3.73551C20.6237 3.66541 20.5811 3.60174 20.5273 3.54816C20.5021 3.47491 20.4526 3.41248 20.387 3.37118C20.3215 3.32989 20.2438 3.31219 20.1668 3.32102L20.1625 3.31814ZM13.0816 7.9034C12.7322 7.89314 12.3843 7.95217 12.0579 8.07708C11.7314 8.20199 11.433 8.39032 11.1797 8.63119C10.9264 8.87205 10.7234 9.1607 10.5822 9.48045C10.4411 9.80021 10.3647 10.1448 10.3574 10.4942L10.4043 25.6099L5.63731 21.0672C5.1873 20.6302 4.58453 20.3859 3.95723 20.3865C3.65336 20.3867 3.35252 20.447 3.072 20.5638C2.79148 20.6806 2.5368 20.8517 2.32257 21.0672L2.05 21.3398C1.83688 21.5611 1.67384 21.8257 1.57194 22.1156C1.47005 22.4054 1.43169 22.7138 1.45945 23.0198C1.52288 23.6047 1.75995 24.1572 2.14014 24.6062L10.0849 34.7357C10.1095 34.7602 10.1255 34.7922 10.1303 34.8266C10.1757 34.872 10.2211 34.9629 10.1757 34.9175C10.2068 34.9891 10.2223 35.0665 10.2211 35.1446V37.0511H8.90447C8.69519 37.0527 8.49058 37.1131 8.314 37.2255C8.13741 37.3378 7.99596 37.4975 7.90579 37.6864C7.70545 38.0317 7.59604 38.4222 7.5878 38.8213V42.1808C7.57398 42.5828 7.68507 42.9793 7.90579 43.3157C8.00347 43.4986 8.14673 43.6532 8.32169 43.7645C8.49666 43.8758 8.69739 43.94 8.90447 43.951H27.3825C27.5918 43.9494 27.7964 43.8889 27.973 43.7766C28.1496 43.6643 28.291 43.5046 28.3812 43.3157C28.5815 42.9704 28.691 42.5799 28.6992 42.1808V38.8213C28.713 38.4192 28.6019 38.0227 28.3812 37.6864C28.2835 37.5034 28.1403 37.3488 27.9653 37.2376C27.7903 37.1263 27.5896 37.062 27.3825 37.0511H26.1567C26.1277 36.2942 26.1429 35.5363 26.2021 34.7812C26.2439 34.488 26.3527 34.2085 26.5201 33.9642C26.8268 33.3588 27.0555 32.717 27.2008 32.0541C27.5132 30.0422 27.6339 28.0052 27.5614 25.9705C27.5614 23.6551 27.5159 21.5669 27.5159 21.5669C27.5251 21.0738 27.3906 20.5887 27.1288 20.1708C26.867 19.7528 26.4892 19.4201 26.0415 19.2131C25.5939 19.0062 25.0957 18.934 24.6077 19.0054C24.1197 19.0767 23.663 19.2885 23.2934 19.615C23.0944 19.1768 22.7759 18.8038 22.3743 18.5387C21.9727 18.2736 21.5045 18.1273 21.0234 18.1166C20.4175 18.1125 19.8329 18.3397 19.3888 18.7519C19.1899 18.3137 18.8713 17.9407 18.4697 17.6756C18.0682 17.4105 17.5999 17.2642 17.1189 17.2535C16.6284 17.258 16.1518 17.417 15.7568 17.7077V10.4942C15.7543 10.1473 15.6827 9.80446 15.546 9.48564C15.4094 9.16682 15.2105 8.87847 14.9611 8.63746C14.7116 8.39646 14.4166 8.20766 14.0932 8.08211C13.7699 7.95655 13.4247 7.89678 13.078 7.90629L13.0816 7.9034ZM13.0816 9.03836C13.4843 9.02192 13.8772 9.16548 14.1744 9.43771C14.4716 9.70994 14.6491 10.0887 14.668 10.4913V22.8403C14.6626 22.9162 14.6725 22.9924 14.6971 23.0644C14.7218 23.1364 14.7606 23.2027 14.8114 23.2594C14.8621 23.316 14.9237 23.362 14.9925 23.3944C15.0614 23.4268 15.136 23.4451 15.212 23.4482C15.288 23.4512 15.3639 23.4389 15.4351 23.4121C15.5063 23.3853 15.5714 23.3444 15.6265 23.292C15.6816 23.2395 15.7256 23.1765 15.7559 23.1068C15.7862 23.037 15.8022 22.9618 15.8029 22.8857V19.8897C15.7822 19.6985 15.8021 19.505 15.8611 19.322C15.9201 19.1389 16.0171 18.9704 16.1455 18.8273C16.274 18.6841 16.4312 18.5697 16.6069 18.4913C16.7825 18.413 16.9727 18.3725 17.165 18.3725C17.3573 18.3725 17.5475 18.413 17.7232 18.4913C17.8988 18.5697 18.056 18.6841 18.1845 18.8273C18.313 18.9704 18.4099 19.1389 18.4689 19.322C18.5279 19.505 18.5478 19.6985 18.5271 19.8897V23.658C18.5217 23.7339 18.5317 23.8101 18.5563 23.8821C18.5809 23.9541 18.6198 24.0204 18.6705 24.077C18.7213 24.1337 18.7829 24.1797 18.8517 24.2121C18.9205 24.2445 18.9951 24.2628 19.0712 24.2658C19.1472 24.2689 19.223 24.2566 19.2942 24.2298C19.3654 24.203 19.4305 24.1621 19.4856 24.1097C19.5407 24.0572 19.5848 23.9942 19.6151 23.9244C19.6454 23.8547 19.6614 23.7795 19.6621 23.7034V20.7521C19.6529 20.5642 19.6808 20.3764 19.7443 20.1993C19.8078 20.0222 19.9056 19.8594 20.0322 19.7203C20.1587 19.5811 20.3115 19.4682 20.4817 19.3881C20.6519 19.3081 20.8363 19.2624 21.0242 19.2537C21.2133 19.2585 21.3996 19.3016 21.5716 19.3803C21.7437 19.4591 21.8981 19.5719 22.0253 19.7119C22.1526 19.8519 22.2502 20.0163 22.3123 20.1951C22.3743 20.3738 22.3995 20.5633 22.3863 20.7521V21.5265V24.4324C22.3849 24.5801 22.441 24.7225 22.5429 24.8295C22.6447 24.9365 22.7841 24.9996 22.9317 25.0055C23.0793 25.0114 23.2233 24.9596 23.3334 24.8611C23.4434 24.7626 23.5108 24.6252 23.5212 24.4778V21.5719C23.5129 21.3806 23.543 21.1895 23.6096 21.0099C23.6763 20.8303 23.7782 20.6659 23.9093 20.5262C24.0405 20.3866 24.1982 20.2747 24.3733 20.1969C24.5484 20.1192 24.7372 20.0772 24.9287 20.0736C25.1193 20.0675 25.309 20.1013 25.4857 20.1727C25.6625 20.2441 25.8224 20.3516 25.9552 20.4884C26.088 20.6251 26.1908 20.7881 26.2571 20.9669C26.3233 21.1456 26.3515 21.3362 26.3399 21.5265V21.6174C26.3399 21.6174 26.3853 23.6602 26.3853 25.9755C26.4292 27.9192 26.3086 29.8632 26.0248 31.7866C25.8836 32.3793 25.6859 32.9572 25.4342 33.5121C25.2416 33.8677 25.1037 34.2503 25.0254 34.6471C24.9303 35.4606 24.8999 36.2804 24.9345 37.0987H11.3107V35.1013C11.2981 34.9469 11.2676 34.7944 11.2198 34.6471C11.1779 34.5183 11.1167 34.3968 11.0381 34.2865C11.0085 34.2144 10.9931 34.1373 10.9927 34.0594L3.0494 23.9298C2.80013 23.6552 2.6554 23.3017 2.64056 22.9312C2.61561 22.79 2.62759 22.6447 2.67535 22.5095C2.72311 22.3743 2.80502 22.2538 2.91312 22.1596L3.18568 21.8871C3.41954 21.668 3.72799 21.546 4.04844 21.546C4.3689 21.546 4.67735 21.668 4.9112 21.8871L9.99616 26.7449C10.0416 26.7903 10.0416 26.8357 10.087 26.8812C10.1766 26.9882 10.2873 27.0755 10.4123 27.1375C10.5373 27.1996 10.6738 27.235 10.8131 27.2417C10.9014 27.2424 10.9886 27.2222 11.0676 27.1827C11.1465 27.1432 11.215 27.0856 11.2674 27.0146C11.3433 26.9349 11.4048 26.8427 11.4491 26.742C11.5009 26.6114 11.5315 26.4734 11.54 26.3332C11.5682 26.1833 11.5834 26.0313 11.5854 25.8789L11.5378 10.4942C11.5304 10.2935 11.566 10.0936 11.6422 9.90781C11.7184 9.72203 11.8335 9.55471 11.9797 9.41709C12.1259 9.27946 12.2999 9.17472 12.49 9.1099C12.68 9.04507 12.8818 9.02166 13.0816 9.04124V9.03836ZM4.00121 10.8093C3.92532 10.8039 3.84912 10.8139 3.77714 10.8385C3.70515 10.8631 3.63885 10.902 3.58216 10.9527C3.52547 11.0034 3.47954 11.0651 3.44711 11.1339C3.41468 11.2027 3.3964 11.2773 3.39336 11.3534C3.39032 11.4294 3.40257 11.5052 3.4294 11.5764C3.45623 11.6476 3.49708 11.7127 3.54953 11.7678C3.60199 11.8229 3.66497 11.8669 3.73476 11.8973C3.80454 11.9276 3.87971 11.9435 3.95578 11.9443H8.31319C8.38908 11.9496 8.46528 11.9397 8.53727 11.9151C8.60925 11.8904 8.67555 11.8516 8.73225 11.8009C8.78894 11.7501 8.83486 11.6885 8.86729 11.6197C8.89972 11.5509 8.918 11.4762 8.92104 11.4002C8.92409 11.3242 8.91183 11.2483 8.885 11.1771C8.85818 11.1059 8.81733 11.0408 8.76487 10.9857C8.71242 10.9306 8.64943 10.8866 8.57964 10.8563C8.50986 10.826 8.4347 10.81 8.35862 10.8093H4.00121ZM17.6669 10.8093C17.591 10.8039 17.5148 10.8139 17.4428 10.8385C17.3708 10.8631 17.3045 10.902 17.2478 10.9527C17.1911 11.0034 17.1452 11.0651 17.1128 11.1339C17.0803 11.2027 17.0621 11.2773 17.059 11.3534C17.056 11.4294 17.0682 11.5052 17.0951 11.5764C17.1219 11.6476 17.1627 11.7127 17.2152 11.7678C17.2676 11.8229 17.3306 11.8669 17.4004 11.8973C17.4702 11.9276 17.5454 11.9435 17.6214 11.9443H21.9796C22.0555 11.9496 22.1317 11.9397 22.2036 11.9151C22.2756 11.8904 22.3419 11.8516 22.3986 11.8009C22.4553 11.7501 22.5012 11.6885 22.5337 11.6197C22.5661 11.5509 22.5844 11.4762 22.5874 11.4002C22.5905 11.3242 22.5782 11.2483 22.5514 11.1771C22.5246 11.1059 22.4837 11.0408 22.4313 10.9857C22.3788 10.9306 22.3158 10.8866 22.246 10.8563C22.1762 10.826 22.1011 10.81 22.025 10.8093H17.6669ZM8.94989 38.1832H27.428C27.3825 38.1832 27.3825 38.1377 27.4734 38.274C27.5717 38.4383 27.6191 38.628 27.6097 38.8191V42.1786C27.6256 42.3704 27.5777 42.562 27.4734 42.7237C27.4477 42.7475 27.4316 42.7798 27.428 42.8146H8.94989C8.9252 42.7901 8.90924 42.7582 8.90447 42.7237C8.82112 42.5537 8.77468 42.3679 8.76819 42.1786V38.8213C8.75226 38.6295 8.80017 38.4379 8.90447 38.2762C8.99532 38.1399 8.99532 38.1853 8.94989 38.1853V38.1832Z" fill="#008FA4" stroke="#008FA4" stroke-width="1.0816"/>
</g>
</g>
</g>
<defs>
<clipPath id="clip0_1_102">
<rect width="28.33" height="44" fill="white" transform="translate(0.909912 0.5)"/>
</clipPath>
<clipPath id="clip1_1_102">
<rect width="28.33" height="44" fill="white" transform="translate(0.909912 0.5)"/>
</clipPath>
<clipPath id="clip2_1_102">
<rect width="28.33" height="43.9851" fill="white" transform="translate(0.909912 0.507446)"/>
</clipPath>
</defs>
</svg>
