<svg width="45" height="45" viewBox="0 0 45 45" fill="none" xmlns="http://www.w3.org/2000/svg">
<g clip-path="url(#clip0_1_115)">
<g clip-path="url(#clip1_1_115)">
<g clip-path="url(#clip2_1_115)">
<path d="M22.7851 0.501099C16.9554 0.51235 11.3679 2.83417 7.24694 6.95773C3.126 11.0813 0.807363 16.6703 0.799805 22.5C0.806597 28.3324 3.1264 33.9239 7.25052 38.048C11.3746 42.1721 16.9663 44.4921 22.7987 44.4989C28.6316 44.4904 34.223 42.1691 38.3469 38.0441C42.4708 33.919 44.7906 28.327 44.7976 22.4941C44.7842 16.6619 42.4606 11.0727 38.3347 6.95056C34.2088 2.8284 28.6173 0.509232 22.7851 0.501099ZM22.7994 42.2689C19.68 42.265 16.606 41.5248 13.8266 40.1086C13.8662 39.2111 13.9338 38.395 14.0321 37.6815C14.244 36.1035 14.7756 35.8049 15.2889 35.516C15.738 35.3449 16.1097 35.0162 16.3344 34.5913C16.559 34.1665 16.6213 33.6744 16.5098 33.2069C16.482 32.7308 16.5899 32.2565 16.8199 31.8386C17.367 30.7676 17.4977 29.5318 17.1866 28.3701C16.7385 26.7979 15.4728 26.187 14.1331 25.5395C12.5536 24.8308 11.0866 23.8936 9.77982 22.7582C7.53154 20.7981 6.16824 20.7717 5.35355 20.7556C5.17536 20.7556 5.17554 20.7555 4.94895 19.924C4.89102 19.7091 4.76191 19.2354 4.73698 19.0535L4.79713 19.027C5.37751 18.788 5.90371 18.4347 6.34465 17.988C6.78558 17.5412 7.13221 17.0103 7.36367 16.4268C8.13465 14.9037 9.28507 13.6049 10.7043 12.6562C10.837 12.7878 10.995 12.8917 11.1684 12.9616C11.3418 13.0315 11.5271 13.0661 11.714 13.0633C12.374 13.0633 13.0184 12.6548 13.8588 11.6986C14.1561 11.4307 14.396 11.1055 14.5642 10.7424C14.7323 10.3793 14.8251 9.9858 14.837 9.58585C14.8098 9.32617 14.7282 9.07506 14.5985 8.84844C14.4689 8.62181 14.2937 8.42469 14.0836 8.26964C14.2062 8.05841 14.3467 7.85806 14.5033 7.67061C14.5986 7.54889 14.682 7.44038 14.7568 7.34138C14.7898 7.50023 14.8365 7.65601 14.8957 7.80703C14.9886 8.12653 15.1791 8.40887 15.4407 8.61445C15.7023 8.82002 16.0213 8.93849 16.3537 8.95317C16.5797 8.95142 16.8025 8.8955 17.0025 8.79025C17.2025 8.685 17.3743 8.53334 17.5038 8.34805C17.701 8.08553 18.7241 7.48508 23.3651 6.41814C24.1793 6.23477 24.9275 5.83267 25.5299 5.25517C26.1324 4.67768 26.5663 3.94669 26.7839 3.14104C27.92 3.37485 29.0333 3.70824 30.1109 4.13751C29.8825 4.37049 29.599 4.54196 29.2867 4.6361L28.9329 4.7462C28.0933 4.99772 27.3692 5.21476 27.0209 5.96126C26.9155 6.23183 26.8655 6.52063 26.8727 6.81092C26.8798 7.10122 26.9445 7.38715 27.0631 7.65217C26.3251 7.92617 25.5509 8.09027 24.7651 8.13913C24.5899 8.1501 24.4194 8.20364 24.2696 8.29524C23.7512 8.616 23.3037 9.03904 22.9541 9.53841C22.6045 10.0378 22.3606 10.6031 22.2366 11.2C22.1828 11.7361 22.2546 12.2774 22.4464 12.781C22.6382 13.2845 22.9446 13.7365 23.3415 14.1009L23.373 14.1346C23.266 14.2306 23.0639 14.3963 22.6884 14.6735C21.1294 15.8313 18.7747 17.5811 19.882 21.8702C20.9013 25.8212 23.4629 26.6504 25.4318 26.6504C26.3758 26.6396 27.3114 26.4688 28.1982 26.1452C28.721 26.8051 29.4825 28.3855 29.0117 31.7917C28.6604 34.3582 29.0368 36.4289 30.0737 37.6183C30.3523 37.9518 30.7009 38.2199 31.0948 38.4034C31.4887 38.5869 31.9185 38.6813 32.353 38.6801C33.7463 38.6801 35.2127 37.7379 36.4871 36.0264C39.7085 31.6948 40.4369 29.7025 39.8708 26.7583C39.7344 26.0515 39.8867 25.8226 40.8876 25.225C41.2596 25.075 41.589 24.8361 41.8472 24.5293C42.1055 24.2225 42.285 23.857 42.3693 23.465C42.4023 23.4386 42.4422 23.4108 42.4767 23.3822L42.5161 23.3529L42.5555 23.3235C42.3521 28.3554 40.2257 33.1176 36.6153 36.6285C32.9307 40.2521 27.9673 42.2785 22.7994 42.2689ZM12.4853 9.8381C12.3898 9.97383 12.2866 10.1039 12.1759 10.2275L12.0964 10.3177C11.998 10.1474 11.8554 10.0067 11.684 9.91007C11.5126 9.81347 11.3185 9.76447 11.1218 9.76846C10.9263 9.7675 10.7339 9.81574 10.5618 9.90864C10.3897 10.0015 10.2437 10.1362 10.1372 10.3002C9.96378 10.4455 9.78197 10.5807 9.59292 10.705C7.78246 11.8812 6.31879 13.5196 5.35355 15.4508C5.13756 16.0296 4.73252 16.5184 4.20348 16.8375C5.57104 12.5066 8.35502 8.76158 12.1086 6.20474C12.1424 6.25941 12.1806 6.31132 12.2225 6.36013C12.3048 6.45693 12.4004 6.54142 12.5068 6.61095C11.563 7.93822 11.5584 8.96768 12.4853 9.8381ZM15.0361 28.9853C15.198 29.6729 15.0951 30.3963 14.7475 31.0113C14.3604 31.7848 14.2052 32.6539 14.3013 33.5134L14.2534 33.5404L14.1932 33.5743C13.3925 34.0238 12.183 34.7021 11.8193 37.3874C11.7628 37.8142 11.7136 38.2673 11.6725 38.7469C9.11626 36.9009 7.03041 34.4795 5.5827 31.6784C4.13499 28.8772 3.36584 25.7748 3.33841 22.6217C3.33841 22.4017 3.33887 22.1818 3.34987 21.9618C3.5443 22.3019 3.83149 22.5791 4.17841 22.761C4.52533 22.9429 4.91743 23.0219 5.30772 22.9884C5.84962 22.9979 6.66782 23.0134 8.30893 24.4433C9.76615 25.7091 11.3999 26.756 13.1584 27.5516C14.4234 28.1603 14.8689 28.4009 15.0354 28.9846L15.0361 28.9853ZM22.8574 4.24242C20.8535 4.62139 18.8963 5.21539 17.0197 6.01407C17.0973 5.82215 17.2169 5.64985 17.3692 5.50957C17.6362 5.31742 17.8332 5.04402 17.932 4.73027C18.0309 4.41651 18.0256 4.07922 17.917 3.76871C17.89 3.69991 17.8575 3.63345 17.8196 3.56999C19.9909 2.97551 22.2469 2.74892 24.493 2.89971C24.3467 3.23551 24.1226 3.53199 23.8399 3.76495C23.5573 3.9979 23.2236 4.16082 22.866 4.24027L22.8839 4.31349L22.8574 4.24242ZM40.9385 18.7617C40.7858 19.0615 40.7195 19.3976 40.7466 19.733C40.7736 20.0683 40.893 20.3895 41.0917 20.6609C41.4804 21.3274 41.4806 21.3275 41.1755 21.5578C40.9099 21.7188 40.6816 21.9346 40.506 22.1908C40.3303 22.447 40.2109 22.7375 40.1565 23.0433C40.0832 23.0932 39.9596 23.1753 39.7454 23.3037C38.9256 23.7898 37.2184 24.8011 37.673 27.1762C38.1005 29.3871 37.4865 30.9322 34.6904 34.6911C33.8977 35.7558 33.0363 36.407 32.3896 36.4326C32.2683 36.4407 32.1469 36.4191 32.0358 36.3698C31.9247 36.3205 31.827 36.2449 31.7515 36.1496C31.1524 35.4625 30.9577 33.9834 31.2173 32.093C32.1083 25.6349 29.0763 23.9329 28.9472 23.864C28.7852 23.777 28.6041 23.7315 28.4202 23.7319C28.2487 23.7315 28.0795 23.7704 27.9253 23.8456C27.1386 24.2007 26.289 24.3958 25.4261 24.4197C23.708 24.4197 22.5662 23.374 22.0375 21.3113C21.3042 18.4705 22.6879 17.4462 24.0247 16.4555C24.8313 15.8557 25.5967 15.2896 25.6803 14.315C25.6961 13.9865 25.6382 13.6584 25.5113 13.3549C25.3845 13.0514 25.1919 12.7799 24.947 12.5602C24.789 12.4282 24.6618 12.2632 24.5747 12.0767C24.4875 11.8901 24.4421 11.6867 24.4422 11.4809C24.5704 11.019 24.8522 10.6145 25.2414 10.3345C26.4146 10.2157 28.4637 9.84921 29.1442 8.7258C29.2915 8.48675 29.3782 8.21527 29.3962 7.93504C29.4143 7.65481 29.3628 7.37427 29.2473 7.11831C29.2282 7.07432 29.2118 7.03487 29.1971 6.99747C29.3357 6.95274 29.4808 6.90859 29.5702 6.88146L29.9462 6.76706C30.8444 6.49424 31.6213 5.92054 32.1461 5.14221C34.5952 6.47502 36.7343 8.31161 38.4221 10.5311C40.1098 12.7506 41.3083 15.3025 41.9382 18.0188C41.7302 18.0694 41.5342 18.1614 41.3624 18.2891C41.1906 18.4168 41.0462 18.5778 40.9378 18.7624L40.9385 18.7617Z" fill="#008FA4"/>
</g>
</g>
</g>
<defs>
<clipPath id="clip0_1_115">
<rect width="44" height="44" fill="white" transform="translate(0.800049 0.5)"/>
</clipPath>
<clipPath id="clip1_1_115">
<rect width="44" height="44" fill="white" transform="translate(0.800049 0.5)"/>
</clipPath>
<clipPath id="clip2_1_115">
<rect width="44" height="43.9978" fill="white" transform="translate(0.800049 0.501099)"/>
</clipPath>
</defs>
</svg>
