<svg width="14" height="17" viewBox="0 0 14 17" fill="none" xmlns="http://www.w3.org/2000/svg">
<g clip-path="url(#clip0_1_71449)">
<g clip-path="url(#clip1_1_71449)">
<g clip-path="url(#clip2_1_71449)">
<path d="M13.494 3.34094L7.16005 0.288012C7.10715 0.263145 7.04945 0.250171 6.99099 0.25L6.96299 0.25C6.90968 0.251946 6.85731 0.26453 6.80894 0.287011L0.47602 3.34194C0.409135 3.37471 0.352727 3.4255 0.31314 3.48859C0.273554 3.55168 0.252363 3.62456 0.251953 3.69905V6.15179C0.254018 8.28579 0.876185 10.3732 2.04277 12.1601C3.20936 13.947 4.87009 15.3564 6.82294 16.2168C6.87412 16.2396 6.92949 16.2513 6.98549 16.2513C7.0415 16.2513 7.09687 16.2396 7.14804 16.2168C9.10071 15.3563 10.7612 13.9468 11.9276 12.1599C13.094 10.373 13.7161 8.28568 13.718 6.15179V3.69905C13.7178 3.62439 13.6967 3.5513 13.6571 3.48801C13.6175 3.42473 13.561 3.37378 13.494 3.34094ZM12.9198 6.15179C12.9239 8.115 12.3559 10.0369 11.2853 11.6825C10.2422 13.2815 8.77421 14.5583 7.04601 15.3696L6.98499 15.3986L6.92397 15.3696C5.19581 14.5582 3.72784 13.2814 2.68469 11.6825C1.61439 10.0367 1.04645 8.11495 1.0502 6.15179V3.95112L6.98499 1.09025L12.9198 3.95112V6.15179Z" fill="black" stroke="black" stroke-width="0.500152"/>
<path d="M7.58842 4.27126C7.4819 4.24324 7.36882 4.25497 7.27033 4.30427L5.71385 5.21155C5.66723 5.23363 5.62551 5.26484 5.59114 5.30333C5.55678 5.34181 5.53048 5.38679 5.5138 5.43561C5.49686 5.49035 5.49167 5.54805 5.49856 5.60493C5.50546 5.66181 5.52429 5.71661 5.55381 5.76572C5.59265 5.8278 5.64684 5.87882 5.71114 5.91386C5.77545 5.9489 5.84769 5.96678 5.92092 5.96577C5.99668 5.9629 6.07042 5.9405 6.13499 5.90075L7.05526 5.3826V11.8325C7.05992 11.9406 7.10629 12.0427 7.18464 12.1173C7.26298 12.1919 7.3672 12.2333 7.47539 12.2327C7.52932 12.2343 7.58303 12.2252 7.63342 12.2059C7.6838 12.1866 7.72987 12.1575 7.76894 12.1203C7.80801 12.0831 7.83931 12.0385 7.86103 11.9891C7.88276 11.9397 7.89448 11.8865 7.89551 11.8325V4.7304C7.90836 4.63517 7.89012 4.53834 7.8435 4.45431C7.81509 4.40854 7.77794 4.36882 7.73417 4.33741C7.69041 4.306 7.64088 4.28352 7.58842 4.27126Z" fill="black" stroke="black" stroke-width="0.500152"/>
</g>
</g>
</g>
<defs>
<clipPath id="clip0_1_71449">
<rect width="13.97" height="16.5" fill="white"/>
</clipPath>
<clipPath id="clip1_1_71449">
<rect width="13.97" height="16.5" fill="white"/>
</clipPath>
<clipPath id="clip2_1_71449">
<rect width="13.9662" height="16.5" fill="white" transform="translate(0.00195312)"/>
</clipPath>
</defs>
</svg>
