<svg width="22" height="25" viewBox="0 0 22 25" fill="none" xmlns="http://www.w3.org/2000/svg">
<g clip-path="url(#clip0_1_71276)">
<g clip-path="url(#clip1_1_71276)">
<g clip-path="url(#clip2_1_71276)">
<path d="M20.5933 5.43471L11.2826 0.946989C11.2049 0.910437 11.1201 0.891364 11.0341 0.891113H10.993C10.9146 0.893974 10.8376 0.912472 10.7665 0.945519L1.4573 5.43618C1.35898 5.48435 1.27606 5.55901 1.21787 5.65175C1.15968 5.74449 1.12853 5.85164 1.12793 5.96112V9.56659C1.13096 12.7035 2.04554 15.772 3.76039 18.3987C5.47524 21.0254 7.91647 23.0972 10.7871 24.362C10.8623 24.3954 10.9437 24.4127 11.0261 24.4127C11.1084 24.4127 11.1898 24.3954 11.265 24.362C14.1354 23.0969 16.5763 21.0251 18.2909 18.3984C20.0055 15.7717 20.9198 12.7034 20.9227 9.56659V5.96112C20.9224 5.85139 20.8914 5.74393 20.8332 5.65091C20.775 5.55788 20.6919 5.48299 20.5933 5.43471ZM19.7493 9.56659C19.7553 12.4525 18.9204 15.2776 17.3467 17.6965C15.8133 20.047 13.6554 21.9239 11.115 23.1165L11.0253 23.1592L10.9356 23.1165C8.39527 21.9238 6.23739 20.047 4.70399 17.6965C3.13068 15.2773 2.29581 12.4524 2.30133 9.56659V6.33167L11.0253 2.12627L19.7493 6.33167V9.56659Z" fill="black" stroke="black" stroke-width="0.73521"/>
<path d="M11.9118 6.80219C11.7553 6.761 11.589 6.77825 11.4442 6.85071L9.15627 8.18439C9.08773 8.21686 9.0264 8.26273 8.97589 8.3193C8.92538 8.37588 8.88672 8.442 8.86219 8.51376C8.83729 8.59423 8.82966 8.67904 8.8398 8.76266C8.84993 8.84627 8.87761 8.92682 8.92101 8.99901C8.97811 9.09026 9.05776 9.16527 9.15229 9.21678C9.24681 9.26829 9.35301 9.29457 9.46065 9.29308C9.57202 9.28886 9.68042 9.25593 9.77532 9.1975L11.1281 8.43583V17.9171C11.135 18.076 11.2031 18.226 11.3183 18.3357C11.4334 18.4454 11.5866 18.5062 11.7457 18.5053C11.825 18.5076 11.9039 18.4942 11.978 18.4659C12.052 18.4375 12.1198 18.3947 12.1772 18.34C12.2346 18.2853 12.2806 18.2198 12.3126 18.1472C12.3445 18.0746 12.3617 17.9964 12.3633 17.9171V7.47712C12.3821 7.33713 12.3553 7.19479 12.2868 7.07128C12.245 7.004 12.1904 6.94561 12.1261 6.89943C12.0617 6.85326 11.9889 6.82022 11.9118 6.80219Z" fill="black" stroke="black" stroke-width="0.73521"/>
</g>
</g>
</g>
<defs>
<clipPath id="clip0_1_71276">
<rect width="20.53" height="24.26" fill="white" transform="translate(0.760254 0.520508)"/>
</clipPath>
<clipPath id="clip1_1_71276">
<rect width="20.53" height="24.26" fill="white" transform="translate(0.760254 0.520508)"/>
</clipPath>
<clipPath id="clip2_1_71276">
<rect width="20.53" height="24.2546" fill="white" transform="translate(0.760254 0.523438)"/>
</clipPath>
</defs>
</svg>
