<svg width="17" height="17" viewBox="0 0 17 17" fill="none" xmlns="http://www.w3.org/2000/svg">
<g clip-path="url(#clip0_1_71519)">
<g clip-path="url(#clip1_1_71519)">
<g clip-path="url(#clip2_1_71519)">
<path d="M16.2257 8.21465C16.2255 8.10142 16.1809 7.99279 16.1015 7.91208C16.022 7.83136 15.9142 7.78498 15.8009 7.78289H15.787C15.6773 7.78421 15.5722 7.827 15.4929 7.90265C15.4135 7.97831 15.3657 8.08121 15.3592 8.19066C15.3592 8.20066 15.3592 8.21065 15.3592 8.22065V8.23564C15.3614 9.26714 15.1394 10.2868 14.7085 11.224C14.0302 12.6899 12.8739 13.8818 11.4293 14.6044C9.98475 15.327 8.33754 15.5374 6.75771 15.2011C5.17787 14.8648 3.75915 14.0018 2.73411 12.7535C1.70906 11.5052 1.13851 9.94566 1.11597 8.33059C1.11597 8.3006 1.11597 8.27062 1.11597 8.24064C1.11412 7.24666 1.32079 6.26334 1.72264 5.35421L1.73363 5.33422C1.75362 5.28925 1.77461 5.24427 1.7956 5.1993C1.81658 5.15432 1.84057 5.10535 1.86356 5.05937L1.86656 5.04738C2.37276 4.03881 3.11117 3.16481 4.02103 2.49727C4.9309 1.82973 5.98624 1.38773 7.10025 1.2076C8.21426 1.02748 9.35512 1.11439 10.429 1.46118C11.5029 1.80797 12.4791 2.40473 13.2773 3.20239C13.4186 3.34364 13.5518 3.48956 13.6771 3.64015L14.0849 4.03993H11.0455C10.9886 4.03868 10.9319 4.04867 10.8788 4.06931C10.8257 4.08996 10.7772 4.12087 10.736 4.16026C10.6949 4.19966 10.6619 4.24678 10.6389 4.29893C10.616 4.35108 10.6035 4.40724 10.6023 4.4642C10.601 4.52116 10.611 4.57781 10.6317 4.63092C10.6523 4.68402 10.6832 4.73254 10.7226 4.7737C10.762 4.81486 10.8091 4.84785 10.8613 4.8708C10.9134 4.89375 10.9696 4.90621 11.0266 4.90746H14.8325C14.9474 4.90772 15.0578 4.86245 15.1395 4.78153C15.2212 4.70062 15.2674 4.59065 15.2682 4.47569V0.691759C15.2704 0.576882 15.2269 0.465848 15.1472 0.383026C15.0676 0.300205 14.9583 0.252363 14.8435 0.25L14.8135 0.25C14.7009 0.255692 14.595 0.30499 14.5181 0.38745C14.4412 0.46991 14.3995 0.579053 14.4017 0.691759V3.07546L14.0699 2.77562L13.5512 2.30988C12.4058 1.27787 10.9856 0.600417 9.46277 0.359703C7.93996 0.118989 6.38003 0.325359 4.9722 0.953776C3.56437 1.58219 2.36916 2.60565 1.53155 3.89999C0.693953 5.19433 0.24996 6.70392 0.253438 8.24563V8.28961C0.253438 8.29561 0.253438 8.3016 0.253438 8.3086C0.253438 8.31559 0.253438 8.34058 0.253438 8.35757C0.28642 10.1999 0.95468 11.9742 2.1452 13.3805C3.33571 14.7869 4.97541 15.7389 6.78698 16.0755C8.59854 16.4121 10.4708 16.1128 12.087 15.228C13.7033 14.3433 14.9644 12.9275 15.657 11.22H15.651C16.0332 10.2712 16.2284 9.2575 16.2257 8.23464V8.22464C16.2257 8.22464 16.2257 8.21765 16.2257 8.21465Z" fill="black" stroke="black" stroke-width="0.499727"/>
</g>
</g>
</g>
<defs>
<clipPath id="clip0_1_71519">
<rect width="16.48" height="16.48" fill="white"/>
</clipPath>
<clipPath id="clip1_1_71519">
<rect width="16.48" height="16.48" fill="white"/>
</clipPath>
<clipPath id="clip2_1_71519">
<rect width="16.479" height="16.48" fill="white" transform="translate(0.000488281)"/>
</clipPath>
</defs>
</svg>
