<svg width="49" height="17" viewBox="0 0 49 17" fill="none" xmlns="http://www.w3.org/2000/svg">
<g clip-path="url(#clip0_1_71376)">
<g clip-path="url(#clip1_1_71376)">
<g clip-path="url(#clip2_1_71376)">
<path d="M45.3427 7.22038H43.8999C43.5489 7.22038 43.2123 7.35981 42.9641 7.60798C42.7159 7.85616 42.5765 8.19276 42.5765 8.54374C42.5765 8.89472 42.7159 9.23132 42.9641 9.4795C43.2123 9.72768 43.5489 9.86711 43.8999 9.86711H44.5708C44.7194 9.86711 44.8666 9.89638 45.0039 9.95326C45.1412 10.0101 45.266 10.0935 45.3711 10.1986C45.4762 10.3037 45.5596 10.4285 45.6165 10.5658C45.6734 10.7032 45.7027 10.8503 45.7027 10.999V11.8619C45.7013 12.28 45.5349 12.6806 45.2395 12.9765C44.9442 13.2724 44.5439 13.4396 44.1258 13.4417H43.5959C42.9617 13.4741 42.3279 13.3695 41.7377 13.1352C41.1475 12.9009 40.6146 12.5424 40.1752 12.0839C39.2876 11.0298 38.839 9.67481 38.9224 8.29927C38.8574 6.88448 39.3565 5.50174 40.3102 4.45467C40.7776 3.9698 41.3423 3.58926 41.9671 3.33801C42.592 3.08676 43.2629 2.97049 43.9358 2.99682C44.822 2.98805 45.7055 3.09596 46.5636 3.31779C46.925 3.41272 47.3094 3.36019 47.6321 3.17173C47.9548 2.98328 48.1895 2.67434 48.2844 2.31289C48.3793 1.95144 48.3268 1.56708 48.1383 1.24436C47.9499 0.921643 47.6409 0.687007 47.2795 0.592069C46.208 0.334296 45.1088 0.209701 44.0068 0.221108C42.8728 0.169743 41.74 0.346071 40.6753 0.739686C39.6105 1.1333 38.6354 1.73622 37.8075 2.51287C37.0245 3.28672 36.4111 4.215 36.0062 5.23872C35.6013 6.26243 35.4139 7.35918 35.4557 8.45925C35.3996 9.50268 35.5606 10.5464 35.9283 11.5245C36.2961 12.5026 36.8628 13.3937 37.5925 14.1417C38.3786 14.858 39.2994 15.4106 40.3013 15.7674C41.3031 16.1241 42.366 16.2778 43.4279 16.2194C43.8169 16.2194 44.1948 16.1934 44.5638 16.1784C45.1767 16.1799 45.7833 16.0544 46.3454 15.8098C46.9075 15.5653 47.4128 15.207 47.8296 14.7575C48.2463 14.3081 48.5655 13.7772 48.767 13.1983C48.9685 12.6194 49.0479 12.005 49.0003 11.3939V10.88C49.0134 10.396 48.9277 9.91446 48.7486 9.46467C48.5694 9.01489 48.3005 8.60632 47.9583 8.26388C47.616 7.92144 47.2076 7.65231 46.7579 7.4729C46.3082 7.29349 45.8267 7.20757 45.3427 7.22038Z" fill="white"/>
<path d="M0.910156 1.40608C0.910685 1.72043 1.0358 2.02176 1.25808 2.24404C1.48036 2.46632 1.78168 2.59143 2.09603 2.59196H19.7772C19.9358 2.59656 20.0936 2.56931 20.2415 2.51181C20.3893 2.45431 20.5241 2.36773 20.6379 2.25721C20.7517 2.14668 20.8421 2.01445 20.9039 1.86834C20.9657 1.72223 20.9975 1.56521 20.9975 1.40658C20.9975 1.24795 20.9657 1.09093 20.9039 0.944823C20.8421 0.798713 20.7517 0.66648 20.6379 0.555952C20.5241 0.445425 20.3893 0.358849 20.2415 0.30135C20.0936 0.243851 19.9358 0.216597 19.7772 0.221203H2.09603C1.78177 0.221467 1.48045 0.346355 1.25814 0.568477C1.03583 0.790598 0.910686 1.09182 0.910156 1.40608Z" fill="#008FA4"/>
<path d="M13.8506 15.0346C13.8506 15.3489 13.9754 15.6503 14.1977 15.8726C14.4199 16.0948 14.7213 16.2196 15.0356 16.2196H19.7776C19.9362 16.2243 20.0941 16.197 20.2419 16.1395C20.3898 16.082 20.5246 15.9954 20.6384 15.8849C20.7522 15.7743 20.8426 15.6421 20.9044 15.496C20.9662 15.3498 20.998 15.1928 20.998 15.0341C20.998 14.8755 20.9662 14.7185 20.9044 14.5723C20.8426 14.4262 20.7522 14.294 20.6384 14.1834C20.5246 14.0729 20.3898 13.9863 20.2419 13.9288C20.0941 13.8713 19.9362 13.844 19.7776 13.8486H15.0356C14.7212 13.8489 14.4198 13.974 14.1976 14.1964C13.9754 14.4188 13.8506 14.7203 13.8506 15.0346Z" fill="#008FA4"/>
<path d="M9.67236 10.4911C9.67236 10.8053 9.7972 11.1067 10.0194 11.3289C10.2416 11.5511 10.543 11.6759 10.8572 11.6759H19.7773C19.9359 11.6805 20.0938 11.6533 20.2416 11.5958C20.3894 11.5383 20.5242 11.4517 20.638 11.3412C20.7518 11.2307 20.8423 11.0984 20.904 10.9523C20.9658 10.8062 20.9976 10.6492 20.9976 10.4906C20.9976 10.3319 20.9658 10.1749 20.904 10.0288C20.8423 9.8827 20.7518 9.75046 20.638 9.63993C20.5242 9.52941 20.3894 9.44283 20.2416 9.38533C20.0938 9.32783 19.9359 9.30058 19.7773 9.30519H10.8572C10.5429 9.30545 10.2415 9.43051 10.0193 9.65288C9.79717 9.87524 9.67236 10.1767 9.67236 10.4911Z" fill="#008FA4"/>
<path d="M5.16992 5.94856C5.17045 6.26291 5.29556 6.56424 5.51784 6.78652C5.74012 7.0088 6.04145 7.13391 6.3558 7.13444H19.7764C19.935 7.13904 20.0928 7.11179 20.2407 7.05429C20.3885 6.99679 20.5233 6.91021 20.6371 6.79969C20.7509 6.68916 20.8414 6.55693 20.9031 6.41082C20.9649 6.26471 20.9967 6.10769 20.9967 5.94906C20.9967 5.79043 20.9649 5.63341 20.9031 5.4873C20.8414 5.34119 20.7509 5.20896 20.6371 5.09843C20.5233 4.9879 20.3885 4.90133 20.2407 4.84383C20.0928 4.78633 19.935 4.75908 19.7764 4.76368H6.3558C6.04154 4.76395 5.74021 4.88884 5.5179 5.11096C5.29559 5.33308 5.17045 5.6343 5.16992 5.94856Z" fill="#008FA4"/>
<path d="M32.4906 10.627H32.4096V1.79793C32.4098 1.73407 32.4031 1.67038 32.3897 1.60795V1.51396L32.2897 1.30798C32.1765 1.04894 31.9856 0.831476 31.7434 0.685664C31.5012 0.539852 31.2197 0.472898 30.9378 0.494063C30.5932 0.52403 30.274 0.687256 30.0479 0.949016L30.0189 0.979013L23.6016 11.118C23.4825 11.2567 23.3929 11.4182 23.3384 11.5927C23.2839 11.7672 23.2656 11.951 23.2846 12.1329C23.3026 12.3048 23.3543 12.4714 23.4368 12.6233C23.5194 12.7751 23.6311 12.9092 23.7656 13.0178C24.0048 13.2214 24.3115 13.3284 24.6255 13.3177H29.6979V14.8616C29.6979 15.2214 29.8409 15.5666 30.0953 15.821C30.3498 16.0755 30.6949 16.2184 31.0548 16.2184C31.4147 16.2184 31.7598 16.0755 32.0142 15.821C32.2687 15.5666 32.4116 15.2214 32.4116 14.8616V13.3207H32.4896C32.8469 13.3207 33.1894 13.1788 33.442 12.9262C33.6946 12.6737 33.8365 12.3311 33.8365 11.9739C33.8365 11.6167 33.6946 11.2741 33.442 11.0215C33.1894 10.7689 32.8469 10.627 32.4896 10.627M29.6979 6.40345V10.627H27.1102L29.6979 6.40345Z" fill="white"/>
</g>
</g>
</g>
<defs>
<clipPath id="clip0_1_71376">
<rect width="48.09" height="16" fill="white" transform="translate(0.910156 0.220215)"/>
</clipPath>
<clipPath id="clip1_1_71376">
<rect width="48.09" height="16" fill="white" transform="translate(0.910156 0.220215)"/>
</clipPath>
<clipPath id="clip2_1_71376">
<rect width="48.09" height="15.9983" fill="white" transform="translate(0.910156 0.221191)"/>
</clipPath>
</defs>
</svg>
