<svg width="48" height="45" viewBox="0 0 48 45" fill="none" xmlns="http://www.w3.org/2000/svg">
<g clip-path="url(#clip0_1_108)">
<g clip-path="url(#clip1_1_108)">
<g clip-path="url(#clip2_1_108)">
<path d="M46.8884 0.834437C46.665 0.626504 46.3719 0.509573 46.0667 0.506589C45.7616 0.503605 45.4663 0.614784 45.2388 0.818307C45.2293 0.827105 45.222 0.831504 45.2117 0.841035L34.6278 11.4572L29.789 6.65498C29.5666 6.43623 29.2677 6.31273 28.9558 6.31068C28.6438 6.30862 28.3434 6.42818 28.1181 6.64398L28.1079 6.65351L28.0895 6.67184C27.8806 6.88716 27.7621 7.17436 27.7584 7.47437C27.7547 7.77439 27.8661 8.06441 28.0697 8.28479C28.8549 9.07147 32.2802 12.4975 33.9863 14.194C34.0901 14.2965 34.2153 14.3746 34.3529 14.4228C34.4439 14.4534 34.5391 14.4697 34.6352 14.4712C34.7584 14.4638 34.8789 14.4317 34.9894 14.3766C35.0998 14.3216 35.1981 14.2447 35.2781 14.1508L46.8884 2.52217C47.1025 2.29363 47.2217 1.9922 47.2217 1.67904C47.2217 1.36587 47.1025 1.06444 46.8884 0.835903V0.834437Z" fill="#008FA4"/>
<path d="M47.0776 15.8034C47.0303 15.5838 46.9688 15.3676 46.8936 15.156C46.8621 15.0687 46.8247 14.9851 46.7888 14.9008C46.7102 14.7148 46.6206 14.5336 46.5204 14.3583C46.4713 14.2733 46.4222 14.1897 46.3687 14.109C46.2635 13.9512 46.1491 13.7997 46.0263 13.6552C45.9625 13.5819 45.9024 13.5012 45.8349 13.4309C45.7004 13.293 45.5574 13.1637 45.4068 13.0437C45.3386 12.988 45.2763 12.9235 45.2044 12.8722C44.9924 12.7185 44.7668 12.5843 44.5307 12.4712C44.4251 12.4206 44.3107 12.3883 44.2015 12.3458C44.0922 12.3033 43.972 12.2461 43.851 12.2123C43.8239 12.205 43.7946 12.205 43.7682 12.1984C43.6059 12.1611 43.4417 12.133 43.2762 12.1141C43.1614 12.0885 43.0455 12.0687 42.9287 12.0547H42.0958C41.9336 12.0536 41.7727 12.0845 41.6224 12.1455C41.4721 12.2066 41.3353 12.2967 41.2198 12.4106C41.1043 12.5245 41.0124 12.6601 40.9493 12.8095C40.8862 12.959 40.8531 13.1194 40.852 13.2817C40.8509 13.4439 40.8818 13.6048 40.9428 13.7551C41.0039 13.9054 41.094 14.0422 41.2079 14.1577C41.3218 14.2732 41.4574 14.3651 41.6069 14.4282C41.7563 14.4913 41.9167 14.5243 42.079 14.5255C42.0848 14.5255 42.09 14.5255 42.0958 14.5255H42.7674C42.8379 14.5294 42.9082 14.5372 42.9778 14.5489C43.2077 14.5758 43.431 14.6428 43.6377 14.7469C43.6765 14.7667 43.711 14.7923 43.7491 14.8151C43.9516 14.9342 44.1337 15.085 44.2887 15.2616C44.3151 15.2923 44.3364 15.3283 44.362 15.3613C44.5193 15.559 44.6452 15.7799 44.7352 16.016C44.7447 16.0409 44.7484 16.0688 44.7572 16.0944C44.8505 16.3636 44.9 16.6461 44.9038 16.931C44.9038 16.9383 44.9038 16.9456 44.9038 16.9529V19.4171H3.19813V16.9617C3.16501 16.3533 3.37353 15.7564 3.77831 15.301C4.18309 14.8455 4.75137 14.5684 5.35948 14.5299H27.1416C27.4693 14.5299 27.7837 14.3997 28.0154 14.1679C28.2472 13.9362 28.3773 13.6219 28.3773 13.2941C28.3773 12.9664 28.2472 12.6521 28.0154 12.4203C27.7837 12.1886 27.4693 12.0584 27.1416 12.0584H5.35948C2.88947 12.0584 0.879883 14.2579 0.879883 16.9617V39.5929C0.879883 42.2953 2.8902 44.4948 5.35948 44.4948H42.7374C45.2074 44.4948 47.2169 42.2953 47.2169 39.5929V16.9507C47.2151 16.6406 47.1861 16.3313 47.1304 16.0262C47.1172 15.9507 47.0945 15.8789 47.0776 15.8034ZM44.8987 39.5929C44.9318 40.2013 44.7233 40.7982 44.3185 41.2536C43.9137 41.7091 43.3455 41.9862 42.7374 42.0248H5.35948C4.75144 41.986 4.18328 41.7088 3.77854 41.2534C3.3738 40.798 3.16521 40.2012 3.19813 39.5929V26.7325H44.8987V39.5929Z" fill="#008FA4"/>
</g>
</g>
</g>
<defs>
<clipPath id="clip0_1_108">
<rect width="46.34" height="44" fill="white" transform="translate(0.879883 0.5)"/>
</clipPath>
<clipPath id="clip1_1_108">
<rect width="46.34" height="44" fill="white" transform="translate(0.879883 0.5)"/>
</clipPath>
<clipPath id="clip2_1_108">
<rect width="46.34" height="43.9895" fill="white" transform="translate(0.879883 0.505249)"/>
</clipPath>
</defs>
</svg>
