<svg width="32" height="60" viewBox="0 0 32 60" fill="none" xmlns="http://www.w3.org/2000/svg">
<g clip-path="url(#clip0_1_71523)">
<g clip-path="url(#clip1_1_71523)">
<path d="M1.16744 28.8901L29.5904 0.467086C29.8909 0.175596 30.2939 0.0139784 30.7125 0.0171352C31.131 0.020292 31.5316 0.188005 31.8276 0.483993C32.1236 0.779982 32.2912 1.18053 32.2944 1.59911C32.2976 2.01768 32.1359 2.4207 31.8444 2.72111L4.54444 30.0211L31.8104 57.2791C32.1019 57.5795 32.2636 57.9825 32.2604 58.4011C32.2572 58.8197 32.0896 59.2202 31.7936 59.5162C31.4976 59.8122 31.097 59.9799 30.6785 59.9831C30.2599 59.9862 29.8569 59.8246 29.5564 59.5331L1.16744 31.1451C1.01931 30.9971 0.901804 30.8213 0.821632 30.6279C0.74146 30.4344 0.700195 30.227 0.700195 30.0176C0.700195 29.8082 0.74146 29.6008 0.821632 29.4073C0.901804 29.2139 1.01931 29.0382 1.16744 28.8901Z" fill="#818181"/>
</g>
</g>
<defs>
<clipPath id="clip0_1_71523">
<rect width="31" height="60" fill="white" transform="translate(0.700195)"/>
</clipPath>
<clipPath id="clip1_1_71523">
<rect width="31.611" height="60" fill="white" transform="translate(0.700195)"/>
</clipPath>
</defs>
</svg>
