<svg width="42" height="80" viewBox="0 0 42 80" fill="none" xmlns="http://www.w3.org/2000/svg">
<g clip-path="url(#clip0_1_48501)">
<g clip-path="url(#clip1_1_48501)">
<path d="M41.526 41.4813L3.626 79.3813C3.22738 79.78 2.68673 80.0039 2.12299 80.0039C1.55926 80.0039 1.01862 79.78 0.619995 79.3813C0.221375 78.9827 -0.00256729 78.4421 -0.00256729 77.8784C-0.00256729 77.3146 0.221375 76.774 0.619995 76.3754L37.017 39.9783L0.668995 3.62933C0.270374 3.23071 0.0464325 2.69008 0.0464325 2.12634C0.0464325 1.56261 0.270374 1.02197 0.668995 0.623352C1.06762 0.224731 1.60826 0.000793457 2.17199 0.000793457C2.73573 0.000793457 3.27637 0.224731 3.675 0.623352L41.526 38.4753C41.9245 38.874 42.1484 39.4146 42.1484 39.9783C42.1484 40.542 41.9245 41.0826 41.526 41.4813Z" fill="#D3D3D3"/>
</g>
</g>
<defs>
<clipPath id="clip0_1_48501">
<rect width="42" height="80" fill="white"/>
</clipPath>
<clipPath id="clip1_1_48501">
<rect width="42.148" height="80" fill="white"/>
</clipPath>
</defs>
</svg>
