<svg width="31" height="60" viewBox="0 0 31 60" fill="none" xmlns="http://www.w3.org/2000/svg">
<g clip-path="url(#clip0_1_71527)">
<g clip-path="url(#clip1_1_71527)">
<path d="M31.1451 28.8901L2.72207 0.467086C2.42165 0.175596 2.01862 0.0139784 1.60005 0.0171352C1.18147 0.020292 0.780927 0.188005 0.484938 0.483993C0.18895 0.779982 0.0212686 1.18053 0.0181118 1.59911C0.014955 2.01768 0.176576 2.4207 0.468066 2.72111L27.7681 30.0211L0.500066 57.2791C0.208576 57.5795 0.046955 57.9825 0.0501118 58.4011C0.0532686 58.8197 0.22095 59.2202 0.516938 59.5162C0.812927 59.8122 1.21347 59.9799 1.63205 59.9831C2.05062 59.9862 2.45365 59.8246 2.75407 59.5331L31.1431 31.1441C31.4422 30.8454 31.6104 30.4402 31.6108 30.0175C31.6112 29.5948 31.4437 29.1893 31.1451 28.8901Z" fill="#818181"/>
</g>
</g>
<defs>
<clipPath id="clip0_1_71527">
<rect width="31" height="60" fill="white"/>
</clipPath>
<clipPath id="clip1_1_71527">
<rect width="31.611" height="60" fill="white"/>
</clipPath>
</defs>
</svg>
