<svg width="69" height="18" viewBox="0 0 69 18" fill="none" xmlns="http://www.w3.org/2000/svg">
<path d="M18.38 6.62073H25.253V7.97061H22.5505V15.5589H21.0645V7.97061H18.374V6.62073H18.38ZM24.9594 9.0871H26.2297V10.3361H26.2537C26.2956 10.1594 26.3735 9.98912 26.4874 9.82511C26.6012 9.66111 26.7391 9.50341 26.9008 9.37095C27.0626 9.23218 27.2424 9.12494 27.4401 9.03663C27.6379 8.95463 27.8416 8.91048 28.0453 8.91048C28.2011 8.91048 28.315 8.91678 28.3749 8.92309C28.4348 8.9294 28.4948 8.94202 28.5607 8.94832V10.3234C28.4648 10.3045 28.3689 10.2919 28.267 10.2793C28.1652 10.2667 28.0693 10.2604 27.9734 10.2604C27.7457 10.2604 27.53 10.3108 27.3263 10.4054C27.1226 10.5001 26.9488 10.6451 26.799 10.8281C26.6492 11.0173 26.5293 11.2444 26.4394 11.5219C26.3496 11.7995 26.3076 12.1149 26.3076 12.4744V15.5526H24.9534V9.0871L24.9594 9.0871ZM34.7865 15.5589H33.4562V14.6569H33.4323C33.2645 14.9849 33.0188 15.2436 32.6893 15.4391C32.3597 15.6346 32.0241 15.7356 31.6826 15.7356C30.8736 15.7356 30.2864 15.5274 29.9269 15.1048C29.5673 14.6822 29.3876 14.0451 29.3876 13.1935V9.0871H30.7418V13.0547C30.7418 13.6224 30.8437 14.0261 31.0534 14.2595C31.2571 14.4929 31.5507 14.6128 31.9223 14.6128C32.2099 14.6128 32.4436 14.5686 32.6353 14.474C32.8271 14.3794 32.9829 14.2595 33.0967 14.1018C33.2166 13.9504 33.3004 13.7612 33.3544 13.5467C33.4083 13.3323 33.4323 13.0989 33.4323 12.8466V9.09341H34.7865V15.5589ZM37.0935 13.4837C37.1354 13.9 37.2852 14.1901 37.5429 14.3605C37.8065 14.5245 38.1181 14.6128 38.4837 14.6128C38.6095 14.6128 38.7533 14.6002 38.9151 14.5812C39.0769 14.5623 39.2327 14.5182 39.3705 14.4614C39.5143 14.4046 39.6281 14.3163 39.724 14.2028C39.8139 14.0892 39.8559 13.9441 39.8499 13.7612C39.8439 13.5783 39.778 13.4269 39.6581 13.3134C39.5383 13.1935 39.3885 13.1052 39.2027 13.0295C39.017 12.9601 38.8072 12.897 38.5675 12.8466C38.3279 12.7961 38.0882 12.7393 37.8425 12.6826C37.5908 12.6258 37.3451 12.5501 37.1115 12.4681C36.8778 12.3861 36.668 12.2726 36.4823 12.1275C36.2965 11.9887 36.1467 11.8058 36.0389 11.585C35.925 11.3642 35.8711 11.093 35.8711 10.765C35.8711 10.4117 35.955 10.1216 36.1168 9.88189C36.2785 9.64219 36.4883 9.45295 36.7339 9.30787C36.9856 9.16279 37.2613 9.06187 37.5669 8.99879C37.8725 8.94202 38.1661 8.91048 38.4417 8.91048C38.7593 8.91048 39.0649 8.94832 39.3525 9.01771C39.6401 9.0871 39.9038 9.20064 40.1375 9.36464C40.3712 9.52234 40.5629 9.7305 40.7187 9.98281C40.8745 10.2351 40.9704 10.5442 41.0123 10.9038H39.5982C39.5323 10.5631 39.3885 10.3297 39.1548 10.2162C38.9211 10.0964 38.6514 10.0396 38.3518 10.0396C38.256 10.0396 38.1421 10.0459 38.0103 10.0648C37.8784 10.0837 37.7586 10.1153 37.6388 10.1594C37.5249 10.2036 37.429 10.273 37.3451 10.3613C37.2672 10.4496 37.2253 10.5631 37.2253 10.7082C37.2253 10.8848 37.2852 11.0236 37.3991 11.1308C37.5129 11.2381 37.6627 11.3264 37.8485 11.4021C38.0342 11.4715 38.244 11.5345 38.4837 11.585C38.7233 11.6355 38.969 11.6922 39.2207 11.749C39.4664 11.8058 39.706 11.8815 39.9457 11.9635C40.1854 12.0455 40.3951 12.159 40.5809 12.3041C40.7667 12.4492 40.9165 12.6258 41.0303 12.8403C41.1442 13.0547 41.2041 13.326 41.2041 13.6414C41.2041 14.0261 41.1202 14.3478 40.9524 14.6191C40.7846 14.884 40.5689 15.1048 40.3053 15.2688C40.0416 15.4328 39.742 15.5589 39.4184 15.6346C39.0949 15.7103 38.7713 15.7482 38.4537 15.7482C38.0642 15.7482 37.7047 15.704 37.3751 15.6094C37.0455 15.5148 36.7579 15.376 36.5182 15.1931C36.2785 15.0039 36.0868 14.7705 35.949 14.4929C35.8112 14.2154 35.7393 13.8811 35.7273 13.4963H37.0935V13.4837ZM41.5636 9.0871H42.5883V7.14428H43.9425V9.0871H45.1649V10.1531H43.9425V13.6098C43.9425 13.7612 43.9485 13.8874 43.9605 14.0009C43.9725 14.1081 44.0024 14.2028 44.0444 14.2785C44.0863 14.3541 44.1522 14.4109 44.2421 14.4488C44.332 14.4866 44.4458 14.5055 44.6016 14.5055C44.6975 14.5055 44.7934 14.5055 44.8893 14.4992C44.9851 14.4929 45.081 14.4803 45.1769 14.4551V15.5589C45.0271 15.5779 44.8773 15.5905 44.7394 15.6094C44.5956 15.6283 44.4518 15.6346 44.302 15.6346C43.9425 15.6346 43.6549 15.5968 43.4391 15.5274C43.2234 15.458 43.0497 15.3508 42.9298 15.212C42.804 15.0732 42.7261 14.9029 42.6782 14.6948C42.6362 14.4866 42.6062 14.2469 42.6003 13.982V10.1657H41.5756V9.0871H41.5636ZM46.1236 9.0871H47.4059V9.96389H47.4299C47.6217 9.58542 47.8853 9.32049 48.2269 9.15648C48.5684 8.99248 48.9339 8.91048 49.3354 8.91048C49.8208 8.91048 50.2402 8.99879 50.5998 9.18171C50.9593 9.35833 51.2589 9.60434 51.4986 9.91973C51.7383 10.2351 51.912 10.601 52.0319 11.0173C52.1517 11.4336 52.2116 11.8815 52.2116 12.3546C52.2116 12.7898 52.1577 13.2124 52.0499 13.6161C51.942 14.0261 51.7802 14.3857 51.5645 14.7011C51.3488 15.0165 51.0731 15.2625 50.7376 15.4517C50.402 15.641 50.0125 15.7356 49.5571 15.7356C49.3594 15.7356 49.1616 15.7166 48.9639 15.6788C48.7662 15.641 48.5744 15.5779 48.3947 15.4959C48.2149 15.4139 48.0411 15.3066 47.8913 15.1742C47.7355 15.0417 47.6097 14.8903 47.5018 14.72H47.4779V17.9496H46.1236V9.0871ZM50.8574 12.3293C50.8574 12.0392 50.8215 11.7553 50.7496 11.4778C50.6777 11.2002 50.5698 10.9605 50.426 10.7461C50.2822 10.5316 50.1024 10.3613 49.8927 10.2351C49.677 10.109 49.4313 10.0396 49.1557 10.0396C48.5864 10.0396 48.155 10.2477 47.8673 10.6641C47.5797 11.0804 47.4359 11.6355 47.4359 12.3293C47.4359 12.6573 47.4719 12.9601 47.5498 13.2377C47.6277 13.5152 47.7355 13.7549 47.8913 13.9568C48.0411 14.1586 48.2209 14.3163 48.4306 14.4298C48.6403 14.5497 48.886 14.6065 49.1616 14.6065C49.4732 14.6065 49.7309 14.5371 49.9466 14.4046C50.1623 14.2721 50.3361 14.0955 50.4739 13.8874C50.6117 13.6729 50.7136 13.4332 50.7735 13.162C50.8275 12.8907 50.8574 12.6132 50.8574 12.3293ZM53.2483 6.62073H54.6025V7.97061H53.2483V6.62073ZM53.2483 9.0871H54.6025V15.5589H53.2483V9.0871ZM55.8129 6.62073H57.1672V15.5589H55.8129V6.62073ZM61.3197 15.7356C60.8283 15.7356 60.3909 15.6473 60.0074 15.4769C59.6239 15.3066 59.3004 15.0669 59.0307 14.7705C58.7671 14.4677 58.5633 14.1081 58.4255 13.6918C58.2877 13.2755 58.2158 12.815 58.2158 12.3167C58.2158 11.8247 58.2877 11.3705 58.4255 10.9542C58.5633 10.5379 58.767 10.1784 59.0307 9.87558C59.2944 9.5728 59.6239 9.33941 60.0074 9.1691C60.3909 8.99879 60.8283 8.91048 61.3197 8.91048C61.8111 8.91048 62.2485 8.99879 62.632 9.1691C63.0155 9.33941 63.3391 9.57911 63.6087 9.87558C63.8724 10.1784 64.0761 10.5379 64.2139 10.9542C64.3517 11.3705 64.4236 11.8247 64.4236 12.3167C64.4236 12.815 64.3517 13.2755 64.2139 13.6918C64.0761 14.1081 63.8724 14.4677 63.6087 14.7705C63.3451 15.0732 63.0155 15.3066 62.632 15.4769C62.2485 15.6473 61.8111 15.7356 61.3197 15.7356ZM61.3197 14.6065C61.6193 14.6065 61.883 14.5371 62.1047 14.4046C62.3264 14.2721 62.5061 14.0955 62.65 13.8811C62.7938 13.6666 62.8956 13.4206 62.9675 13.1494C63.0335 12.8781 63.0694 12.6006 63.0694 12.3167C63.0694 12.0392 63.0335 11.7679 62.9675 11.4904C62.9016 11.2128 62.7938 10.9731 62.65 10.7587C62.5061 10.5442 62.3264 10.3739 62.1047 10.2414C61.883 10.109 61.6193 10.0396 61.3197 10.0396C61.0201 10.0396 60.7564 10.109 60.5347 10.2414C60.313 10.3739 60.1333 10.5505 59.9894 10.7587C59.8456 10.9731 59.7438 11.2128 59.6719 11.4904C59.6059 11.7679 59.57 12.0392 59.57 12.3167C59.57 12.6006 59.6059 12.8781 59.6719 13.1494C59.7378 13.4206 59.8456 13.6666 59.9894 13.8811C60.1333 14.0955 60.313 14.2721 60.5347 14.4046C60.7564 14.5434 61.0201 14.6065 61.3197 14.6065ZM64.8191 9.0871H65.8438V7.14428H67.198V9.0871H68.4204V10.1531H67.198V13.6098C67.198 13.7612 67.204 13.8874 67.216 14.0009C67.228 14.1081 67.2579 14.2028 67.2999 14.2785C67.3418 14.3541 67.4077 14.4109 67.4976 14.4488C67.5875 14.4866 67.7013 14.5055 67.8571 14.5055C67.953 14.5055 68.0489 14.5055 68.1448 14.4992C68.2406 14.4929 68.3365 14.4803 68.4324 14.4551V15.5589C68.2826 15.5779 68.1328 15.5905 67.995 15.6094C67.8511 15.6283 67.7073 15.6346 67.5575 15.6346C67.198 15.6346 66.9104 15.5968 66.6947 15.5274C66.4789 15.458 66.3052 15.3508 66.1853 15.212C66.0595 15.0732 65.9816 14.9029 65.9337 14.6948C65.8917 14.4866 65.8618 14.2469 65.8558 13.982V10.1657H64.8311V9.0871L64.8191 9.0871Z" fill="#191919"/>
<path d="M16.7982 6.62066H10.5903L8.67284 0.401123L6.74936 6.62066L0.541504 6.61436L5.56891 10.4621L3.64543 16.6754L8.67284 12.8339L13.6943 16.6754L11.7768 10.4621L16.7982 6.62066Z" fill="#00B67A"/>
<path d="M12.2082 11.8688L11.7768 10.4622L8.67285 12.8339L12.2082 11.8688Z" fill="#005128"/>
</svg>
