<svg width="101" height="19" viewBox="0 0 101 19" fill="none" xmlns="http://www.w3.org/2000/svg">
<path d="M0.0385742 18.4414H18.5006V0H0.0385742V18.4414Z" fill="#00B67A"/>
<path d="M15.7768 7.84578L5.30532 15.4441L6.83331 10.7481L2.8335 7.84578H7.77746L9.30513 3.14941L10.8328 7.84578H15.7768ZM9.30551 12.5422L12.1653 11.9413L13.3047 15.4441L9.30551 12.5422Z" fill="white"/>
<path d="M20.4404 18.4414H38.9025V0H20.4404V18.4414Z" fill="#00B67A"/>
<path d="M20.4404 18.4414H29.6714V0H20.4404V18.4414Z" fill="#00B67A"/>
<path d="M29.8925 12.4709L32.3447 11.9415L33.479 15.5239L29.6333 12.6569L25.6375 15.5239L27.1884 10.8108L23.1284 7.89799H28.1467L29.6969 3.18457L31.2477 7.89799H36.2656L29.8925 12.4709Z" fill="white"/>
<path d="M40.8564 18.4414H59.3185V0H40.8564V18.4414Z" fill="#00B67A"/>
<path d="M40.8564 18.4414H50.0875V0H40.8564V18.4414Z" fill="#00B67A"/>
<path d="M56.5951 7.84578L46.1237 15.4441L47.6517 10.7481L43.6519 7.84578H48.5958L50.1235 3.14941L51.6512 7.84578L56.5951 7.84578ZM50.1239 12.5422L52.9836 11.9413L54.123 15.4441L50.1239 12.5422Z" fill="white"/>
<path d="M61.2725 18.4414H79.7345V0H61.2725V18.4414Z" fill="#00B67A"/>
<path d="M61.2725 18.4414H70.5035V0H61.2725V18.4414Z" fill="#00B67A"/>
<path d="M77.0107 7.84578L66.5395 15.4441L68.0672 10.7481L64.0674 7.84578H69.0114L70.539 3.14941L72.0667 7.84578L77.0107 7.84578ZM70.5394 12.5422L73.3992 11.9413L74.5386 15.4441L70.5394 12.5422Z" fill="white"/>
<path d="M81.6743 18.4414H100.136V0H81.6743V18.4414Z" fill="#00B67A"/>
<path d="M81.6743 18.4414H90.9053V0H81.6743V18.4414Z" fill="#00B67A"/>
<path d="M97.412 7.84578L86.9409 15.4441L88.4686 10.7481L84.4688 7.84578H89.4127L90.9404 3.14941L92.468 7.84578H97.412ZM90.9408 12.5422L93.8005 11.9413L94.9399 15.4441L90.9408 12.5422Z" fill="white"/>
</svg>
