<svg width="101" height="19" viewBox="0 0 101 19" fill="none" xmlns="http://www.w3.org/2000/svg">
<path d="M0.558838 18.4414H19.0209V0H0.558838V18.4414Z" fill="#73CF11"/>
<path d="M16.2973 7.84602L5.82583 15.4444L7.35381 10.7483L3.354 7.84602H8.29797L9.82564 3.14966L11.3533 7.84602H16.2973ZM9.82602 12.5424L12.6858 11.9415L13.8252 15.4444L9.82602 12.5424Z" fill="white"/>
<path d="M20.9604 18.4414H39.4225V0H20.9604V18.4414Z" fill="#73CF11"/>
<path d="M20.9604 18.4414H30.1915V0H20.9604V18.4414Z" fill="#73CF11"/>
<path d="M30.4125 12.4706L32.8648 11.9413L33.999 15.5237L30.1533 12.6567L26.1576 15.5237L27.7084 10.8106L23.6484 7.89774H28.6667L30.2169 3.18433L31.7677 7.89774H36.7857L30.4125 12.4706Z" fill="white"/>
<path d="M41.3767 18.4414H59.8387V0H41.3767V18.4414Z" fill="#73CF11"/>
<path d="M41.3767 18.4414H50.6077V0H41.3767V18.4414Z" fill="#73CF11"/>
<path d="M57.1154 7.84602L46.6439 15.4444L48.1719 10.7483L44.1721 7.84602H49.1161L50.6438 3.14966L52.1714 7.84602L57.1154 7.84602ZM50.6441 12.5424L53.5039 11.9415L54.6433 15.4444L50.6441 12.5424Z" fill="white"/>
<path d="M61.7922 18.4414H80.2543V0H61.7922V18.4414Z" fill="#73CF11"/>
<path d="M61.7922 18.4414H71.0232V0H61.7922V18.4414Z" fill="#73CF11"/>
<path d="M77.5302 7.84602L67.0591 15.4444L68.5867 10.7483L64.5869 7.84602H69.5309L71.0585 3.14966L72.5862 7.84602L77.5302 7.84602ZM71.0589 12.5424L73.9187 11.9415L75.0581 15.4444L71.0589 12.5424Z" fill="white"/>
<path d="M82.1943 18.4414H100.656V0H82.1943V18.4414Z" fill="#DCDCE6"/>
<path d="M82.1943 18.4414H91.4253V0H82.1943V18.4414Z" fill="#DCDCE6"/>
<path d="M97.9323 7.84602L87.4612 15.4444L88.9888 10.7483L84.989 7.84602H89.933L91.4606 3.14966L92.9883 7.84602H97.9323ZM91.461 12.5424L94.3208 11.9415L95.4602 15.4444L91.461 12.5424Z" fill="white"/>
</svg>
