<svg width="105" height="14" viewBox="0 0 105 14" fill="none" xmlns="http://www.w3.org/2000/svg">
<path d="M60.0727 12.9933C61.8095 12.9157 63.5691 12.7943 65.3029 12.6392C65.5148 12.6272 65.7148 12.5374 65.8646 12.3871C66.0144 12.2368 66.1034 12.0364 66.1146 11.8245C66.1084 11.7242 66.0813 11.6263 66.0349 11.5371C65.9886 11.4479 65.924 11.3695 65.8455 11.3068C65.767 11.2441 65.6761 11.1985 65.5789 11.1731C65.4817 11.1476 65.3802 11.1428 65.281 11.159C63.5751 11.3142 61.8443 11.4306 60.1344 11.5072H60.1254C59.1088 11.5529 58.0773 11.5848 57.0568 11.6066C56.8454 11.6066 56.6411 11.6827 56.4813 11.821C56.3214 11.9593 56.2167 12.1505 56.1864 12.3596C56.1823 12.4596 56.1996 12.5592 56.2371 12.6519C56.2746 12.7447 56.3314 12.8283 56.4038 12.8973C56.4762 12.9663 56.5625 13.0191 56.6569 13.0521C56.7513 13.0851 56.8517 13.0976 56.9513 13.0888C57.9868 13.0709 59.0402 13.038 60.0687 12.9893L60.0727 12.9933ZM45.9985 12.7416C46.1931 12.7356 46.3805 12.6663 46.5321 12.5442C46.6838 12.4222 46.7916 12.254 46.8391 12.0652C46.8565 11.9672 46.8525 11.8666 46.8272 11.7704C46.802 11.6741 46.7561 11.5845 46.6928 11.5077C46.6296 11.4309 46.5504 11.3687 46.4607 11.3255C46.3711 11.2823 46.2731 11.2591 46.1736 11.2575C43.465 11.0357 40.7644 10.7084 38.1453 10.2847C37.9331 10.2501 37.7154 10.2917 37.531 10.4022C37.3466 10.5128 37.2072 10.685 37.1376 10.8885C37.1104 10.9838 37.1043 11.0839 37.1199 11.1819C37.1356 11.2798 37.1724 11.3731 37.228 11.4552C37.2836 11.5374 37.3565 11.6063 37.4416 11.6572C37.5267 11.7081 37.6219 11.7397 37.7205 11.7499C40.3844 12.1806 43.1308 12.5138 45.8841 12.7396C45.9222 12.7425 45.9604 12.7432 45.9985 12.7416ZM76.2905 11.0934C76.3356 11.0913 76.3805 11.086 76.4248 11.0775C79.21 10.5453 81.9833 9.9027 84.673 9.1686C84.8775 9.12442 85.0572 9.00312 85.1746 8.82992C85.2921 8.65672 85.3383 8.44492 85.3036 8.23854C85.2729 8.14123 85.223 8.05106 85.1569 7.97337C85.0908 7.89567 85.0097 7.83204 84.9185 7.78622C84.8274 7.74041 84.7279 7.71334 84.6261 7.70663C84.5243 7.69992 84.4222 7.7137 84.3258 7.74716C81.6838 8.46832 78.9544 9.09997 76.2209 9.62318C76.0123 9.65329 75.8228 9.76098 75.6902 9.92473C75.5577 10.0885 75.4917 10.2962 75.5057 10.5065C75.5387 10.6851 75.6379 10.8447 75.7833 10.9534C75.9288 11.0622 76.1099 11.1122 76.2905 11.0934ZM27.4093 9.4511C27.5777 9.44507 27.7411 9.39265 27.8815 9.29962C28.0219 9.20658 28.1339 9.07656 28.2051 8.9239C28.2459 8.83383 28.2663 8.73582 28.2647 8.63694C28.2632 8.53806 28.2397 8.44075 28.1961 8.35201C28.1524 8.26327 28.0896 8.1853 28.0123 8.12372C27.9349 8.06214 27.8448 8.01846 27.7485 7.99583C27.5884 7.95008 27.4292 7.90532 27.2711 7.85956C25.1285 7.24085 22.9759 6.52565 20.894 5.83432L20.1877 5.59559C19.9811 5.53046 19.7582 5.54023 19.5581 5.62319C19.3579 5.70615 19.1935 5.85698 19.0935 6.04918C19.048 6.13689 19.0225 6.23362 19.0189 6.33237C19.0153 6.43113 19.0337 6.52946 19.0727 6.62025C19.1117 6.71104 19.1704 6.79204 19.2446 6.85739C19.3187 6.92274 19.4064 6.97081 19.5014 6.99814L20.2046 7.2319C22.3015 7.92819 24.47 8.64837 26.6424 9.27603L27.1298 9.41529C27.2204 9.44247 27.3148 9.45457 27.4093 9.4511ZM95.1065 5.66025C95.2109 5.6555 95.3138 5.63331 95.4109 5.5946C98.0717 4.53821 100.678 3.36445 103.155 2.10714C103.249 2.06763 103.334 2.00952 103.405 1.9363C103.475 1.86308 103.531 1.77627 103.567 1.68109C103.604 1.58592 103.62 1.48436 103.617 1.38252C103.613 1.28068 103.588 1.18069 103.545 1.08855C103.43 0.913429 103.253 0.788618 103.05 0.739624C102.846 0.690629 102.632 0.721151 102.45 0.824952C100.024 2.05641 97.4769 3.20629 94.8658 4.24079C94.6695 4.30582 94.507 4.44594 94.4138 4.6305C94.3206 4.81505 94.3043 5.02901 94.3684 5.22556C94.432 5.36496 94.5369 5.48144 94.669 5.5592C94.801 5.63696 94.9537 5.67223 95.1065 5.66025ZM9.57912 4.09656C9.75646 4.09059 9.92813 4.03262 10.0728 3.92987C10.2175 3.82712 10.3287 3.68411 10.3928 3.51863C10.4269 3.42512 10.4399 3.3252 10.4307 3.22608C10.4215 3.12696 10.3904 3.03112 10.3397 2.94547C10.289 2.85982 10.2199 2.7865 10.1374 2.7308C10.0549 2.6751 9.96101 2.63842 9.86261 2.62339C8.90271 2.42445 7.95276 2.24839 7.03862 2.11111C5.23049 1.84231 3.40465 1.7103 1.57666 1.71621C1.36305 1.71112 1.15491 1.78407 0.991219 1.9214C0.827527 2.05872 0.719504 2.25101 0.687382 2.46225C0.680616 2.56217 0.695486 2.66238 0.730975 2.75603C0.766465 2.84968 0.821738 2.93458 0.893026 3.00492C0.964314 3.07526 1.04994 3.1294 1.14406 3.16364C1.23817 3.19788 1.33857 3.21141 1.43839 3.20331C3.17666 3.19993 4.91271 3.32761 6.63178 3.58528C7.5121 3.71658 8.42724 3.88369 9.35431 4.08264C9.42836 4.09672 9.5039 4.1014 9.57912 4.09656Z" fill="white" stroke="white" stroke-width="0.994713"/>
</svg>
