<svg width="164" height="38" viewBox="0 0 164 38" fill="none" xmlns="http://www.w3.org/2000/svg">
<g clip-path="url(#clip0_1_48408)">
<g clip-path="url(#clip1_1_48408)">
<g clip-path="url(#clip2_1_48408)">
<path d="M106.657 17.4729H112.52L113.229 15.424H109.82L112.072 8.88243H109.131L109.063 9.10042L109.21 9.24641C109.369 9.4034 109.364 9.58739 109.225 9.98637L106.657 17.4729ZM113.129 17.4729H115.623L116.704 15.573H119.287L119.313 17.4729H121.577L121.089 8.88443H117.7L117.625 9.10542L117.735 9.21441C117.914 9.3894 117.84 9.64139 117.18 10.6873L113.129 17.4729ZM119.129 11.2593H119.207L119.247 13.8591H117.663L119.129 11.2593ZM133.376 9.99137L130.811 17.4759H134.596C135.198 17.5418 135.807 17.4713 136.379 17.2696C136.95 17.0679 137.468 16.7403 137.896 16.311C138.973 14.8515 139.592 13.1038 139.672 11.2913C139.644 9.83337 138.703 8.88443 136.724 8.88443H133.284L133.213 9.10542L133.362 9.25141C133.52 9.4084 133.514 9.59239 133.376 9.99137ZM135.437 10.9223H136.376C137.016 10.9223 137.369 11.1363 137.376 11.6323C137.335 12.2181 137.195 12.7928 136.963 13.3322C136.796 13.9486 136.503 14.5237 136.102 15.0211C135.835 15.302 135.48 15.427 134.664 15.427H133.879L135.437 10.9223ZM122.107 17.4699H124.263L126.141 11.9112L127.241 17.4699H129.398L132.338 8.87843H130.083L128.513 13.5491L127.613 8.87843H124.574L124.5 9.09942L124.649 9.24541C124.808 9.4024 124.801 9.58639 124.665 9.98536L122.107 17.4699ZM147.661 11.9612H141.943L141.199 14.0071H145.161L140.661 15.534L140.384 16.266L146.868 14.1331L147.661 11.9612ZM140.432 24.4785L141.089 22.6786H138.069L138.537 21.3067H141.809L142.527 19.3228H136.352L136.266 19.5758L136.413 19.7208C136.573 19.8758 136.566 20.0597 136.428 20.4587L133.855 27.9183H139.627L140.327 25.9184H136.959L137.459 24.4715L140.432 24.4785ZM151.474 8.20047C144.363 4.5247 135.51 3.11679 127.575 3.11679C119.641 3.11679 110.786 4.5247 103.677 8.20047C99.682 10.2633 94.6133 13.9861 94.6133 19.0048C94.6133 24.0235 99.683 27.7443 103.677 29.8102C110.789 33.4829 119.643 34.8908 127.575 34.8908C135.508 34.8908 144.366 33.4849 151.474 29.8102C155.474 27.7443 160.538 24.0205 160.538 19.0048C160.538 13.9891 155.471 10.2593 151.474 8.20047ZM151.111 29.0992C144.111 32.717 135.397 34.0919 127.572 34.0919C119.748 34.0919 111.039 32.717 104.035 29.0992C100.328 27.1823 95.4013 23.6505 95.4013 18.9998C95.4013 14.3491 100.327 10.8163 104.035 8.90043C111.034 5.28265 119.747 3.90674 127.572 3.90674C135.398 3.90674 144.107 5.28165 151.111 8.90043C154.821 10.8153 159.745 14.3431 159.745 18.9998C159.745 23.6565 154.819 27.1833 151.111 29.0992ZM152.903 5.42964C146.125 1.92986 137.129 0.000976562 127.571 0.000976562C118.014 0.000976562 109.019 1.92986 102.243 5.43164C98.2291 7.50652 91.4945 12.0312 91.4945 19.0008C91.4945 25.9704 98.2291 30.4941 102.243 32.569C109.018 36.0688 118.013 37.9986 127.571 37.9986C137.13 37.9986 146.126 36.0708 152.903 32.569C156.917 30.4941 163.65 25.9694 163.65 19.0008C163.65 12.0322 156.917 7.50152 152.903 5.43164M152.023 30.8641C145.514 34.2279 136.832 36.0798 127.572 36.0798C118.313 36.0798 109.634 34.2279 103.125 30.8641C96.8652 27.6293 93.4144 23.4145 93.4144 19.0018C93.4144 14.5891 96.8642 10.3703 103.124 7.13754C109.633 3.77575 118.314 1.92086 127.571 1.92086C136.829 1.92086 145.513 3.77575 152.022 7.13754C158.282 10.3703 161.73 14.5841 161.73 19.0008C161.73 23.4175 158.283 27.6283 152.022 30.8631M147.161 19.3318H143.45L143.378 19.5538L143.527 19.7008C143.686 19.8568 143.678 20.0417 143.543 20.4387L140.943 27.9243H143.315L144.327 24.9534H145.127L146.019 27.9243H148.397L147.281 24.8845C147.766 24.8346 148.221 24.6306 148.581 24.3025C149.08 23.7985 149.431 23.1668 149.595 22.4766C149.753 22.1139 149.827 21.7201 149.811 21.3247C149.796 20.9294 149.691 20.5427 149.504 20.1937C149.173 19.6998 148.476 19.3308 147.156 19.3308M147.362 22.4496C147.325 22.5752 147.258 22.69 147.167 22.7843C147.076 22.8787 146.964 22.9498 146.84 22.9916C146.6 23.0531 146.351 23.0791 146.103 23.0686H144.972L145.583 21.2927H146.952C147.36 21.2927 147.529 21.5057 147.532 21.7486C147.513 21.9896 147.456 22.2259 147.362 22.4486M109.639 20.4397L103.155 22.5726L102.363 24.7455H108.081L108.826 22.6986H104.864L109.363 21.1757L109.639 20.4397ZM115.577 19.3318H111.863L111.788 19.5538L111.939 19.7008C112.097 19.8568 112.091 20.0417 111.952 20.4387L109.363 27.9253H111.732L112.745 24.9534H113.545L114.437 27.9243H116.818L115.698 24.8845C116.182 24.8343 116.638 24.6303 116.998 24.3025C117.496 23.7978 117.846 23.1663 118.011 22.4766C118.169 22.1137 118.242 21.7199 118.226 21.3245C118.21 20.9292 118.105 20.5426 117.918 20.1937C117.63 19.8659 117.265 19.6153 116.855 19.4646C116.445 19.3139 116.005 19.2679 115.573 19.3308M115.773 22.4496C115.736 22.5755 115.669 22.6905 115.578 22.7849C115.486 22.8793 115.374 22.9502 115.249 22.9916C115.008 23.0534 114.759 23.0793 114.51 23.0686H113.378L113.993 21.2927H115.361C115.77 21.2927 115.938 21.5057 115.943 21.7486C115.924 21.9896 115.866 22.2259 115.772 22.4486M133.22 19.3298L130.075 25.5054H130.009L129.85 19.3298H127.219L127.119 19.5518L127.345 19.6888C127.563 19.8428 127.623 19.9988 127.652 20.4267L128.008 27.9263H130.94L135.67 19.3328L133.22 19.3298ZM123.721 19.2238H123.449C122.841 19.1711 122.229 19.2553 121.658 19.4702C121.087 19.6851 120.571 20.0253 120.149 20.4657C119.062 21.9643 118.432 23.7451 118.335 25.5934C118.353 27.0493 119.295 28.0583 121.275 28.0583H121.565C122.174 28.1119 122.787 28.028 123.36 27.8129C123.932 27.5978 124.449 27.2569 124.872 26.8153C125.955 25.3161 126.58 23.5355 126.672 21.6886C126.653 20.2327 125.711 19.2228 123.73 19.2228M123.868 23.7765C123.699 24.4116 123.404 25.0059 123 25.5234C122.811 25.7068 122.584 25.8456 122.335 25.9294C122.086 26.0131 121.821 26.0398 121.561 26.0074C120.921 26.0074 120.561 25.7454 120.561 25.2504C120.601 24.6477 120.745 24.0565 120.986 23.5025C121.154 22.8674 121.45 22.273 121.855 21.7556C122.042 21.572 122.269 21.4331 122.518 21.3493C122.767 21.2655 123.032 21.239 123.293 21.2717C123.933 21.2717 124.292 21.5337 124.286 22.0266C124.249 22.6305 124.106 23.2231 123.864 23.7775" fill="black"/>
<path d="M13.9393 4.39662L14.1512 4.40162C14.4844 4.38729 14.8109 4.30278 15.1092 4.15364C15.2085 4.11449 15.302 4.06201 15.3872 3.99764C15.1562 3.99764 14.7872 3.99165 14.6482 3.99165C14.4769 3.9806 14.3054 4.00831 14.1463 4.07271C13.9872 4.13711 13.8446 4.23655 13.7293 4.36362C13.7293 4.38362 13.8093 4.39162 13.9383 4.39662M69.7958 20.4486C69.4548 19.6897 68.5139 19.9357 68.5139 19.9357C68.0699 20.0297 67.562 20.5356 66.808 20.7616C65.8543 21.0499 64.8331 21.0226 63.8962 20.6836C61.4043 19.6057 53.3908 15.018 49.3161 13.0141C49.3161 13.0141 44.5824 10.8222 37.7118 8.10239C37.7118 8.10239 24.2126 2.34175 15.2042 2.81472C15.2042 2.81472 10.4045 2.94171 8.89056 5.06058C8.81912 5.14258 8.77111 5.24233 8.75158 5.34932C8.73204 5.45631 8.74171 5.56659 8.77957 5.66854C8.78731 5.69438 8.78844 5.72174 8.78285 5.74812C8.77725 5.7745 8.76513 5.79906 8.74757 5.81953C8.29215 6.22991 7.88307 6.68895 7.52765 7.18845C7.42529 7.31569 7.36882 7.47373 7.36736 7.63703C7.36591 7.80033 7.41956 7.95935 7.51965 8.08839C7.59175 8.14384 7.6557 8.20914 7.70964 8.28238C7.81835 8.50679 7.94264 8.72331 8.08161 8.93034C8.21737 9.12752 8.40305 9.28511 8.61967 9.387C8.83629 9.4889 9.07608 9.53145 9.31454 9.51031C9.58152 9.46431 9.58252 9.38931 9.58252 9.38931C9.80185 9.57584 10.0806 9.67796 10.3685 9.6773C10.249 9.42214 10.1487 9.15842 10.0685 8.88834C10.0514 8.72528 10.0649 8.56045 10.1085 8.40238C10.1921 8.10117 10.3414 7.82219 10.5455 7.58542C10.6638 7.46925 10.8171 7.39516 10.9817 7.37457C11.1463 7.35397 11.3131 7.388 11.4564 7.47143C11.67 7.68917 11.8144 7.96527 11.8713 8.26494C11.9283 8.5646 11.8952 8.87441 11.7764 9.15533C11.7644 9.22132 11.4764 9.84529 11.1594 9.94028C11.1303 9.94731 11.1004 9.95033 11.0704 9.94928C10.859 9.91216 10.6558 9.83767 10.4705 9.72929C10.471 9.82544 10.4865 9.92092 10.5165 10.0123C10.5515 10.1433 10.5975 10.2853 10.6345 10.3963C10.6345 10.3963 10.5585 10.5322 10.5095 10.6112C10.4435 10.6962 10.3705 11.0052 10.5325 11.1232C10.943 11.3965 11.4105 11.5723 11.8994 11.6372C12.0219 11.6531 12.1465 11.635 12.2594 11.5847C12.3723 11.5344 12.4692 11.454 12.5393 11.3522C12.8177 10.9209 13.139 10.5189 13.4983 10.1523C14.1788 9.57841 14.9927 9.18502 15.8651 9.00834C15.9571 8.99634 17.465 8.57636 20.0339 10.6282C19.3009 10.6872 18.428 10.8622 17.762 10.9802C17.0104 11.1783 16.3105 11.5366 15.7104 12.0306C15.1103 12.5246 14.6241 13.1425 14.2852 13.842C14.1491 14.0676 14.0659 14.3212 14.0419 14.5835C14.0179 14.8459 14.0538 15.1103 14.1468 15.3569C14.2397 15.6034 14.3875 15.8256 14.5788 16.0068C14.7701 16.188 15 16.3234 15.2512 16.4029C15.8318 16.3124 16.3802 16.0768 16.8455 15.7179C17.3108 15.3591 17.678 14.8886 17.913 14.35C17.9932 14.124 18.1585 13.9383 18.3737 13.8323C18.5889 13.7264 18.8369 13.7088 19.0649 13.783C19.6119 13.96 24.4486 15.6509 25.5375 15.9369C25.5375 15.9369 28.7753 16.7809 29.9953 15.291C31.9441 15.9309 33.774 16.2399 38.5657 15.6219C39.0583 15.5572 39.555 15.5295 40.0517 15.5389C40.5289 15.5839 40.9922 15.7252 41.4134 15.9541C41.8346 16.183 42.2051 16.4949 42.5025 16.8709C43.7614 18.8877 45.3613 22.8945 50.912 22.4065L53.4218 22.1795C54.7915 21.9583 56.196 22.1371 57.4666 22.6945C58.1394 23.0065 58.7469 23.4436 59.2565 23.9824C60.5354 25.1993 61.7123 26.5143 63.2772 25.7963C63.7538 25.4685 64.1555 25.0435 64.4562 24.5494C64.4255 24.2978 64.342 24.0555 64.2113 23.8384C64.0805 23.6212 63.9053 23.4342 63.6972 23.2895C65.1191 23.6274 68.3249 23.8464 69.5668 21.6766C69.7008 21.5053 69.7918 21.3045 69.8325 21.0909C69.8732 20.8774 69.8624 20.6572 69.8008 20.4486M69.2949 21.4726C68.99 22.076 68.4692 22.5426 67.8359 22.7795C66.7755 23.1244 65.6499 23.2208 64.5462 23.0615C63.2569 22.8421 62.0764 22.2026 61.1884 21.2426C60.6934 20.7256 60.0884 20.1427 59.5245 19.5607C59.0378 19.0204 58.378 18.6667 57.6586 18.5608C56.1196 18.4761 54.5872 18.2981 53.0699 18.0278C52.0155 17.6135 51.1427 16.8381 50.607 15.8399C50.2204 15.2616 49.6933 14.7909 49.0751 14.472C49.397 14.7364 49.6724 15.0528 49.89 15.4079C50.316 16.1669 50.53 16.7189 50.762 17.1218C50.9853 17.5376 51.2876 17.9058 51.6519 18.2058C52.0271 18.5249 52.4922 18.7195 52.9829 18.7627C54.2165 18.8407 55.4534 18.8564 56.6886 18.8097C57.1532 18.7691 57.6212 18.8234 58.0641 18.9691C58.5071 19.1149 58.9158 19.3491 59.2655 19.6577C59.7074 20.0297 60.4654 21.0926 60.9294 21.5576C61.5001 22.2428 62.1991 22.8101 62.9872 23.2275C63.3682 23.4205 63.9872 23.8944 63.9602 24.3524C63.4672 24.8464 62.8553 24.9754 61.3863 24.5824C61.6656 24.8655 62.0184 25.065 62.405 25.1583C62.7916 25.2516 63.1966 25.235 63.5742 25.1104C63.2519 25.412 62.8235 25.574 62.3823 25.5613C61.0064 25.4853 59.6585 23.7894 58.9025 23.1615C58.3928 22.7022 57.8526 22.2779 57.2856 21.8915C55.8037 20.8656 52.4789 21.1546 52.4789 21.1546L50.039 21.2816C45.2863 21.6416 43.2915 17.4318 42.7645 16.5529C42.612 16.2923 42.4433 16.0415 42.2595 15.8019C41.5076 14.7493 40.5333 13.875 39.4057 13.2411C39.4057 13.2411 40.6956 14.351 40.6196 15.086C39.9708 14.904 39.2865 14.8899 38.6307 15.045C32.3701 15.9369 30.2403 14.37 30.2403 14.37C30.36 13.4797 30.1517 12.5762 29.6543 11.8282C31.7361 12.5451 33.9598 12.7509 36.1379 12.4281C36.1379 12.4281 31.3812 12.4531 28.0464 9.79329C28.0464 9.79329 30.1223 12.3931 29.6293 14.093C29.6293 14.093 29.2883 15.9079 25.6705 15.176C25.2846 15.099 24.8306 14.97 19.4139 13.4671C18.141 13.0861 17.701 13.694 17.472 14.059C17.4109 14.3375 17.2946 14.601 17.1301 14.8338C16.9656 15.0667 16.7562 15.2643 16.5141 15.4149C16.3063 15.3952 16.1066 15.3246 15.9325 15.2095C15.7584 15.0945 15.6152 14.9384 15.5155 14.755C15.4159 14.5716 15.3628 14.3665 15.361 14.1578C15.3592 13.9491 15.4087 13.7431 15.5052 13.5581C14.4502 15.066 15.5552 15.7329 15.9051 15.7799C15.6961 15.8799 15.4982 15.9539 15.3302 16.0169C15.1491 15.9153 14.9899 15.7789 14.8616 15.6155C14.7334 15.4522 14.6387 15.2651 14.5829 15.0651C14.5272 14.8651 14.5115 14.656 14.5368 14.4499C14.5621 14.2438 14.6278 14.0447 14.7302 13.864C15.0991 13.0765 15.685 12.4107 16.4192 11.9446C17.1534 11.4786 18.0053 11.2318 18.875 11.2332C19.5879 11.1352 20.3091 11.1121 21.0268 11.1642C22.4727 11.3642 23.3787 12.1801 25.5445 12.3901C20.9448 11.0362 20.9388 8.37538 20.9218 8.32338C20.7111 9.06279 20.7498 9.851 21.0318 10.5662C20.9678 10.5442 19.9629 9.88328 19.5799 9.6503C18.6793 9.07284 17.6773 8.67144 16.6271 8.46737C16.0801 8.39738 15.8271 7.73242 15.8271 7.73242C15.8081 7.69842 15.7881 7.66742 15.7691 7.63242C15.0082 6.3325 14.2552 6.3065 14.2552 6.3065C14.5237 6.72526 14.673 7.20921 14.6872 7.70642C14.9122 9.32232 13.0873 9.82029 13.0873 9.82029C11.9664 11.2422 12.0254 11.2722 11.7764 11.3082C11.4961 11.2811 11.2241 11.1981 10.9764 11.0642C10.953 11.0218 10.944 10.973 10.9507 10.9251C10.9573 10.8771 10.9793 10.8326 11.0134 10.7982C11.2234 10.6322 11.3954 10.4662 11.3954 10.4662C12.5803 9.25432 12.7223 8.66636 12.5753 7.87841C12.2754 6.3035 11.1504 6.48649 11.1504 6.48649C10.9911 6.50044 10.8376 6.55333 10.7036 6.64052C10.5695 6.7277 10.4589 6.8465 10.3815 6.98646C10.1945 7.27644 9.79451 8.16439 9.79451 8.16439C9.54952 8.69436 9.30054 8.81335 9.17155 8.83735C9.10524 8.84583 9.03833 8.84851 8.97156 8.84535C8.71047 8.81172 8.47144 8.6815 8.3016 8.48037C8.2836 8.46237 8.2666 8.44337 8.2536 8.42837C8.15463 8.31014 8.09243 8.16552 8.07466 8.01236C8.05689 7.8592 8.08434 7.70418 8.15361 7.56643C8.2733 7.24373 8.47424 6.95738 8.737 6.73508C8.99976 6.51279 9.31545 6.36207 9.65352 6.2975C9.78051 6.28051 10.1995 6.22051 10.1995 6.22051C10.5695 6.12772 10.9143 5.95404 11.2091 5.71197C11.5039 5.4699 11.7414 5.16547 11.9044 4.82059C11.5162 4.80945 11.1278 4.82348 10.7415 4.86259C9.9735 4.99658 9.71251 5.90053 9.71251 5.90053C9.06155 6.04952 9.07855 5.49055 9.19254 5.31956C9.30654 5.14857 9.67652 4.49161 12.1744 3.91365C13.4423 3.63593 14.7449 3.55098 16.0381 3.66167L15.9291 3.86165C15.6481 4.29361 15.2366 4.62465 14.7544 4.80664C14.2723 4.98863 13.7447 5.01209 13.2483 4.87359C13.2483 4.87359 13.2623 5.55155 14.9172 5.79354C16.4176 6.25052 17.7962 7.0389 18.9509 8.10039C18.2544 6.73624 17.0995 5.66105 15.6891 5.06358C15.6891 5.06358 15.4322 5.00858 15.5582 4.84659C16.3699 4.13363 17.3908 3.70282 18.468 3.61867C18.468 3.61867 24.0156 3.0847 27.0944 7.31844C26.6309 6.40858 26.0847 5.54332 25.4625 4.7336C25.4625 4.7336 28.6833 5.64354 33.636 7.36544C33.636 7.36544 37.0158 8.56536 39.1787 9.41731C44.2505 11.3273 49.2166 13.5069 54.0558 15.9469C54.8867 16.3979 63.3092 20.7906 63.3092 20.7906C64.5249 21.4227 65.9352 21.5696 67.255 21.2016C67.78 21.0016 68.7319 20.2706 69.1489 20.6846C69.2476 20.7865 69.3136 20.9156 69.3385 21.0552C69.3635 21.1949 69.3462 21.3388 69.2889 21.4686M9.9755 5.87653C9.9755 5.87653 10.0255 5.73154 10.0385 5.69554C10.0515 5.65954 10.1915 5.28257 10.5385 5.24657C10.5385 5.24657 10.7385 5.23457 11.0454 5.23457C10.9851 5.38923 10.8846 5.52503 10.7544 5.62801C10.6242 5.731 10.4689 5.79745 10.3045 5.82053C10.1977 5.84543 10.0895 5.86412 9.9805 5.87653M13.3953 33.0609H18.439L15.9101 30.125L13.3953 33.0609ZM19.0839 33.8018H12.7553L11.7064 35.0227H10.4695L15.4392 29.2901H17.539L22.5177 35.0237H20.1319L19.0839 33.8018ZM50.733 33.0609H55.7837L53.2548 30.125L50.733 33.0609ZM56.4216 33.8018H50.093L49.0441 35.0227H47.8072L52.7809 29.2891H54.8807L59.8584 35.0227H57.4686L56.4216 33.8018ZM9.49453 29.2901V32.0899C9.52595 32.4325 9.48553 32.778 9.37585 33.1041C9.26617 33.4302 9.08965 33.7298 8.85756 33.9838C8.10661 34.7508 6.6687 35.0287 4.63182 35.0287H0.340088V34.2588H4.29185C5.19122 34.3646 6.09658 34.1176 6.81769 33.5698C7.0172 33.3472 7.16845 33.0857 7.2619 32.8017C7.35535 32.5178 7.38897 32.2175 7.36066 31.9199V29.2901H9.49453ZM31.8162 34.2578V32.3899H33.938V35.0227H27.7644C26.8268 35.0586 25.8908 34.9188 25.0046 34.6108C24.4945 34.4394 24.0547 34.1056 23.7526 33.6604C23.4504 33.2152 23.3026 32.6832 23.3317 32.1459C23.32 31.6866 23.4352 31.233 23.6645 30.8348C23.8938 30.4367 24.2284 30.1095 24.6316 29.8891C25.5924 29.4149 26.663 29.2077 27.7314 29.2891H33.731V30.055H28.3904C27.601 29.9664 26.8061 30.1644 26.1505 30.613C25.9425 30.8173 25.778 31.0616 25.667 31.3312C25.5559 31.6008 25.5007 31.8901 25.5045 32.1817C25.5083 32.4732 25.5712 32.761 25.6893 33.0276C25.8073 33.2942 25.9782 33.5341 26.1915 33.7328C26.8509 34.1508 27.6317 34.335 28.4084 34.2558L31.8162 34.2578ZM69.1359 32.9979C69.8287 33.0087 70.5149 32.862 71.1427 32.5689C71.3935 32.4286 71.6008 32.222 71.7419 31.9717C71.883 31.7214 71.9525 31.4371 71.9427 31.15C71.9655 30.8252 71.8842 30.5017 71.7104 30.2263C71.5367 29.951 71.2797 29.7383 70.9768 29.6191C70.1418 29.3325 69.2569 29.2208 68.3769 29.2911H61.7573V35.0247H63.8912V33.0319H66.691L69.8908 35.0187H72.4907L69.1359 32.9979ZM68.0979 30.0121C68.58 29.9466 69.0704 30.0366 69.4978 30.269C69.6162 30.3736 69.7068 30.5059 69.7616 30.654C69.8163 30.8022 69.8336 30.9616 69.8118 31.118V31.226C69.8299 31.3885 69.8062 31.5529 69.743 31.7037C69.6799 31.8545 69.5793 31.9868 69.4508 32.0879C69.041 32.2919 68.5803 32.3709 68.1259 32.3149H63.8922V30.0151L68.0979 30.0121ZM46.8662 29.2891V32.1459C46.9251 32.7842 46.765 33.4236 46.4123 33.9588C45.8053 34.7588 44.6944 35.2117 41.5916 35.2117H41.5586C38.4738 35.2117 37.3588 34.7548 36.7499 33.9588C36.3974 33.4231 36.2377 32.7834 36.2969 32.1449V29.2901H38.4318V32.0659C38.378 32.6144 38.507 33.1653 38.7987 33.6328C39.2597 34.2838 40.0577 34.5178 41.4916 34.5178H41.6735C43.1735 34.5178 43.9034 34.2828 44.3654 33.6318C44.6538 33.164 44.7826 32.6152 44.7324 32.0679V29.2901L46.8662 29.2891Z" fill="black"/>
</g>
</g>
</g>
<defs>
<clipPath id="clip0_1_48408">
<rect width="163.31" height="38" fill="white" transform="translate(0.340088)"/>
</clipPath>
<clipPath id="clip1_1_48408">
<rect width="163.31" height="38" fill="white" transform="translate(0.340088)"/>
</clipPath>
<clipPath id="clip2_1_48408">
<rect width="163.31" height="37.9977" fill="white" transform="translate(0.340088 0.000976562)"/>
</clipPath>
</defs>
</svg>
