<svg width="44" height="30" viewBox="0 0 44 30" fill="none" xmlns="http://www.w3.org/2000/svg">
<g clip-path="url(#clip0_1_71251)">
<g clip-path="url(#clip1_1_71251)">
<g clip-path="url(#clip2_1_71251)">
<path d="M39.3214 0.317383H4.24346C2.09241 0.317383 0.348633 2.06116 0.348633 4.21221V25.2051C0.348633 27.3561 2.09241 29.0999 4.24346 29.0999H39.3214C41.4725 29.0999 43.2162 27.3561 43.2162 25.2051V4.21221C43.2162 2.06116 41.4725 0.317383 39.3214 0.317383Z" fill="white"/>
<path d="M21.7826 20.5266C24.9956 20.5266 27.6003 17.9219 27.6003 14.7089C27.6003 11.4958 24.9956 8.89111 21.7826 8.89111C18.5695 8.89111 15.9648 11.4958 15.9648 14.7089C15.9648 17.9219 18.5695 20.5266 21.7826 20.5266Z" fill="#ED5565"/>
</g>
</g>
</g>
<defs>
<clipPath id="clip0_1_71251">
<rect width="43.48" height="29.4" fill="white" transform="translate(0.0302734 -0.00976562)"/>
</clipPath>
<clipPath id="clip1_1_71251">
<rect width="43.48" height="29.4" fill="white" transform="translate(0.0302734 -0.00976562)"/>
</clipPath>
<clipPath id="clip2_1_71251">
<rect width="43.48" height="29.3949" fill="white" transform="translate(0.0302734 -0.00732422)"/>
</clipPath>
</defs>
</svg>
