<svg width="30" height="21" viewBox="0 0 30 21" fill="none" xmlns="http://www.w3.org/2000/svg">
<g clip-path="url(#clip0_1_71424)">
<g clip-path="url(#clip1_1_71424)">
<g clip-path="url(#clip2_1_71424)">
<path d="M26.9307 0.991699H3.06669C1.6033 0.991699 0.416992 2.17801 0.416992 3.6414V17.9231C0.416992 19.3865 1.6033 20.5728 3.06669 20.5728H26.9307C28.3941 20.5728 29.5804 19.3865 29.5804 17.9231V3.6414C29.5804 2.17801 28.3941 0.991699 26.9307 0.991699Z" fill="white"/>
<path d="M14.9989 14.74C17.1848 14.74 18.9568 12.968 18.9568 10.7821C18.9568 8.59623 17.1848 6.82422 14.9989 6.82422C12.813 6.82422 11.041 8.59623 11.041 10.7821C11.041 12.968 12.813 14.74 14.9989 14.74Z" fill="#ED5565"/>
</g>
</g>
</g>
<defs>
<clipPath id="clip0_1_71424">
<rect width="29.58" height="20" fill="white" transform="translate(0.200195 0.77002)"/>
</clipPath>
<clipPath id="clip1_1_71424">
<rect width="29.58" height="20" fill="white" transform="translate(0.200195 0.77002)"/>
</clipPath>
<clipPath id="clip2_1_71424">
<rect width="29.58" height="19.9977" fill="white" transform="translate(0.200195 0.770996)"/>
</clipPath>
</defs>
</svg>
