<svg width="73" height="38" viewBox="0 0 73 38" fill="none" xmlns="http://www.w3.org/2000/svg">
<g clip-path="url(#clip0_1_48478)">
<g clip-path="url(#clip1_1_48478)">
<g clip-path="url(#clip2_1_48478)">
<path d="M45.0335 24.3798H29.7405L31.4005 20.0508H46.6925" fill="white"/>
<path d="M36.9035 22.5904H37.9735L37.9275 21.3154" fill="black"/>
<path d="M43.0045 15.7167C40.1525 18.4937 35.8885 16.7167 36.3225 13.3167C36.6565 10.6887 39.8795 8.07068 42.3225 6.64868V6.61868C42.0045 6.31868 41.3415 5.62768 40.9145 5.11068C40.6467 4.76807 40.303 4.49232 39.9105 4.30515C39.518 4.11797 39.0873 4.02448 38.6526 4.03205C38.2178 4.03961 37.7907 4.14801 37.4049 4.34872C37.0191 4.54943 36.6852 4.83697 36.4295 5.18868L29.4105 5.84268V5.88668L36.9315 6.32168C38.2665 6.39768 38.7005 7.60668 37.4135 8.58168C32.6375 12.1987 31.7855 16.0297 32.8535 19.0657L32.8175 19.0827C32.3635 18.4249 32.0424 17.6847 31.8725 16.9037C30.3025 15.9034 29.0822 14.4398 28.3807 12.7154C27.6791 10.9911 27.5309 9.09129 27.9566 7.27901C28.3822 5.46673 29.3607 3.83158 30.7566 2.5999C32.1525 1.36822 33.8968 0.600916 35.7479 0.404191C37.5991 0.207466 39.4657 0.591051 41.0892 1.50185C42.7128 2.41266 44.0131 3.80563 44.8102 5.48797C45.6072 7.17031 45.8616 9.05882 45.5381 10.8921C45.2146 12.7254 44.3292 14.4127 43.0045 15.7207M44.7595 24.1427H40.4415L41.9725 20.1547H43.8725L42.6615 23.2977H45.0835L44.7595 24.1427ZM38.0285 24.1427L37.9995 23.3577H36.2805L35.6475 24.1427H34.0775L37.2625 20.4497C37.3341 20.3621 37.423 20.2902 37.5236 20.2386C37.6243 20.1869 37.7346 20.1567 37.8475 20.1497H39.5475L39.9285 24.1377L38.0285 24.1427ZM31.5185 24.2767C31.0743 24.2801 30.631 24.2351 30.1965 24.1427L30.5215 23.2957C31.3915 23.3957 32.1375 23.3227 32.4295 22.5617L33.3545 20.1547H35.2545L34.2365 22.8077C34.0059 23.316 33.6153 23.7348 33.1244 24.0002C32.6334 24.2657 32.069 24.3631 31.5175 24.2777M50.5895 15.1777C50.681 14.15 50.6588 13.1155 50.5235 12.0927H50.4995C50.0515 13.9667 48.9681 15.6275 47.4335 16.7927L47.4125 16.7657C49.039 15.0751 50.0319 12.8748 50.2235 10.5367C49.9138 9.30852 49.4374 8.12855 48.8075 7.02968L48.7865 7.03868C48.9752 8.42686 48.8567 9.83957 48.4392 11.1769C48.0217 12.5142 47.3155 13.7434 46.3705 14.7777L46.3445 14.7567C47.2579 13.4495 47.8721 11.9572 48.1437 10.3858C48.4152 8.81445 48.3373 7.20255 47.9155 5.66468C46.6189 3.90804 44.9279 2.48032 42.9788 1.49644C41.0297 0.512565 38.8768 0 36.6935 0C34.5101 0 32.3573 0.512565 30.4082 1.49644C28.459 2.48032 26.7681 3.90804 25.4715 5.66468C25.0496 7.20254 24.9716 8.81446 25.2431 10.3859C25.5146 11.9573 26.129 13.4496 27.0425 14.7567L27.0185 14.7777C26.074 13.7439 25.3682 12.5153 24.9509 11.1787C24.5336 9.84211 24.415 8.43016 24.6035 7.04268L24.5815 7.03368C23.9511 8.13221 23.475 9.31228 23.1665 10.5407C23.3576 12.8793 24.3514 15.0799 25.9795 16.7697L25.9585 16.7967C24.4237 15.6318 23.3401 13.9708 22.8925 12.0967H22.8685C22.7321 13.1193 22.709 14.1539 22.7995 15.1817C23.3029 16.6134 24.1848 17.882 25.3515 18.8527L25.3325 18.8817C24.4407 18.3547 23.667 17.6497 23.0595 16.8107L23.0395 16.8187C23.6973 19.953 25.4135 22.7657 27.8998 24.7843C30.3862 26.803 33.4913 27.9049 36.694 27.9049C39.8966 27.9049 43.0018 26.803 45.4881 24.7843C47.9745 22.7657 49.6906 19.953 50.3485 16.8187L50.3285 16.8107C49.7212 17.6499 48.9474 18.3549 48.0555 18.8817L48.0375 18.8527C49.2037 17.8816 50.0855 16.6131 50.5895 15.1817" fill="black"/>
<path d="M71.8575 36.6168C71.4575 37.6608 70.0725 37.9838 68.5765 37.9838C67.0805 37.9838 66.1215 37.6588 66.3455 36.6168H68.2455C68.1955 36.8958 68.3645 37.0738 68.9265 37.0738C69.4885 37.0738 69.8515 36.8918 69.9545 36.6168C70.2175 35.9358 66.4545 36.6018 67.0545 35.0418C67.3895 34.1688 68.7095 33.7588 70.1975 33.7588C71.6855 33.7588 72.5315 34.0808 72.3525 35.0418H70.4895C70.5195 34.7848 70.4395 34.5898 69.8805 34.5898C69.3215 34.5898 69.0205 34.7898 68.9235 35.0428C68.6535 35.7428 72.4545 35.0608 71.8575 36.6178" fill="black"/>
<path d="M38.5955 37.8659H36.6955L38.2265 33.8799H40.1265" fill="black"/>
<path d="M52.9715 37.8659H51.0715L52.6015 33.8799H54.5015" fill="black"/>
<path d="M65.2165 37.8659H60.5965L62.1255 33.8799H66.7475L66.4535 34.6449H63.7345L63.4255 35.4449H65.6875L65.3945 36.2089H63.1345L62.8255 37.0159H65.5445" fill="black"/>
<path d="M27.4495 37.8659H25.9125L24.6235 35.5109L23.7235 37.8649H22.1855L23.7145 33.8789H25.4995L26.6385 35.9729L27.4385 33.8789H28.9755" fill="black"/>
<path d="M59.4165 37.8659H57.8785L56.5855 35.5109L55.6855 37.8649H54.1525L55.6855 33.8799H57.4705L58.6085 35.9739L59.4085 33.8799H60.9475" fill="black"/>
<path d="M4.36747 36.5319C4.13708 37.0397 3.74674 37.4582 3.2561 37.7233C2.76546 37.9884 2.20152 38.0855 1.65047 37.9999C1.20656 38.0036 0.763585 37.9587 0.329468 37.8659L0.654468 37.0209C1.52447 37.1209 2.26947 37.0459 2.56047 36.2859L3.48447 33.8799H5.38447" fill="black"/>
<path d="M15.2755 35.1511C15.2002 35.3029 15.0836 35.4303 14.939 35.5188C14.7945 35.6072 14.6279 35.6531 14.4585 35.6511H13.4035L13.7905 34.6421H14.8485C15.1925 34.6421 15.3855 34.8571 15.2745 35.1421M15.1385 33.8721H12.1845L10.6545 37.8581H12.5545L13.1095 36.4111H14.1655C15.9215 36.4111 16.8655 35.9411 17.1745 35.1421C17.4835 34.3431 16.8975 33.8721 15.1385 33.8721Z" fill="black"/>
<path d="M44.3955 35.1511C44.3203 35.3027 44.2038 35.4301 44.0595 35.5185C43.9151 35.607 43.7488 35.6529 43.5795 35.6511H42.5235L42.9105 34.6421H43.9685C44.3135 34.6421 44.5065 34.8571 44.3945 35.1421M44.2585 33.8721H41.3045L39.7755 37.8581H41.6755L42.2305 36.4111H42.8045L43.1805 37.8581H45.2505L44.7505 36.2751C45.0828 36.2347 45.3993 36.1104 45.6702 35.9137C45.941 35.717 46.1573 35.4546 46.2985 35.1511C46.6075 34.3511 46.0215 33.8811 44.2635 33.8811" fill="black"/>
<path d="M48.4235 37.0209L49.6315 33.8809H47.7315L46.2035 37.8669H50.5175L50.8425 37.0219" fill="black"/>
<path d="M7.14449 36.3169L8.16749 35.0419L8.21449 36.3169H7.14449ZM9.79549 33.8809H8.09549C7.98331 33.8876 7.87369 33.9172 7.77342 33.9679C7.67314 34.0187 7.58434 34.0894 7.51249 34.1759L4.32349 37.8669H5.89549L6.52749 37.0829H8.24449L8.27449 37.8669H10.1745" fill="black"/>
<path d="M18.6735 36.3169L19.6975 35.0419L19.7435 36.3169H18.6735ZM21.3215 33.8809H19.6215C19.5092 33.8877 19.3995 33.9174 19.299 33.9681C19.1986 34.0189 19.1096 34.0895 19.0375 34.1759L15.8535 37.8669H17.4235L18.0555 37.0829H19.7715L19.8005 37.8669H21.7005" fill="black"/>
<path d="M33.1825 36.3169L34.2065 35.0419L34.2535 36.3169H33.1825ZM35.8315 33.8809H34.1315C34.0192 33.8876 33.9094 33.9173 33.809 33.968C33.7086 34.0187 33.6196 34.0895 33.5475 34.1759L30.3625 37.8669H31.9335L32.5645 37.0829H34.2815L34.3115 37.8669H36.2115" fill="black"/>
</g>
</g>
</g>
<defs>
<clipPath id="clip0_1_48478">
<rect width="72.05" height="38" fill="white" transform="translate(0.329956)"/>
</clipPath>
<clipPath id="clip1_1_48478">
<rect width="72.05" height="38" fill="white" transform="translate(0.329956)"/>
</clipPath>
<clipPath id="clip2_1_48478">
<rect width="72.047" height="38" fill="white" transform="translate(0.331482)"/>
</clipPath>
</defs>
</svg>
