<svg width="86" height="53" viewBox="0 0 86 53" fill="none" xmlns="http://www.w3.org/2000/svg">
<g clip-path="url(#clip0_1_30497)">
<g clip-path="url(#clip1_1_30497)">
<g clip-path="url(#clip2_1_30497)">
<path d="M80.7692 0.00146484H5.38081C2.89508 0.00146484 0.880005 2.01654 0.880005 4.50226V48.4976C0.880005 50.9833 2.89508 52.9984 5.38081 52.9984H80.7692C83.2549 52.9984 85.27 50.9833 85.27 48.4976V4.50226C85.27 2.01654 83.2549 0.00146484 80.7692 0.00146484Z" fill="#0E4C96"/>
<path fill-rule="evenodd" clip-rule="evenodd" d="M70.3322 39.0195C70.3322 43.7021 66.5372 47.4991 61.8527 47.4991H15.8179V13.9815C15.8179 9.29772 19.6135 5.50084 24.2979 5.50084L70.3321 5.50073L70.3322 39.0195Z" fill="white"/>
<path fill-rule="evenodd" clip-rule="evenodd" d="M55.3239 27.2363C56.6385 27.2647 57.961 27.1782 59.2707 27.2813C60.597 27.5288 60.9167 29.5365 59.7384 30.1942C58.9349 30.6274 57.9793 30.3553 57.1078 30.432H55.324L55.3239 27.2363ZM60.0309 23.6193C60.323 24.6506 59.329 25.5763 58.3357 25.4343H55.3239C55.3447 24.4619 55.2825 23.4065 55.3545 22.4853C56.5611 22.5192 57.7792 22.416 58.9787 22.5394C59.4941 22.6688 59.9254 23.0925 60.0308 23.6193H60.0309ZM67.2803 8.32752C67.3364 10.2967 67.2883 12.37 67.3044 14.3792C67.3005 22.5477 67.3125 30.7164 67.2982 38.8849C67.2455 41.9462 64.5323 44.6059 61.4922 44.667C58.449 44.6795 55.4054 44.6688 52.3621 44.6723V32.3232C55.6781 32.3059 58.9962 32.3577 62.3108 32.2971C63.8486 32.2003 65.5325 31.1858 65.6043 29.4937C65.7854 27.7944 64.1829 26.6188 62.6615 26.433C62.0766 26.4178 62.094 26.2625 62.6615 26.1948C64.1121 25.8812 65.2517 24.3795 64.8248 22.8756C64.4607 21.2938 62.7125 20.6815 61.2583 20.6846C58.2933 20.6643 55.3275 20.6816 52.3621 20.6759C52.3815 18.3705 52.3223 16.0626 52.3943 13.7589C52.6291 10.7528 55.4105 8.27384 58.4081 8.32752H67.2803Z" fill="url(#paint0_linear_1_30497)"/>
<path fill-rule="evenodd" clip-rule="evenodd" d="M18.8539 14.0709C18.9297 11.0145 21.6544 8.37614 24.6909 8.33159C27.7226 8.32225 30.7547 8.33024 33.7867 8.32754C33.7783 18.5539 33.8033 28.7811 33.7741 39.007C33.6573 42.0264 30.9622 44.6143 27.9591 44.6676C24.9215 44.6787 21.8836 44.6691 18.8459 44.6723V31.9066C21.7965 32.6035 24.8907 32.9003 27.9007 32.4378C29.7003 32.148 31.6688 31.2649 32.278 29.3981C32.7265 27.8013 32.474 26.1209 32.5406 24.4819V20.676H27.3313C27.3079 23.1931 27.3792 25.7147 27.2936 28.2289C27.1532 29.7743 25.6231 30.7561 24.1655 30.7038C22.3578 30.7228 18.776 29.3941 18.776 29.3941C18.767 24.6776 18.8285 18.7713 18.8539 14.0709Z" fill="url(#paint1_linear_1_30497)"/>
<path fill-rule="evenodd" clip-rule="evenodd" d="M35.7297 22.2117C35.4558 22.2699 35.6746 21.2778 35.6044 20.9013C35.623 18.5215 35.5654 16.1391 35.6363 13.761C35.8707 10.7422 38.6734 8.25698 41.683 8.32764H50.5458C50.5375 18.5539 50.5623 28.781 50.5332 39.0069C50.4163 42.0263 47.7211 44.6141 44.7182 44.6676C41.6803 44.6788 38.6423 44.6692 35.6044 44.6724V30.6865C37.6792 32.3887 40.499 32.6538 43.0838 32.6584C45.0323 32.6577 46.9696 32.3574 48.8617 31.9079V29.3455C46.7291 30.4085 44.2222 31.0835 41.8581 30.4727C40.209 30.062 39.012 28.4686 39.0388 26.7667C38.8476 24.997 39.8854 23.1284 41.6246 22.6023C43.7839 21.9262 46.1376 22.4433 48.1616 23.3222C48.5954 23.5492 49.0353 23.8309 48.8617 23.106V21.0919C45.4767 20.2866 41.8741 19.9901 38.4728 20.8664C37.4885 21.1441 36.5296 21.5652 35.7297 22.2117Z" fill="url(#paint2_linear_1_30497)"/>
</g>
</g>
</g>
<defs>
<linearGradient id="paint0_linear_1_30497" x1="52.8359" y1="1825.65" x2="1547.07" y2="1825.65" gradientUnits="userSpaceOnUse">
<stop stop-color="#007B40"/>
<stop offset="1" stop-color="#55B330"/>
</linearGradient>
<linearGradient id="paint1_linear_1_30497" x1="25.8616" y1="1825.64" x2="1519.92" y2="1825.64" gradientUnits="userSpaceOnUse">
<stop stop-color="#1D2970"/>
<stop offset="1" stop-color="#006DBA"/>
</linearGradient>
<linearGradient id="paint2_linear_1_30497" x1="37.2929" y1="1825.71" x2="1531.42" y2="1825.71" gradientUnits="userSpaceOnUse">
<stop stop-color="#6E2B2F"/>
<stop offset="1" stop-color="#E30138"/>
</linearGradient>
<clipPath id="clip0_1_30497">
<rect width="84.39" height="53" fill="white" transform="translate(0.880005)"/>
</clipPath>
<clipPath id="clip1_1_30497">
<rect width="84.39" height="53" fill="white" transform="translate(0.880005)"/>
</clipPath>
<clipPath id="clip2_1_30497">
<rect width="84.39" height="52.9969" fill="white" transform="translate(0.880005 0.00146484)"/>
</clipPath>
</defs>
</svg>
