<svg width="69" height="28" viewBox="0 0 69 28" fill="none" xmlns="http://www.w3.org/2000/svg">
<g clip-path="url(#clip0_1_48469)">
<g clip-path="url(#clip1_1_48469)">
<g clip-path="url(#clip2_1_48469)">
<path fill-rule="evenodd" clip-rule="evenodd" d="M17.209 14.5371C17.209 20.8138 14.3182 23.2086 8.53749 23.2086C2.66984 23.2086 0.109985 19.9878 0.109985 15.0331V11.8933H6.47061V14.4541C6.47061 16.188 6.47061 17.8399 8.3705 17.8399C10.1874 17.8399 10.1044 15.6111 10.1044 14.6191V0.000976562H17.204L17.209 14.5371Z" fill="black"/>
<path fill-rule="evenodd" clip-rule="evenodd" d="M23.5657 12.5549C23.5725 12.1849 23.6533 11.82 23.803 11.4816C23.9528 11.1432 24.1687 10.8381 24.4379 10.5842C24.7072 10.3303 25.0244 10.1327 25.3711 10.0031C25.7177 9.87339 26.0867 9.81424 26.4565 9.82908C26.8049 9.83569 27.1484 9.91194 27.4669 10.0533C27.7854 10.1948 28.0724 10.3985 28.3109 10.6525C28.5495 10.9065 28.7348 11.2057 28.8559 11.5324C28.9771 11.8591 29.0316 12.2068 29.0163 12.5549H23.5657ZM34.55 15.8547C34.55 9.41311 31.9072 5.77832 25.9605 5.77832C21.1708 5.77832 18.032 9.66009 18.032 14.4508C18.032 19.9835 21.6658 23.1233 26.4565 23.1233C29.9253 23.1233 33.0641 21.4714 34.22 17.9236H28.8513C28.5707 18.2918 28.2071 18.5884 27.79 18.7893C27.3729 18.9902 26.9143 19.0896 26.4515 19.0795C24.6346 19.0795 23.6437 17.7586 23.4787 15.8587L34.55 15.8547Z" fill="black"/>
<path fill-rule="evenodd" clip-rule="evenodd" d="M40.4966 12.5549C40.5036 12.1849 40.5844 11.8201 40.7343 11.4817C40.8841 11.1434 41.1 10.8384 41.3692 10.5845C41.6384 10.3306 41.9556 10.133 42.3022 10.0033C42.6487 9.87362 43.0177 9.81438 43.3874 9.82908C43.7358 9.83569 44.0794 9.91194 44.3979 10.0533C44.7164 10.1948 45.0033 10.3985 45.2419 10.6525C45.4804 10.9065 45.6657 11.2057 45.7869 11.5324C45.908 11.8591 45.9626 12.2068 45.9473 12.5549H40.4966ZM51.481 15.8547C51.481 9.41311 48.8381 5.77832 42.8915 5.77832C38.1018 5.78232 34.9609 9.66409 34.9609 14.4548C34.9609 19.9875 38.5947 23.1273 43.3854 23.1273C46.7712 23.1273 49.9921 21.4754 51.149 17.9276H45.7823C45.5023 18.2952 45.1395 18.5915 44.7233 18.7924C44.3071 18.9932 43.8494 19.093 43.3874 19.0835C41.5706 19.0835 40.5796 17.7626 40.4136 15.8627L51.481 15.8547Z" fill="black"/>
<path fill-rule="evenodd" clip-rule="evenodd" d="M57.5936 14.4547C57.5936 12.4719 58.0066 10.408 60.0715 10.408C62.1363 10.408 62.6313 12.4729 62.6313 14.4547C62.6313 16.3546 62.1313 18.5015 60.0715 18.5015C58.0116 18.5015 57.5936 16.3546 57.5936 14.4547ZM52.0599 27.9989H57.7596V20.8944H57.8416C58.2752 21.5945 58.8846 22.1688 59.6091 22.5602C60.3337 22.9516 61.1481 23.1464 61.9714 23.1252C67.0091 23.1252 68.33 18.4175 68.33 14.5357C68.33 10.406 66.3481 5.78125 62.0534 5.78125C59.2455 5.78125 58.3376 6.93718 57.5936 8.01112V6.19523H52.0599V27.9989Z" fill="black"/>
<path fill-rule="evenodd" clip-rule="evenodd" d="M65.7692 25.109C65.7588 24.9507 65.781 24.792 65.8344 24.6426C65.8878 24.4933 65.9713 24.3565 66.0797 24.2407C66.1881 24.1249 66.3191 24.0326 66.4647 23.9695C66.6102 23.9064 66.7671 23.8739 66.9257 23.8739C67.0843 23.8739 67.2412 23.9064 67.3868 23.9695C67.5323 24.0326 67.6633 24.1249 67.7717 24.2407C67.8801 24.3565 67.9636 24.4933 68.017 24.6426C68.0704 24.792 68.0926 24.9507 68.0822 25.109C68.0822 25.4157 67.9604 25.7099 67.7435 25.9267C67.5266 26.1436 67.2324 26.2655 66.9257 26.2655C66.619 26.2655 66.3248 26.1436 66.1079 25.9267C65.8911 25.7099 65.7692 25.4157 65.7692 25.109ZM65.4392 25.109C65.4561 25.4898 65.6207 25.8491 65.8982 26.1105C66.1756 26.3719 66.5441 26.5148 66.9252 26.509C67.2928 26.4972 67.6421 26.3459 67.9021 26.0859C68.1622 25.8259 68.3135 25.4765 68.3252 25.109C68.3263 24.9248 68.2908 24.7423 68.2208 24.572C68.1508 24.4016 68.0477 24.2469 67.9175 24.1167C67.7873 23.9864 67.6326 23.8834 67.4622 23.8134C67.2919 23.7434 67.1094 23.7079 66.9252 23.709C66.7347 23.699 66.5441 23.7277 66.3649 23.7934C66.1858 23.8591 66.0218 23.9605 65.8829 24.0913C65.744 24.2221 65.6331 24.3798 65.5568 24.5547C65.4806 24.7296 65.4406 24.9182 65.4392 25.109ZM66.3482 25.935H66.5962V25.191H66.9262L67.3402 25.935H67.6702L67.1702 25.191C67.4182 25.191 67.5832 25.026 67.5832 24.691C67.5832 24.443 67.4182 24.277 67.0052 24.277H66.3452L66.3482 25.935ZM66.5962 24.448H67.0092C67.1742 24.448 67.3402 24.531 67.3402 24.696C67.3402 24.944 67.0922 25.026 66.9262 25.026H66.5962V24.448Z" fill="black"/>
</g>
</g>
</g>
<defs>
<clipPath id="clip0_1_48469">
<rect width="68.22" height="28" fill="white" transform="translate(0.109985)"/>
</clipPath>
<clipPath id="clip1_1_48469">
<rect width="68.22" height="28" fill="white" transform="translate(0.109985)"/>
</clipPath>
<clipPath id="clip2_1_48469">
<rect width="68.22" height="27.9984" fill="white" transform="translate(0.109985 0.000976562)"/>
</clipPath>
</defs>
</svg>
