<svg width="36" height="24" viewBox="0 0 36 24" fill="none" xmlns="http://www.w3.org/2000/svg">
<g clip-path="url(#clip0_1_71400)">
<g clip-path="url(#clip1_1_71400)">
<g clip-path="url(#clip2_1_71400)">
<path d="M32.0798 0.265137H3.43977C1.6835 0.265137 0.259766 1.68887 0.259766 3.44514V20.5851C0.259766 22.3414 1.6835 23.7651 3.43977 23.7651H32.0798C33.836 23.7651 35.2598 22.3414 35.2598 20.5851V3.44514C35.2598 1.68887 33.836 0.265137 32.0798 0.265137Z" fill="white"/>
<path d="M17.7598 16.7651C20.3831 16.7651 22.5098 14.6385 22.5098 12.0151C22.5098 9.39178 20.3831 7.26514 17.7598 7.26514C15.1364 7.26514 13.0098 9.39178 13.0098 12.0151C13.0098 14.6385 15.1364 16.7651 17.7598 16.7651Z" fill="#ED5565"/>
</g>
</g>
</g>
<defs>
<clipPath id="clip0_1_71400">
<rect width="35.5" height="24" fill="white"/>
</clipPath>
<clipPath id="clip1_1_71400">
<rect width="35.5" height="24" fill="white"/>
</clipPath>
<clipPath id="clip2_1_71400">
<rect width="35.5" height="24" fill="white"/>
</clipPath>
</defs>
</svg>
