<svg width="108" height="45" viewBox="0 0 108 45" fill="none" xmlns="http://www.w3.org/2000/svg">
<path d="M14.9356 2.06249C10.9826 2.05922 7.18983 3.62447 4.38966 6.41468C1.58949 9.20489 0.0107371 12.9921 -8.87824e-05 16.9451C-0.0378619 19.4417 0.585445 21.9039 1.80659 24.0819C1.88834 24.2249 14.0446 42.4756 14.2326 42.6555C14.422 42.8364 14.6738 42.9373 14.9356 42.9373C15.1975 42.9373 15.4493 42.8364 15.6387 42.6555C15.8226 42.4756 27.983 24.2249 28.0606 24.0819C29.2872 21.9059 29.9122 19.4426 29.8714 16.9451C29.8616 12.9918 28.2832 9.20393 25.4828 6.41348C22.6824 3.62304 18.889 2.05814 14.9356 2.06249ZM26.4706 22.827C26.348 23.0396 15.8431 38.7887 14.9356 40.1335C14.0364 38.7887 3.52334 23.0436 3.40071 22.827C2.43939 21.0182 1.95808 18.993 2.00279 16.9451C2.00279 13.5151 3.36535 10.2256 5.79073 7.80017C8.21612 5.37479 11.5056 4.01223 14.9356 4.01223C18.3657 4.01223 21.6552 5.37479 24.0806 7.80017C26.5059 10.2256 27.8685 13.5151 27.8685 16.9451C27.9127 18.993 27.4314 21.018 26.4706 22.827Z" fill="white"/>
<path d="M20.6134 9.01124C20.3545 9.01219 20.1061 9.1138 19.9207 9.29459C19.7353 9.47537 19.6276 9.72116 19.6201 9.97998V24.7154C19.6047 24.9764 19.6933 25.233 19.8664 25.4289C20.0396 25.6248 20.2833 25.7442 20.5442 25.7609C20.8052 25.7777 21.0621 25.6904 21.2589 25.5183C21.4557 25.3461 21.5763 25.103 21.5944 24.8421C21.5985 24.8 21.5985 24.7576 21.5944 24.7154V10.0004C21.5944 9.73948 21.4913 9.48911 21.3076 9.30384C21.1238 9.11856 20.8743 9.01339 20.6134 9.01124Z" fill="#048EA4"/>
<path d="M9.25415 19.7777C8.99289 19.7777 8.74232 19.8815 8.55758 20.0663C8.37284 20.251 8.26906 20.5016 8.26906 20.7628V24.7154C8.25363 24.9765 8.34218 25.233 8.51535 25.4289C8.68852 25.6248 8.93221 25.7442 9.19315 25.7609C9.4541 25.7777 9.71105 25.6904 9.90785 25.5183C10.1046 25.3461 10.2253 25.103 10.2433 24.8421C10.2474 24.8 10.2474 24.7576 10.2433 24.7154V20.7628C10.2439 20.6333 10.2188 20.505 10.1694 20.3852C10.1201 20.2654 10.0476 20.1566 9.956 20.065C9.86442 19.9735 9.75561 19.9009 9.63585 19.8516C9.51609 19.8023 9.38775 19.7772 9.25823 19.7777H9.25415Z" fill="#048EA4"/>
<path d="M13.0431 16.2952C12.9138 16.2946 12.7856 16.3196 12.6658 16.3686C12.5461 16.4176 12.4372 16.4897 12.3454 16.5808C12.2535 16.6719 12.1805 16.7802 12.1305 16.8995C12.0805 17.0188 12.0545 17.1468 12.054 17.2762V24.7154C12.054 24.8453 12.0795 24.974 12.1293 25.094C12.179 25.214 12.2518 25.323 12.3437 25.4149C12.4355 25.5067 12.5446 25.5796 12.6646 25.6293C12.7846 25.679 12.9132 25.7046 13.0431 25.7046C13.173 25.7046 13.3017 25.679 13.4217 25.6293C13.5417 25.5796 13.6507 25.5067 13.7426 25.4149C13.8344 25.323 13.9073 25.214 13.957 25.094C14.0067 24.974 14.0323 24.8453 14.0323 24.7154V17.2803C14.0323 17.1506 14.0067 17.0221 13.9569 16.9023C13.9072 16.7826 13.8342 16.6738 13.7423 16.5822C13.6504 16.4907 13.5414 16.4182 13.4214 16.369C13.3014 16.3197 13.1728 16.2946 13.0431 16.2952Z" fill="#048EA4"/>
<path d="M16.8283 12.5428C16.6984 12.5428 16.5698 12.5684 16.4498 12.6181C16.3297 12.6679 16.2207 12.7407 16.1288 12.8326C16.037 12.9244 15.9641 13.0335 15.9144 13.1535C15.8647 13.2735 15.8391 13.4021 15.8391 13.532V24.7154C15.8237 24.9764 15.9123 25.233 16.0854 25.4289C16.2586 25.6248 16.5023 25.7442 16.7632 25.7609C17.0242 25.7777 17.2811 25.6904 17.4779 25.5183C17.6747 25.3461 17.7953 25.103 17.8134 24.8421C17.8175 24.8 17.8175 24.7576 17.8134 24.7154V13.532C17.8145 13.4025 17.7899 13.2741 17.7411 13.1541C17.6923 13.0341 17.6202 12.925 17.529 12.8331C17.4378 12.7411 17.3293 12.6681 17.2097 12.6183C17.0901 12.5685 16.9619 12.5428 16.8324 12.5428H16.8283Z" fill="#048EA4"/>
<path d="M55.9989 9.01124C55.7143 9.01648 55.4429 9.13185 55.2416 9.3331C55.0404 9.53435 54.925 9.80578 54.9198 10.0903V22.0218C54.8764 23.7877 54.1444 25.4666 52.8801 26.7002C51.6158 27.9338 49.9193 28.6243 48.1529 28.6243C46.3865 28.6243 44.69 27.9338 43.4257 26.7002C42.1614 25.4666 41.4294 23.7877 41.386 22.0218V10.0699C41.369 9.79147 41.2464 9.53002 41.0432 9.33889C40.84 9.14776 40.5716 9.04134 40.2926 9.04134C40.0137 9.04134 39.7452 9.14776 39.542 9.33889C39.3389 9.53002 39.2163 9.79147 39.1992 10.0699V22.0218C39.1992 24.397 40.1428 26.6749 41.8223 28.3544C43.5018 30.0339 45.7797 30.9775 48.1549 30.9775C50.5301 30.9775 52.8081 30.0339 54.4876 28.3544C56.1671 26.6749 57.1107 24.397 57.1107 22.0218V10.0699C57.101 9.78294 56.9792 9.51123 56.7712 9.31323C56.5633 9.11524 56.2859 9.00679 55.9989 9.01124Z" fill="white"/>
<path d="M68.8989 15.3796C67.894 15.3776 66.8994 15.5815 65.9763 15.9787C65.0533 16.3759 64.2214 16.958 63.532 17.689V10.0699C63.532 9.77937 63.4166 9.50074 63.2111 9.2953C63.0057 9.08987 62.727 8.97445 62.4365 8.97445C62.146 8.97445 61.8673 9.08987 61.6619 9.2953C61.4565 9.50074 61.3411 9.77937 61.3411 10.0699V29.8984C61.3411 30.1889 61.4565 30.4675 61.6619 30.673C61.8673 30.8784 62.146 30.9938 62.4365 30.9938C62.727 30.9938 63.0057 30.8784 63.2111 30.673C63.4166 30.4675 63.532 30.1889 63.532 29.8984V28.6967C64.2252 29.4208 65.0585 29.9964 65.9811 30.3885C66.9037 30.7806 67.8964 30.981 68.8989 30.9775C70.9305 30.9484 72.8675 30.1142 74.2846 28.6581C75.7016 27.2019 76.4829 25.2429 76.4566 23.2112C76.4566 18.8907 73.0681 15.3796 68.8989 15.3796ZM74.2657 23.2071C74.3075 24.623 73.7883 25.9981 72.821 27.0329C71.8538 28.0678 70.5169 28.6787 69.1015 28.7326C67.686 28.7865 66.3066 28.279 65.2634 27.3207C64.2203 26.3624 63.598 25.0308 63.532 23.6159C63.532 23.4728 63.532 23.3339 63.532 23.2071V22.9782C63.6464 19.9453 65.9845 17.5664 68.8989 17.5664C71.8132 17.5664 74.2657 20.1006 74.2657 23.2071Z" fill="white"/>
<path d="M81.6765 15.3796C81.5364 15.3779 81.3974 15.4039 81.2673 15.4561C81.1373 15.5082 81.0187 15.5854 80.9185 15.6833C80.8183 15.7813 80.7384 15.898 80.6833 16.0268C80.6282 16.1556 80.599 16.294 80.5974 16.4341V29.8984C80.5974 30.1889 80.7128 30.4675 80.9183 30.673C81.1237 30.8784 81.4023 30.9938 81.6929 30.9938C81.9834 30.9938 82.262 30.8784 82.4675 30.673C82.6729 30.4675 82.7883 30.1889 82.7883 29.8984V16.4587C82.7916 16.1785 82.6846 15.9083 82.4903 15.7064C82.2961 15.5044 82.0302 15.3871 81.7501 15.3796H81.6765Z" fill="white"/>
<path d="M81.6765 10.5114C81.392 10.5166 81.1205 10.632 80.9193 10.8332C80.718 11.0345 80.6027 11.3059 80.5974 11.5905V12.2812C80.5974 12.5718 80.7128 12.8504 80.9183 13.0558C81.1237 13.2613 81.4023 13.3767 81.6929 13.3767C81.9834 13.3767 82.262 13.2613 82.4675 13.0558C82.6729 12.8504 82.7883 12.5718 82.7883 12.2812V11.5905C82.7862 11.4466 82.7557 11.3046 82.6987 11.1725C82.6417 11.0404 82.5592 10.9208 82.4559 10.8206C82.3527 10.7204 82.2307 10.6415 82.097 10.5885C81.9633 10.5354 81.8204 10.5092 81.6765 10.5114Z" fill="white"/>
<path d="M100.622 15.3796C100.332 15.3763 100.052 15.4879 99.8437 15.69C99.6354 15.8922 99.5155 16.1685 99.5102 16.4587V17.6849C98.8437 16.9671 98.0369 16.3938 97.1396 16.0008C96.2424 15.6077 95.274 15.4032 94.2945 15.4C90.2438 15.4 86.937 18.8703 86.937 23.1377C86.937 27.405 90.2315 30.9039 94.2945 30.9039C95.2733 30.9035 96.2416 30.7015 97.1389 30.3105C98.0362 29.9195 98.8434 29.3478 99.5102 28.6313V29.4488C99.5211 30.8108 98.9915 32.1216 98.0376 33.0939C97.0837 34.0662 95.7832 34.6207 94.4212 34.6358H94.3068C93.5261 34.6472 92.7536 34.4764 92.0505 34.1371C91.9288 34.064 91.7931 34.0175 91.6522 34.0006C91.5113 33.9837 91.3684 33.9968 91.233 34.039C91.0932 34.0833 90.9643 34.1564 90.8544 34.2536C90.7446 34.3507 90.6564 34.4698 90.5953 34.6031C90.48 34.8621 90.4641 35.1546 90.5509 35.4245C90.6376 35.6945 90.8208 35.923 91.0654 36.0664C92.0785 36.5353 93.1784 36.7873 94.2945 36.8063C95.2607 36.8063 96.2175 36.616 97.1101 36.2462C98.0028 35.8765 98.8139 35.3345 99.4971 34.6513C100.18 33.9681 100.722 33.157 101.092 32.2643C101.462 31.3717 101.652 30.415 101.652 29.4488V16.4587C101.653 16.1805 101.547 15.9126 101.355 15.7114C101.163 15.5101 100.9 15.3912 100.622 15.3796ZM99.5102 23.1172C99.5102 26.2278 97.1721 28.758 94.2945 28.758C91.4169 28.758 89.1075 26.2278 89.1075 23.1172C89.1075 20.0066 91.4333 17.5378 94.2904 17.5378C97.1476 17.5378 99.5102 20.0475 99.5102 23.1172Z" fill="white"/>
<path d="M106.888 15.3796C106.748 15.3779 106.609 15.4039 106.479 15.4561C106.349 15.5082 106.23 15.5854 106.13 15.6833C106.03 15.7813 105.95 15.898 105.895 16.0268C105.84 16.1556 105.811 16.294 105.809 16.4341V29.8984C105.809 30.1889 105.925 30.4675 106.13 30.673C106.335 30.8784 106.614 30.9938 106.905 30.9938C107.195 30.9938 107.474 30.8784 107.679 30.673C107.885 30.4675 108 30.1889 108 29.8984V16.4587C108.002 16.3182 107.975 16.1788 107.923 16.0485C107.871 15.9182 107.793 15.7995 107.695 15.6993C107.596 15.599 107.479 15.5191 107.35 15.4643C107.221 15.4094 107.082 15.3806 106.941 15.3796H106.888Z" fill="white"/>
<path d="M106.888 10.5114C106.604 10.5166 106.332 10.632 106.131 10.8332C105.93 11.0345 105.814 11.3059 105.809 11.5905V12.2812C105.809 12.5718 105.925 12.8504 106.13 13.0558C106.335 13.2613 106.614 13.3767 106.905 13.3767C107.195 13.3767 107.474 13.2613 107.679 13.0558C107.885 12.8504 108 12.5718 108 12.2812V11.5905C107.998 11.4466 107.967 11.3046 107.91 11.1725C107.853 11.0404 107.771 10.9208 107.668 10.8206C107.564 10.7204 107.442 10.6415 107.309 10.5885C107.175 10.5354 107.032 10.5092 106.888 10.5114Z" fill="white"/>
</svg>
