<svg width="80" height="20" viewBox="0 0 80 20" fill="none" xmlns="http://www.w3.org/2000/svg">
<path d="M21.01 7.02393H29.0966V8.52405H25.9169V16.957H24.1685V8.52405H21.0029V7.02393H21.01ZM28.7511 9.7648H30.2458V11.1528H30.274C30.3233 10.9565 30.415 10.7672 30.5489 10.585C30.6829 10.4027 30.845 10.2275 31.0354 10.0802C31.2257 9.92603 31.4373 9.80686 31.6699 9.70872C31.9026 9.61759 32.1423 9.56852 32.382 9.56852C32.5653 9.56852 32.6992 9.57553 32.7697 9.58254C32.8402 9.58955 32.9108 9.60357 32.9883 9.61058V11.1387C32.8755 11.1177 32.7627 11.1037 32.6428 11.0897C32.523 11.0757 32.4102 11.0686 32.2974 11.0686C32.0295 11.0686 31.7757 11.1247 31.536 11.2299C31.2962 11.335 31.0918 11.4962 30.9155 11.6995C30.7393 11.9098 30.5983 12.1622 30.4925 12.4706C30.3868 12.7791 30.3374 13.1296 30.3374 13.5291V16.95H28.7441V9.7648L28.7511 9.7648ZM40.3135 16.957H38.7483V15.9545H38.7201C38.5227 16.3191 38.2337 16.6065 37.8459 16.8238C37.4581 17.0411 37.0633 17.1532 36.6615 17.1532C35.7097 17.1532 35.0188 16.9219 34.5958 16.4523C34.1727 15.9826 33.9612 15.2746 33.9612 14.3283V9.7648H35.5546V14.174C35.5546 14.8049 35.6744 15.2536 35.9212 15.5129C36.1609 15.7723 36.5064 15.9055 36.9435 15.9055C37.2819 15.9055 37.5568 15.8564 37.7825 15.7513C38.0081 15.6461 38.1914 15.5129 38.3253 15.3377C38.4663 15.1694 38.565 14.9591 38.6285 14.7208C38.6919 14.4825 38.7201 14.2231 38.7201 13.9427V9.77181H40.3135V16.957ZM43.0278 14.6507C43.0772 15.1134 43.2534 15.4358 43.5566 15.6251C43.8668 15.8073 44.2334 15.9055 44.6635 15.9055C44.8115 15.9055 44.9807 15.8915 45.1711 15.8704C45.3614 15.8494 45.5447 15.8003 45.7069 15.7372C45.8761 15.6742 46.0101 15.576 46.1229 15.4498C46.2286 15.3237 46.278 15.1624 46.2709 14.9591C46.2639 14.7559 46.1863 14.5876 46.0453 14.4614C45.9043 14.3283 45.7281 14.2301 45.5095 14.146C45.2909 14.0689 45.0442 13.9988 44.7622 13.9427C44.4802 13.8866 44.1982 13.8235 43.9091 13.7604C43.613 13.6974 43.3239 13.6132 43.049 13.5221C42.774 13.431 42.5272 13.3048 42.3087 13.1436C42.0901 12.9894 41.9139 12.7861 41.787 12.5407C41.653 12.2954 41.5896 11.994 41.5896 11.6294C41.5896 11.2369 41.6883 10.9144 41.8786 10.648C42.069 10.3817 42.3157 10.1714 42.6048 10.0101C42.9009 9.84892 43.2252 9.73676 43.5848 9.66666C43.9443 9.60357 44.2898 9.56852 44.6141 9.56852C44.9878 9.56852 45.3473 9.61058 45.6857 9.68769C46.0242 9.7648 46.3344 9.89098 46.6093 10.0732C46.8843 10.2485 47.1099 10.4798 47.2932 10.7602C47.4765 11.0406 47.5893 11.3841 47.6387 11.7837H45.9748C45.8973 11.4051 45.7281 11.1458 45.4531 11.0196C45.1781 10.8864 44.8609 10.8233 44.5084 10.8233C44.3956 10.8233 44.2616 10.8303 44.1065 10.8513C43.9514 10.8724 43.8104 10.9074 43.6694 10.9565C43.5354 11.0056 43.4226 11.0827 43.3239 11.1808C43.2323 11.2789 43.1829 11.4051 43.1829 11.5663C43.1829 11.7626 43.2534 11.9168 43.3874 12.036C43.5213 12.1552 43.6976 12.2533 43.9161 12.3374C44.1347 12.4145 44.3815 12.4846 44.6635 12.5407C44.9455 12.5968 45.2345 12.6599 45.5306 12.723C45.8197 12.7861 46.1017 12.8702 46.3837 12.9613C46.6657 13.0524 46.9125 13.1786 47.131 13.3399C47.3496 13.5011 47.5259 13.6974 47.6598 13.9357C47.7938 14.174 47.8643 14.4755 47.8643 14.826C47.8643 15.2536 47.7656 15.6111 47.5682 15.9125C47.3708 16.2069 47.1169 16.4523 46.8067 16.6345C46.4965 16.8168 46.144 16.957 45.7633 17.0411C45.3826 17.1252 45.0019 17.1673 44.6282 17.1673C44.17 17.1673 43.7469 17.1182 43.3592 17.013C42.9714 16.9079 42.633 16.7537 42.351 16.5504C42.069 16.3401 41.8434 16.0807 41.6812 15.7723C41.5191 15.4639 41.4345 15.0923 41.4204 14.6647H43.0278V14.6507ZM48.2873 9.7648H49.4929V7.60575H51.0862V9.7648H52.5245V10.9495H51.0862V14.7909C51.0862 14.9591 51.0933 15.0993 51.1074 15.2255C51.1215 15.3447 51.1567 15.4498 51.2061 15.534C51.2554 15.6181 51.333 15.6812 51.4387 15.7232C51.5445 15.7653 51.6784 15.7863 51.8617 15.7863C51.9745 15.7863 52.0873 15.7863 52.2002 15.7793C52.313 15.7723 52.4258 15.7583 52.5386 15.7302V16.957C52.3623 16.978 52.1861 16.992 52.0239 17.013C51.8547 17.0341 51.6855 17.0411 51.5092 17.0411C51.0862 17.0411 50.7478 16.999 50.494 16.9219C50.2402 16.8448 50.0357 16.7256 49.8947 16.5714C49.7467 16.4172 49.655 16.2279 49.5986 15.9966C49.5493 15.7653 49.514 15.4989 49.507 15.2045V10.9635H48.3014V9.7648H48.2873ZM53.6525 9.7648H55.1612V10.7392H55.1894C55.4151 10.3186 55.7253 10.0242 56.1271 9.84191C56.529 9.65965 56.959 9.56852 57.4314 9.56852C58.0025 9.56852 58.496 9.66666 58.919 9.86995C59.342 10.0662 59.6945 10.3396 59.9765 10.6901C60.2586 11.0406 60.463 11.4472 60.604 11.9098C60.745 12.3725 60.8155 12.8702 60.8155 13.3959C60.8155 13.8796 60.7521 14.3493 60.6252 14.7979C60.4983 15.2536 60.3079 15.6531 60.0541 16.0036C59.8003 16.3541 59.476 16.6275 59.0812 16.8378C58.6864 17.0481 58.2281 17.1532 57.6923 17.1532C57.4596 17.1532 57.227 17.1322 56.9943 17.0902C56.7616 17.0481 56.536 16.978 56.3245 16.8869C56.113 16.7957 55.9086 16.6766 55.7323 16.5294C55.549 16.3822 55.401 16.2139 55.274 16.0246H55.2458V19.6137H53.6525V9.7648ZM59.2222 13.3679C59.2222 13.0454 59.1799 12.73 59.0953 12.4216C59.0107 12.1131 58.8838 11.8467 58.7146 11.6084C58.5453 11.3701 58.3338 11.1808 58.0871 11.0406C57.8333 10.9004 57.5442 10.8233 57.2199 10.8233C56.5501 10.8233 56.0425 11.0546 55.7041 11.5173C55.3657 11.9799 55.1965 12.5968 55.1965 13.3679C55.1965 13.7324 55.2388 14.0689 55.3305 14.3773C55.4221 14.6858 55.549 14.9521 55.7323 15.1764C55.9086 15.4008 56.1201 15.576 56.3668 15.7022C56.6136 15.8354 56.9026 15.8985 57.227 15.8985C57.5936 15.8985 57.8967 15.8214 58.1505 15.6742C58.4043 15.5269 58.6088 15.3307 58.771 15.0993C58.9331 14.861 59.053 14.5946 59.1235 14.2932C59.1869 13.9918 59.2222 13.6833 59.2222 13.3679ZM62.0352 7.02393H63.6286V8.52405H62.0352V7.02393ZM62.0352 9.7648H63.6286V16.957H62.0352V9.7648ZM65.0527 7.02393H66.6461V16.957H65.0527V7.02393ZM71.5319 17.1532C70.9537 17.1532 70.4391 17.0551 69.9879 16.8658C69.5366 16.6766 69.1559 16.4102 68.8387 16.0807C68.5285 15.7443 68.2887 15.3447 68.1266 14.882C67.9644 14.4194 67.8798 13.9077 67.8798 13.3539C67.8798 12.8071 67.9644 12.3024 68.1266 11.8397C68.2887 11.3771 68.5285 10.9775 68.8387 10.641C69.1489 10.3046 69.5366 10.0452 69.9879 9.85593C70.4391 9.66666 70.9537 9.56852 71.5319 9.56852C72.11 9.56852 72.6246 9.66666 73.0759 9.85593C73.5271 10.0452 73.9078 10.3116 74.225 10.641C74.5352 10.9775 74.775 11.3771 74.9371 11.8397C75.0993 12.3024 75.1839 12.8071 75.1839 13.3539C75.1839 13.9077 75.0993 14.4194 74.9371 14.882C74.775 15.3447 74.5352 15.7443 74.225 16.0807C73.9148 16.4172 73.5271 16.6766 73.0759 16.8658C72.6246 17.0551 72.11 17.1532 71.5319 17.1532ZM71.5319 15.8985C71.8844 15.8985 72.1946 15.8214 72.4554 15.6742C72.7163 15.5269 72.9278 15.3307 73.097 15.0923C73.2662 14.854 73.3861 14.5806 73.4707 14.2792C73.5482 13.9778 73.5905 13.6693 73.5905 13.3539C73.5905 13.0454 73.5482 12.744 73.4707 12.4356C73.3931 12.1271 73.2662 11.8608 73.097 11.6224C72.9278 11.3841 72.7163 11.1948 72.4554 11.0476C72.1946 10.9004 71.8844 10.8233 71.5319 10.8233C71.1793 10.8233 70.8691 10.9004 70.6083 11.0476C70.3474 11.1948 70.1359 11.3911 69.9667 11.6224C69.7975 11.8608 69.6776 12.1271 69.593 12.4356C69.5155 12.744 69.4732 13.0454 69.4732 13.3539C69.4732 13.6693 69.5155 13.9778 69.593 14.2792C69.6706 14.5806 69.7975 14.854 69.9667 15.0923C70.1359 15.3307 70.3474 15.5269 70.6083 15.6742C70.8691 15.8284 71.1793 15.8985 71.5319 15.8985ZM75.6492 9.7648H76.8548V7.60575H78.4481V9.7648H79.8864V10.9495H78.4481V14.7909C78.4481 14.9591 78.4552 15.0993 78.4693 15.2255C78.4834 15.3447 78.5186 15.4498 78.568 15.534C78.6173 15.6181 78.6949 15.6812 78.8006 15.7232C78.9064 15.7653 79.0403 15.7863 79.2236 15.7863C79.3364 15.7863 79.4492 15.7863 79.562 15.7793C79.6749 15.7723 79.7877 15.7583 79.9005 15.7302V16.957C79.7242 16.978 79.548 16.992 79.3858 17.013C79.2166 17.0341 79.0474 17.0411 78.8711 17.0411C78.4481 17.0411 78.1097 16.999 77.8559 16.9219C77.6021 16.8448 77.3976 16.7256 77.2566 16.5714C77.1086 16.4172 77.0169 16.2279 76.9605 15.9966C76.9112 15.7653 76.8759 15.4989 76.8689 15.2045V10.9635H75.6633V9.7648L75.6492 9.7648Z" fill="#191919"/>
<path d="M19.1487 7.02408H11.8447L9.58863 0.112305L7.32551 7.02407L0.0214844 7.01707L5.93662 11.2931L3.6735 18.1979L9.58863 13.9288L15.4967 18.1979L13.2406 11.2931L19.1487 7.02408Z" fill="#00B67A"/>
<path d="M13.7485 12.8563L13.2409 11.293L9.58887 13.9289L13.7485 12.8563Z" fill="#005128"/>
</svg>
