<svg width="28" height="28" viewBox="0 0 28 28" fill="none" xmlns="http://www.w3.org/2000/svg">
<path d="M27.9329 26.916L22.1809 13.852C22.0945 13.7255 21.9786 13.6219 21.8433 13.5501C21.708 13.4782 21.5572 13.4403 21.404 13.4395C21.2508 13.4387 21.0997 13.4751 20.9637 13.5455C20.8276 13.616 20.7107 13.7184 20.6229 13.844L14.8689 26.914C14.828 26.9987 14.8052 27.091 14.8019 27.185C14.7987 27.279 14.815 27.3727 14.8499 27.46C14.8936 27.5662 14.9579 27.6627 15.039 27.7439C15.1202 27.8251 15.2167 27.8894 15.3229 27.933C15.422 27.9748 15.5284 27.9962 15.6359 27.996C15.8017 27.9964 15.9643 27.9506 16.1056 27.8639C16.2468 27.7772 16.3612 27.653 16.4359 27.505L17.4479 25.167C17.4644 25.1292 17.4915 25.097 17.5259 25.0745C17.5604 25.0519 17.6007 25.0399 17.642 25.04H25.1629C25.2041 25.04 25.2444 25.0521 25.2788 25.0746C25.3133 25.0972 25.3404 25.1293 25.3569 25.167L26.3739 27.516C26.4425 27.6638 26.5527 27.7884 26.6911 27.8744C26.8295 27.9603 26.9901 28.004 27.1529 28C27.2696 27.9987 27.3848 27.9742 27.4919 27.928C27.701 27.8384 27.8665 27.6704 27.9529 27.46C27.9874 27.3754 28.004 27.2846 28.002 27.1932C27.9999 27.1019 27.9792 27.012 27.9409 26.929L27.9329 26.916ZM24.4699 23.368C24.4512 23.3982 24.4251 23.4231 24.3942 23.4406C24.3633 23.4581 24.3285 23.4675 24.2929 23.468H18.5089C18.4733 23.4683 18.4382 23.4596 18.4069 23.4426C18.3756 23.4257 18.3491 23.4011 18.3298 23.3712C18.3105 23.3412 18.2992 23.3069 18.2967 23.2714C18.2943 23.2358 18.3009 23.2003 18.3159 23.168L21.2079 16.647C21.2243 16.6093 21.2514 16.5772 21.2857 16.5547C21.3201 16.5321 21.3603 16.5201 21.4014 16.5201C21.4425 16.5201 21.4828 16.5321 21.5171 16.5547C21.5515 16.5772 21.5785 16.6093 21.5949 16.647L24.4869 23.168C24.501 23.2003 24.5068 23.2355 24.5039 23.2706C24.5009 23.3057 24.4892 23.3395 24.4699 23.369V23.368Z" fill="white"/>
<path d="M16.7979 3.469H17.7979C19.0075 3.4674 20.1684 3.94564 21.0259 4.7988C21.8833 5.65197 22.3674 6.8104 22.3719 8.02V9.197L21.0719 7.897C21.029 7.84795 20.9761 7.80865 20.9168 7.78172C20.8575 7.75479 20.7931 7.74085 20.7279 7.74085C20.6628 7.74085 20.5984 7.75479 20.539 7.78172C20.4797 7.80865 20.4268 7.84795 20.3839 7.897C20.2902 7.99076 20.2375 8.11792 20.2375 8.2505C20.2375 8.38308 20.2902 8.51024 20.3839 8.604L22.5339 10.743C22.6337 10.8274 22.7602 10.8737 22.8909 10.8737C23.0216 10.8737 23.1481 10.8274 23.2479 10.743L25.3929 8.609C25.4867 8.51485 25.5392 8.38731 25.5389 8.25444C25.5386 8.12157 25.4856 7.99425 25.3914 7.9005C25.2973 7.80675 25.1697 7.75423 25.0369 7.75452C24.904 7.7548 24.7767 7.80785 24.6829 7.902L23.3829 9.202V8.017C23.3803 7.2858 23.2337 6.56227 22.9514 5.88774C22.6692 5.2132 22.2568 4.60086 21.738 4.08568C21.2191 3.5705 20.6038 3.16257 19.9272 2.88518C19.2507 2.60779 18.5261 2.46637 17.7949 2.469H16.7759C16.71 2.4682 16.6447 2.48058 16.5836 2.50542C16.5226 2.53026 16.4672 2.56706 16.4206 2.61365C16.374 2.66024 16.3372 2.71568 16.3123 2.77671C16.2875 2.83774 16.2751 2.90312 16.2759 2.969C16.2806 3.10393 16.3378 3.23171 16.4353 3.3251C16.5328 3.41849 16.6629 3.47012 16.7979 3.469Z" fill="white" stroke="white" stroke-width="0.25"/>
<path d="M11.2031 24.534H10.2031C8.99345 24.5356 7.83259 24.0574 6.97511 23.2042C6.11764 22.351 5.63356 21.1926 5.62906 19.983V18.805L6.92906 20.105C6.97195 20.154 7.02484 20.1934 7.08417 20.2203C7.1435 20.2472 7.2079 20.2612 7.27306 20.2612C7.33821 20.2612 7.40262 20.2472 7.46195 20.2203C7.52128 20.1934 7.57416 20.154 7.61706 20.105C7.71079 20.0112 7.76345 19.8841 7.76345 19.7515C7.76345 19.6189 7.71079 19.4918 7.61706 19.398L5.46706 17.259C5.36717 17.1744 5.24049 17.1279 5.10956 17.1279C4.97863 17.1279 4.85195 17.1744 4.75206 17.259L2.60706 19.393C2.51344 19.4872 2.46105 19.6146 2.46143 19.7474C2.4618 19.8802 2.51491 20.0074 2.60906 20.101C2.70321 20.1946 2.8307 20.247 2.96347 20.2466C3.09625 20.2463 3.22344 20.1932 3.31706 20.099L4.61706 18.799V19.976C4.62235 21.4505 5.21228 22.8626 6.25742 23.9027C7.30256 24.9428 8.71758 25.5259 10.1921 25.524H11.2111C11.2769 25.5248 11.3423 25.5124 11.4033 25.4876C11.4644 25.4627 11.5198 25.4259 11.5664 25.3793C11.613 25.3328 11.6498 25.2773 11.6746 25.2163C11.6995 25.1553 11.7119 25.0899 11.7111 25.024C11.704 24.8932 11.6477 24.77 11.5534 24.6791C11.4592 24.5882 11.334 24.5363 11.2031 24.534Z" fill="white" stroke="white" stroke-width="0.25"/>
<path d="M11.9671 7.222C11.3493 6.52821 10.5283 6.04703 9.62108 5.847C9.5243 5.82186 9.4407 5.76087 9.38722 5.67638C9.33374 5.59189 9.31439 5.49023 9.33308 5.392C9.33846 5.3439 9.32549 5.29555 9.29675 5.25661C9.26801 5.21767 9.22563 5.19102 9.17808 5.182L8.12108 4.925C8.05985 4.91034 7.99531 4.92002 7.94108 4.952C7.91858 4.96528 7.89907 4.98306 7.88376 5.00422C7.86845 5.02539 7.85766 5.04948 7.85208 5.075C7.84008 5.136 7.82808 5.197 7.81508 5.258C7.79667 5.34675 7.74823 5.42644 7.67792 5.48364C7.6076 5.54084 7.51972 5.57205 7.42908 5.572H7.30008C6.77739 5.57521 6.25614 5.6271 5.74308 5.727C5.68603 5.73806 5.62723 5.73637 5.57091 5.72203C5.51459 5.7077 5.46214 5.68109 5.41731 5.6441C5.37249 5.60711 5.3364 5.56067 5.31164 5.50809C5.28687 5.45552 5.27405 5.39811 5.27408 5.34C5.27408 4.83 5.28208 4.24 5.29308 3.753C5.29556 3.65262 5.33628 3.55698 5.4069 3.48562C5.47753 3.41425 5.57273 3.37254 5.67308 3.369C7.56085 3.33778 9.44314 3.15621 11.3021 2.826C11.3484 2.81796 11.3902 2.79311 11.4193 2.75621C11.4485 2.7193 11.463 2.67294 11.4601 2.626L11.3261 1.66C11.3217 1.63375 11.3118 1.60875 11.297 1.58667C11.2821 1.56459 11.2627 1.54594 11.2401 1.532C11.2021 1.50811 11.158 1.49562 11.1131 1.496C11.0935 1.496 11.0741 1.49835 11.0551 1.503C9.32466 1.83155 7.57073 2.02116 5.81008 2.07H5.80008C5.74625 2.06997 5.693 2.05891 5.64361 2.03751C5.59422 2.0161 5.54974 1.9848 5.51291 1.94554C5.47609 1.90628 5.4477 1.85989 5.42949 1.80923C5.41129 1.75857 5.40366 1.70472 5.40708 1.651L5.42208 1.412C5.43908 1.148 5.45808 0.848999 5.48008 0.586999C5.48125 0.545041 5.46842 0.503888 5.44361 0.470028C5.41881 0.436169 5.38344 0.411531 5.34308 0.399999L4.24108 0.0129986C4.21566 0.00427253 4.18895 -0.000121933 4.16208 -1.40099e-06C4.11752 -0.000136315 4.07384 0.0123449 4.03608 0.0359986C4.0108 0.0511238 3.98952 0.0720974 3.97403 0.0971557C3.95855 0.122214 3.9493 0.150625 3.94708 0.179999C3.92308 0.733999 3.90008 1.272 3.88808 1.736C3.8847 1.83822 3.84171 1.93513 3.76818 2.00623C3.69465 2.07733 3.59636 2.11705 3.49408 2.117C2.52208 2.117 1.43008 2.117 0.764078 2.075H0.750078C0.694651 2.07619 0.641467 2.09711 0.600078 2.134C0.581461 2.15073 0.56665 2.17126 0.556645 2.1942C0.546639 2.21715 0.541672 2.24197 0.542078 2.267L0.572078 3.205C0.576819 3.25468 0.599966 3.3008 0.636972 3.33429C0.673978 3.36778 0.722168 3.38622 0.772078 3.386C1.22608 3.412 1.45108 3.415 3.44808 3.415C3.50033 3.41499 3.55206 3.42538 3.60025 3.44555C3.64845 3.46573 3.69216 3.49529 3.72882 3.53251C3.76549 3.56974 3.79438 3.61388 3.81383 3.66238C3.83327 3.71088 3.84287 3.76276 3.84208 3.815C3.84208 4.432 3.84208 5.329 3.85208 6C3.8537 6.07835 3.83192 6.1554 3.78953 6.22131C3.74713 6.28722 3.68605 6.33899 3.61408 6.37C1.34908 7.338 7.81994e-05 8.97 7.81994e-05 10.734C-0.0227719 11.0073 0.0132455 11.2824 0.105702 11.5407C0.198159 11.7989 0.344907 12.0344 0.536053 12.2311C0.7272 12.4278 0.958302 12.5813 1.21378 12.6812C1.46926 12.781 1.74318 12.825 2.01708 12.81C2.85469 12.78 3.66937 12.5285 4.37808 12.081C4.42259 12.0549 4.47182 12.0377 4.52296 12.0306C4.57409 12.0235 4.62612 12.0265 4.67608 12.0395C4.72604 12.0525 4.77295 12.0753 4.81413 12.1064C4.85531 12.1375 4.88995 12.1765 4.91608 12.221C4.94508 12.27 4.97408 12.321 5.00408 12.36C5.02535 12.3895 5.05349 12.4134 5.08608 12.4296C5.11866 12.4458 5.1547 12.4539 5.19108 12.453C5.23291 12.4533 5.27404 12.4422 5.31008 12.421L6.18908 11.895C6.21101 11.8822 6.23017 11.8652 6.24545 11.845C6.26074 11.8247 6.27183 11.8016 6.27808 11.777C6.28307 11.7542 6.28326 11.7306 6.27861 11.7077C6.27396 11.6848 6.26458 11.6631 6.25108 11.644C6.17637 11.5342 6.10954 11.4192 6.05108 11.3C6.01293 11.2241 6.0003 11.138 6.01507 11.0544C6.02985 10.9708 6.07124 10.8942 6.13308 10.836C7.1946 9.83094 8.05198 8.63027 8.65808 7.3C8.69614 7.21565 8.76274 7.14744 8.84616 7.10738C8.92957 7.06732 9.02445 7.05797 9.11408 7.081C9.69917 7.16327 10.236 7.45059 10.6291 7.89177C11.0221 8.33295 11.2457 8.89933 11.2601 9.49C11.2601 9.496 11.2601 9.502 11.2601 9.508V9.608C11.2332 10.079 11.1028 10.5383 10.8781 10.9532C10.6534 11.368 10.3399 11.7282 9.96008 12.008C8.92744 12.7933 7.68499 13.2544 6.39008 13.333C6.35507 13.3353 6.32116 13.3462 6.29134 13.3647C6.26153 13.3831 6.23671 13.4087 6.21908 13.439C6.20428 13.4638 6.19647 13.4921 6.19647 13.521C6.19647 13.5499 6.20428 13.5782 6.21908 13.603C6.37089 13.8631 6.50003 14.1358 6.60508 14.418C6.6204 14.4603 6.64864 14.4966 6.6858 14.5219C6.72295 14.5473 6.76714 14.5602 6.81208 14.559H6.83508C8.51583 14.4537 10.1144 13.7947 11.3811 12.685C11.8122 12.29 12.1585 11.8115 12.3992 11.2787C12.6398 10.7458 12.7698 10.1696 12.7811 9.585C12.8037 8.72493 12.5146 7.88568 11.9671 7.222ZM4.09108 10.755C3.55322 11.1693 2.90902 11.4227 2.23308 11.486H2.18608C2.00778 11.4947 1.83277 11.4358 1.69608 11.321C1.60434 11.2213 1.53438 11.1035 1.49065 10.9752C1.44692 10.847 1.43038 10.711 1.44208 10.576C1.50709 10.0061 1.71832 9.46278 2.05526 8.99864C2.39219 8.5345 2.8434 8.16534 3.36508 7.927C3.42267 7.89325 3.4879 7.87468 3.55463 7.87304C3.62137 7.87141 3.68743 7.88675 3.74661 7.91764C3.80578 7.94853 3.85614 7.99395 3.89296 8.04964C3.92978 8.10532 3.95184 8.16945 3.95708 8.236C4.00484 8.94509 4.10309 9.64988 4.25108 10.345C4.26823 10.4215 4.26216 10.5014 4.23366 10.5744C4.20516 10.6475 4.15551 10.7103 4.09108 10.755ZM7.02208 7.455C6.7637 7.95312 6.46009 8.42645 6.11508 8.869C6.06694 8.9299 6.00189 8.97522 5.92809 8.99928C5.85429 9.02333 5.77502 9.02506 5.70025 9.00422C5.62547 8.98339 5.55851 8.94094 5.50778 8.88219C5.45705 8.82344 5.4248 8.75101 5.41508 8.674C5.37008 8.304 5.33808 7.892 5.31508 7.451C5.31108 7.35991 5.33879 7.27026 5.3935 7.19731C5.4482 7.12437 5.52651 7.07266 5.61508 7.051C5.95096 6.96859 6.29261 6.91176 6.63708 6.881H6.67308C6.74056 6.88108 6.80689 6.89849 6.86571 6.93157C6.92452 6.96464 6.97386 7.01226 7.00899 7.06988C7.04413 7.12749 7.06387 7.19316 7.06634 7.2606C7.0688 7.32803 7.05291 7.39497 7.02208 7.455Z" fill="white"/>
</svg>
