<svg width="108" height="45" viewBox="0 0 108 45" fill="none" xmlns="http://www.w3.org/2000/svg">
<path d="M14.9356 2.06251C10.9826 2.05925 7.18983 3.62449 4.38966 6.4147C1.58949 9.20491 0.0107371 12.9921 -8.87824e-05 16.9451C-0.0378619 19.4417 0.585445 21.9039 1.80659 24.0819C1.88834 24.225 14.0446 42.4757 14.2326 42.6555C14.422 42.8364 14.6738 42.9373 14.9356 42.9373C15.1975 42.9373 15.4493 42.8364 15.6387 42.6555C15.8226 42.4757 27.983 24.225 28.0606 24.0819C29.2872 21.906 29.9122 19.4426 29.8714 16.9451C29.8616 12.9918 28.2832 9.20395 25.4828 6.4135C22.6824 3.62306 18.889 2.05816 14.9356 2.06251ZM26.4706 22.827C26.348 23.0396 15.8431 38.7887 14.9356 40.1335C14.0364 38.7887 3.52334 23.0437 3.40071 22.827C2.43939 21.0182 1.95808 18.993 2.00279 16.9451C2.00279 13.5151 3.36535 10.2256 5.79073 7.8002C8.21612 5.37481 11.5056 4.01225 14.9356 4.01225C18.3657 4.01225 21.6552 5.37481 24.0806 7.8002C26.5059 10.2256 27.8685 13.5151 27.8685 16.9451C27.9127 18.993 27.4314 21.018 26.4706 22.827Z" fill="white"/>
<path d="M20.6134 9.01123C20.3545 9.01219 20.1061 9.1138 19.9207 9.29458C19.7353 9.47537 19.6276 9.72115 19.6201 9.97997V24.7154C19.6047 24.9764 19.6933 25.233 19.8664 25.4289C20.0396 25.6248 20.2833 25.7442 20.5442 25.7609C20.8052 25.7777 21.0621 25.6904 21.2589 25.5182C21.4557 25.3461 21.5763 25.103 21.5944 24.8421C21.5985 24.8 21.5985 24.7576 21.5944 24.7154V10.0004C21.5944 9.73947 21.4913 9.4891 21.3076 9.30383C21.1238 9.11855 20.8743 9.01339 20.6134 9.01123Z" fill="#048EA4"/>
<path d="M9.25415 19.7778C8.99289 19.7778 8.74232 19.8816 8.55758 20.0664C8.37284 20.2511 8.26906 20.5017 8.26906 20.7629V24.7155C8.25363 24.9766 8.34218 25.2331 8.51535 25.429C8.68852 25.6249 8.93221 25.7443 9.19315 25.761C9.4541 25.7778 9.71105 25.6905 9.90785 25.5184C10.1046 25.3462 10.2253 25.1031 10.2433 24.8423C10.2474 24.8001 10.2474 24.7577 10.2433 24.7155V20.7629C10.2439 20.6334 10.2188 20.5051 10.1694 20.3853C10.1201 20.2656 10.0476 20.1567 9.956 20.0652C9.86442 19.9736 9.75561 19.901 9.63585 19.8517C9.51609 19.8024 9.38775 19.7773 9.25823 19.7778H9.25415Z" fill="#048EA4"/>
<path d="M13.0431 16.2949C12.9138 16.2944 12.7856 16.3193 12.6658 16.3683C12.5461 16.4174 12.4372 16.4895 12.3454 16.5806C12.2535 16.6717 12.1805 16.78 12.1305 16.8993C12.0805 17.0186 12.0545 17.1466 12.054 17.2759V24.7152C12.054 24.8451 12.0795 24.9737 12.1293 25.0937C12.179 25.2137 12.2518 25.3228 12.3437 25.4146C12.4355 25.5065 12.5446 25.5794 12.6646 25.6291C12.7846 25.6788 12.9132 25.7044 13.0431 25.7044C13.173 25.7044 13.3017 25.6788 13.4217 25.6291C13.5417 25.5794 13.6507 25.5065 13.7426 25.4146C13.8344 25.3228 13.9073 25.2137 13.957 25.0937C14.0067 24.9737 14.0323 24.8451 14.0323 24.7152V17.28C14.0323 17.1503 14.0067 17.0219 13.9569 16.9021C13.9072 16.7823 13.8342 16.6735 13.7423 16.582C13.6504 16.4905 13.5414 16.418 13.4214 16.3687C13.3014 16.3195 13.1728 16.2944 13.0431 16.2949Z" fill="#048EA4"/>
<path d="M16.8283 12.543C16.6984 12.543 16.5698 12.5686 16.4498 12.6183C16.3297 12.668 16.2207 12.7408 16.1288 12.8327C16.037 12.9245 15.9641 13.0336 15.9144 13.1536C15.8647 13.2736 15.8391 13.4022 15.8391 13.5321V24.7156C15.8237 24.9766 15.9123 25.2331 16.0854 25.429C16.2586 25.6249 16.5023 25.7443 16.7632 25.7611C17.0242 25.7778 17.2811 25.6906 17.4779 25.5184C17.6747 25.3462 17.7953 25.1031 17.8134 24.8423C17.8175 24.8001 17.8175 24.7577 17.8134 24.7156V13.5321C17.8145 13.4026 17.7899 13.2742 17.7411 13.1542C17.6923 13.0343 17.6202 12.9251 17.529 12.8332C17.4378 12.7412 17.3293 12.6682 17.2097 12.6184C17.0901 12.5686 16.9619 12.543 16.8324 12.543H16.8283Z" fill="#048EA4"/>
<path d="M55.9989 9.01136C55.7143 9.0166 55.4429 9.13198 55.2416 9.33322C55.0404 9.53447 54.925 9.80591 54.9198 10.0905V22.0219C54.8764 23.7878 54.1444 25.4667 52.8801 26.7003C51.6158 27.934 49.9193 28.6245 48.1529 28.6245C46.3865 28.6245 44.69 27.934 43.4257 26.7003C42.1614 25.4667 41.4294 23.7878 41.386 22.0219V10.07C41.369 9.79159 41.2464 9.53015 41.0432 9.33901C40.84 9.14788 40.5716 9.04146 40.2926 9.04146C40.0137 9.04146 39.7452 9.14788 39.542 9.33901C39.3389 9.53015 39.2163 9.79159 39.1992 10.07V22.0219C39.1992 24.3971 40.1428 26.675 41.8223 28.3545C43.5018 30.0341 45.7797 30.9776 48.1549 30.9776C50.5301 30.9776 52.8081 30.0341 54.4876 28.3545C56.1671 26.675 57.1107 24.3971 57.1107 22.0219V10.07C57.101 9.78307 56.9792 9.51135 56.7712 9.31335C56.5633 9.11536 56.2859 9.00692 55.9989 9.01136Z" fill="white"/>
<path d="M68.8989 15.3797C67.894 15.3778 66.8994 15.5817 65.9763 15.9789C65.0533 16.3761 64.2214 16.9581 63.532 17.6892V10.0701C63.532 9.77953 63.4166 9.5009 63.2111 9.29546C63.0057 9.09002 62.727 8.97461 62.4365 8.97461C62.146 8.97461 61.8673 9.09002 61.6619 9.29546C61.4565 9.5009 61.3411 9.77953 61.3411 10.0701V29.8985C61.3411 30.1891 61.4565 30.4677 61.6619 30.6731C61.8673 30.8786 62.146 30.994 62.4365 30.994C62.727 30.994 63.0057 30.8786 63.2111 30.6731C63.4166 30.4677 63.532 30.1891 63.532 29.8985V28.6968C64.2252 29.4209 65.0585 29.9965 65.9811 30.3886C66.9037 30.7807 67.8964 30.9811 68.8989 30.9776C70.9305 30.9486 72.8675 30.1144 74.2846 28.6582C75.7016 27.2021 76.4829 25.2431 76.4566 23.2114C76.4566 18.8909 73.0681 15.3797 68.8989 15.3797ZM74.2657 23.2073C74.3075 24.6232 73.7883 25.9982 72.821 27.0331C71.8538 28.0679 70.5169 28.6788 69.1015 28.7327C67.686 28.7866 66.3066 28.2792 65.2634 27.3209C64.2203 26.3626 63.598 25.031 63.532 23.616C63.532 23.473 63.532 23.334 63.532 23.2073V22.9784C63.6464 19.9455 65.9845 17.5665 68.8989 17.5665C71.8132 17.5665 74.2657 20.1008 74.2657 23.2073Z" fill="white"/>
<path d="M81.6765 15.3795C81.5364 15.3778 81.3974 15.4038 81.2673 15.456C81.1373 15.5081 81.0187 15.5853 80.9185 15.6832C80.8183 15.7812 80.7384 15.8979 80.6833 16.0267C80.6282 16.1555 80.599 16.2939 80.5974 16.434V29.8983C80.5974 30.1888 80.7128 30.4674 80.9183 30.6729C81.1237 30.8783 81.4023 30.9937 81.6929 30.9937C81.9834 30.9937 82.262 30.8783 82.4675 30.6729C82.6729 30.4674 82.7883 30.1888 82.7883 29.8983V16.4586C82.7916 16.1784 82.6846 15.9082 82.4903 15.7063C82.2961 15.5043 82.0302 15.387 81.7501 15.3795H81.6765Z" fill="white"/>
<path d="M81.6765 10.5114C81.392 10.5166 81.1205 10.632 80.9193 10.8332C80.718 11.0345 80.6027 11.3059 80.5974 11.5905V12.2812C80.5974 12.5718 80.7128 12.8504 80.9183 13.0558C81.1237 13.2613 81.4023 13.3767 81.6929 13.3767C81.9834 13.3767 82.262 13.2613 82.4675 13.0558C82.6729 12.8504 82.7883 12.5718 82.7883 12.2812V11.5905C82.7862 11.4466 82.7557 11.3046 82.6987 11.1725C82.6417 11.0404 82.5592 10.9208 82.4559 10.8206C82.3527 10.7204 82.2307 10.6415 82.097 10.5885C81.9633 10.5354 81.8204 10.5092 81.6765 10.5114Z" fill="white"/>
<path d="M100.622 15.3795C100.332 15.3762 100.052 15.4878 99.8437 15.6899C99.6354 15.8921 99.5155 16.1684 99.5102 16.4586V17.6848C98.8437 16.967 98.0369 16.3937 97.1396 16.0007C96.2424 15.6076 95.274 15.4031 94.2945 15.3999C90.2438 15.3999 86.937 18.8702 86.937 23.1375C86.937 27.4049 90.2315 30.9038 94.2945 30.9038C95.2733 30.9034 96.2416 30.7013 97.1389 30.3103C98.0362 29.9193 98.8434 29.3477 99.5102 28.6311V29.4486C99.5211 30.8107 98.9915 32.1215 98.0376 33.0938C97.0837 34.0661 95.7832 34.6206 94.4212 34.6357H94.3068C93.5261 34.6471 92.7536 34.4763 92.0505 34.137C91.9288 34.0639 91.7931 34.0174 91.6522 34.0005C91.5113 33.9835 91.3684 33.9967 91.233 34.0389C91.0932 34.0832 90.9643 34.1563 90.8544 34.2535C90.7446 34.3506 90.6564 34.4697 90.5953 34.603C90.48 34.862 90.4641 35.1545 90.5509 35.4244C90.6376 35.6944 90.8208 35.9229 91.0654 36.0663C92.0785 36.5352 93.1784 36.7872 94.2945 36.8062C95.2607 36.8062 96.2175 36.6158 97.1101 36.2461C98.0028 35.8763 98.8139 35.3344 99.4971 34.6512C100.18 33.968 100.722 33.1569 101.092 32.2642C101.462 31.3716 101.652 30.4149 101.652 29.4486V16.4586C101.653 16.1804 101.547 15.9125 101.355 15.7113C101.163 15.51 100.9 15.3911 100.622 15.3795ZM99.5102 23.1171C99.5102 26.2277 97.1721 28.7579 94.2945 28.7579C91.4169 28.7579 89.1075 26.2277 89.1075 23.1171C89.1075 20.0065 91.4333 17.5377 94.2904 17.5377C97.1476 17.5377 99.5102 20.0474 99.5102 23.1171Z" fill="white"/>
<path d="M106.888 15.3795C106.748 15.3778 106.609 15.4038 106.479 15.456C106.349 15.5081 106.23 15.5853 106.13 15.6832C106.03 15.7812 105.95 15.8979 105.895 16.0267C105.84 16.1555 105.811 16.2939 105.809 16.434V29.8983C105.809 30.1888 105.925 30.4674 106.13 30.6729C106.335 30.8783 106.614 30.9937 106.905 30.9937C107.195 30.9937 107.474 30.8783 107.679 30.6729C107.885 30.4674 108 30.1888 108 29.8983V16.4586C108.002 16.3181 107.975 16.1787 107.923 16.0484C107.871 15.9181 107.793 15.7994 107.695 15.6991C107.596 15.5989 107.479 15.519 107.35 15.4642C107.221 15.4093 107.082 15.3805 106.941 15.3795H106.888Z" fill="white"/>
<path d="M106.888 10.5114C106.604 10.5166 106.332 10.632 106.131 10.8332C105.93 11.0345 105.814 11.3059 105.809 11.5905V12.2812C105.809 12.5718 105.925 12.8504 106.13 13.0558C106.335 13.2613 106.614 13.3767 106.905 13.3767C107.195 13.3767 107.474 13.2613 107.679 13.0558C107.885 12.8504 108 12.5718 108 12.2812V11.5905C107.998 11.4466 107.967 11.3046 107.91 11.1725C107.853 11.0404 107.771 10.9208 107.668 10.8206C107.564 10.7204 107.442 10.6415 107.309 10.5885C107.175 10.5354 107.032 10.5092 106.888 10.5114Z" fill="white"/>
</svg>
