<svg width="72" height="45" viewBox="0 0 72 45" fill="none" xmlns="http://www.w3.org/2000/svg">
<rect x="1" y="1.5" width="70" height="42" rx="21" fill="#008FA4"/>
<rect x="1" y="1.5" width="70" height="42" rx="21" stroke="#008FA4" stroke-width="2"/>
<path d="M35.9991 25.818C39.3541 25.818 42.0831 22.382 42.0831 18.159C42.0831 13.936 39.3541 10.499 35.9991 10.499C35.147 10.5186 34.3111 10.7358 33.5571 11.1333C32.8031 11.5309 32.1517 12.098 31.6541 12.79C30.4971 14.3382 29.8863 16.2265 29.9171 18.159C29.9171 22.382 32.6451 25.818 35.9991 25.818ZM35.9991 11.718C38.6991 11.718 40.9051 14.609 40.9051 18.163C40.9051 21.717 38.7051 24.609 35.9991 24.609C33.2931 24.609 31.0931 21.717 31.0931 18.163C31.0931 14.609 33.2931 11.718 35.9991 11.718Z" fill="white" stroke="white" stroke-width="0.5" stroke-linecap="round"/>
<path d="M41.325 25.473C41.1682 25.4794 41.0198 25.5461 40.9111 25.6594C40.8024 25.7726 40.7417 25.9235 40.7417 26.0805C40.7417 26.2375 40.8024 26.3884 40.9111 26.5016C41.0198 26.6148 41.1682 26.6816 41.325 26.688C42.8023 26.7088 44.2109 27.3147 45.242 28.3728C46.2731 29.4309 46.8424 30.8547 46.825 32.332C46.8274 32.5823 46.7304 32.8233 46.5553 33.0022C46.3802 33.181 46.1413 33.2831 45.891 33.286H26.109C25.8589 33.2828 25.6203 33.1806 25.4454 33.0018C25.2705 32.823 25.1736 32.5821 25.176 32.332C25.1584 30.8546 25.7276 29.4306 26.7587 28.3725C27.7899 27.3144 29.1987 26.7086 30.676 26.688C30.8329 26.6816 30.9812 26.6148 31.0899 26.5016C31.1986 26.3884 31.2594 26.2375 31.2594 26.0805C31.2594 25.9235 31.1986 25.7726 31.0899 25.6594C30.9812 25.5461 30.8329 25.4794 30.676 25.473C28.882 25.4994 27.1717 26.2361 25.9202 27.5218C24.6686 28.8074 23.9781 30.5369 24 32.331C23.9928 32.8981 24.2108 33.4449 24.6061 33.8515C25.0015 34.2581 25.542 34.4913 26.109 34.5H45.888C46.4555 34.4918 46.9966 34.2589 47.3925 33.8522C47.7885 33.4456 48.007 32.8985 48 32.331C48.0219 30.5371 47.3315 28.8077 46.0802 27.5221C44.8289 26.2365 43.1189 25.4996 41.325 25.473Z" fill="white" stroke="white" stroke-width="0.5" stroke-linecap="round"/>
</svg>
