<svg width="41" height="40" viewBox="0 0 41 40" fill="none" xmlns="http://www.w3.org/2000/svg">
<rect x="1.91992" y="1" width="38" height="38" rx="19" stroke="#008FA4" stroke-width="2"/>
<path d="M30.9199 14.9908C30.92 14.5981 30.8428 14.2093 30.6927 13.8465C30.5425 13.4837 30.3224 13.1541 30.0448 12.8763C29.7673 12.5986 29.4377 12.3783 29.075 12.2279C28.7123 12.0776 28.3235 12.0001 27.9309 12H13.9089C13.5163 12.0001 13.1275 12.0776 12.7648 12.2279C12.4021 12.3783 12.0726 12.5986 11.795 12.8763C11.5175 13.1541 11.2973 13.4837 11.1472 13.8465C10.997 14.2093 10.9198 14.5981 10.9199 14.9908V23.0093C10.9198 23.402 10.997 23.7908 11.1472 24.1536C11.2973 24.5164 11.5175 24.846 11.795 25.1237C12.0726 25.4015 12.4021 25.6218 12.7648 25.7722C13.1275 25.9225 13.5163 26 13.9089 26.0001H27.9309C28.3235 26 28.7123 25.9225 29.075 25.7722C29.4377 25.6218 29.7673 25.4015 30.0448 25.1237C30.3224 24.846 30.5425 24.5164 30.6927 24.1536C30.8428 23.7908 30.92 23.402 30.9199 23.0093V14.9908ZM18.9201 22.3837V14.8508L24.6313 18.6133L18.9201 22.3837Z" fill="white"/>
</svg>
