<svg width="40" height="20" viewBox="0 0 40 20" fill="none" xmlns="http://www.w3.org/2000/svg">
<path opacity="0.75" d="M20.7401 19.6992L39.6881 1.72123C39.7855 1.6302 39.8632 1.52012 39.9163 1.39781C39.9694 1.2755 39.9968 1.14358 39.9968 1.01023C39.9968 0.876888 39.9694 0.744967 39.9163 0.622658C39.8632 0.500348 39.7855 0.390262 39.6881 0.299232C39.4844 0.10944 39.2164 0.00390625 38.9381 0.00390625C38.6597 0.00390625 38.3917 0.10944 38.1881 0.299232L19.9881 17.5692L1.81406 0.316232C1.61043 0.12644 1.34242 0.0209063 1.06406 0.0209063C0.785698 0.0209063 0.517689 0.12644 0.31406 0.316232C0.215984 0.407304 0.137756 0.51763 0.084259 0.640312C0.0307617 0.762994 0.00314713 0.895394 0.00314713 1.02923C0.00314713 1.16307 0.0307617 1.29547 0.084259 1.41815C0.137756 1.54083 0.215984 1.65116 0.31406 1.74223L19.2371 19.6992C19.4409 19.8899 19.7095 19.996 19.9886 19.996C20.2676 19.996 20.5363 19.8899 20.7401 19.6992Z" fill="white"/>
</svg>
