<svg width="108" height="45" viewBox="0 0 108 45" fill="none" xmlns="http://www.w3.org/2000/svg">
<path d="M14.9359 2.06249C10.9829 2.05922 7.19008 3.62447 4.38991 6.41468C1.58973 9.20489 0.0109812 12.9921 0.000155358 16.9451C-0.0376178 19.4417 0.585689 21.9039 1.80683 24.0819C1.88858 24.2249 14.0448 42.4756 14.2328 42.6555C14.4222 42.8364 14.674 42.9373 14.9359 42.9373C15.1978 42.9373 15.4496 42.8364 15.6389 42.6555C15.8229 42.4756 27.9832 24.2249 28.0609 24.0819C29.2875 21.9059 29.9125 19.4426 29.8716 16.9451C29.8619 12.9918 28.2835 9.20393 25.4831 6.41348C22.6827 3.62304 18.8892 2.05814 14.9359 2.06249ZM26.4708 22.827C26.3482 23.0396 15.8433 38.7887 14.9359 40.1335C14.0366 38.7887 3.52358 23.0436 3.40096 22.827C2.43964 21.0182 1.95832 18.993 2.00303 16.9451C2.00303 13.5151 3.3656 10.2256 5.79098 7.80017C8.21636 5.37479 11.5059 4.01223 14.9359 4.01223C18.3659 4.01223 21.6554 5.37479 24.0808 7.80017C26.5062 10.2256 27.8688 13.5151 27.8688 16.9451C27.9129 18.993 27.4316 21.018 26.4708 22.827Z" fill="white"/>
<path fill-rule="evenodd" clip-rule="evenodd" d="M20.6132 9.01124C20.3542 9.01219 20.1058 9.1138 19.9205 9.29459C19.7351 9.47537 19.6273 9.72116 19.6199 9.97998V24.7154C19.6045 24.9764 19.693 25.233 19.8662 25.4289C20.0393 25.6248 20.283 25.7442 20.544 25.7609C20.8049 25.7777 21.0619 25.6904 21.2587 25.5183C21.4555 25.3461 21.5761 25.103 21.5942 24.8421C21.5982 24.8 21.5982 24.7576 21.5942 24.7154V10.0004C21.5942 9.73948 21.4911 9.48911 21.3073 9.30384C21.1236 9.11856 20.8741 9.01339 20.6132 9.01124Z" fill="#048EA4" stroke="black" stroke-width="0.11445" stroke-miterlimit="133.33"/>
<path fill-rule="evenodd" clip-rule="evenodd" d="M9.2539 19.7777C8.99264 19.7777 8.74208 19.8815 8.55734 20.0663C8.3726 20.251 8.26881 20.5016 8.26881 20.7628V24.7154C8.25339 24.9765 8.34194 25.233 8.51511 25.4289C8.68827 25.6248 8.93197 25.7442 9.19291 25.7609C9.45385 25.7777 9.71081 25.6904 9.9076 25.5183C10.1044 25.3461 10.225 25.103 10.2431 24.8421C10.2472 24.8 10.2472 24.7576 10.2431 24.7154V20.7628C10.2436 20.6333 10.2185 20.505 10.1692 20.3852C10.1199 20.2654 10.0473 20.1566 9.95576 20.065C9.86418 19.9735 9.75537 19.9009 9.63561 19.8516C9.51585 19.8023 9.38751 19.7772 9.25799 19.7777H9.2539Z" fill="#048EA4" stroke="black" stroke-width="0.11445" stroke-miterlimit="133.33"/>
<path fill-rule="evenodd" clip-rule="evenodd" d="M13.0434 16.2952C12.914 16.2946 12.7858 16.3196 12.6661 16.3686C12.5464 16.4176 12.4375 16.4897 12.3456 16.5808C12.2538 16.6719 12.1807 16.7802 12.1307 16.8995C12.0807 17.0188 12.0547 17.1468 12.0542 17.2762V24.7154C12.0542 24.8453 12.0798 24.974 12.1295 25.094C12.1792 25.214 12.2521 25.323 12.3439 25.4149C12.4358 25.5067 12.5448 25.5796 12.6648 25.6293C12.7848 25.679 12.9135 25.7046 13.0434 25.7046C13.1733 25.7046 13.3019 25.679 13.4219 25.6293C13.5419 25.5796 13.651 25.5067 13.7428 25.4149C13.8347 25.323 13.9075 25.214 13.9573 25.094C14.007 24.974 14.0326 24.8453 14.0326 24.7154V17.2803C14.0326 17.1506 14.0069 17.0221 13.9572 16.9023C13.9074 16.7826 13.8345 16.6738 13.7426 16.5822C13.6507 16.4907 13.5416 16.4182 13.4216 16.369C13.3016 16.3197 13.1731 16.2946 13.0434 16.2952Z" fill="#048EA4" stroke="black" stroke-width="0.11445" stroke-miterlimit="133.33"/>
<path fill-rule="evenodd" clip-rule="evenodd" d="M16.8283 12.5428C16.6984 12.5428 16.5698 12.5684 16.4498 12.6181C16.3297 12.6679 16.2207 12.7407 16.1288 12.8326C16.037 12.9244 15.9641 13.0335 15.9144 13.1535C15.8647 13.2735 15.8391 13.4021 15.8391 13.532V24.7154C15.8237 24.9764 15.9123 25.233 16.0854 25.4289C16.2586 25.6248 16.5023 25.7442 16.7632 25.7609C17.0242 25.7777 17.2811 25.6904 17.4779 25.5183C17.6747 25.3461 17.7953 25.103 17.8134 24.8421C17.8175 24.8 17.8175 24.7576 17.8134 24.7154V13.532C17.8145 13.4025 17.7899 13.2741 17.7411 13.1541C17.6923 13.0341 17.6202 12.925 17.529 12.8331C17.4378 12.7411 17.3293 12.6681 17.2097 12.6183C17.0901 12.5685 16.9619 12.5428 16.8324 12.5428H16.8283Z" fill="#048EA4" stroke="black" stroke-width="0.11445" stroke-miterlimit="133.33"/>
<path d="M55.9989 9.01124C55.7143 9.01648 55.4429 9.13185 55.2416 9.3331C55.0404 9.53435 54.925 9.80578 54.9198 10.0903V22.0218C54.8764 23.7877 54.1444 25.4666 52.8801 26.7002C51.6158 27.9338 49.9193 28.6243 48.1529 28.6243C46.3865 28.6243 44.69 27.9338 43.4257 26.7002C42.1614 25.4666 41.4294 23.7877 41.386 22.0218V10.0699C41.369 9.79147 41.2464 9.53002 41.0432 9.33889C40.84 9.14776 40.5716 9.04134 40.2926 9.04134C40.0137 9.04134 39.7452 9.14776 39.542 9.33889C39.3389 9.53002 39.2163 9.79147 39.1992 10.0699V22.0218C39.1992 24.397 40.1428 26.6749 41.8223 28.3544C43.5018 30.0339 45.7797 30.9775 48.1549 30.9775C50.5301 30.9775 52.8081 30.0339 54.4876 28.3544C56.1671 26.6749 57.1107 24.397 57.1107 22.0218V10.0699C57.101 9.78294 56.9792 9.51123 56.7712 9.31323C56.5633 9.11524 56.2859 9.00679 55.9989 9.01124Z" fill="white"/>
<path d="M68.8991 15.3796C67.8942 15.3776 66.8996 15.5815 65.9766 15.9787C65.0535 16.3759 64.2217 16.958 63.5322 17.689V10.0699C63.5322 9.77937 63.4168 9.50074 63.2114 9.2953C63.0059 9.08987 62.7273 8.97445 62.4368 8.97445C62.1462 8.97445 61.8676 9.08987 61.6622 9.2953C61.4567 9.50074 61.3413 9.77937 61.3413 10.0699V29.8984C61.3413 30.1889 61.4567 30.4675 61.6622 30.673C61.8676 30.8784 62.1462 30.9938 62.4368 30.9938C62.7273 30.9938 63.0059 30.8784 63.2114 30.673C63.4168 30.4675 63.5322 30.1889 63.5322 29.8984V28.6967C64.2254 29.4208 65.0587 29.9964 65.9813 30.3885C66.9039 30.7806 67.8966 30.981 68.8991 30.9775C70.9307 30.9484 72.8678 30.1142 74.2848 28.6581C75.7019 27.2019 76.4831 25.2429 76.4569 23.2112C76.4569 18.8907 73.0684 15.3796 68.8991 15.3796ZM74.266 23.2071C74.3078 24.623 73.7885 25.9981 72.8213 27.0329C71.8541 28.0678 70.5172 28.6787 69.1017 28.7326C67.6863 28.7865 66.3068 28.279 65.2637 27.3207C64.2206 26.3624 63.5982 25.0308 63.5322 23.6159C63.5322 23.4728 63.5322 23.3339 63.5322 23.2071V22.9782C63.6467 19.9453 65.9847 17.5664 68.8991 17.5664C71.8135 17.5664 74.266 20.1006 74.266 23.2071Z" fill="white"/>
<path d="M81.6763 15.3796C81.5362 15.3779 81.3971 15.4039 81.2671 15.4561C81.137 15.5082 81.0185 15.5854 80.9183 15.6833C80.8181 15.7813 80.7382 15.898 80.6831 16.0268C80.628 16.1556 80.5988 16.294 80.5972 16.4341V29.8984C80.5972 30.1889 80.7126 30.4675 80.918 30.673C81.1235 30.8784 81.4021 30.9938 81.6926 30.9938C81.9832 30.9938 82.2618 30.8784 82.4672 30.673C82.6727 30.4675 82.7881 30.1889 82.7881 29.8984V16.4587C82.7914 16.1785 82.6844 15.9083 82.4901 15.7064C82.2958 15.5044 82.0299 15.3871 81.7498 15.3796H81.6763Z" fill="white"/>
<path d="M81.6763 10.5114C81.3917 10.5166 81.1203 10.632 80.919 10.8332C80.7178 11.0345 80.6024 11.3059 80.5972 11.5905V12.2812C80.5972 12.5718 80.7126 12.8504 80.918 13.0558C81.1235 13.2613 81.4021 13.3767 81.6926 13.3767C81.9832 13.3767 82.2618 13.2613 82.4672 13.0558C82.6727 12.8504 82.7881 12.5718 82.7881 12.2812V11.5905C82.7859 11.4466 82.7555 11.3046 82.6985 11.1725C82.6414 11.0404 82.5589 10.9208 82.4557 10.8206C82.3525 10.7204 82.2305 10.6415 82.0967 10.5885C81.963 10.5354 81.8201 10.5092 81.6763 10.5114Z" fill="white"/>
<path d="M100.622 15.3796C100.332 15.3763 100.052 15.4879 99.8437 15.69C99.6354 15.8922 99.5155 16.1685 99.5102 16.4587V17.6849C98.8437 16.9671 98.0369 16.3938 97.1396 16.0008C96.2424 15.6077 95.274 15.4032 94.2945 15.4C90.2438 15.4 86.937 18.8703 86.937 23.1377C86.937 27.405 90.2315 30.9039 94.2945 30.9039C95.2733 30.9035 96.2416 30.7015 97.1389 30.3105C98.0362 29.9195 98.8434 29.3478 99.5102 28.6313V29.4488C99.5211 30.8108 98.9915 32.1216 98.0376 33.0939C97.0837 34.0662 95.7832 34.6207 94.4212 34.6358H94.3068C93.5261 34.6472 92.7536 34.4764 92.0505 34.1371C91.9288 34.064 91.7931 34.0175 91.6522 34.0006C91.5113 33.9837 91.3684 33.9968 91.233 34.039C91.0932 34.0833 90.9643 34.1564 90.8544 34.2536C90.7446 34.3507 90.6564 34.4698 90.5953 34.6031C90.48 34.8621 90.4641 35.1546 90.5509 35.4245C90.6376 35.6945 90.8208 35.923 91.0654 36.0664C92.0785 36.5353 93.1784 36.7873 94.2945 36.8063C95.2607 36.8063 96.2175 36.616 97.1101 36.2462C98.0028 35.8765 98.8139 35.3345 99.4971 34.6513C100.18 33.9681 100.722 33.157 101.092 32.2643C101.462 31.3717 101.652 30.415 101.652 29.4488V16.4587C101.653 16.1805 101.547 15.9126 101.355 15.7114C101.163 15.5101 100.9 15.3912 100.622 15.3796ZM99.5102 23.1172C99.5102 26.2278 97.1721 28.758 94.2945 28.758C91.4169 28.758 89.1075 26.2278 89.1075 23.1172C89.1075 20.0066 91.4333 17.5378 94.2904 17.5378C97.1476 17.5378 99.5102 20.0475 99.5102 23.1172Z" fill="white"/>
<path d="M106.888 15.3796C106.748 15.3779 106.609 15.4039 106.479 15.4561C106.349 15.5082 106.23 15.5854 106.13 15.6833C106.03 15.7813 105.95 15.898 105.895 16.0268C105.84 16.1556 105.811 16.294 105.809 16.4341V29.8984C105.809 30.1889 105.925 30.4675 106.13 30.673C106.335 30.8784 106.614 30.9938 106.905 30.9938C107.195 30.9938 107.474 30.8784 107.679 30.673C107.885 30.4675 108 30.1889 108 29.8984V16.4587C108.002 16.3182 107.975 16.1788 107.923 16.0485C107.871 15.9182 107.793 15.7995 107.695 15.6993C107.596 15.599 107.479 15.5191 107.35 15.4643C107.221 15.4094 107.082 15.3806 106.941 15.3796H106.888Z" fill="white"/>
<path d="M106.888 10.5114C106.604 10.5166 106.332 10.632 106.131 10.8332C105.93 11.0345 105.814 11.3059 105.809 11.5905V12.2812C105.809 12.5718 105.925 12.8504 106.13 13.0558C106.335 13.2613 106.614 13.3767 106.905 13.3767C107.195 13.3767 107.474 13.2613 107.679 13.0558C107.885 12.8504 108 12.5718 108 12.2812V11.5905C107.998 11.4466 107.967 11.3046 107.91 11.1725C107.853 11.0404 107.771 10.9208 107.668 10.8206C107.564 10.7204 107.442 10.6415 107.309 10.5885C107.175 10.5354 107.032 10.5092 106.888 10.5114Z" fill="white"/>
</svg>
