<svg width="41" height="40" viewBox="0 0 41 40" fill="none" xmlns="http://www.w3.org/2000/svg">
<rect x="1.91992" y="1" width="38" height="38" rx="19" stroke="#008FA4" stroke-width="2"/>
<path d="M20.9244 12.4411C23.0597 12.4411 23.309 12.4491 24.1566 12.4878C24.6639 12.4938 25.1663 12.5869 25.6421 12.7631C25.9863 12.8967 26.2989 13.1008 26.5597 13.3623C26.8205 13.6238 27.0237 13.937 27.1563 14.2817C27.3326 14.7576 27.4257 15.2601 27.4316 15.7675C27.4703 16.6113 27.4783 16.8608 27.4783 19.0005C27.4783 21.1403 27.4703 21.3858 27.4316 22.2335C27.4256 22.7409 27.3325 23.2435 27.1563 23.7193C27.0231 24.0631 26.8196 24.3753 26.5589 24.636C26.2981 24.8966 25.9859 25.0999 25.6421 25.233C25.1663 25.4092 24.6639 25.5024 24.1566 25.5083C23.313 25.547 23.0636 25.555 20.9244 25.555C18.7851 25.555 18.5397 25.547 17.6921 25.5083C17.1852 25.5022 16.6831 25.4091 16.2077 25.233C15.8627 25.0999 15.5493 24.896 15.2878 24.6344C15.0263 24.3729 14.8225 24.0595 14.6894 23.7144C14.5132 23.2385 14.4201 22.7359 14.4142 22.2286C14.3755 21.3848 14.3675 21.1353 14.3675 18.9956C14.3675 16.8558 14.3755 16.6103 14.4142 15.7626C14.4201 15.2552 14.5132 14.7526 14.6894 14.2768C14.8231 13.9326 15.0272 13.6201 15.2886 13.3595C15.5501 13.0988 15.8631 12.8957 16.2077 12.7631C16.6834 12.5869 17.1859 12.4937 17.6931 12.4878C18.5367 12.4491 18.7851 12.4411 20.9244 12.4411ZM20.9254 11C18.7533 11 18.4811 11.009 17.6276 11.0477C16.9641 11.0607 16.3076 11.186 15.686 11.4184C15.1542 11.624 14.6713 11.9385 14.2682 12.3417C13.865 12.745 13.5506 13.228 13.3451 13.76C13.113 14.3817 12.9881 15.0384 12.9754 15.7019C12.9367 16.5547 12.9268 16.828 12.9268 19.0005C12.9268 21.1731 12.9357 21.4454 12.9754 22.2991C12.9883 22.962 13.1132 23.618 13.3451 24.2391C13.5506 24.7705 13.8648 25.2531 14.2675 25.656C14.6703 26.0588 15.1528 26.3731 15.684 26.5786C16.3056 26.8114 16.962 26.9371 17.6256 26.9503C18.4791 26.9891 18.7513 26.998 20.9234 26.998C23.0954 26.998 23.3677 26.9891 24.2212 26.9503C24.8847 26.9371 25.5412 26.8114 26.1627 26.5786C26.6942 26.3732 27.1768 26.059 27.5798 25.6561C27.9827 25.2532 28.2971 24.7706 28.5027 24.2391C28.7354 23.6175 28.8611 22.9608 28.8743 22.2971C28.913 21.4434 28.922 21.1711 28.922 18.9985C28.922 16.826 28.913 16.5537 28.8743 15.7C28.8611 15.0363 28.7354 14.3796 28.5027 13.758C28.297 13.2265 27.9827 12.7439 27.5797 12.341C27.1768 11.9382 26.6941 11.6239 26.1627 11.4184C25.5412 11.1857 24.8847 11.06 24.2212 11.0467C23.3687 11.008 23.0954 10.998 20.9234 10.998L20.9254 11Z" fill="white"/>
<path d="M20.9242 14.8921C20.112 14.8921 19.3181 15.133 18.6427 15.5843C17.9674 16.0357 17.441 16.6772 17.1302 17.4278C16.8194 18.1783 16.7381 19.0042 16.8965 19.801C17.055 20.5978 17.4461 21.3297 18.0204 21.9042C18.5947 22.4786 19.3265 22.8698 20.1231 23.0283C20.9197 23.1868 21.7454 23.1055 22.4958 22.7946C23.2462 22.4837 23.8875 21.9572 24.3388 21.2817C24.79 20.6062 25.0309 19.8121 25.0309 18.9997C25.0309 17.9103 24.5982 16.8655 23.8281 16.0952C23.0579 15.3248 22.0134 14.8921 20.9242 14.8921ZM20.9242 21.6672C20.397 21.6672 19.8816 21.5108 19.4432 21.2178C19.0048 20.9248 18.6631 20.5083 18.4613 20.0211C18.2595 19.5339 18.2067 18.9977 18.3096 18.4805C18.4125 17.9632 18.6664 17.4881 19.0392 17.1152C19.412 16.7422 19.887 16.4883 20.4042 16.3854C20.9213 16.2825 21.4573 16.3353 21.9444 16.5371C22.4315 16.739 22.8479 17.0807 23.1408 17.5192C23.4338 17.9577 23.5901 18.4733 23.5901 19.0007C23.5901 19.7079 23.3092 20.3861 22.8093 20.8862C22.3093 21.3862 21.6313 21.6672 20.9242 21.6672Z" fill="white"/>
<path d="M25.1942 15.6901C25.7244 15.6901 26.1543 15.2603 26.1543 14.7301C26.1543 14.1999 25.7244 13.77 25.1942 13.77C24.664 13.77 24.2341 14.1999 24.2341 14.7301C24.2341 15.2603 24.664 15.6901 25.1942 15.6901Z" fill="white"/>
</svg>
