<svg width="28" height="28" viewBox="0 0 28 28" fill="none" xmlns="http://www.w3.org/2000/svg">
<path d="M27.933 26.916L22.181 13.852C22.0945 13.7255 21.9787 13.6219 21.8434 13.55C21.708 13.4782 21.5573 13.4403 21.4041 13.4395C21.2509 13.4387 21.0998 13.4751 20.9637 13.5455C20.8277 13.616 20.7108 13.7184 20.623 13.844L14.869 26.914C14.8281 26.9987 14.8053 27.091 14.802 27.185C14.7987 27.279 14.8151 27.3726 14.85 27.46C14.8936 27.5662 14.9579 27.6627 15.0391 27.7439C15.1203 27.8251 15.2168 27.8893 15.323 27.933C15.4221 27.9748 15.5285 27.9962 15.636 27.996C15.8018 27.9964 15.9644 27.9506 16.1056 27.8639C16.2469 27.7772 16.3613 27.6529 16.436 27.505L17.448 25.167C17.4644 25.1292 17.4915 25.097 17.526 25.0744C17.5605 25.0519 17.6008 25.0399 17.642 25.04H25.163C25.2042 25.04 25.2444 25.0521 25.2789 25.0746C25.3133 25.0972 25.3405 25.1293 25.357 25.167L26.374 27.516C26.4426 27.6638 26.5528 27.7884 26.6912 27.8743C26.8296 27.9603 26.9901 28.004 27.153 28C27.2696 27.9986 27.3849 27.9742 27.492 27.928C27.701 27.8384 27.8666 27.6703 27.953 27.46C27.9874 27.3753 28.0041 27.2846 28.002 27.1932C28 27.1019 27.9792 27.012 27.941 26.929L27.933 26.916ZM24.47 23.368C24.4512 23.3981 24.4252 23.4231 24.3943 23.4406C24.3633 23.4581 24.3285 23.4675 24.293 23.468H18.509C18.4734 23.4683 18.4383 23.4595 18.407 23.4426C18.3757 23.4257 18.3491 23.4011 18.3299 23.3712C18.3106 23.3412 18.2992 23.3069 18.2968 23.2713C18.2944 23.2358 18.301 23.2003 18.316 23.168L21.208 16.647C21.2244 16.6093 21.2514 16.5772 21.2858 16.5547C21.3202 16.5321 21.3604 16.5201 21.4015 16.5201C21.4426 16.5201 21.4828 16.5321 21.5172 16.5547C21.5516 16.5772 21.5786 16.6093 21.595 16.647L24.487 23.168C24.5011 23.2003 24.5069 23.2355 24.5039 23.2706C24.501 23.3057 24.4893 23.3395 24.47 23.369V23.368Z" fill="white"/>
<path d="M16.798 3.46879H17.798C19.0076 3.46719 20.1685 3.94542 21.0259 4.79859C21.8834 5.65175 22.3675 6.81019 22.372 8.01979V9.19679L21.072 7.89679C21.0291 7.84774 20.9762 7.80843 20.9169 7.7815C20.8575 7.75457 20.7931 7.74064 20.728 7.74064C20.6628 7.74064 20.5984 7.75457 20.5391 7.7815C20.4798 7.80843 20.4269 7.84774 20.384 7.89679C20.2902 7.99055 20.2376 8.1177 20.2376 8.25029C20.2376 8.38287 20.2902 8.51002 20.384 8.60379L22.534 10.7428C22.6338 10.8272 22.7603 10.8735 22.891 10.8735C23.0217 10.8735 23.1482 10.8272 23.248 10.7428L25.393 8.60879C25.4867 8.51463 25.5392 8.38709 25.539 8.25423C25.5387 8.12136 25.4856 7.99404 25.3915 7.90029C25.2973 7.80653 25.1698 7.75402 25.0369 7.7543C24.904 7.75458 24.7767 7.80764 24.683 7.90179L23.383 9.20179V8.01679C23.3804 7.28559 23.2337 6.56206 22.9515 5.88752C22.6693 5.21298 22.2569 4.60064 21.738 4.08546C21.2191 3.57028 20.6038 3.16235 19.9273 2.88496C19.2507 2.60757 18.5262 2.46616 17.795 2.46879H16.776C16.7101 2.46798 16.6447 2.48037 16.5837 2.50521C16.5227 2.53005 16.4672 2.56685 16.4206 2.61344C16.374 2.66003 16.3372 2.71547 16.3124 2.7765C16.2876 2.83752 16.2752 2.9029 16.276 2.96879C16.2807 3.10372 16.3379 3.23149 16.4354 3.32489C16.5329 3.41828 16.663 3.46991 16.798 3.46879Z" fill="white" stroke="white" stroke-width="0.25"/>
<path d="M11.203 24.534H10.203C8.99339 24.5356 7.83253 24.0574 6.97505 23.2042C6.11758 22.3511 5.6335 21.1926 5.629 19.983V18.805L6.929 20.105C6.97189 20.1541 7.02478 20.1934 7.08411 20.2203C7.14344 20.2473 7.20784 20.2612 7.273 20.2612C7.33815 20.2612 7.40256 20.2473 7.46189 20.2203C7.52122 20.1934 7.5741 20.1541 7.617 20.105C7.71073 20.0113 7.76339 19.8841 7.76339 19.7515C7.76339 19.6189 7.71073 19.4918 7.617 19.398L5.467 17.259C5.36711 17.1744 5.24043 17.1279 5.1095 17.1279C4.97857 17.1279 4.85189 17.1744 4.752 17.259L2.607 19.393C2.51338 19.4872 2.46099 19.6147 2.46137 19.7475C2.46174 19.8802 2.51485 20.0074 2.609 20.101C2.70315 20.1946 2.83064 20.247 2.96341 20.2467C3.09619 20.2463 3.22338 20.1932 3.317 20.099L4.617 18.799V19.976C4.62229 21.4505 5.21222 22.8627 6.25736 23.9028C7.3025 24.9428 8.71752 25.5259 10.192 25.524H11.211C11.2769 25.5248 11.3423 25.5125 11.4033 25.4876C11.4643 25.4628 11.5198 25.426 11.5663 25.3794C11.6129 25.3328 11.6497 25.2774 11.6746 25.2163C11.6994 25.1553 11.7118 25.0899 11.711 25.024C11.7039 24.8933 11.6476 24.77 11.5534 24.6791C11.4591 24.5882 11.3339 24.5364 11.203 24.534Z" fill="white" stroke="white" stroke-width="0.25"/>
<path d="M11.967 7.222C11.3492 6.52821 10.5282 6.04704 9.62102 5.847C9.52424 5.82186 9.44064 5.76087 9.38716 5.67638C9.33368 5.59189 9.31433 5.49023 9.33302 5.392C9.3384 5.34391 9.32543 5.29555 9.29669 5.25661C9.26795 5.21768 9.22556 5.19103 9.17802 5.182L8.12102 4.925C8.05978 4.91034 7.99525 4.92002 7.94102 4.952C7.91852 4.96529 7.89901 4.98306 7.8837 5.00423C7.86838 5.02539 7.8576 5.04948 7.85202 5.075C7.84002 5.136 7.82802 5.197 7.81502 5.258C7.79661 5.34675 7.74817 5.42645 7.67786 5.48365C7.60754 5.54084 7.51966 5.57205 7.42902 5.572H7.30002C6.77733 5.57521 6.25608 5.6271 5.74302 5.727C5.68596 5.73807 5.62717 5.73637 5.57085 5.72204C5.51453 5.70771 5.46208 5.68109 5.41725 5.6441C5.37243 5.60712 5.33634 5.56067 5.31158 5.50809C5.28681 5.45552 5.27399 5.39812 5.27402 5.34C5.27402 4.83 5.28202 4.24 5.29302 3.753C5.2955 3.65263 5.33622 3.55699 5.40684 3.48562C5.47747 3.41425 5.57267 3.37254 5.67302 3.369C7.56079 3.33779 9.44308 3.15621 11.302 2.826C11.3484 2.81797 11.3901 2.79312 11.4193 2.75621C11.4484 2.71931 11.4629 2.67294 11.46 2.626L11.326 1.66C11.3217 1.63376 11.3117 1.60875 11.2969 1.58667C11.2821 1.56459 11.2627 1.54595 11.24 1.532C11.202 1.50811 11.1579 1.49562 11.113 1.496C11.0935 1.496 11.074 1.49835 11.055 1.503C9.3246 1.83156 7.57067 2.02116 5.81002 2.07H5.80002C5.74619 2.06997 5.69294 2.05892 5.64355 2.03751C5.59415 2.0161 5.54967 1.98481 5.51285 1.94554C5.47602 1.90628 5.44763 1.85989 5.42943 1.80923C5.41123 1.75857 5.4036 1.70472 5.40702 1.651L5.42202 1.412C5.43902 1.148 5.45802 0.849002 5.48002 0.587002C5.48119 0.545045 5.46836 0.503892 5.44355 0.470032C5.41875 0.436173 5.38338 0.411534 5.34302 0.400002L4.24102 0.0130024C4.2156 0.00427635 4.18889 -0.000118118 4.16202 2.41371e-06C4.11746 -0.000132501 4.07378 0.0123487 4.03602 0.0360024C4.01074 0.0511277 3.98946 0.0721012 3.97397 0.0971595C3.95849 0.122218 3.94924 0.150628 3.94702 0.180002C3.92302 0.734002 3.90002 1.272 3.88802 1.736C3.88464 1.83823 3.84165 1.93514 3.76812 2.00624C3.69459 2.07734 3.5963 2.11706 3.49402 2.117C2.52202 2.117 1.43002 2.117 0.764017 2.075H0.750017C0.69459 2.0762 0.641406 2.09712 0.600017 2.134C0.5814 2.15073 0.566589 2.17126 0.556584 2.19421C0.546578 2.21715 0.541611 2.24198 0.542017 2.267L0.572017 3.205C0.576758 3.25469 0.599905 3.3008 0.636911 3.33429C0.673917 3.36778 0.722107 3.38623 0.772017 3.386C1.22602 3.412 1.45102 3.415 3.44802 3.415C3.50027 3.415 3.552 3.42538 3.60019 3.44556C3.64839 3.46573 3.69209 3.49529 3.72876 3.53252C3.76543 3.56974 3.79432 3.61388 3.81377 3.66238C3.83321 3.71088 3.84281 3.76276 3.84202 3.815C3.84202 4.432 3.84202 5.329 3.85202 6C3.85364 6.07835 3.83186 6.15541 3.78947 6.22131C3.74707 6.28722 3.68599 6.33899 3.61402 6.37C1.34902 7.338 1.71643e-05 8.97 1.71643e-05 10.734C-0.0228329 11.0074 0.0131845 11.2824 0.105641 11.5407C0.198098 11.7989 0.344846 12.0344 0.535992 12.2311C0.727139 12.4278 0.958241 12.5813 1.21372 12.6812C1.4692 12.781 1.74312 12.825 2.01702 12.81C2.85463 12.78 3.66931 12.5285 4.37802 12.081C4.42253 12.0549 4.47176 12.0377 4.52289 12.0306C4.57403 12.0235 4.62606 12.0265 4.67602 12.0395C4.72598 12.0525 4.77289 12.0753 4.81407 12.1064C4.85525 12.1375 4.88989 12.1765 4.91602 12.221C4.94502 12.27 4.97402 12.321 5.00402 12.36C5.02529 12.3895 5.05343 12.4134 5.08602 12.4296C5.1186 12.4458 5.15464 12.4539 5.19102 12.453C5.23285 12.4533 5.27398 12.4422 5.31002 12.421L6.18902 11.895C6.21095 11.8822 6.23011 11.8652 6.24539 11.845C6.26067 11.8247 6.27177 11.8016 6.27802 11.777C6.28301 11.7542 6.28319 11.7306 6.27854 11.7077C6.2739 11.6848 6.26452 11.6631 6.25102 11.644C6.17631 11.5342 6.10948 11.4192 6.05102 11.3C6.01287 11.2242 6.00024 11.138 6.01501 11.0544C6.02979 10.9708 6.07118 10.8942 6.13302 10.836C7.19454 9.83094 8.05192 8.63028 8.65802 7.3C8.69608 7.21565 8.76268 7.14744 8.8461 7.10738C8.92951 7.06732 9.02439 7.05798 9.11402 7.081C9.69911 7.16327 10.236 7.45059 10.629 7.89177C11.022 8.33295 11.2456 8.89933 11.26 9.49C11.26 9.496 11.26 9.502 11.26 9.508V9.608C11.2331 10.079 11.1027 10.5383 10.878 10.9532C10.6533 11.368 10.3399 11.7282 9.96002 12.008C8.92738 12.7933 7.68493 13.2544 6.39002 13.333C6.35501 13.3353 6.3211 13.3462 6.29128 13.3647C6.26146 13.3831 6.23665 13.4087 6.21902 13.439C6.20422 13.4638 6.19641 13.4921 6.19641 13.521C6.19641 13.5499 6.20422 13.5782 6.21902 13.603C6.37083 13.8631 6.49997 14.1358 6.60502 14.418C6.62034 14.4603 6.64858 14.4966 6.68574 14.5219C6.72289 14.5473 6.76708 14.5602 6.81202 14.559H6.83502C8.51577 14.4537 10.1143 13.7947 11.381 12.685C11.8121 12.29 12.1585 11.8115 12.3991 11.2787C12.6398 10.7458 12.7697 10.1696 12.781 9.585C12.8036 8.72493 12.5145 7.88568 11.967 7.222ZM4.09102 10.755C3.55316 11.1693 2.90896 11.4227 2.23302 11.486H2.18602C2.00772 11.4947 1.83271 11.4358 1.69602 11.321C1.60428 11.2213 1.53432 11.1035 1.49059 10.9752C1.44685 10.847 1.43031 10.711 1.44202 10.576C1.50703 10.0062 1.71826 9.46279 2.0552 8.99864C2.39213 8.5345 2.84334 8.16534 3.36502 7.927C3.42261 7.89325 3.48784 7.87468 3.55457 7.87305C3.62131 7.87141 3.68736 7.88676 3.74654 7.91764C3.80572 7.94853 3.85608 7.99395 3.8929 8.04964C3.92971 8.10533 3.95178 8.16945 3.95702 8.236C4.00478 8.9451 4.10303 9.64988 4.25102 10.345C4.26817 10.4215 4.2621 10.5014 4.2336 10.5744C4.2051 10.6475 4.15545 10.7103 4.09102 10.755ZM7.02202 7.455C6.76364 7.95312 6.46003 8.42645 6.11502 8.869C6.06688 8.9299 6.00183 8.97522 5.92803 8.99928C5.85423 9.02334 5.77496 9.02506 5.70019 9.00423C5.62541 8.9834 5.55845 8.94094 5.50772 8.88219C5.45698 8.82344 5.42473 8.75102 5.41502 8.674C5.37002 8.304 5.33802 7.892 5.31502 7.451C5.31102 7.35991 5.33873 7.27026 5.39344 7.19732C5.44814 7.12438 5.52645 7.07267 5.61502 7.051C5.9509 6.9686 6.29254 6.91177 6.63702 6.881H6.67302C6.7405 6.88108 6.80683 6.8985 6.86564 6.93157C6.92446 6.96464 6.9738 7.01227 7.00893 7.06988C7.04406 7.1275 7.06381 7.19317 7.06627 7.2606C7.06874 7.32804 7.05285 7.39498 7.02202 7.455Z" fill="white"/>
</svg>
