<svg width="232" height="88" viewBox="0 0 232 88" fill="none" xmlns="http://www.w3.org/2000/svg">
<path d="M32.2137 6.85678e-06C23.7367 -0.00496209 15.6038 3.35268 9.59914 9.33636C3.5945 15.32 0.208453 23.4411 0.183789 31.9181C0.0955011 37.2752 1.43394 42.5594 4.06179 47.2285C4.23273 47.5353 30.3081 86.6769 30.7048 87.0648C31.1122 87.4521 31.6527 87.668 32.2148 87.668C32.7769 87.668 33.3174 87.4521 33.7248 87.0648C34.1204 86.6769 60.1958 47.5386 60.3678 47.2318C62.9946 42.5635 64.333 37.2806 64.2458 31.9247C64.2229 23.4462 60.8373 15.3231 54.832 9.33791C48.8267 3.35275 40.6922 -0.00553855 32.2137 6.85678e-06ZM56.9522 44.5307C56.6892 44.9909 34.1412 78.7631 32.2148 81.6461C30.2906 78.7631 7.74473 45.0008 7.47626 44.534C5.41444 40.6542 4.38148 36.3107 4.47599 31.9181C4.47599 24.5614 7.39847 17.5059 12.6005 12.3039C17.8025 7.10182 24.858 4.17935 32.2148 4.17935C39.5716 4.17935 46.627 7.10182 51.8291 12.3039C57.0311 17.5059 59.9536 24.5614 59.9536 31.9181C60.0488 36.3099 59.0154 40.6526 56.9522 44.5307Z" fill="white"/>
<path d="M44.3922 14.8613C43.8304 14.8622 43.2919 15.0858 42.8946 15.483C42.4974 15.8803 42.2738 16.4188 42.2729 16.9806V48.5798C42.2729 49.1416 42.4961 49.6804 42.8933 50.0776C43.2906 50.4748 43.8293 50.698 44.3911 50.698C44.9529 50.698 45.4916 50.4748 45.8889 50.0776C46.2861 49.6804 46.5093 49.1416 46.5093 48.5798V16.9806C46.509 16.419 46.2859 15.8805 45.889 15.4831C45.4921 15.0858 44.9538 14.8622 44.3922 14.8613Z" fill="#007D93"/>
<path d="M20.0341 37.9883C19.4727 37.9886 18.9343 38.2117 18.5374 38.6087C18.1404 39.0056 17.9173 39.544 17.917 40.1053V48.5791C17.917 49.1416 18.1404 49.681 18.5382 50.0788C18.9359 50.4765 19.4754 50.7 20.0379 50.7C20.6004 50.7 21.1398 50.4765 21.5376 50.0788C21.9353 49.681 22.1588 49.1416 22.1588 48.5791V40.1053C22.1579 39.5438 21.9343 39.0054 21.537 38.6085C21.1397 38.2116 20.6011 37.9886 20.0395 37.9883" fill="#007D93"/>
<path d="M28.1547 30.5195C27.5933 30.5198 27.055 30.743 26.658 31.1399C26.261 31.5369 26.0379 32.0752 26.0376 32.6366V48.5836C26.0376 48.8618 26.0924 49.1372 26.1988 49.3942C26.3053 49.6512 26.4613 49.8847 26.658 50.0814C26.8547 50.2781 27.0882 50.4341 27.3452 50.5405C27.6022 50.647 27.8776 50.7018 28.1558 50.7018C28.4339 50.7018 28.7094 50.647 28.9663 50.5405C29.2233 50.4341 29.4568 50.2781 29.6535 50.0814C29.8502 49.8847 30.0062 49.6512 30.1127 49.3942C30.2191 49.1372 30.2739 48.8618 30.2739 48.5836V32.6366C30.273 32.075 30.0494 31.5367 29.6521 31.1398C29.2548 30.7429 28.7163 30.5198 28.1547 30.5195Z" fill="#007D93"/>
<path d="M36.2745 22.4746C35.7127 22.4755 35.1742 22.699 34.777 23.0963C34.3797 23.4935 34.1561 24.0321 34.1553 24.5939V48.5796C34.1553 49.1414 34.3784 49.6801 34.7757 50.0774C35.1729 50.4746 35.7117 50.6977 36.2734 50.6977C36.8352 50.6977 37.374 50.4746 37.7712 50.0774C38.1684 49.6801 38.3916 49.1414 38.3916 48.5796V24.5939C38.3913 24.0323 38.1682 23.4937 37.7713 23.0964C37.3744 22.6991 36.8361 22.4755 36.2745 22.4746Z" fill="#007D93"/>
<path d="M120.317 14.861C119.705 14.869 119.121 15.1156 118.688 15.5483C118.255 15.981 118.009 16.5656 118.001 17.1775V42.808C118.017 44.7241 117.654 46.6245 116.933 48.3995C116.211 50.1746 115.145 51.7891 113.796 53.1499C112.447 54.5107 110.841 55.5908 109.073 56.3279C107.304 57.065 105.407 57.4446 103.491 57.4446C101.575 57.4446 99.6774 57.065 97.9087 56.3279C96.14 55.5908 94.5348 54.5107 93.1858 53.1499C91.8368 51.7891 90.7707 50.1746 90.0489 48.3995C89.3272 46.6245 88.9642 44.7241 88.9809 42.808V17.1775C88.9676 16.5634 88.7143 15.9788 88.2753 15.5492C87.8362 15.1195 87.2463 14.8789 86.632 14.8789C86.0177 14.8789 85.4278 15.1195 84.9888 15.5492C84.5498 15.9788 84.2965 16.5634 84.2832 17.1775V42.808C84.2832 47.9022 86.3068 52.7877 89.909 56.3898C93.5111 59.9919 98.3966 62.0156 103.491 62.0156C108.585 62.0156 113.47 59.9919 117.073 56.3898C120.675 52.7877 122.698 47.9022 122.698 42.808V17.1775C122.689 16.5548 122.433 15.9612 121.987 15.5269C121.54 15.0926 120.94 14.8531 120.317 14.861Z" fill="white"/>
<path d="M147.949 28.556C145.795 28.5548 143.663 28.9937 141.684 29.8458C139.706 30.6978 137.922 31.9452 136.443 33.5112V17.1774C136.443 16.5546 136.196 15.9573 135.755 15.5169C135.315 15.0765 134.718 14.8291 134.095 14.8291C133.472 14.8291 132.875 15.0765 132.434 15.5169C131.994 15.9573 131.747 16.5546 131.747 17.1774V59.694C131.747 60.3168 131.994 60.9141 132.434 61.3545C132.875 61.7948 133.472 62.0423 134.095 62.0423C134.718 62.0423 135.315 61.7948 135.755 61.3545C136.196 60.9141 136.443 60.3168 136.443 59.694V57.12C137.928 58.674 139.714 59.9094 141.693 60.751C143.671 61.5925 145.799 62.0225 147.949 62.0149C152.306 61.9488 156.459 60.1574 159.498 57.0336C162.536 53.9098 164.211 49.7086 164.157 45.3512C164.157 36.0907 156.886 28.556 147.949 28.556ZM159.455 45.3512C159.515 46.9005 159.262 48.4461 158.711 49.8954C158.16 51.3446 157.322 52.6676 156.247 53.7852C155.172 54.9028 153.883 55.7918 152.456 56.3991C151.03 57.0064 149.495 57.3194 147.945 57.3194C146.394 57.3194 144.859 57.0064 143.433 56.3991C142.006 55.7918 140.717 54.9028 139.642 53.7852C138.567 52.6676 137.729 51.3446 137.178 49.8954C136.627 48.4461 136.374 46.9005 136.434 45.3512V44.8581C136.424 43.3185 136.723 41.7926 137.313 40.3705C137.903 38.9484 138.772 37.659 139.869 36.5785C140.965 35.498 142.268 34.6484 143.698 34.0798C145.129 33.5112 146.659 33.2353 148.199 33.2682C149.738 33.3012 151.255 33.6424 152.66 34.2717C154.065 34.9011 155.33 35.8057 156.379 36.9321C157.429 38.0586 158.242 39.384 158.77 40.8301C159.299 42.2762 159.532 43.8135 159.456 45.3512" fill="white"/>
<path d="M175.356 28.5571C175.051 28.5537 174.748 28.6113 174.465 28.7265C174.183 28.8417 173.926 29.0122 173.71 29.228C173.494 29.4438 173.324 29.7005 173.209 29.9831C173.093 30.2657 173.036 30.5684 173.039 30.8736V59.7038C173.039 60.3266 173.287 60.9239 173.727 61.3642C174.167 61.8046 174.765 62.052 175.387 62.052C176.01 62.052 176.608 61.8046 177.048 61.3642C177.488 60.9239 177.736 60.3266 177.736 59.7038V30.8736C177.738 30.5632 177.677 30.2556 177.558 29.9693C177.438 29.683 177.262 29.4238 177.039 29.2074C176.817 28.991 176.553 28.8218 176.263 28.7101C175.974 28.5983 175.666 28.5463 175.356 28.5571Z" fill="white"/>
<path d="M175.355 18.1223C174.743 18.1302 174.159 18.3768 173.726 18.8095C173.293 19.2423 173.047 19.8269 173.039 20.4388V21.94C173.025 22.2569 173.076 22.5733 173.188 22.8702C173.299 23.167 173.47 23.4381 173.69 23.6672C173.909 23.8963 174.172 24.0786 174.464 24.2032C174.756 24.3277 175.07 24.3919 175.387 24.3919C175.704 24.3919 176.018 24.3277 176.31 24.2032C176.602 24.0786 176.865 23.8963 177.085 23.6672C177.304 23.4381 177.475 23.167 177.587 22.8702C177.698 22.5733 177.749 22.2569 177.735 21.94V20.4388C177.726 19.816 177.47 19.2224 177.024 18.7881C176.577 18.3538 175.978 18.1144 175.355 18.1223Z" fill="white"/>
<path d="M215.981 28.5569C215.357 28.5478 214.756 28.7868 214.308 29.2212C213.861 29.6556 213.605 30.2499 213.595 30.8734V33.4616C212.166 31.9237 210.437 30.6949 208.515 29.8513C206.593 29.0078 204.518 28.5672 202.418 28.5569C193.733 28.5569 186.667 36.0083 186.667 45.1559C186.667 54.3441 193.733 61.8196 202.418 61.8196C204.517 61.8162 206.592 61.3807 208.515 60.5403C210.438 59.6999 212.168 58.4724 213.595 56.9345V58.7174C213.607 60.186 213.326 61.6422 212.768 63.0007C212.21 64.3591 211.386 65.5925 210.345 66.6284C209.304 67.6643 208.067 68.482 206.706 69.0334C205.344 69.5848 203.887 69.8589 202.418 69.8396C200.744 69.865 199.087 69.4983 197.579 68.7691C197.319 68.6122 197.027 68.5123 196.725 68.4758C196.423 68.4394 196.117 68.4672 195.826 68.5576C195.525 68.6533 195.248 68.8111 195.012 69.0208C194.776 69.2305 194.587 69.4875 194.456 69.775C194.208 70.3299 194.174 70.9571 194.36 71.5358C194.547 72.1145 194.941 72.6036 195.467 72.9089C197.649 73.9119 200.019 74.4443 202.421 74.4715C206.605 74.4742 210.619 72.817 213.583 69.8636C216.548 66.9102 218.219 62.9017 218.232 58.7174V30.8734C218.232 30.2702 217.997 29.6905 217.577 29.2579C217.157 28.8252 216.584 28.5737 215.981 28.5569ZM213.595 45.1559C213.595 51.826 208.579 57.2523 202.412 57.2523C196.282 57.2523 191.293 51.826 191.293 45.1559C191.293 38.5571 196.282 33.1899 202.412 33.1899C208.579 33.1899 213.595 38.5592 213.595 45.1559Z" fill="white"/>
<path d="M229.425 28.5571C229.12 28.5537 228.817 28.6113 228.535 28.7265C228.252 28.8417 227.995 29.0122 227.78 29.228C227.564 29.4438 227.393 29.7005 227.278 29.9831C227.163 30.2657 227.105 30.5684 227.109 30.8736V59.7038C227.109 60.3266 227.356 60.9239 227.796 61.3642C228.237 61.8046 228.834 62.052 229.457 62.052C230.08 62.052 230.677 61.8046 231.117 61.3642C231.558 60.9239 231.805 60.3266 231.805 59.7038V30.8736C231.807 30.5632 231.747 30.2556 231.627 29.9693C231.507 29.683 231.331 29.4238 231.109 29.2074C230.886 28.991 230.622 28.8218 230.333 28.7101C230.043 28.5983 229.734 28.5463 229.424 28.5571" fill="white"/>
<path d="M229.425 18.1223C228.813 18.1302 228.229 18.3768 227.796 18.8095C227.363 19.2423 227.117 19.8269 227.109 20.4388V21.94C227.095 22.2569 227.146 22.5733 227.257 22.8702C227.369 23.167 227.54 23.4381 227.759 23.6672C227.979 23.8963 228.242 24.0786 228.534 24.2032C228.826 24.3277 229.14 24.3919 229.457 24.3919C229.774 24.3919 230.088 24.3277 230.38 24.2032C230.672 24.0786 230.935 23.8963 231.154 23.6672C231.374 23.4381 231.545 23.167 231.656 22.8702C231.768 22.5733 231.819 22.2569 231.805 21.94V20.4388C231.796 19.816 231.54 19.2224 231.094 18.7881C230.647 18.3538 230.047 18.1144 229.424 18.1223" fill="white"/>
</svg>
