<svg width="95" height="38" viewBox="0 0 95 38" fill="none" xmlns="http://www.w3.org/2000/svg">
<g clip-path="url(#clip0_1_48452)">
<g clip-path="url(#clip1_1_48452)">
<g clip-path="url(#clip2_1_48452)">
<path d="M89.2469 32.3597H87.241L87.382 32.0757C87.4836 31.7913 87.6792 31.5501 87.9365 31.3919C88.1938 31.2337 88.4973 31.168 88.797 31.2057H89.82L89.246 32.3607" fill="black"/>
<path d="M87.083 36.8206L88.9269 33.1116H86.92L85.3289 36.3116C85.2609 36.4757 85.1419 36.6135 84.9896 36.705C84.8374 36.7964 84.6598 36.8366 84.4829 36.8196H79.6079L81.5789 32.8526C81.8569 32.2936 81.962 32.2526 82.611 32.2526H83.194C83.4133 32.2853 83.6372 32.2433 83.8298 32.1334C84.0224 32.0235 84.1725 31.852 84.256 31.6466L84.528 31.0976H82.45L83.3439 29.2976H82.034C81.8153 29.264 81.5917 29.3048 81.399 29.4137C81.2064 29.5225 81.056 29.6929 80.972 29.8976L80.3719 31.0976H79.285L78.711 32.2516H79.8029L77.7859 36.3096C77.7182 36.4732 77.5998 36.6108 77.448 36.7021C77.2963 36.7933 77.1192 36.8335 76.9429 36.8166H72.611L74.9109 32.6066H73.321C73.1699 32.5996 73.0197 32.633 72.8857 32.7033C72.7518 32.7736 72.639 32.8783 72.559 33.0066C72.559 32.7066 72.448 32.6066 72.159 32.6066H71.059C70.3245 32.5242 69.5826 32.6724 68.9362 33.0308C68.2898 33.3892 67.7711 33.94 67.452 34.6066L66.515 36.3196C66.4427 36.4791 66.3232 36.6127 66.1726 36.7021C66.022 36.7915 65.8476 36.8325 65.673 36.8196H62.879C61.868 36.8196 61.472 36.6746 61.361 36.1446C61.24 35.5736 61.496 35.1106 62.85 34.2126L63.616 33.7046C63.9729 33.4676 64.116 33.3456 64.069 33.0886C64.026 32.8596 63.888 32.6066 62.782 32.6066H57.533C57.3136 32.5776 57.0908 32.6211 56.8986 32.7305C56.7063 32.8399 56.5551 33.0092 56.468 33.2126L54.768 36.3126C54.6958 36.4722 54.5764 36.6058 54.4257 36.6953C54.2751 36.7847 54.1006 36.8257 53.926 36.8126H45.503L45.8619 35.7556H50.069C50.3844 35.8091 50.7085 35.7451 50.9799 35.5757C51.2513 35.4064 51.4513 35.1434 51.542 34.8366L51.942 33.8906C52.0112 33.7634 52.0488 33.6213 52.0514 33.4764C52.054 33.3316 52.0216 33.1882 51.957 33.0586C51.757 32.7586 51.25 32.6006 50.486 32.6006H46.45C45.9546 32.5203 45.4469 32.6201 45.0187 32.8819C44.5906 33.1437 44.2703 33.5501 44.116 34.0276L43.277 36.0026C43.1755 36.2762 42.9826 36.5062 42.7309 36.6539C42.4792 36.8015 42.1842 36.8576 41.896 36.8126H39.006L39.188 36.5396C39.4665 36.1412 39.5897 35.6547 39.5345 35.1718C39.4792 34.6888 39.2493 34.2428 38.888 33.9176C38.1535 33.2414 37.244 32.7851 36.263 32.6006H34.0149L32.47 35.4266C32.2508 35.9083 31.8796 36.3048 31.4134 36.5552C30.9471 36.8056 30.4116 36.896 29.889 36.8126H27.169L29.469 32.6006H27.869C27.7179 32.5936 27.5677 32.627 27.4337 32.6973C27.2998 32.7676 27.187 32.8723 27.107 33.0006C27.107 32.7006 26.997 32.6006 26.707 32.6006H25.607C24.8725 32.5183 24.1307 32.6667 23.4843 33.025C22.838 33.3834 22.3192 33.9341 22 34.6006L21.063 36.3136C20.9921 36.4742 20.8729 36.6088 20.722 36.6984C20.5711 36.788 20.3959 36.8283 20.221 36.8136H16.085L19.598 30.3896C19.6452 30.3033 19.6691 30.2062 19.6672 30.1078C19.6654 30.0094 19.6378 29.9132 19.5872 29.8288C19.5367 29.7444 19.4649 29.6747 19.3791 29.6266C19.2933 29.5785 19.1963 29.5537 19.098 29.5546H2.64995C2.20431 29.4973 1.75195 29.5819 1.35706 29.7962C0.962167 30.0105 0.644788 30.3437 0.449951 30.7486H7.56395L3.59795 37.9966H5.64995L9.61495 30.7496H12.46L8.49595 37.9956H10.544L14.508 30.7506H17.357L14.085 36.7326C13.9898 36.8638 13.9277 37.016 13.9039 37.1763C13.88 37.3367 13.8951 37.5004 13.948 37.6536C14.08 37.8766 14.413 37.9946 14.91 37.9946H20.31C20.4175 37.9996 20.5244 37.9759 20.6198 37.926C20.7153 37.8761 20.7957 37.8018 20.853 37.7106C20.853 37.9266 21.035 37.9946 21.243 37.9946H30.52C31.2541 38.0851 31.9981 37.942 32.6463 37.5857C33.2945 37.2294 33.8139 36.6779 34.131 36.0096L35.354 33.7746L35.4799 33.7986C36.942 34.0766 37.68 34.6186 37.747 35.4566C37.7614 35.62 37.7413 35.7846 37.6879 35.9396C37.6345 36.0947 37.549 36.2368 37.437 36.3566C37.2872 36.5087 37.108 36.6286 36.9102 36.7089C36.7124 36.7892 36.5003 36.8282 36.287 36.8236C35.9155 36.7932 35.545 36.8935 35.2396 37.1071C34.9342 37.3207 34.7129 37.6342 34.614 37.9936H42.471C42.5785 37.9986 42.6854 37.9749 42.7808 37.925C42.8762 37.8751 42.9567 37.8008 43.014 37.7096C43.014 37.9256 43.1959 37.9936 43.4039 37.9936H55.025C55.3443 38.0314 55.6672 37.9612 55.942 37.7941C56.2168 37.6269 56.4276 37.3726 56.541 37.0716L57.902 34.5836C58.0204 34.3255 58.2165 34.1108 58.4628 33.9693C58.709 33.8279 58.9933 33.7668 59.276 33.7946H61.324C60.9574 34.0469 60.6137 34.331 60.297 34.6436C59.8362 35.0855 59.5423 35.6729 59.465 36.3066C59.433 36.5247 59.4479 36.7471 59.5086 36.959C59.5693 37.1709 59.6744 37.3675 59.817 37.5356C59.9666 37.6901 60.1475 37.811 60.3475 37.8901C60.5475 37.9693 60.7621 38.0049 60.977 37.9946H65.75C65.8575 37.9996 65.9644 37.9759 66.0598 37.926C66.1553 37.8761 66.2357 37.8018 66.293 37.7106C66.293 37.9266 66.475 37.9946 66.683 37.9946H76.74C76.8475 37.9997 76.9545 37.9761 77.0499 37.9261C77.1453 37.8762 77.2258 37.8018 77.283 37.7106C77.283 37.9266 77.466 37.9946 77.673 37.9946H92.5399C93.4399 37.9946 93.89 37.7036 94.059 37.0206L94.111 36.8116H87.083M46.357 34.3276C46.4358 34.1108 46.5887 33.9288 46.7887 33.8137C46.9887 33.6986 47.2229 33.6578 47.45 33.6986H49.741L49.583 34.1636C49.5169 34.3641 49.381 34.5343 49.2 34.6429C49.019 34.7516 48.805 34.7916 48.597 34.7556H46.207L46.3559 34.3266M25.522 36.0326C25.4058 36.2929 25.2105 36.5098 24.9637 36.6524C24.7169 36.795 24.4314 36.856 24.148 36.8266H23.016L24.241 34.5866C24.3594 34.3289 24.5551 34.1146 24.801 33.9733C25.0469 33.8321 25.3307 33.771 25.613 33.7986H26.75L25.527 36.0336M70.9679 36.0336C70.8518 36.2939 70.6565 36.5108 70.4097 36.6534C70.1629 36.796 69.8774 36.857 69.5939 36.8276H68.457L69.682 34.5876C69.8004 34.3299 69.9961 34.1156 70.242 33.9743C70.4879 33.8331 70.7717 33.772 71.0539 33.7996H72.186L70.963 36.0346" fill="black"/>
<path d="M45.4335 25.07V24.041H50.7055V25.07H45.4335Z" fill="black"/>
<path d="M48.0704 27.2025H49.7324V25.6025H46.4084V27.2025H48.0704Z" fill="black"/>
<path d="M46.4085 23.5088C46.436 23.0744 46.3657 22.6395 46.2028 22.2359C46.04 21.8323 45.7887 21.4704 45.4675 21.1768H50.6725C50.3513 21.4704 50.1001 21.8323 49.9372 22.2359C49.7744 22.6395 49.7041 23.0744 49.7315 23.5088H46.4085Z" fill="black"/>
<path d="M42.0065 19.4788V18.7178H54.1345V19.4778L42.0065 19.4788Z" fill="black"/>
<path d="M42.5484 22.2178C43.2885 22.0518 43.9714 21.6926 44.5275 21.1768H42.4185L42.5484 22.2178Z" fill="black"/>
<path d="M53.5914 22.2178C52.8514 22.0517 52.1685 21.6925 51.6124 21.1768H53.7214L53.5914 22.2178Z" fill="black"/>
<path d="M41.8015 17.0504C41.2069 13.3292 40.0751 9.71418 38.4415 6.31836C40.255 7.37637 41.9025 8.69626 43.3305 10.2354C42.6166 10.0424 41.8925 9.88918 41.1615 9.77636C42.1508 12.1558 43.0186 14.5839 43.7615 17.0514H41.8045" fill="black"/>
<path d="M54.3414 17.0504C54.9359 13.3292 56.0678 9.71418 57.7014 6.31836C55.8878 7.37637 54.2404 8.69626 52.8123 10.2354C53.5263 10.0424 54.2504 9.88918 54.9814 9.77636C53.9921 12.1555 53.1243 14.5833 52.3813 17.0504H54.3414Z" fill="black"/>
<path d="M41.3635 18.3227V17.5527H54.7765V18.3227H41.3635Z" fill="black"/>
<path d="M45.8095 5.9C46.9138 4.0864 47.6796 2.08729 48.0695 0C48.4593 2.08729 49.2251 4.08641 50.3295 5.9C49.9605 5.734 49.5705 5.558 49.1375 5.366C48.7625 5.2 48.6035 5.298 48.6155 5.684C48.7405 9.468 49.2965 13.771 51.2715 17.048H48.9455C48.5922 16.2097 48.2995 15.3471 48.0695 14.467C47.8394 15.3471 47.5467 16.2097 47.1935 17.048H44.8665C46.8415 13.771 47.3975 9.469 47.5225 5.684C47.5355 5.298 47.3755 5.2 47.0015 5.366C46.5685 5.558 46.1775 5.734 45.8095 5.9Z" fill="black"/>
<path d="M41.3635 20.645V19.875H54.7765V20.645H41.3635Z" fill="black"/>
</g>
</g>
</g>
<defs>
<clipPath id="clip0_1_48452">
<rect width="93.66" height="38" fill="white" transform="translate(0.449951)"/>
</clipPath>
<clipPath id="clip1_1_48452">
<rect width="93.66" height="38" fill="white" transform="translate(0.449951)"/>
</clipPath>
<clipPath id="clip2_1_48452">
<rect width="93.661" height="38" fill="white" transform="translate(0.449951)"/>
</clipPath>
</defs>
</svg>
