<svg width="174" height="28" viewBox="0 0 174 28" fill="none" xmlns="http://www.w3.org/2000/svg">
<g clip-path="url(#clip0_1_48447)">
<g clip-path="url(#clip1_1_48447)">
<g clip-path="url(#clip2_1_48447)">
<path fill-rule="evenodd" clip-rule="evenodd" d="M6.31351 0.000976562L0.280029 27.2416H8.17935L11.803 12.5999L12.079 27.2416H17.7085L24.9849 12.5999L21.7382 27.2416H29.5685L35.616 0.000976562H24.8309L17.5715 15.2167L17.0846 0.000976562H6.31351ZM37.5108 0.000976562L36.5499 4.44559H43.8233L44.8122 0.000976562H37.5108ZM152.925 0.139965C151.219 0.18896 149.232 0.455937 148.131 1.35186C146.525 2.70074 145.962 4.46759 145.316 7.06437H141.708L140.677 11.718H144.384L141.012 27.2406H148.211L151.597 11.718L155.61 11.746L153.357 21.9191C152.757 24.5938 153.729 25.8367 154.611 26.4337C156.577 27.8096 162.427 27.1446 162.427 27.1446L163.542 22.519C163.542 22.519 160.663 22.85 160.379 22.0451C160.272 21.5552 160.296 21.0457 160.449 20.5682L162.349 11.72H165.791L166.808 7.06637H163.352L164.397 2.18979H157.708L156.649 7.06637H152.386L152.511 6.39742C152.847 4.86456 153.237 4.08462 155.256 4.08462L156.064 0.266954C155.021 0.154568 153.973 0.112143 152.925 0.139965ZM108.936 6.21544C104.195 6.34143 100.036 8.00028 99.4044 12.2349C98.6045 17.7344 105.732 18.9343 107.57 19.2713C111.581 19.9712 110.407 23.371 107.431 23.371C103.131 23.346 104.296 20.3192 104.296 20.3192L90.6412 20.3332L97.3716 18.0994C97.6296 18.0214 97.7016 17.8934 97.8316 16.9845C98.6595 11.844 96.0387 6.6204 89.1783 6.28543C87.0813 6.13712 84.9799 6.50541 83.0582 7.35805C81.1366 8.21069 79.4535 9.52164 78.1563 11.176L79.2992 6.73139C78.1346 6.72341 76.9766 6.90683 75.8715 7.27435C74.5518 7.68893 73.3838 8.48372 72.5138 9.55915L73.0847 7.06537H66.5353L62.0067 27.2696H68.9181L70.5479 20.0802C71.7988 13.9298 75.2355 13.2748 76.8184 13.2668C73.5597 19.4753 75.4185 27.6006 84.3428 27.8836C86.7927 28.0398 89.2352 27.4803 91.3727 26.273C93.5103 25.0658 95.2506 23.2629 96.3817 21.0842C96.1227 23.213 96.8017 27.7836 106.481 27.9956C117.044 28.2035 117.887 21.3961 117.809 19.9423C117.551 14.7237 112.916 14.5267 108.878 13.6428C105.564 12.9429 106.27 10.3431 109.143 10.3431C112.301 10.3431 111.553 12.9349 111.553 12.9349H118.534C118.404 12.5189 120.379 6.34843 109.895 6.21844C109.577 6.21044 109.252 6.20744 108.936 6.21544ZM131.773 6.24344C117.221 6.20944 113.149 27.2976 127.648 27.9106C142.638 28.5105 146.681 6.95937 132.47 6.25743C132.234 6.24544 132.004 6.24344 131.769 6.24344H131.773ZM54.9143 6.50841C40.1156 6.42642 36.9159 27.5606 50.2747 27.8406C60.3968 28.0485 62.7036 19.9412 62.7036 19.7873H55.0813C54.8743 20.1242 53.8204 22.777 51.5426 22.699C46.598 22.599 49.7817 11.459 54.2594 11.329C56.6671 11.277 56.4112 14.2897 56.3072 14.5757H63.8595C63.9375 14.2637 64.3745 6.96337 55.6242 6.52241C55.3843 6.50941 55.1493 6.50941 54.9143 6.50841ZM170.829 7.03837C170.136 7.03837 169.472 7.31364 168.982 7.80363C168.492 8.29362 168.216 8.95819 168.216 9.65114C168.216 10.3441 168.492 11.0087 168.982 11.4987C169.472 11.9886 170.136 12.2639 170.829 12.2639C171.522 12.2639 172.187 11.9886 172.677 11.4987C173.167 11.0087 173.442 10.3441 173.442 9.65114C173.442 8.95819 173.167 8.29362 172.677 7.80363C172.187 7.31364 171.522 7.03837 170.829 7.03837ZM35.9409 7.06637L31.4503 27.2416L38.7797 27.2696L43.2513 7.06537L35.9409 7.06637ZM170.829 7.51233C171.115 7.50358 171.399 7.55225 171.665 7.65545C171.932 7.75865 172.174 7.91428 172.379 8.1131C172.584 8.31192 172.747 8.54989 172.859 8.81289C172.97 9.07589 173.027 9.35856 173.027 9.64414C173.027 9.92972 172.97 10.2124 172.859 10.4754C172.747 10.7384 172.584 10.9764 172.379 11.1752C172.174 11.374 171.932 11.5296 171.665 11.6328C171.399 11.736 171.115 11.7847 170.829 11.776C170.544 11.7847 170.26 11.736 169.993 11.6328C169.727 11.5296 169.484 11.374 169.279 11.1752C169.074 10.9764 168.911 10.7384 168.8 10.4754C168.688 10.2124 168.631 9.92972 168.631 9.64414C168.631 9.35856 168.688 9.07589 168.8 8.81289C168.911 8.54989 169.074 8.31192 169.279 8.1131C169.484 7.91428 169.727 7.75865 169.993 7.65545C170.26 7.55225 170.544 7.50358 170.829 7.51233ZM170.16 8.29226L169.728 11.065H170.272L170.425 9.95012H170.787L171.187 10.995H171.814L171.298 9.95012C171.403 9.94895 171.506 9.92706 171.602 9.8857C171.698 9.84433 171.785 9.78433 171.857 9.70917C171.93 9.63401 171.987 9.54518 172.024 9.44785C172.062 9.35052 172.081 9.24662 172.078 9.14219C172.083 8.94686 172.021 8.75575 171.902 8.60098C171.782 8.44621 171.613 8.3372 171.423 8.29226H170.16ZM170.648 8.65423H171.178C171.238 8.6532 171.297 8.66462 171.351 8.68775C171.406 8.71088 171.455 8.7452 171.496 8.78852C171.537 8.83184 171.568 8.8832 171.588 8.93929C171.607 8.99537 171.615 9.05495 171.61 9.11419C171.605 9.18224 171.586 9.2485 171.554 9.30869C171.522 9.36888 171.477 9.42168 171.424 9.46368C171.37 9.50569 171.308 9.53597 171.242 9.55258C171.175 9.5692 171.106 9.57178 171.039 9.56015H170.523L170.648 8.65423ZM88.1884 10.939C88.3383 10.9459 88.4874 10.9647 88.6344 10.995C93.372 11.9549 89.9283 23.8199 84.8027 22.755C80.3141 21.7991 83.5788 10.756 88.1884 10.939ZM131.523 10.953C131.677 10.9599 131.831 10.9786 131.983 11.009C136.746 11.9689 133.274 23.8729 128.095 22.783C123.58 21.8521 126.865 10.748 131.523 10.953Z" fill="black"/>
</g>
</g>
</g>
<defs>
<clipPath id="clip0_1_48447">
<rect width="173.17" height="28" fill="white" transform="translate(0.280029)"/>
</clipPath>
<clipPath id="clip1_1_48447">
<rect width="173.17" height="28" fill="white" transform="translate(0.280029)"/>
</clipPath>
<clipPath id="clip2_1_48447">
<rect width="173.17" height="27.9976" fill="white" transform="translate(0.280029 0.000976562)"/>
</clipPath>
</defs>
</svg>
