<svg width="324" height="79" viewBox="0 0 324 79" fill="none" xmlns="http://www.w3.org/2000/svg">
<g clip-path="url(#clip0_1_6387)">
<g clip-path="url(#clip1_1_6387)">
<g clip-path="url(#clip2_1_6387)">
<path d="M79.7074 78.4989C79.525 78.5131 79.3433 78.4651 79.1918 78.3628C79.0403 78.2604 78.928 78.1096 78.8732 77.9352C78.5046 75.8506 77.9635 73.8002 77.2557 71.8051C77.1374 71.466 77.4028 71.125 77.8522 71.0425C78.0498 70.993 78.2584 71.012 78.4438 71.0963C78.6292 71.1807 78.7806 71.3254 78.8732 71.5068C79.5998 73.555 80.1552 75.6599 80.5335 77.8C80.5932 78.1469 80.271 78.4581 79.8137 78.4959C79.7789 78.4989 79.7451 78.4989 79.7074 78.4989ZM74.4919 64.2721C74.3381 64.2776 74.1854 64.2434 74.0487 64.1727C73.912 64.102 73.7958 63.9972 73.7114 63.8685C72.6834 61.9626 71.5183 60.0309 70.2477 58.1271C70.2005 58.0504 70.1724 57.9634 70.1659 57.8736C70.1594 57.7837 70.1747 57.6936 70.2104 57.6109C70.2461 57.5282 70.3012 57.4553 70.371 57.3984C70.4408 57.3415 70.5234 57.3023 70.6116 57.284C70.8057 57.2082 71.0188 57.1957 71.2204 57.2484C71.422 57.3011 71.6018 57.4162 71.734 57.5773C73.0264 59.511 74.2095 61.4755 75.2554 63.4131C75.4304 63.7382 75.2266 64.1091 74.8011 64.2304C74.7006 64.2594 74.5964 64.2734 74.4919 64.2721ZM23.7269 59.161C23.538 59.1772 23.3496 59.1254 23.1956 59.0149C23.0416 58.9044 22.932 58.7426 22.8868 58.5585C22.8569 58.2106 23.2049 57.9153 23.6642 57.8994C26.3332 57.8115 28.9843 57.4284 31.569 56.7571C31.7658 56.6966 31.9771 56.7022 32.1705 56.7731C32.3638 56.844 32.5287 56.9763 32.6397 57.1498C32.7988 57.4799 32.5761 57.8388 32.1426 57.9521C29.4061 58.6626 26.5993 59.068 23.7736 59.161H23.7269ZM12.8197 57.7463C12.7085 57.7453 12.5982 57.7272 12.4926 57.6926C9.89761 56.8929 7.50235 55.5506 5.46568 53.7547C5.39667 53.6986 5.34286 53.626 5.30919 53.5437C5.27551 53.4614 5.26305 53.372 5.27294 53.2836C5.28284 53.1952 5.31478 53.1107 5.36583 53.0379C5.41687 52.9651 5.4854 52.9063 5.5651 52.8668C5.74783 52.7613 5.95849 52.7143 6.16876 52.732C6.37903 52.7498 6.57881 52.8315 6.74122 52.9663C8.5932 54.5965 10.7705 55.8144 13.1289 56.5394C13.5544 56.6795 13.7572 57.0524 13.5802 57.3715C13.497 57.4947 13.383 57.5941 13.2497 57.6598C13.1163 57.7255 12.9681 57.7554 12.8197 57.7463ZM41.3527 53.8262C41.116 53.8289 40.8864 53.7455 40.7065 53.5916C40.6375 53.5355 40.5837 53.463 40.55 53.3807C40.5163 53.2984 40.5039 53.2089 40.5138 53.1206C40.5237 53.0322 40.5556 52.9477 40.6067 52.8749C40.6577 52.8021 40.7262 52.7432 40.8059 52.7038C42.8494 51.4284 44.7873 49.9912 46.601 48.4059C46.7685 48.2781 46.9713 48.2048 47.1818 48.1959C47.3923 48.1871 47.6005 48.243 47.7781 48.3562C47.8581 48.3967 47.9265 48.4566 47.9772 48.5305C48.0279 48.6043 48.0592 48.6897 48.0682 48.7789C48.0772 48.868 48.0637 48.9579 48.0288 49.0405C47.9939 49.123 47.9388 49.1954 47.8686 49.251C45.9961 50.8881 43.9953 52.3726 41.8856 53.69C41.724 53.7848 41.54 53.832 41.3527 53.8262ZM233.145 53.0249H233.11C232.788 53.012 232.464 52.9961 232.145 52.9782C229.643 52.8352 227.153 52.5364 224.688 52.0834C224.238 52.0009 223.954 51.6589 224.054 51.3209C224.139 51.139 224.285 50.9927 224.467 50.908C224.648 50.8232 224.854 50.8054 225.048 50.8576C227.421 51.2938 229.819 51.5817 232.228 51.7196C232.535 51.7365 232.847 51.7524 233.158 51.7643C233.618 51.7832 233.979 52.0804 233.964 52.4284C233.927 52.6127 233.823 52.7764 233.671 52.8869C233.519 52.9975 233.331 53.0468 233.145 53.0249ZM65.4378 51.1071C65.3054 51.1099 65.1738 51.0847 65.0517 51.0333C64.9296 50.982 64.8196 50.9055 64.729 50.8089C63.1989 48.9995 61.5893 47.2557 59.945 45.6252C59.8792 45.5652 59.8296 45.4897 59.8005 45.4055C59.7715 45.3214 59.764 45.2313 59.7787 45.1435C59.7934 45.0557 59.8299 44.973 59.8848 44.9029C59.9398 44.8328 60.0114 44.7776 60.0931 44.7424C60.2783 44.6417 60.4899 44.6003 60.6993 44.6237C60.9088 44.6472 61.106 44.7344 61.2642 44.8736C62.9365 46.5319 64.5739 48.3055 66.1288 50.1428C66.187 50.2107 66.2275 50.2919 66.2467 50.3793C66.2659 50.4666 66.2632 50.5574 66.2387 50.6434C66.2143 50.7295 66.169 50.8081 66.1068 50.8724C66.0446 50.9366 65.9674 50.9845 65.8822 51.0117C65.7431 51.0765 65.5913 51.1091 65.4378 51.1071ZM244.192 52.4493C244.018 52.4606 243.845 52.4168 243.697 52.3242C243.549 52.2316 243.434 52.0949 243.368 51.9333C243.274 51.5903 243.567 51.2612 244.015 51.1976C246.674 50.8167 249.31 50.2856 251.909 49.6069C252.106 49.5469 252.318 49.5533 252.511 49.6252C252.704 49.697 252.868 49.8303 252.979 50.0046C253.137 50.3347 252.913 50.6936 252.482 50.8059C249.806 51.5041 247.093 52.0505 244.356 52.4423C244.303 52.4494 244.249 52.4523 244.195 52.4513L244.192 52.4493ZM214.373 49.2172C214.251 49.2164 214.13 49.1949 214.016 49.1536C211.488 48.2278 209.01 47.1743 206.589 45.997C206.503 45.9699 206.426 45.9225 206.362 45.8588C206.299 45.795 206.252 45.7169 206.226 45.6311C206.199 45.5453 206.194 45.4544 206.21 45.3661C206.227 45.2778 206.264 45.1948 206.32 45.1241C206.467 44.9763 206.658 44.8787 206.864 44.8454C207.071 44.812 207.282 44.8445 207.469 44.9382C209.83 46.0876 212.249 47.1163 214.715 48.0202C215.133 48.1723 215.316 48.5501 215.123 48.8643C215.038 48.9807 214.925 49.074 214.794 49.1356C214.664 49.1972 214.52 49.2253 214.376 49.2172H214.373ZM2.31611 46.1879C2.12278 46.2073 1.92919 46.1537 1.77337 46.0376C1.61756 45.9215 1.51078 45.7514 1.47404 45.5606C1.46807 45.4711 1.46509 45.38 1.46509 45.2872C1.46473 43.1509 1.99929 41.0486 3.01999 39.172C3.13835 39.0041 3.30893 38.8801 3.50512 38.8193C3.70132 38.7585 3.91211 38.7644 4.10465 38.8359C4.53314 38.9721 4.74192 39.342 4.57092 39.6631C3.62839 41.3929 3.13416 43.3312 3.13333 45.3011C3.13333 45.3859 3.13565 45.4708 3.14029 45.5556C3.15321 45.9046 2.79034 46.1889 2.32903 46.1909L2.31611 46.1879ZM262.335 47.5301C262.193 47.534 262.051 47.5047 261.922 47.4447C261.793 47.3847 261.679 47.2954 261.59 47.1841C261.541 47.1089 261.51 47.0228 261.501 46.9332C261.493 46.8436 261.506 46.7532 261.539 46.6697C261.573 46.5862 261.626 46.5121 261.695 46.4539C261.764 46.3956 261.845 46.3548 261.933 46.3351C264.244 45.4403 266.583 44.4461 269.085 43.2889C269.276 43.201 269.489 43.1746 269.695 43.2133C269.902 43.2519 270.091 43.3537 270.237 43.5046C270.294 43.5737 270.333 43.6558 270.351 43.7436C270.368 43.8315 270.364 43.9223 270.338 44.0081C270.312 44.0939 270.266 44.172 270.202 44.2354C270.139 44.2988 270.061 44.3456 269.975 44.3715C267.439 45.5407 265.065 46.5518 262.718 47.4625C262.597 47.5097 262.469 47.534 262.339 47.534L262.335 47.5301ZM53.8904 42.8236C53.7257 42.8231 53.5636 42.7835 53.4172 42.7083C53.3328 42.6781 53.257 42.6277 53.1966 42.5615C53.1362 42.4953 53.0929 42.4153 53.0705 42.3285C53.0482 42.2416 53.0474 42.1507 53.0683 42.0635C53.0892 41.9764 53.1312 41.8956 53.1905 41.8284C54.4889 40.3898 55.7754 38.9045 57.0121 37.4679L57.7428 36.6229C57.8933 36.4775 58.0856 36.3829 58.2926 36.3524C58.4997 36.3219 58.7111 36.357 58.8971 36.4529C58.9823 36.4814 59.0592 36.5302 59.1212 36.5952C59.1832 36.6601 59.2284 36.7393 59.2529 36.8257C59.2774 36.9121 59.2804 37.0032 59.2617 37.091C59.243 37.1788 59.2032 37.2608 59.1456 37.3297L58.4159 38.1738C57.1702 39.6154 55.8827 41.1057 54.5764 42.5542C54.487 42.6442 54.3798 42.7147 54.2617 42.761C54.1436 42.8074 54.0172 42.8287 53.8904 42.8236ZM197.975 41.0788C197.789 41.0789 197.607 41.0284 197.448 40.9327C195.371 39.6462 193.28 38.2663 191.055 36.7124C190.977 36.6695 190.91 36.6076 190.862 36.5323C190.814 36.457 190.785 36.3708 190.779 36.2816C190.773 36.1924 190.79 36.1032 190.827 36.0221C190.865 35.941 190.922 35.8706 190.994 35.8176C191.164 35.6933 191.368 35.6241 191.579 35.6193C191.79 35.6145 191.997 35.6743 192.172 35.7907C194.373 37.3268 196.438 38.6908 198.487 39.9604C198.568 39.9978 198.639 40.0547 198.692 40.1261C198.746 40.1975 198.78 40.2811 198.793 40.3693C198.806 40.4575 198.797 40.5475 198.767 40.6313C198.736 40.7151 198.685 40.79 198.619 40.8492C198.44 41.0039 198.21 41.0859 197.974 41.0788H197.975ZM53.2024 39.4881C52.9939 39.489 52.7903 39.4251 52.6198 39.3052C50.5993 37.8143 48.478 36.4653 46.271 35.2678C46.187 35.2366 46.112 35.1851 46.0526 35.118C45.9932 35.0509 45.9512 34.9703 45.9304 34.8831C45.9095 34.7959 45.9105 34.705 45.9331 34.6183C45.9558 34.5316 45.9994 34.4518 46.0602 34.386C46.2151 34.2447 46.4102 34.1553 46.6183 34.13C46.8264 34.1047 47.0372 34.1448 47.2214 34.2448C49.4976 35.4796 51.6854 36.8708 53.7691 38.4084C53.8458 38.454 53.9099 38.5181 53.9552 38.5949C54.0006 38.6717 54.0259 38.7587 54.0288 38.8479C54.0317 38.9371 54.012 39.0256 53.9717 39.1051C53.9313 39.1847 53.8716 39.2528 53.7979 39.3032C53.6257 39.4311 53.4158 39.4979 53.2014 39.4931L53.2024 39.4881ZM278.753 39.8858C278.626 39.888 278.5 39.8648 278.382 39.8177C278.264 39.7706 278.156 39.7005 278.066 39.6114C278.003 39.5477 277.958 39.4694 277.933 39.3837C277.909 39.298 277.906 39.2074 277.925 39.1203C277.944 39.0331 277.985 38.9522 278.043 38.8846C278.101 38.8171 278.175 38.7652 278.259 38.7335C280.615 37.4958 282.931 36.2361 284.683 35.2777C284.869 35.1797 285.081 35.1414 285.29 35.1679C285.499 35.1944 285.695 35.2845 285.85 35.4259C285.915 35.4879 285.962 35.5649 285.989 35.65C286.016 35.7351 286.021 35.8255 286.004 35.913C285.987 36.0006 285.948 36.0824 285.891 36.1512C285.834 36.22 285.761 36.2734 285.678 36.3067C283.919 37.2691 281.595 38.5327 279.23 39.7764C279.083 39.8539 278.918 39.8939 278.752 39.8927L278.753 39.8858ZM10.3789 33.4872C10.1313 33.4905 9.89182 33.3987 9.70985 33.2307C9.64419 33.1705 9.59468 33.0948 9.56585 33.0105C9.53702 32.9261 9.52979 32.836 9.54483 32.7481C9.55986 32.6603 9.59668 32.5776 9.65191 32.5077C9.70714 32.4378 9.77901 32.3829 9.86097 32.3479C12.2498 31.0219 14.8218 30.057 17.4933 29.4846C17.6907 29.4292 17.9008 29.4412 18.0906 29.5186C18.2804 29.596 18.4389 29.7345 18.5412 29.9121C18.6804 30.2472 18.4418 30.5971 17.9974 30.6956C15.5063 31.2285 13.1078 32.1274 10.88 33.363C10.7267 33.4474 10.5539 33.4903 10.3789 33.4872ZM36.8948 31.3935C36.8 31.3925 36.7058 31.3791 36.6145 31.3537C36.4289 31.302 36.2423 31.2516 36.0547 31.2026C33.6382 30.5698 31.1685 30.1614 28.6769 29.9827C28.2176 29.9489 27.8726 29.6407 27.9074 29.2938C27.9575 29.1038 28.0776 28.9397 28.2435 28.8345C28.4094 28.7292 28.6089 28.6905 28.8022 28.7261C31.4268 28.9151 34.0283 29.3461 36.5737 30.0135C36.7725 30.0652 36.9681 30.1183 37.1603 30.1726C37.5957 30.2939 37.8264 30.6568 37.6762 30.9839C37.5971 31.1182 37.482 31.2278 37.344 31.3001C37.2059 31.3725 37.0503 31.4048 36.8948 31.3935ZM64.6713 30.7313C64.4977 30.7316 64.3267 30.6882 64.1742 30.6051C64.0909 30.5724 64.017 30.5197 63.9589 30.4516C63.9009 30.3835 63.8605 30.3022 63.8414 30.2147C63.8224 30.1273 63.8252 30.0366 63.8496 29.9505C63.874 29.8644 63.9192 29.7857 63.9814 29.7213C65.6655 27.9675 67.3665 26.2913 69.0378 24.7384C69.2014 24.6061 69.4018 24.5275 69.6118 24.5133C69.8217 24.499 70.0309 24.5499 70.2109 24.6589C70.2918 24.6964 70.362 24.7534 70.4153 24.8249C70.4686 24.8963 70.5033 24.9799 70.5162 25.0681C70.5292 25.1563 70.5199 25.2463 70.4893 25.33C70.4588 25.4137 70.4079 25.4886 70.3411 25.5477C68.6888 27.0827 67.0057 28.741 65.3384 30.4768C65.2496 30.5613 65.1449 30.6273 65.0304 30.671C64.9159 30.7147 64.7938 30.7352 64.6713 30.7313ZM183.566 30.9481C183.351 30.949 183.142 30.8811 182.969 30.7542C182.33 30.2631 181.677 29.76 180.981 29.2152L180.65 28.9577C179.485 28.049 178.279 27.1095 177.081 26.183C177.005 26.1351 176.943 26.069 176.9 25.9908C176.857 25.9126 176.835 25.8248 176.835 25.7356C176.835 25.6463 176.857 25.5585 176.9 25.4803C176.943 25.4021 177.005 25.336 177.081 25.2882C177.256 25.1708 177.463 25.1099 177.674 25.1134C177.885 25.117 178.09 25.1849 178.261 25.3081C179.462 26.2366 180.668 27.1771 181.835 28.0868L182.166 28.3443C182.862 28.8861 183.509 29.3882 184.145 29.8773C184.221 29.9252 184.283 29.9913 184.326 30.0695C184.369 30.1477 184.391 30.2355 184.391 30.3247C184.391 30.414 184.369 30.5018 184.326 30.58C184.283 30.6582 184.221 30.7243 184.145 30.7721C183.976 30.8909 183.773 30.9526 183.567 30.9481H183.566ZM169.697 20.3859C169.491 20.3867 169.29 20.3246 169.12 20.2079C166.924 18.6282 164.891 17.2353 162.904 15.9488C162.823 15.9097 162.753 15.8509 162.701 15.7778C162.649 15.7047 162.616 15.6197 162.606 15.5306C162.595 15.4414 162.607 15.3511 162.64 15.2678C162.674 15.1845 162.728 15.111 162.797 15.0541C162.963 14.9244 163.165 14.8489 163.376 14.8379C163.586 14.8269 163.795 14.8808 163.973 14.9924C165.984 16.2928 168.04 17.7016 170.258 19.2972C170.335 19.3416 170.4 19.4048 170.447 19.481C170.493 19.5572 170.52 19.644 170.524 19.7332C170.528 19.8224 170.51 19.9112 170.471 19.9914C170.431 20.0716 170.372 20.1406 170.299 20.192C170.126 20.3229 169.914 20.3913 169.697 20.3859ZM77.033 19.5647C76.8224 19.5655 76.6168 19.5001 76.4454 19.3778C76.3689 19.3317 76.3053 19.2671 76.2605 19.1899C76.2156 19.1127 76.191 19.0254 76.1889 18.9361C76.1869 18.8469 76.2074 18.7585 76.2486 18.6793C76.2898 18.6001 76.3503 18.5326 76.4246 18.483C78.4189 16.953 80.4699 15.5094 82.5199 14.1931C82.7009 14.0849 82.9107 14.0346 83.1211 14.049C83.3315 14.0634 83.5324 14.1418 83.697 14.2736C83.7672 14.3282 83.8225 14.3995 83.8579 14.4811C83.8932 14.5627 83.9075 14.6518 83.8994 14.7403C83.8913 14.8289 83.861 14.9139 83.8114 14.9877C83.7618 15.0614 83.6944 15.1215 83.6155 15.1624C81.6013 16.4549 79.5861 17.8746 77.6245 19.3788C77.4531 19.504 77.2452 19.5694 77.033 19.5647ZM91.9288 10.3665C91.7966 10.3691 91.6652 10.3439 91.5433 10.2925C91.4213 10.2411 91.3115 10.1647 91.221 10.0682C91.1625 10.0005 91.1217 9.91942 91.1022 9.83211C91.0827 9.7448 91.0851 9.65402 91.1092 9.56787C91.1333 9.48172 91.1784 9.40289 91.2404 9.3384C91.3024 9.27392 91.3794 9.22579 91.4646 9.19832C93.8548 8.05936 96.3017 7.0433 98.7957 6.15413C98.9903 6.08016 99.2033 6.06985 99.4041 6.1247C99.6049 6.17955 99.7832 6.29672 99.9131 6.45934C100.112 6.77549 99.9459 7.15527 99.5334 7.29843C97.0983 8.16637 94.7091 9.15821 92.3752 10.27C92.2356 10.3355 92.083 10.3685 91.9288 10.3665ZM154.549 10.9153C154.387 10.9147 154.227 10.8762 154.082 10.8029C151.696 9.57313 149.301 8.48052 146.963 7.55493C146.551 7.39189 146.384 7.01012 146.592 6.70192C146.726 6.54357 146.907 6.43253 147.109 6.38525C147.311 6.33797 147.522 6.35698 147.712 6.43946C150.11 7.3889 152.563 8.50736 155.003 9.765C155.088 9.79433 155.164 9.844 155.225 9.90967C155.287 9.97533 155.331 10.055 155.354 10.1417C155.377 10.2284 155.379 10.3195 155.359 10.407C155.339 10.4946 155.298 10.5759 155.239 10.6439C155.15 10.7347 155.042 10.8058 154.924 10.8525C154.805 10.8992 154.678 10.9206 154.551 10.9153H154.549ZM109.526 4.46501C109.36 4.47373 109.196 4.43422 109.052 4.35127C108.909 4.26833 108.793 4.14551 108.718 3.99774C108.588 3.66072 108.843 3.31474 109.285 3.22427C112.017 2.66427 114.779 2.25965 117.557 2.01236C117.754 1.9776 117.957 2.01439 118.13 2.1161C118.302 2.21781 118.432 2.37775 118.497 2.56711C118.56 2.91309 118.241 3.22626 117.785 3.26304C115.087 3.50333 112.406 3.89633 109.753 4.44016C109.678 4.45637 109.602 4.46471 109.526 4.46501ZM136.984 4.44314C136.909 4.44258 136.833 4.43425 136.76 4.41828C135.268 4.09219 133.758 3.82177 132.261 3.60604C131.091 3.44001 129.893 3.30778 128.698 3.20836C128.238 3.17058 127.902 2.8594 127.938 2.51243C127.991 2.32287 128.113 2.16006 128.28 2.05622C128.447 1.95238 128.648 1.91509 128.841 1.95171C130.08 2.05113 131.326 2.19032 132.535 2.36331C134.086 2.58401 135.652 2.86636 137.192 3.20339C137.637 3.30281 137.901 3.65077 137.782 3.98581C137.71 4.13348 137.596 4.25614 137.454 4.33774C137.311 4.41935 137.148 4.45608 136.984 4.44314Z" fill="white" stroke="white" stroke-width="0.994184"/>
<path d="M323.395 4.12089C323.389 4.10552 323.383 4.09213 323.377 4.07874L323.342 3.99949C323.336 3.9871 323.329 3.9757 323.322 3.96522L323.232 3.82531C323.222 3.81148 323.211 3.79838 323.199 3.78609L323.144 3.72536L323.119 3.70569L323.081 3.67414C323.062 3.65961 323.042 3.64622 323.021 3.63403L322.991 3.61395C322.96 3.59663 322.927 3.58105 322.894 3.5673C322.788 3.52528 322.678 3.48997 322.567 3.46156L322.54 3.45366L322.433 3.42325L322.423 3.42256L322.222 3.4513C322.013 3.48155 321.798 3.51336 321.573 3.53044C319.668 3.674 317.763 3.81595 315.86 3.95629L312.296 4.22079C308.944 4.47028 305.593 4.72114 302.242 4.97336L298.341 5.26905L297.874 5.30409C296.554 5.40433 295.235 5.50424 293.916 5.60382C292.379 5.71937 290.844 5.83337 289.311 5.94584L284.653 6.29018C283.272 6.39272 281.706 6.50726 280.203 6.62916C280.015 6.62359 279.83 6.68216 279.679 6.7953C279.528 6.90843 279.42 7.06942 279.373 7.25192C279.362 7.28537 279.349 7.31779 279.332 7.34878L279.324 7.46189C279.322 7.47495 279.321 7.48829 279.321 7.50158C279.403 7.87522 279.704 8.11372 280.163 8.37625C282.682 9.8142 285.277 11.3064 287.567 12.6246L288.358 13.0789C289.508 13.7405 290.658 14.4018 291.808 15.0628C291.984 15.1587 292.137 15.2919 292.257 15.453C292.376 15.6141 292.46 15.7993 292.5 15.9957C292.921 18.2806 293.344 20.5654 293.769 22.8499L294.856 28.6833C294.879 28.871 294.963 29.046 295.096 29.1813C295.228 29.3166 295.401 29.4049 295.588 29.4326C295.618 29.4401 295.647 29.4494 295.676 29.4607L295.844 29.4725C295.862 29.4741 295.88 29.4733 295.897 29.4702C296.312 29.358 296.702 29.1677 297.046 28.9096C297.193 28.8143 297.338 28.7198 297.487 28.6325C298.242 28.1869 298.99 27.7259 299.714 27.2782C300.109 27.0346 300.504 26.7915 300.9 26.5487L303.277 25.1022C304.388 24.4269 305.499 23.7508 306.61 23.0736C306.776 22.9637 306.97 22.9039 307.168 22.9014C307.367 22.8989 307.562 22.9538 307.731 23.0594C308.891 23.7198 310.053 24.3786 311.217 25.0359C312.925 26.0022 314.861 27.0982 316.728 28.1704C316.874 28.2601 317.037 28.3166 317.208 28.3358C317.378 28.355 317.55 28.3363 317.712 28.2813C317.862 28.2279 317.995 28.1367 318.099 28.0164C318.203 27.8961 318.274 27.751 318.306 27.595C318.526 26.4479 318.789 25.2968 319.043 24.1839C319.168 23.6383 319.292 23.1046 319.41 22.5625C319.573 21.8255 319.734 21.0883 319.894 20.351L319.932 20.1762C320.073 19.5274 320.215 18.8789 320.356 18.2308C320.505 17.5585 320.654 16.8867 320.806 16.2153L320.854 16.0033C320.984 15.4208 321.114 14.8387 321.243 14.2568C321.369 13.6873 321.493 13.1174 321.617 12.5471L321.646 12.4145C321.776 11.8141 321.907 11.2137 322.039 10.6135C322.196 9.90062 322.355 9.18817 322.514 8.47616L322.516 8.44837C322.651 7.84562 322.785 7.24251 322.919 6.63904C322.989 6.32356 323.058 6.00797 323.125 5.6923L323.148 5.58817C323.209 5.30199 323.271 5.01586 323.333 4.72977C323.345 4.67949 323.361 4.63051 323.383 4.58365C323.388 4.57228 323.392 4.56006 323.393 4.54749L323.418 4.19527L323.405 4.15751C323.405 4.14851 323.4 4.1342 323.395 4.12089ZM293.859 13.8147C293.705 13.8728 293.54 13.8979 293.376 13.8885C293.208 13.876 293.046 13.8251 292.901 13.7395C290.684 12.4587 288.466 11.1804 286.245 9.90458L284.728 9.03142L284.622 8.96813L284.538 8.91736C284.44 8.86445 284.363 8.78029 284.318 8.67831C284.274 8.57633 284.265 8.46242 284.293 8.35479C284.329 8.24553 284.398 8.15009 284.491 8.08146C284.583 8.01283 284.694 7.97435 284.809 7.97125L312.875 5.86375C313.019 5.84635 313.164 5.88184 313.284 5.96361C313.403 6.04538 313.489 6.16784 313.525 6.30816L313.535 6.3567C313.554 6.47447 313.531 6.59541 313.469 6.69742C313.407 6.79943 313.31 6.8757 313.197 6.91229L313.126 6.93923C313.07 6.9612 313.011 6.98402 312.953 7.00486L299.72 11.7132C297.766 12.411 295.812 13.1102 293.859 13.8107L293.859 13.8147ZM297.759 22.4159L296.975 23.9362C296.919 24.0372 296.834 24.1195 296.732 24.1726C296.629 24.2257 296.513 24.2474 296.398 24.2348L296.355 24.2317C296.233 24.2226 296.118 24.1748 296.026 24.0952C295.934 24.0157 295.87 23.9087 295.843 23.7901L295.022 19.3593C294.82 18.2643 294.619 17.1693 294.408 16.0757C294.386 15.983 294.383 15.8868 294.399 15.7929C294.415 15.699 294.45 15.6094 294.502 15.5292C294.553 15.4491 294.62 15.3801 294.699 15.3265C294.778 15.2729 294.866 15.2356 294.96 15.2171C298.73 13.8809 302.499 12.5406 306.266 11.1962L308.406 10.431L310.056 9.84076C310.23 9.77397 310.416 9.74162 310.603 9.74552C310.722 9.74476 310.839 9.77969 310.938 9.84582C311.037 9.91194 311.114 10.0062 311.159 10.1166C311.198 10.2218 311.197 10.3372 311.159 10.4423C311.12 10.5475 311.046 10.6356 310.948 10.6911L307.191 13.0817C305 14.4725 302.737 15.9111 300.511 17.3374C300.392 17.4184 300.294 17.5276 300.227 17.6554C299.348 19.3307 298.43 21.1139 297.759 22.4159ZM304.709 22.2104L299.69 25.2603C299.58 25.324 299.454 25.3552 299.327 25.3502C299.201 25.3452 299.078 25.3042 298.974 25.232L298.924 25.1967C298.824 25.1321 298.75 25.0328 298.718 24.9176C298.686 24.8024 298.698 24.6795 298.751 24.5723L301.1 20.0269C301.138 19.9567 301.191 19.8956 301.255 19.8474C301.319 19.7993 301.392 19.7653 301.47 19.7477C301.637 19.7053 301.814 19.7288 301.964 19.8133L304.685 21.3472C304.765 21.389 304.832 21.4507 304.881 21.5262C304.93 21.6018 304.959 21.6887 304.964 21.7786C304.964 21.8666 304.94 21.9529 304.895 22.0288C304.851 22.1046 304.786 22.1673 304.709 22.2104ZM320.784 7.60199L316.855 25.4194C316.833 25.506 316.79 25.5858 316.729 25.6513C316.669 25.7168 316.592 25.7658 316.508 25.7938C316.417 25.8262 316.321 25.8388 316.226 25.8309C316.13 25.823 316.037 25.7947 315.954 25.748L303.273 18.567C303.194 18.5256 303.128 18.465 303.079 18.3908C303.03 18.3166 303.001 18.2312 302.995 18.1427C302.992 18.0556 303.013 17.9694 303.054 17.8929C303.096 17.8165 303.158 17.7525 303.232 17.7077L319.842 7.06633C319.943 7.00376 320.058 6.96939 320.177 6.96682C320.295 6.96425 320.412 6.99358 320.515 7.05172C320.614 7.10115 320.694 7.18185 320.743 7.28133C320.791 7.3808 320.806 7.49351 320.784 7.60199Z" fill="white" stroke="white" stroke-width="0.745975"/>
</g>
</g>
</g>
<defs>
<clipPath id="clip0_1_6387">
<rect width="322.89" height="79" fill="white" transform="translate(0.969971)"/>
</clipPath>
<clipPath id="clip1_1_6387">
<rect width="322.89" height="79" fill="white" transform="translate(0.969971)"/>
</clipPath>
<clipPath id="clip2_1_6387">
<rect width="322.89" height="78.9978" fill="white" transform="translate(0.969971 0.000976562)"/>
</clipPath>
</defs>
</svg>
