<svg width="41" height="40" viewBox="0 0 41 40" fill="none" xmlns="http://www.w3.org/2000/svg">
<g clip-path="url(#clip0_1_21322)">
<g clip-path="url(#clip1_1_21322)">
<g clip-path="url(#clip2_1_21322)">
<path d="M8.19182 4.45068L2.70115 7.66473C2.50131 7.79606 2.27032 7.87228 2.03156 7.8857C1.79602 7.88531 1.56469 7.82331 1.36053 7.70585C1.15638 7.58838 0.986508 7.41954 0.867806 7.2161C0.771776 7.06558 0.708294 6.89663 0.681437 6.72011C0.654579 6.54359 0.664941 6.36341 0.711857 6.19114C0.758772 6.01886 0.841203 5.8583 0.953856 5.71978C1.06651 5.58125 1.20689 5.46782 1.36598 5.38677L8.86142 0.848267C9.17341 0.687544 9.53429 0.649545 9.87292 0.741762C10.2115 0.833979 10.5033 1.04972 10.6907 1.34645C10.8526 1.65228 10.9109 2.00237 10.8568 2.34414V37.9759C10.8591 38.1512 10.8263 38.3252 10.7603 38.4876C10.6943 38.65 10.5965 38.7975 10.4725 38.9214C10.3486 39.0454 10.201 39.1433 10.0386 39.2093C9.87625 39.2753 9.70227 39.3081 9.52699 39.3057C9.17581 39.3009 8.84038 39.1592 8.59203 38.9109C8.34369 38.6625 8.20203 38.3271 8.19718 37.9759L8.19182 4.45068Z" fill="#D6D6D6"/>
<path d="M9.52827 39.9981C8.9926 39.9925 8.48038 39.7775 8.1012 39.3991C7.72203 39.0207 7.50602 38.5089 7.4994 37.9732V5.65863L3.08009 8.25264C2.77198 8.45102 2.41641 8.56338 2.05025 8.57806C1.69245 8.5796 1.34058 8.48667 1.03019 8.30867C0.719803 8.13067 0.461895 7.8739 0.282524 7.5643C0.140013 7.31582 0.0494392 7.04099 0.0162909 6.75646C-0.0168575 6.47194 0.00811038 6.18365 0.0896812 5.90906C0.16665 5.66812 0.290684 5.44486 0.454591 5.25221C0.618498 5.05957 0.819017 4.90138 1.04452 4.78682L8.53192 0.240281C9.00167 -0.00558597 9.54697 -0.0648991 10.0586 0.0742221C10.318 0.138748 10.5617 0.255053 10.775 0.416147C10.9884 0.577241 11.1669 0.7798 11.3 1.01165C11.5242 1.43493 11.6117 1.9173 11.5504 2.39236V37.9732C11.5533 38.2396 11.503 38.5038 11.4024 38.7505C11.3018 38.9971 11.1529 39.2212 10.9646 39.4095C10.7762 39.5979 10.5521 39.7467 10.3055 39.8473C10.0589 39.9479 9.79463 39.9983 9.52827 39.9954M8.89082 3.2414V37.9732C8.8949 38.141 8.96337 38.3008 9.08204 38.4195C9.20071 38.5381 9.36049 38.6066 9.52827 38.6107C9.61249 38.6125 9.6962 38.5973 9.77436 38.5659C9.85253 38.5345 9.92353 38.4876 9.98309 38.428C10.0427 38.3685 10.0895 38.2975 10.1209 38.2193C10.1523 38.1411 10.1676 38.0574 10.1657 37.9732V2.28656L10.1778 2.23031C10.2066 2.03313 10.1704 1.83193 10.0747 1.65714C9.98605 1.53215 9.8536 1.44513 9.70371 1.41341C9.53858 1.36525 9.36159 1.37857 9.20553 1.45091L1.69269 6.01084C1.62694 6.04152 1.56812 6.08523 1.51977 6.13933C1.47143 6.19343 1.43458 6.25678 1.41146 6.32555C1.38677 6.42044 1.38128 6.51931 1.39531 6.61636C1.40934 6.7134 1.4426 6.80667 1.49315 6.89069C1.55301 6.98284 1.63497 7.05857 1.73157 7.11096C1.82817 7.16335 1.93634 7.19075 2.04623 7.19066C2.14634 7.17544 2.24214 7.1394 2.32746 7.08487L2.36228 7.06344L8.89082 3.2414Z" fill="#D6D6D6"/>
<path d="M24.7121 33.7668C25.2601 33.7668 25.7958 33.9293 26.2514 34.2338C26.7071 34.5382 27.0622 34.971 27.2719 35.4772C27.4817 35.9835 27.5365 36.5406 27.4296 37.0781C27.3227 37.6156 27.0588 38.1093 26.6713 38.4968C26.2838 38.8843 25.7901 39.1482 25.2526 39.2551C24.7152 39.362 24.158 39.3072 23.6517 39.0974C23.1454 38.8877 22.7127 38.5326 22.4083 38.0769C22.1038 37.6213 21.9413 37.0856 21.9413 36.5376C21.9377 36.1727 22.0069 35.8108 22.1449 35.473C22.2829 35.1352 22.4869 34.8284 22.7449 34.5704C23.0029 34.3123 23.3097 34.1084 23.6475 33.9704C23.9853 33.8324 24.3472 33.7632 24.7121 33.7668Z" fill="#D6D6D6"/>
<path d="M24.7107 39.9981C24.0258 39.9981 23.3562 39.7949 22.7867 39.4144C22.2172 39.0339 21.7733 38.493 21.5112 37.8602C21.2491 37.2274 21.1805 36.5311 21.3141 35.8593C21.4477 35.1875 21.7776 34.5704 22.2619 34.0861C22.7462 33.6018 23.3633 33.2719 24.0351 33.1383C24.7069 33.0047 25.4032 33.0733 26.036 33.3354C26.6688 33.5975 27.2097 34.0414 27.5902 34.6109C27.9707 35.1804 28.1738 35.85 28.1738 36.5349C28.1787 36.991 28.0924 37.4436 27.9201 37.8659C27.7478 38.2883 27.4928 38.672 27.1703 38.9945C26.8477 39.3171 26.464 39.572 26.0417 39.7443C25.6193 39.9166 25.1668 40.0029 24.7107 39.9981ZM24.7107 34.4565C24.2996 34.4565 23.8978 34.5784 23.556 34.8068C23.2142 35.0351 22.9478 35.3598 22.7905 35.7395C22.6332 36.1193 22.592 36.5372 22.6722 36.9404C22.7524 37.3436 22.9504 37.7139 23.241 38.0046C23.5317 38.2952 23.9021 38.4932 24.3052 38.5734C24.7084 38.6536 25.1263 38.6124 25.5061 38.4551C25.8859 38.2978 26.2105 38.0314 26.4388 37.6896C26.6672 37.3478 26.7891 36.946 26.7891 36.5349C26.7922 36.2611 26.7405 35.9895 26.6371 35.7359C26.5338 35.4824 26.3808 35.2521 26.1872 35.0585C25.9935 34.8648 25.7632 34.7119 25.5097 34.6085C25.2561 34.5051 24.9845 34.4534 24.7107 34.4565Z" fill="#D6D6D6"/>
<path d="M36.7313 4.45068L31.2406 7.66473C31.0943 7.7655 30.9284 7.83427 30.7537 7.86655C30.579 7.89883 30.3995 7.89389 30.2268 7.85205C30.0542 7.81022 29.8923 7.73243 29.7518 7.62377C29.6112 7.51511 29.4952 7.37802 29.4113 7.22146C29.3152 7.07093 29.2518 6.90199 29.2249 6.72547C29.198 6.54895 29.2084 6.36877 29.2553 6.19649C29.3022 6.02422 29.3847 5.86366 29.4973 5.72513C29.61 5.58661 29.7503 5.47318 29.9094 5.39213L37.4009 0.848267C37.7128 0.687544 38.0737 0.649545 38.4124 0.741762C38.751 0.833979 39.0428 1.04972 39.2302 1.34645C39.392 1.65228 39.4503 2.00237 39.3962 2.34414V37.9759C39.3986 38.1512 39.3658 38.3252 39.2998 38.4876C39.2338 38.65 39.1359 38.7975 39.012 38.9214C38.888 39.0454 38.7405 39.1433 38.5781 39.2093C38.4157 39.2753 38.2417 39.3081 38.0664 39.3057C37.7153 39.3009 37.3798 39.1592 37.1315 38.9109C36.8831 38.6625 36.7415 38.3271 36.7366 37.9759L36.7313 4.45068Z" fill="#D6D6D6"/>
<path d="M38.0677 39.9981C37.532 39.9925 37.0198 39.7775 36.6406 39.3991C36.2614 39.0207 36.0454 38.5089 36.0388 37.9732V5.65863L31.6195 8.25264C31.3114 8.45102 30.9558 8.56338 30.5897 8.57806C30.2323 8.57912 29.881 8.48597 29.5711 8.30799C29.2612 8.13002 29.0038 7.8735 28.8246 7.56429C28.6823 7.31572 28.592 7.04084 28.5591 6.75632C28.5261 6.4718 28.5513 6.18356 28.6331 5.90906C28.7099 5.66823 28.8338 5.44504 28.9974 5.25241C29.1611 5.05977 29.3614 4.90152 29.5866 4.78682L37.074 0.233582C37.5439 -0.00935092 38.088 -0.0662545 38.598 0.0742189C38.8574 0.138745 39.1011 0.255049 39.3145 0.416144C39.5278 0.577238 39.7064 0.779797 39.8394 1.01165C40.0636 1.43493 40.1511 1.9173 40.0899 2.39235V37.9732C40.0927 38.2396 40.0424 38.5038 39.9418 38.7505C39.8412 38.9971 39.6923 39.2212 39.504 39.4095C39.3156 39.5979 39.0915 39.7467 38.8449 39.8473C38.5983 39.9479 38.334 39.9983 38.0677 39.9954M37.4302 3.23872V37.9732C37.4343 38.141 37.5028 38.3008 37.6214 38.4195C37.7401 38.5381 37.8999 38.6066 38.0677 38.6107C38.1519 38.6125 38.2356 38.5973 38.3138 38.5659C38.3919 38.5345 38.4629 38.4876 38.5225 38.428C38.5821 38.3685 38.629 38.2975 38.6603 38.2193C38.6917 38.1411 38.707 38.0574 38.7051 37.9732V2.28656L38.7145 2.23031C38.7433 2.03312 38.7071 1.83192 38.6114 1.65714C38.5232 1.5332 38.3918 1.44674 38.2431 1.41475C38.078 1.36658 37.901 1.3799 37.7449 1.45224L30.2308 6.01351C30.165 6.04419 30.1062 6.08791 30.0578 6.142C30.0095 6.1961 29.9727 6.25946 29.9495 6.32822C29.9248 6.42312 29.9194 6.52199 29.9334 6.61903C29.9474 6.71607 29.9807 6.80934 30.0312 6.89336C30.0911 6.98552 30.173 7.06124 30.2696 7.11364C30.3662 7.16603 30.4744 7.19343 30.5843 7.19334C30.6844 7.17811 30.7802 7.14207 30.8655 7.08754L30.9004 7.06612L37.4302 3.23872Z" fill="#D6D6D6"/>
</g>
</g>
</g>
<defs>
<clipPath id="clip0_1_21322">
<rect width="40.11" height="40" fill="white"/>
</clipPath>
<clipPath id="clip1_1_21322">
<rect width="40.11" height="40" fill="white"/>
</clipPath>
<clipPath id="clip2_1_21322">
<rect width="40.11" height="39.9962" fill="white" transform="translate(0 0.00189209)"/>
</clipPath>
</defs>
</svg>
