<svg width="61" height="61" viewBox="0 0 61 61" fill="none" xmlns="http://www.w3.org/2000/svg">
<path d="M43.3681 27.1958C43.8171 27.1958 44.256 27.3289 44.6293 27.5784C45.0026 27.8278 45.2935 28.1823 45.4654 28.5971C45.6372 29.0119 45.6821 29.4683 45.5945 29.9087C45.5069 30.349 45.2907 30.7535 44.9733 31.0709C44.6558 31.3884 44.2513 31.6046 43.811 31.6922C43.3707 31.7798 42.9142 31.7348 42.4995 31.563C42.0847 31.3912 41.7301 31.1002 41.4807 30.7269C41.2313 30.3536 41.0981 29.9148 41.0981 29.4658C41.0987 28.8639 41.338 28.2868 41.7636 27.8613C42.1892 27.4357 42.7663 27.1963 43.3681 27.1958Z" fill="white"/>
<path d="M0.911219 33.9966C1.67893 33.2881 2.66885 32.8683 3.7118 32.8088C4.75474 32.7494 5.78596 33.054 6.62922 33.6706C7.18721 33.6322 7.74781 33.6658 8.29722 33.7706C8.61122 28.1826 11.9442 23.0946 17.5462 19.7106C17.5712 19.6946 17.5962 19.6796 17.6212 19.6656C17.8439 19.5414 18.0984 19.4858 18.3526 19.5059C18.6068 19.5261 18.8493 19.621 19.0497 19.7787C19.25 19.9364 19.3993 20.1498 19.4786 20.3922C19.5578 20.6345 19.5636 20.8949 19.4952 21.1406C19.4052 21.4666 19.1894 21.7436 18.8952 21.9106C13.7862 25.0236 10.8622 29.6656 10.8712 34.6466C10.8712 39.6636 13.9392 44.4466 19.0892 47.4926H19.1002C19.3134 47.5322 19.5145 47.6205 19.6879 47.7506C19.8614 47.8807 20.0024 48.0491 20.1001 48.2427C20.1977 48.4362 20.2493 48.6497 20.2509 48.8665C20.2525 49.0833 20.204 49.2976 20.1092 49.4926L19.2002 54.3566C19.1958 54.384 19.1977 54.412 19.2059 54.4385C19.214 54.4651 19.2282 54.4894 19.2472 54.5096C19.2639 54.5311 19.2855 54.5482 19.3102 54.5596C19.3349 54.5709 19.3621 54.576 19.3892 54.5746H22.5472C22.5996 54.5724 22.6492 54.5506 22.6862 54.5135C22.7232 54.4765 22.745 54.4269 22.7472 54.3746L23.5062 50.7616C23.5531 50.5331 23.6609 50.3217 23.8183 50.1496C23.9757 49.9776 24.1768 49.8513 24.4001 49.7844C24.6235 49.7174 24.8608 49.7122 25.0869 49.7693C25.313 49.8263 25.5194 49.9436 25.6842 50.1086C29.7347 51.0343 33.9444 51.0107 37.9842 50.0396C38.1501 49.8773 38.3567 49.7627 38.5822 49.7079C38.8077 49.653 39.0439 49.6599 39.2658 49.7278C39.4877 49.7958 39.6872 49.9222 39.8434 50.0939C39.9995 50.2656 40.1066 50.4762 40.1532 50.7036L40.9142 54.4186C40.9205 54.461 40.9421 54.4996 40.9749 54.5272C41.0077 54.5548 41.0494 54.5695 41.0922 54.5686H44.2742C44.3025 54.5687 44.3305 54.562 44.3557 54.5491C44.3809 54.5362 44.4027 54.5175 44.4192 54.4946C44.448 54.4628 44.464 54.4215 44.4642 54.3786L43.5402 49.5406L43.3402 49.4406H43.5212L43.5002 49.3406C43.4009 49.1506 43.3465 48.9403 43.3413 48.726C43.3361 48.5117 43.3801 48.299 43.4701 48.1045C43.56 47.9099 43.6935 47.7385 43.8601 47.6037C44.0268 47.4688 44.2221 47.374 44.4312 47.3266C44.4936 47.315 44.5568 47.308 44.6202 47.3056C47.5423 45.5958 49.8843 43.0487 51.3432 39.9936C51.4542 39.6747 51.6854 39.4118 51.9875 39.261C52.2896 39.1103 52.6387 39.0835 52.9602 39.1866C53.3232 39.356 53.716 39.4521 54.1162 39.4692C54.5164 39.4864 54.9161 39.4243 55.2922 39.2866C57.3122 38.1526 58.3332 34.4636 57.7522 32.2386C57.4682 31.1526 56.9112 30.6246 56.0452 30.6246H56.0352C55.1189 30.6185 54.2061 30.7379 53.3222 30.9796C53.1931 31.0222 53.0581 31.0441 52.9222 31.0446H52.9002C52.842 31.0438 52.7838 31.0391 52.7262 31.0306H52.7092C52.5605 31.007 52.417 30.9576 52.2852 30.8846C52.2552 30.8676 52.2312 30.8456 52.2032 30.8276L52.1642 30.8006C51.9268 30.6341 51.7529 30.3918 51.6712 30.1136C50.465 27.1015 48.3771 24.524 45.6812 22.7186C45.4017 22.5207 45.2121 22.2201 45.154 21.8827C45.0959 21.5452 45.174 21.1985 45.3712 20.9186C45.4022 20.8767 45.4356 20.8366 45.4712 20.7986C45.8632 20.214 46.1037 19.5412 46.1712 18.8406V18.8146C46.2901 17.6252 46.7798 16.5033 47.5712 15.6076C46.5272 15.3696 45.4416 15.3819 44.4032 15.6436C43.8392 15.7616 43.3443 16.0968 43.0252 16.5766C42.6951 17.2169 42.6256 17.9601 42.8312 18.6506C42.8623 18.7459 42.8821 18.8446 42.8902 18.9446C42.8902 18.9596 42.8902 18.9746 42.8902 18.9886C42.8902 19.0026 42.8962 19.0396 42.8962 19.0656C42.896 19.3249 42.8172 19.578 42.6702 19.7916C42.6582 19.8106 42.6432 19.8276 42.6302 19.8456C42.6172 19.8636 42.6112 19.8716 42.6012 19.8846C42.4195 20.1079 42.168 20.2638 41.8872 20.3272C41.6063 20.3907 41.3123 20.3581 41.0522 20.2346C40.5332 20.0266 39.9962 19.8346 39.4662 19.6746C39.4249 19.6639 39.3846 19.6516 39.3452 19.6376C39.0209 19.5278 38.7534 19.2936 38.6017 18.9866C38.45 18.6796 38.4264 18.3249 38.5362 18.0006C38.646 17.6762 38.8802 17.4088 39.1872 17.257C39.4942 17.1053 39.8489 17.0818 40.1732 17.1916C40.2551 16.5466 40.4515 15.9215 40.7532 15.3456C41.0704 14.8006 41.4947 14.3254 42.0005 13.9489C42.5063 13.5723 43.0831 13.3021 43.6962 13.1546C46.1187 12.5463 48.6825 12.8985 50.8512 14.1376C51.0471 14.2545 51.2085 14.4212 51.3191 14.6207C51.4296 14.8202 51.4854 15.0454 51.4808 15.2734C51.4761 15.5015 51.4111 15.7242 51.2925 15.9191C51.1738 16.1139 51.0057 16.2738 50.8052 16.3826C50.2101 16.603 49.6929 16.9938 49.3183 17.5061C48.9436 18.0184 48.728 18.6296 48.6982 19.2636C48.6171 19.9705 48.4233 20.6599 48.1242 21.3056C50.5064 23.1404 52.4089 25.5246 53.6692 28.2546C54.4511 28.1092 55.2449 28.0375 56.0402 28.0406C57.0491 28.0377 58.0264 28.3927 58.7982 29.0426C59.57 29.6924 60.0862 30.5949 60.2552 31.5896C61.1032 34.8266 59.7142 39.7736 56.5842 41.5506C55.9616 41.8973 55.2608 42.0794 54.5482 42.0796H54.4662C54.0633 42.0672 53.6621 42.0227 53.2662 41.9466C51.5937 45.0189 49.1352 47.5919 46.1422 49.4026L47.0042 53.9296C47.0725 54.3253 47.0535 54.7311 46.9487 55.1187C46.8439 55.5063 46.6558 55.8663 46.3975 56.1737C46.1391 56.4811 45.8168 56.7284 45.453 56.8983C45.0892 57.0682 44.6927 57.1567 44.2912 57.1576H41.0712C40.4259 57.1548 39.8022 56.9254 39.3087 56.5097C38.8152 56.0939 38.4834 55.518 38.3712 54.8826L37.9252 52.7166C35.891 53.1624 33.8147 53.3877 31.7322 53.3886H31.6212C29.6412 53.3872 27.6667 53.1808 25.7292 52.7726L25.3052 54.8186C25.2029 55.4683 24.8728 56.0605 24.3739 56.4892C23.8751 56.9179 23.24 57.1552 22.5822 57.1586H19.3722C18.9678 57.1585 18.5683 57.0695 18.2021 56.8978C17.8359 56.7262 17.5119 56.4761 17.253 56.1654C16.9942 55.8546 16.8068 55.4908 16.7042 55.0996C16.6016 54.7084 16.5862 54.2994 16.6592 53.9016L17.4762 49.5416C12.4682 46.4796 9.22622 41.9196 8.45022 36.9556C8.4112 37.2502 8.31208 37.5337 8.15898 37.7885C8.00588 38.0432 7.80208 38.2638 7.56022 38.4366C7.00506 38.8283 6.3396 39.0332 5.66022 39.0216H5.56022C4.8967 39.02 4.25306 38.7949 3.73322 38.3826C3.34381 38.0398 3.09036 37.5686 3.01897 37.0548C2.94758 36.5409 3.06299 36.0185 3.34422 35.5826C3.36322 35.5476 3.38322 35.5126 3.40322 35.4826C3.10033 35.5741 2.82229 35.7335 2.59022 35.9486L2.56722 35.9676C2.30262 36.1534 1.97796 36.2332 1.65736 36.1914C1.33675 36.1495 1.0435 35.9889 0.835514 35.7413C0.627525 35.4938 0.519914 35.1773 0.53393 34.8542C0.547946 34.5312 0.68257 34.2252 0.911219 33.9966Z" fill="white"/>
<path d="M20.7494 26.1566H20.7434C20.4802 26.1567 20.2232 26.0763 20.0069 25.9263C19.7906 25.7763 19.6253 25.5638 19.5331 25.3173C19.4408 25.0707 19.4261 24.8019 19.4909 24.5468C19.5556 24.2916 19.6968 24.0623 19.8954 23.8896C25.0814 19.3676 32.4264 19.8116 37.0644 22.1436C37.3524 22.3084 37.566 22.5776 37.6609 22.8955C37.7558 23.2134 37.7248 23.5556 37.5743 23.8513C37.4237 24.147 37.1652 24.3734 36.8523 24.4836C36.5394 24.5939 36.1961 24.5796 35.8934 24.4436C31.8784 22.4266 25.6704 22.2556 21.5744 25.8326C21.4264 25.9614 21.251 26.0548 21.0614 26.1056V26.1536L20.7494 26.1566Z" fill="white"/>
<path d="M36.7902 18.9798C36.7692 19.0168 36.7472 19.0528 36.7222 19.0868C36.5244 19.3625 36.2262 19.5494 35.8918 19.6071C35.5574 19.6648 35.2138 19.5886 34.9351 19.395C34.6564 19.2015 34.4651 18.906 34.4024 18.5726C34.3398 18.2391 34.4108 17.8943 34.6002 17.6128C34.9997 16.9965 35.301 16.3217 35.4932 15.6128C35.6521 15.0018 35.7327 14.3731 35.7332 13.7418C35.7316 12.5955 35.4621 11.4654 34.9462 10.4418C34.0573 8.73374 32.531 7.4449 30.6982 6.85472C28.8653 6.26455 26.8737 6.42061 25.1552 7.28908C23.4367 8.15756 22.1298 9.66842 21.5178 11.4941C20.9059 13.3198 21.0382 15.3131 21.8862 17.0418C22.1279 17.5179 22.4227 17.9651 22.7652 18.3748C22.9238 18.5629 23.0255 18.7924 23.0581 19.0363C23.0908 19.2802 23.0531 19.5284 22.9495 19.7516C22.846 19.9748 22.6808 20.1638 22.4735 20.2964C22.2661 20.4289 22.0252 20.4995 21.7792 20.4998H21.7582C21.5744 20.4992 21.3929 20.4597 21.2255 20.3839C21.0581 20.3081 20.9087 20.1976 20.7872 20.0598C20.3053 19.4878 19.8912 18.862 19.5532 18.1948C18.8606 16.8169 18.4977 15.2969 18.4932 13.7548C18.4897 11.1302 19.5286 8.61162 21.3815 6.75275C23.2344 4.89387 25.7496 3.84683 28.3742 3.8418L28.3912 3.8418C31.0125 3.8439 33.5262 4.88473 35.3818 6.73635C37.2373 8.58796 38.2835 11.0994 38.2912 13.7208C38.2928 14.5719 38.1859 15.4197 37.9732 16.2438C37.7247 17.2115 37.3269 18.1346 36.7942 18.9798" fill="white"/>
</svg>
