<svg width="61" height="61" viewBox="0 0 61 61" fill="none" xmlns="http://www.w3.org/2000/svg">
<path d="M30.9397 0.498047C22.9895 0.5126 15.37 3.67873 9.75024 9.30225C4.13048 14.9258 0.969456 22.5479 0.960205 30.498C0.969204 38.4518 4.13294 46.0775 9.75708 51.7017C15.3812 57.3258 23.0065 60.489 30.9602 60.498C38.9148 60.4869 46.5404 57.3214 52.1643 51.6958C57.7882 46.0702 60.9515 38.4439 60.9602 30.4893C60.9427 22.5355 57.7736 14.913 52.1467 9.2915C46.5198 3.67005 38.8935 0.507819 30.9397 0.498047ZM30.9602 57.4561C26.7053 57.4513 22.5113 56.4425 18.72 54.5112C18.773 53.2862 18.8702 52.1732 19.0012 51.2002C19.2922 49.0492 20.015 48.641 20.718 48.248C21.3301 48.0145 21.8367 47.5665 22.1428 46.9873C22.449 46.4081 22.5338 45.7374 22.3821 45.1001C22.3449 44.4503 22.4917 43.8034 22.8059 43.2334C23.5492 41.7722 23.7247 40.0873 23.2981 38.5044C22.6891 36.3614 20.962 35.527 19.134 34.644C16.9802 33.6779 14.9806 32.4002 13.1985 30.8521C10.1345 28.1791 8.27433 28.1421 7.16333 28.1211C6.91933 28.1211 6.91862 28.1213 6.60962 26.9873C6.53162 26.6943 6.35653 26.0483 6.32153 25.8003C6.34453 25.7903 6.37359 25.7791 6.40259 25.7651C7.19414 25.439 7.91261 24.957 8.51392 24.3477C9.11522 23.7383 9.58706 23.0141 9.90259 22.2183C10.9537 20.1413 12.5232 18.3702 14.4583 17.0762C14.6393 17.2555 14.8546 17.3971 15.0911 17.4922C15.3275 17.5873 15.5804 17.6344 15.8352 17.6304C16.7412 17.6304 17.614 17.0745 18.759 15.7715C19.1643 15.4061 19.4917 14.9624 19.7209 14.4673C19.9502 13.9722 20.0766 13.4355 20.093 12.8901C20.0557 12.5358 19.945 12.1933 19.7678 11.8843C19.5906 11.5752 19.3506 11.3064 19.0637 11.0952C19.2333 10.8082 19.4255 10.5352 19.6379 10.2783C19.7669 10.1133 19.8816 9.96508 19.9836 9.83008C20.0294 10.0464 20.0927 10.259 20.1721 10.4653C20.2999 10.9006 20.5605 11.2852 20.9172 11.5654C21.274 11.8456 21.7092 12.0073 22.1624 12.0283C22.4709 12.0261 22.774 11.9502 23.0471 11.8066C23.3203 11.6631 23.5548 11.456 23.7317 11.2031C23.9997 10.8451 25.3939 10.0263 31.7239 8.57129C32.8342 8.32115 33.8554 7.77258 34.677 6.98486C35.4986 6.19714 36.0894 5.19994 36.386 4.10107C37.9354 4.42012 39.4537 4.87557 40.9231 5.46143C40.6117 5.7787 40.2255 6.01223 39.8 6.14111L39.3157 6.29102C38.1707 6.63502 37.1852 6.93127 36.7112 7.94727C36.5672 8.31631 36.4976 8.71043 36.5071 9.10645C36.5165 9.50246 36.6045 9.89263 36.7659 10.2544C35.7604 10.6281 34.7056 10.8519 33.635 10.9185C33.3956 10.9334 33.1637 11.0068 32.9592 11.1323C32.2523 11.5694 31.642 12.1458 31.1653 12.8267C30.6885 13.5075 30.3548 14.2785 30.1858 15.0923C30.1109 15.8229 30.2076 16.5608 30.468 17.2476C30.7284 17.9343 31.1453 18.5511 31.6858 19.0483C31.7038 19.0653 31.7167 19.0782 31.7307 19.0942C31.5847 19.2252 31.3092 19.4511 30.7952 19.8281C28.6722 21.4081 25.4589 23.7941 26.9709 29.6421C28.3579 35.0311 31.8543 36.1621 34.5393 36.1621C35.8269 36.1472 37.102 35.9142 38.3118 35.4731C39.0248 36.3731 40.0622 38.5293 39.4192 43.1733C38.9402 46.6733 39.4544 49.4962 40.8684 51.1182C41.2483 51.5733 41.7236 51.9392 42.261 52.1895C42.7984 52.4397 43.384 52.5685 43.9768 52.5664C45.8768 52.5664 47.8775 51.2822 49.6145 48.9482C54.0075 43.0402 55.0008 40.3251 54.2288 36.3081C54.0428 35.3441 54.2505 35.0332 55.6165 34.2192C56.1234 34.0141 56.5718 33.6883 56.9241 33.27C57.2763 32.8517 57.5211 32.3538 57.637 31.8193C57.682 31.7823 57.7315 31.7441 57.7825 31.7041L57.8372 31.665C57.8532 31.651 57.8719 31.6395 57.8879 31.6265C57.6115 38.4887 54.7126 44.9827 49.7883 49.77C44.7656 54.7064 38.0026 57.4675 30.9602 57.4561ZM16.8918 13.2305C16.762 13.4158 16.6212 13.5929 16.47 13.7612L16.3635 13.8833C16.2285 13.6515 16.0339 13.4601 15.8 13.3286C15.5662 13.1971 15.3016 13.1303 15.0334 13.1353C14.7669 13.134 14.5043 13.2 14.2698 13.3267C14.0353 13.4533 13.8357 13.6368 13.6907 13.8604C13.4554 14.0603 13.2083 14.2447 12.9495 14.4131C10.481 16.0177 8.48513 18.252 7.16821 20.8853C6.87382 21.675 6.32005 22.3417 5.5979 22.7764C7.46346 16.8712 11.26 11.7644 16.3772 8.27637C16.4243 8.35067 16.4774 8.42115 16.5354 8.4873C16.6473 8.61987 16.7774 8.73546 16.9221 8.83105C15.6351 10.6391 15.6258 12.0395 16.8918 13.2305ZM20.3713 39.3403C20.5927 40.2781 20.4525 41.2649 19.9797 42.1045C19.4513 43.1587 19.2404 44.3432 19.3713 45.5151L19.3049 45.5532L19.2229 45.5981C18.1289 46.2101 16.4806 47.1363 15.9846 50.7983C15.9066 51.3803 15.8424 51.9983 15.7854 52.6523C12.2994 50.1347 9.4543 46.8326 7.47974 43.0127C5.50517 39.1928 4.45631 34.962 4.41821 30.6621C4.41821 30.3671 4.42584 30.0622 4.43384 29.7622C4.69898 30.2259 5.0916 30.604 5.5647 30.8521C6.03779 31.1001 6.57153 31.2078 7.10376 31.1621C7.84176 31.1751 8.95949 31.1955 11.1985 33.1465C13.1846 34.873 15.411 36.3007 17.8088 37.3853C19.5328 38.2163 20.1434 38.5454 20.3694 39.3394L20.3713 39.3403ZM31.0393 5.59814C28.3057 6.11536 25.636 6.92602 23.0764 8.01611C23.1827 7.75362 23.3459 7.51825 23.5549 7.32715C23.9187 7.06512 24.188 6.69236 24.3225 6.26465C24.457 5.83693 24.4495 5.37717 24.301 4.9541C24.2644 4.86019 24.2201 4.76954 24.1682 4.68311C27.1292 3.87219 30.2047 3.56318 33.2678 3.76904C33.0679 4.22687 32.7628 4.63109 32.3772 4.94873C31.9916 5.26637 31.5367 5.4886 31.0491 5.59717L31.0745 5.69727L31.0393 5.59814ZM55.6946 25.3984C55.4856 25.807 55.395 26.2657 55.4319 26.7231C55.4688 27.1806 55.6317 27.6185 55.9036 27.9883C56.4346 28.8963 56.4348 28.8964 56.0168 29.2114C55.6547 29.4308 55.3433 29.7245 55.1038 30.0737C54.8642 30.4229 54.7024 30.8194 54.6282 31.2363C54.5282 31.3043 54.3576 31.4173 54.0686 31.5913C52.9496 32.2533 50.6244 33.6321 51.2454 36.8711C51.8254 39.8861 50.987 41.9931 47.175 47.1191C46.093 48.5721 44.9193 49.4601 44.0383 49.4941C43.8727 49.5055 43.7067 49.4764 43.5549 49.4092C43.4032 49.3419 43.2701 49.2387 43.1672 49.1084C42.3492 48.1714 42.0847 46.1532 42.4377 43.5752C43.6527 34.7752 39.5181 32.4485 39.3381 32.3545C39.1181 32.2349 38.8718 32.1722 38.6213 32.1724C38.387 32.172 38.155 32.2252 37.9446 32.3281C36.8721 32.8115 35.7152 33.0778 34.5393 33.1113C32.1953 33.1113 30.6393 31.6841 29.9163 28.8721C28.9163 24.9981 30.8032 23.6015 32.6272 22.2505C33.7272 21.4325 34.7701 20.6611 34.8831 19.3301C34.9047 18.882 34.8265 18.435 34.6536 18.021C34.4806 17.607 34.2171 17.237 33.8831 16.9375C33.6676 16.7577 33.494 16.5325 33.3752 16.2783C33.2565 16.0241 33.1961 15.7469 33.1965 15.4663C33.3713 14.8361 33.7557 14.2845 34.2864 13.9023C35.8864 13.7423 38.6807 13.2415 39.6077 11.7095C39.8092 11.3839 39.9278 11.0135 39.9524 10.6313C39.977 10.2492 39.9074 9.8668 39.7493 9.51807C39.7243 9.45907 39.6999 9.40449 39.6809 9.35449C39.8699 9.29249 40.0677 9.23331 40.1887 9.19531L40.7014 9.03906C41.9262 8.66672 42.9855 7.88442 43.7014 6.82324C47.0414 8.64058 49.9579 11.1453 52.259 14.1724C54.5602 17.1994 56.1933 20.6799 57.051 24.3843C56.7683 24.4543 56.5029 24.5802 56.2698 24.7549C56.0367 24.9296 55.8402 25.1497 55.6936 25.4014L55.6946 25.3984Z" fill="white"/>
</svg>
