<svg width="62" height="60" viewBox="0 0 62 60" fill="none" xmlns="http://www.w3.org/2000/svg">
<path d="M31 0C25.0661 0 19.2656 1.75947 14.3318 5.05591C9.39801 8.35235 5.55257 13.0377 3.2818 18.5195C1.01103 24.0013 0.416915 30.0333 1.57454 35.8527C2.73217 41.6721 5.58957 47.0176 9.78541 51.2132C13.9812 55.4088 19.3271 58.266 25.1469 59.4236C30.9667 60.5811 36.999 59.987 42.4812 57.7164C47.9633 55.4458 52.6489 51.6006 55.9456 46.6671C59.2423 41.7336 61.0018 35.9334 61.0018 30C61.0018 22.0435 57.8409 14.4129 52.2145 8.7868C46.5881 3.16071 38.957 0 31 0ZM50.0933 49.0921C47.5859 51.5993 44.6092 53.5881 41.3332 54.945C38.0571 56.3019 34.5459 57.0003 31 57.0003C27.454 57.0003 23.9428 56.3019 20.6667 54.945C17.3907 53.5881 14.414 51.5993 11.9067 49.0921C9.39929 46.5849 7.41034 43.6084 6.05336 40.3326C4.69639 37.0567 3.99795 33.5457 3.99795 30C3.99795 26.4543 4.69639 22.9433 6.05336 19.6674C7.41034 16.3916 9.39929 13.4151 11.9067 10.9079C16.9705 5.84438 23.8386 2.99971 31 2.99971C38.1613 2.99971 45.0294 5.84438 50.0933 10.9079C55.1571 15.9714 58.002 22.8391 58.002 30C58.002 37.1609 55.1571 44.0286 50.0933 49.0921Z" fill="#008FA4"/>
<path d="M40.8982 24.8127C40.8773 22.119 39.7979 19.5416 37.893 17.6368C35.9881 15.732 33.4105 14.6527 30.7167 14.6318C28.1628 14.6345 25.6987 15.5742 23.7917 17.2728L22.3654 18.6152C22.2124 18.744 22.0875 18.9029 21.9986 19.082C21.9097 19.2612 21.8587 19.4567 21.8488 19.6564C21.8375 19.8674 21.8699 20.0783 21.9439 20.2762C22.0179 20.474 22.1318 20.6545 22.2786 20.8064C22.4075 20.9582 22.5661 21.0821 22.7447 21.1702C22.9233 21.2584 23.118 21.309 23.3169 21.319C23.5302 21.3297 23.7435 21.296 23.9432 21.2202C24.1428 21.1443 24.3246 21.0278 24.4769 20.8782L25.9032 19.5816C27.2271 18.4008 28.9427 17.7542 30.7167 17.7675C32.5885 17.7727 34.3828 18.5155 35.7103 19.835C37.0379 21.1545 37.7917 22.9441 37.8082 24.8157C37.804 25.8121 37.5914 26.7966 37.1839 27.7059C36.7765 28.6152 36.1833 29.4292 35.4424 30.0956L21.5984 42.5843L21.5785 42.6033C21.2859 42.8958 21.1149 43.2883 21.0997 43.7017C21.0846 44.1152 21.2263 44.5191 21.4967 44.8323C21.6419 44.9991 21.8231 45.1306 22.0267 45.217C22.2303 45.3034 22.4508 45.3424 22.6716 45.331H39.3522C39.7608 45.3207 40.1492 45.1511 40.4345 44.8585C40.7199 44.5659 40.8796 44.1734 40.8796 43.7647C40.8796 43.3559 40.7199 42.9634 40.4345 42.6708C40.1492 42.3782 39.7608 42.2086 39.3522 42.1983H26.7151L37.5519 32.4064C38.6104 31.4456 39.4553 30.2731 40.0317 28.965C40.6082 27.6568 40.9034 26.2422 40.8982 24.8127Z" fill="#008FA4"/>
</svg>
