<svg width="12" height="8" viewBox="0 0 12 8" fill="none" xmlns="http://www.w3.org/2000/svg">
<path d="M6.15291 6.56363L10.9099 1.80668C10.9561 1.756 10.9809 1.68946 10.9794 1.6209C10.9778 1.55234 10.9498 1.48703 10.9013 1.43854C10.8528 1.39005 10.7875 1.36211 10.719 1.36052C10.6504 1.35893 10.5839 1.38382 10.5332 1.43002L5.96458 5.99758L1.4023 1.43531C1.3775 1.41051 1.34806 1.39083 1.31565 1.37741C1.28325 1.36399 1.24852 1.35708 1.21344 1.35708C1.17837 1.35708 1.14364 1.36399 1.11123 1.37741C1.07883 1.39083 1.04939 1.41051 1.02458 1.43531C0.999782 1.46011 0.980108 1.48955 0.966685 1.52196C0.953263 1.55436 0.946355 1.58909 0.946355 1.62417C0.946355 1.65924 0.953263 1.69397 0.966685 1.72638C0.980108 1.75878 0.999782 1.78823 1.02458 1.81303L5.77519 6.56363C5.79996 6.58849 5.82939 6.60821 5.8618 6.62167C5.89421 6.63513 5.92896 6.64205 5.96405 6.64205C5.99914 6.64205 6.03389 6.63513 6.06629 6.62167C6.0987 6.60821 6.12814 6.58849 6.15291 6.56363Z" fill="white" stroke="black" stroke-width="1.58706"/>
</svg>
