<svg width="61" height="60" viewBox="0 0 61 60" fill="none" xmlns="http://www.w3.org/2000/svg">
<path d="M39.1823 18.9442L45.6274 12.7377C45.8312 12.5412 45.9755 12.2911 46.0438 12.0163C46.112 11.7414 46.1013 11.4529 46.013 11.1839C45.9246 10.9148 45.7622 10.6761 45.5444 10.4952C45.3266 10.3142 45.0622 10.1984 44.7815 10.1609L35.9578 8.96799L32.0194 0.850613C31.896 0.596227 31.7035 0.381718 31.4639 0.231634C31.2243 0.0815495 30.9473 0.00195312 30.6646 0.00195312C30.3819 0.00195312 30.1049 0.0815495 29.8653 0.231634C29.6257 0.381718 29.4332 0.596227 29.3098 0.850613L25.3714 8.96799L16.5487 10.1599C16.2683 10.1978 16.0042 10.314 15.7868 10.4952C15.5694 10.6763 15.4074 10.915 15.3194 11.184C15.2314 11.453 15.221 11.7413 15.2893 12.0159C15.3577 12.2906 15.502 12.5404 15.7058 12.7367L22.1509 18.9432L20.5991 27.7776C20.5505 28.055 20.5806 28.3404 20.6861 28.6015C20.7916 28.8627 20.9682 29.089 21.1958 29.2548C21.4235 29.4206 21.693 29.5192 21.9739 29.5395C22.2548 29.5597 22.5357 29.5008 22.7848 29.3694L30.6616 25.1918L38.5424 29.3694C38.7915 29.5016 39.0727 29.5611 39.3539 29.5413C39.6352 29.5214 39.9052 29.423 40.1333 29.2573C40.3614 29.0915 40.5384 28.865 40.644 28.6035C40.7497 28.3421 40.7799 28.0563 40.7311 27.7786L39.1823 18.9442ZM36.0778 18.6763L37.2356 25.2658L31.3745 22.157C31.1572 22.0418 30.915 21.9815 30.6691 21.9815C30.4232 21.9815 30.181 22.0418 29.9637 22.157L24.1026 25.2658L25.2604 18.6763C25.303 18.4333 25.2852 18.1836 25.2087 17.949C25.1322 17.7145 24.9992 17.5024 24.8215 17.3314L20.0422 12.7317L26.5792 11.8478C26.8253 11.8145 27.0594 11.7208 27.2605 11.5751C27.4616 11.4295 27.6236 11.2363 27.732 11.0128L30.6686 4.9613L33.6052 11.0128C33.7136 11.2363 33.8756 11.4295 34.0767 11.5751C34.2778 11.7208 34.5119 11.8145 34.758 11.8478L41.295 12.7317L36.5157 17.3314C36.338 17.5024 36.205 17.7145 36.1285 17.949C36.052 18.1836 36.0352 18.4333 36.0778 18.6763Z" fill="#008FA4"/>
<path d="M59.2743 47.4901H42.7107V34.791C42.7107 34.3917 42.5521 34.0086 42.2697 33.7262C41.9873 33.4438 41.6043 33.2852 41.205 33.2852H20.1251C19.7258 33.2852 19.3428 33.4438 19.0604 33.7262C18.778 34.0086 18.6193 34.3917 18.6193 34.791V41.8905H2.05582C1.858 41.8905 1.66211 41.9295 1.47936 42.0052C1.2966 42.081 1.13056 42.192 0.990727 42.3319C0.85089 42.4718 0.739996 42.638 0.664382 42.8208C0.588769 43.0036 0.549918 43.1995 0.550049 43.3974V58.4962C0.550049 58.8956 0.708693 59.2786 0.99108 59.561C1.27347 59.8435 1.65647 60.0021 2.05582 60.0021H59.2743C59.6736 60.0021 60.0566 59.8435 60.339 59.561C60.6214 59.2786 60.78 58.8956 60.78 58.4962V48.997C60.78 48.5976 60.6214 48.2145 60.339 47.9321C60.0566 47.6497 59.6736 47.4911 59.2743 47.4911M3.5616 44.9033H18.6193V56.9873H3.5616V44.9033ZM21.6309 36.2929H39.6992V56.9913H21.6309V36.2929ZM57.7685 56.9913H42.7107V50.5058H57.7685V56.9913Z" fill="#008FA4"/>
</svg>
