<svg width="128" height="40" viewBox="0 0 128 40" fill="none" xmlns="http://www.w3.org/2000/svg">
<path d="M127.001 36.4103H121.941V4.69525C121.941 1.52427 120.419 0.00244141 117.248 0.00244141H69.2249C66.0539 0.00244141 64.532 1.52427 64.532 4.69525V36.4103H59.4711C59.3138 36.4103 59.1586 36.4475 59.0183 36.5187C58.878 36.59 58.7565 36.6933 58.6637 36.8204C58.5709 36.9474 58.5094 37.0946 58.4841 37.2499C58.4589 37.4052 58.4707 37.5643 58.5185 37.7142C58.5578 37.8022 58.5992 37.8888 58.6452 37.9735C58.9672 38.5783 59.446 39.0853 60.0314 39.4415C60.6167 39.7977 61.2871 39.9899 61.9722 39.9979H124.5C125.185 39.9897 125.855 39.7976 126.44 39.4415C127.025 39.0855 127.504 38.5787 127.826 37.9742C127.929 37.8239 127.989 37.6485 127.999 37.4668C128.009 37.2852 127.97 37.1042 127.885 36.9433C127.8 36.7824 127.673 36.6477 127.517 36.5538C127.361 36.4599 127.182 36.4103 127 36.4103M66.5392 36.4103V4.69525C66.5392 2.62881 67.1617 2.00688 69.2276 2.00688H117.251C119.317 2.00688 119.939 2.62948 119.939 4.69525V36.4103H66.5392Z" fill="white"/>
<path d="M16.8817 12.4855C16.4759 12.0776 15.9932 11.7541 15.4617 11.5338C14.9301 11.3134 14.3602 11.2005 13.7847 11.2017H5.32971C4.16868 11.2029 3.05556 11.6646 2.23453 12.4855C1.4135 13.3064 0.951607 14.4195 0.950195 15.5805V35.6162C0.950902 36.7781 1.41275 37.8921 2.23429 38.7137C3.05583 39.5352 4.16987 39.997 5.3317 39.9978H13.7841C14.9455 39.9963 16.0589 39.5342 16.88 38.7128C17.7011 37.8913 18.1627 36.7777 18.1636 35.6162V15.5805C18.1648 15.0056 18.0521 14.436 17.8321 13.9048C17.6121 13.3737 17.2891 12.8913 16.8817 12.4855ZM16.0945 35.6162C16.0929 36.229 15.8488 36.8163 15.4155 37.2496C14.9821 37.6829 14.3949 37.9271 13.7821 37.9287H5.33037C4.71734 37.9274 4.12975 37.6834 3.69614 37.2501C3.26254 36.8167 3.01822 36.2293 3.01663 35.6162V15.5818C3.01793 15.0041 3.23489 14.4476 3.62502 14.0215C4.01516 13.5954 4.55034 13.3303 5.12573 13.2781C5.18673 13.6586 5.38125 14.0049 5.67441 14.2549C5.96758 14.505 6.34023 14.6424 6.72555 14.6426H12.3796C12.7649 14.6425 13.1376 14.5051 13.4308 14.2551C13.724 14.005 13.9185 13.6586 13.9794 13.2781C14.5559 13.3288 15.0925 13.5933 15.4839 14.0196C15.8752 14.4459 16.0931 15.0031 16.0945 15.5818V35.6162Z" fill="white"/>
<path d="M48.3329 5.60156H28.2992C27.4107 5.60244 26.5589 5.95577 25.9307 6.58401C25.3025 7.21224 24.9491 8.06406 24.9482 8.95252V36.6467C24.9491 37.5352 25.3025 38.387 25.9307 39.0152C26.5589 39.6435 27.4107 39.9968 28.2992 39.9977H48.3356C49.224 39.9966 50.0757 39.6432 50.7039 39.015C51.3321 38.3868 51.6855 37.5351 51.6866 36.6467V8.95252C51.6855 8.06411 51.3321 7.2124 50.7039 6.5842C50.0757 5.956 49.224 5.60262 48.3356 5.60156M49.6301 36.6467C49.6298 36.9901 49.4932 37.3194 49.2504 37.5622C49.0076 37.805 48.6783 37.9416 48.3349 37.9419H28.2992C27.9558 37.9416 27.6266 37.805 27.3838 37.5622C27.1409 37.3194 27.0044 36.9901 27.004 36.6467V8.95252C27.0044 8.60912 27.1409 8.27989 27.3838 8.03707C27.6266 7.79425 27.9558 7.65768 28.2992 7.65733H48.3356C48.679 7.65768 49.0082 7.79425 49.2511 8.03707C49.4939 8.27989 49.6304 8.60912 49.6308 8.95252L49.6301 36.6467Z" fill="white"/>
</svg>
