<svg width="61" height="61" viewBox="0 0 61 61" fill="none" xmlns="http://www.w3.org/2000/svg">
<path d="M29.2017 22.5182V22.5122L29.1807 22.5412L29.2017 22.5182Z" fill="white"/>
<path d="M29.208 22.5104C29.208 22.5024 29.218 22.4934 29.222 22.4854L29.208 22.5063V22.5104Z" fill="white"/>
<path d="M59.4079 33.3051L51.2699 30.8851L41.9439 20.5031C41.7297 20.2722 41.4509 20.1112 41.1439 20.0411L39.2149 19.7151V10.0331C39.2138 7.90747 38.3692 5.86914 36.8664 4.36578C35.3636 2.86243 33.3256 2.01699 31.1999 2.01514L15.7319 2.01514C13.6059 2.01646 11.5674 2.86167 10.0641 4.36508C8.56091 5.86849 7.71596 7.90713 7.7149 10.0331V21.9751L6.0329 22.0231C5.5759 22.1301 5.0689 22.2691 4.4199 22.4591C3.69939 22.745 3.00762 23.0986 2.3539 23.5151C2.04572 23.7206 1.82175 24.0302 1.7229 24.3871C0.725356 28.4839 0.335189 32.705 0.5649 36.9151C0.624351 37.8944 0.753343 38.8682 0.9509 39.8291C1.8108 43.6272 3.34949 47.2389 5.4929 50.4901C5.61943 50.6712 5.78306 50.8232 5.9729 50.9361C6.65599 51.2797 7.42376 51.4186 8.1839 51.3361C8.30657 51.3248 8.42723 51.3128 8.5459 51.3001C9.21007 52.6387 10.2345 53.7655 11.504 54.5537C12.7734 55.342 14.2376 55.7605 15.7319 55.7621H31.1999C33.3131 55.7604 35.3403 54.9246 36.8407 53.4365C38.3412 51.9484 39.1937 49.9283 39.2129 47.8151L42.3939 57.0941C43.3449 57.3871 43.6309 57.3941 44.7669 57.7121C45.9439 57.9211 47.7409 58.2531 49.8819 58.6901C53.0161 59.1508 56.2103 58.9891 59.2819 58.2141C59.6106 58.1308 59.9024 57.9406 60.1112 57.6734C60.3201 57.4063 60.4343 57.0773 60.4359 56.7381L60.4999 34.7711C60.4993 34.442 60.3928 34.1217 60.1961 33.8577C59.9995 33.5937 59.7231 33.4 59.4079 33.3051ZM4.5399 25.7711C5.01836 25.5111 5.51777 25.2917 6.0329 25.1151C6.57468 24.9288 7.14209 24.8276 7.7149 24.8151H7.7999C8.26423 24.8105 8.72171 24.9273 9.1269 25.1541C9.1649 25.1771 9.2019 25.2031 9.2389 25.2291C9.46013 25.3806 9.65619 25.5658 9.8199 25.7781C9.99883 25.9549 10.1083 26.1901 10.1283 26.4409C10.1483 26.6916 10.0775 26.9412 9.9289 27.1441L9.2399 27.3111L7.7149 27.6821L6.0329 28.0911L4.2439 28.5151L4.0239 28.5681C4.2179 27.2561 4.4239 26.2871 4.5399 25.7681M3.5789 35.6951C3.5439 34.4211 3.5789 33.1141 3.6699 31.8041L6.0329 31.2281L7.7149 30.8181L9.2399 30.4451V30.4971L11.1049 30.0421C11.2392 30.0528 11.3728 30.0715 11.5049 30.0981C11.7736 30.1487 12.0321 30.2433 12.2699 30.3781C12.504 30.5201 12.7 30.7169 12.8409 30.9516C12.9819 31.1863 13.0635 31.4518 13.0789 31.7251C13.2075 32.1898 13.1526 32.6861 12.9256 33.1115C12.6985 33.5368 12.3166 33.8585 11.8589 34.0101L11.4999 34.0811L9.2389 34.5421L7.7139 34.8531L6.0319 35.1961L3.7889 35.6531L3.5789 35.6951ZM4.6789 41.9051C4.32932 40.8758 4.05657 39.8219 3.8629 38.7521L6.0299 38.3101L7.7119 37.9671L9.2369 37.6561L11.4999 37.1951L12.1279 37.0671C12.3352 37.146 12.5358 37.2413 12.7279 37.3521C13.6709 37.9101 13.5999 38.4301 13.5669 38.6831C13.5416 38.8612 13.4967 39.036 13.4329 39.2041C13.0873 39.9844 12.4613 40.6065 11.6789 40.9471L11.4999 40.9701L7.7139 41.4891L6.0329 41.7151L4.6789 41.9051ZM7.7269 48.2291L7.6689 48.2221C7.07073 47.2495 6.52462 46.2457 6.0329 45.2151V44.8041L7.7149 44.5731L9.2399 44.3641L11.4999 44.0521L11.7889 44.0151L11.8589 44.0551C13.2009 44.8551 13.7359 45.6001 13.6749 45.8551C13.5059 46.5661 12.5019 47.2801 11.5009 47.7551C11.0918 47.9515 10.6649 48.1082 10.2259 48.2231C10.107 48.2532 9.98644 48.2765 9.8649 48.2931C9.7829 48.3031 9.6979 48.3111 9.6109 48.3171C8.98302 48.3472 8.3537 48.3194 7.7309 48.2341M34.1869 50.7441C33.7949 51.1367 33.3293 51.4481 32.8167 51.6603C32.3041 51.8726 31.7547 51.9816 31.1999 51.9811H15.7329C15.1772 51.9813 14.6269 51.8715 14.1138 51.6582C13.6006 51.4449 13.1347 51.1322 12.7429 50.7381C12.6519 50.6471 12.5669 50.5521 12.4849 50.4541C13.031 50.2785 13.5618 50.0584 14.0719 49.7961C15.3111 49.0758 16.2328 47.9145 16.6529 46.5441C16.7605 46.0932 16.7674 45.624 16.6729 45.1701C16.3898 44.0781 15.7491 43.1124 14.8529 42.4271C14.9249 42.3581 14.8529 42.4271 15.0729 42.2051C15.9257 41.4243 16.4599 40.3559 16.5729 39.2051C16.5789 39.1691 16.5859 39.1331 16.5909 39.0971C16.6936 38.3907 16.6104 37.6697 16.3495 37.0053C16.0886 36.3408 15.6589 35.7559 15.1029 35.3081C15.5434 34.7493 15.8604 34.1034 16.0328 33.413C16.2051 32.7226 16.2291 32.0035 16.1029 31.3031C16.0879 31.1861 16.0669 31.0701 16.0439 30.9571C15.8948 30.1624 15.5465 29.4185 15.0316 28.795C14.5167 28.1715 13.8521 27.6889 13.0999 27.3921C13.2326 26.7796 13.2236 26.1449 13.0735 25.5364C12.9234 24.9279 12.6362 24.3617 12.2339 23.8811C12.0128 23.6042 11.7671 23.3478 11.4999 23.1151V10.0351C11.5011 8.97688 11.8978 7.9573 12.6122 7.17653C13.3265 6.39575 14.3069 5.91018 15.3609 5.81514C15.4713 6.51153 15.8263 7.14577 16.3622 7.60397C16.8981 8.06217 17.5798 8.31431 18.2849 8.31514H28.6309C29.3364 8.31483 30.0188 8.06293 30.5553 7.6047C31.0917 7.14647 31.4473 6.51195 31.5579 5.81514C32.6126 5.90821 33.5943 6.39221 34.3104 7.17209C35.0264 7.95198 35.425 8.97139 35.4279 10.0301V19.0751L33.7089 18.7871L29.9689 18.1611L25.7109 17.4461C25.576 17.4242 25.4388 17.4205 25.3029 17.4351C25.0029 17.4651 22.3739 17.7791 21.1369 19.6511C20.8108 20.1586 20.6065 20.7346 20.5399 21.3341C20.4733 21.9337 20.5462 22.5405 20.7529 23.1071C21.4739 25.4161 24.0019 28.0331 27.5149 30.1071C29.4544 31.2537 31.5376 32.1374 33.7099 32.7351C33.8389 32.7701 33.9679 32.8081 34.0959 32.8401C34.3869 33.7011 34.8569 35.0811 35.4289 36.7561V47.7491C35.429 48.3046 35.3193 48.8546 35.1062 49.3676C34.893 49.8805 34.5806 50.3463 34.1869 50.7381M57.3779 55.4941C55.1155 55.9643 52.7878 56.032 50.5019 55.6941C48.6219 55.3091 46.6429 54.9321 44.7689 54.6021L44.6599 54.2841L41.1479 44.0231L39.2149 38.3701C38.7176 36.9141 38.2936 35.6721 37.9429 34.6441C37.4669 33.2441 37.1239 32.2348 36.9139 31.6161C36.8326 31.3761 36.7709 31.1921 36.7289 31.0641C36.6124 30.7152 36.3737 30.4201 36.0569 30.2331C35.9125 30.1485 35.7555 30.0874 35.5919 30.0521L35.4289 30.0151C34.8589 29.8901 34.2839 29.7351 33.7099 29.5531C32.0933 29.0393 30.5404 28.3435 29.0809 27.4791C26.2869 25.8281 24.1669 23.7541 23.6809 22.1971C23.6192 22.0612 23.5879 21.9135 23.5893 21.7643C23.5907 21.615 23.6247 21.4679 23.6889 21.3331C24.1612 20.8651 24.778 20.5708 25.4389 20.4981L33.7099 21.8851L35.4289 22.1731L36.9149 22.4221L39.2149 22.8071L40.0229 22.9421L49.2779 33.2471C49.4657 33.4565 49.7081 33.6096 49.9779 33.6891L57.4349 35.9071L57.3779 55.4941Z" fill="white"/>
</svg>
