<svg width="44" height="61" viewBox="0 0 44 61" fill="none" xmlns="http://www.w3.org/2000/svg">
<path d="M6.547 18.4575H2.415C2.21019 18.4523 2.0064 18.4881 1.81566 18.5629C1.62491 18.6377 1.45106 18.7498 1.30435 18.8929C1.15765 19.0359 1.04105 19.2068 0.961442 19.3956C0.881833 19.5843 0.84082 19.7872 0.84082 19.992C0.84082 20.1969 0.881833 20.3997 0.961442 20.5885C1.04105 20.7773 1.15765 20.9482 1.30435 21.0912C1.45106 21.2342 1.62491 21.3464 1.81566 21.4212C2.0064 21.4959 2.21019 21.5318 2.415 21.5265H6.547C6.75181 21.5318 6.95559 21.4959 7.14634 21.4212C7.33708 21.3464 7.51093 21.2342 7.65764 21.0912C7.80435 20.9482 7.92094 20.7773 8.00055 20.5885C8.08016 20.3997 8.12117 20.1969 8.12117 19.992C8.12117 19.7872 8.08016 19.5843 8.00055 19.3956C7.92094 19.2068 7.80435 19.0359 7.65764 18.8929C7.51093 18.7498 7.33708 18.6377 7.14634 18.5629C6.95559 18.4881 6.75181 18.4523 6.547 18.4575Z" fill="#008FA4"/>
<path d="M19.4586 0.501953C19.0516 0.502218 18.6613 0.664026 18.3735 0.951837C18.0857 1.23965 17.9238 1.62993 17.9236 2.03695V5.28295C17.9338 5.68315 18.1 6.06351 18.3866 6.34295C18.6733 6.62239 19.0578 6.77878 19.4581 6.77878C19.8584 6.77878 20.2429 6.62239 20.5296 6.34295C20.8162 6.06351 20.9824 5.68315 20.9926 5.28295V2.03695C20.9923 1.6301 20.8306 1.23997 20.5431 0.95219C20.2555 0.664407 19.8654 0.502483 19.4586 0.501953Z" fill="#008FA4"/>
<path d="M37.4216 18.5054H33.2856C33.0808 18.5002 32.877 18.536 32.6863 18.6107C32.4955 18.6855 32.3217 18.7977 32.175 18.9407C32.0283 19.0837 31.9117 19.2546 31.832 19.4434C31.7524 19.6322 31.7114 19.835 31.7114 20.0399C31.7114 20.2448 31.7524 20.4476 31.832 20.6363C31.9117 20.8251 32.0283 20.996 32.175 21.1391C32.3217 21.2821 32.4955 21.3943 32.6863 21.469C32.877 21.5438 33.0808 21.5796 33.2856 21.5744H37.4186C37.8188 21.5642 38.1992 21.398 38.4786 21.1113C38.758 20.8247 38.9144 20.4402 38.9144 20.0399C38.9144 19.6396 38.758 19.2551 38.4786 18.9684C38.1992 18.6818 37.8188 18.5156 37.4186 18.5054" fill="#008FA4"/>
<path d="M11.1936 9.12861L8.53555 6.86961C8.38217 6.73888 8.20454 6.63964 8.0128 6.57756C7.82106 6.51548 7.61898 6.49177 7.41808 6.50778C7.21718 6.5238 7.0214 6.57923 6.84192 6.67091C6.66244 6.76259 6.50278 6.88873 6.37205 7.04211C6.24132 7.19549 6.14208 7.37313 6.08 7.56486C6.01792 7.7566 5.99421 7.95869 6.01023 8.15958C6.02624 8.36048 6.08168 8.55626 6.17336 8.73574C6.26504 8.91522 6.39117 9.07488 6.54455 9.20561L9.19955 11.4676C9.50977 11.7264 9.90949 11.8524 10.312 11.8184C10.7146 11.7844 11.0875 11.5931 11.3499 11.2859C11.6123 10.9788 11.743 10.5806 11.7138 10.1777C11.6845 9.77475 11.4976 9.39962 11.1936 9.13361" fill="#008FA4"/>
<path d="M33.6579 5.73075C33.3614 5.45742 32.9701 5.31038 32.567 5.32083C32.1639 5.33129 31.7808 5.49842 31.4989 5.78675L28.6489 8.73875C28.3713 9.03398 28.2202 9.42614 28.2281 9.83131C28.2359 10.2365 28.402 10.6225 28.6909 10.9068L28.7049 10.9208C28.9892 11.1881 29.3646 11.3372 29.7549 11.3378C29.9619 11.3365 30.1666 11.2941 30.357 11.2129C30.5474 11.1317 30.7197 11.0133 30.8639 10.8648L33.7139 7.91275C33.9925 7.61463 34.1429 7.21896 34.1326 6.811C34.1224 6.40304 33.9522 6.01546 33.6589 5.73175" fill="#008FA4"/>
<path d="M42.596 36.6436C42.3489 35.3945 41.7248 34.2511 40.8077 33.3677C39.8907 32.4843 38.7249 31.9033 37.4674 31.7029H37.4314C36.903 31.6998 36.3754 31.7426 35.8545 31.8309C35.5705 31.1694 35.1211 30.5919 34.5496 30.1541C33.741 29.5611 32.7624 29.2455 31.7598 29.2541C31.0944 29.2715 30.446 29.468 29.8829 29.8231C29.6764 29.4838 29.4129 29.1827 29.104 28.9331C28.2811 28.3416 27.2916 28.0265 26.2782 28.0332C25.7584 28.0395 25.2435 28.1338 24.7553 28.3122V18.5339C24.7622 17.8491 24.6325 17.1699 24.3737 16.5359C24.1148 15.9019 23.7321 15.3259 23.2479 14.8417C22.7636 14.3575 22.1877 13.9747 21.5537 13.7159C20.9197 13.457 20.2404 13.3273 19.5557 13.3342H19.5417C18.1596 13.3361 16.8347 13.886 15.8575 14.8634C14.8803 15.8408 14.3306 17.1658 14.329 18.5479V34.1658C13.5868 32.8022 12.3634 31.7638 10.8973 31.253C10.2533 31.1076 9.58664 31.093 8.93688 31.2099C8.28711 31.3269 7.66743 31.5731 7.11455 31.9339C5.98316 32.5872 5.12406 33.6252 4.69372 34.8587C4.38841 36.3629 4.58111 37.9255 5.24268 39.3104C8.13534 46.7657 12.1548 53.7329 17.1608 59.9689C17.3055 60.1332 17.483 60.2652 17.682 60.3563C17.881 60.4474 18.0969 60.4957 18.3158 60.4979H34.8476C35.1777 60.4961 35.4984 60.3873 35.7615 60.1879C37.7597 58.5007 39.2957 56.3328 40.2252 53.8884C41.4576 51.0759 42.3213 48.1159 42.795 45.082C43.3009 42.2867 43.2328 39.4178 42.595 36.6496M7.64651 35.6987C7.83794 35.2223 8.17878 34.8209 8.61783 34.5547C9.05688 34.2886 9.57043 34.1721 10.0813 34.2228C10.4883 34.3916 10.8566 34.6414 11.1639 34.957C11.4713 35.2726 11.7112 35.6474 11.8692 36.0586C11.9342 36.1786 12.0002 36.3006 12.0632 36.4116L14.495 41.2953C14.6521 41.6032 14.9082 41.8493 15.2222 41.9939C15.5362 42.1385 15.8897 42.1732 16.2258 42.0923C16.5619 42.0115 16.861 41.8198 17.0749 41.5483C17.2888 41.2767 17.405 40.941 17.4048 40.5953V18.5479C17.4169 17.9896 17.6472 17.4582 18.0463 17.0676C18.4455 16.677 18.9817 16.4582 19.5402 16.4582C20.0986 16.4582 20.6349 16.677 21.034 17.0676C21.4332 17.4582 21.6634 17.9896 21.6755 18.5479V31.404C21.6718 31.7551 21.7882 32.097 22.0054 32.373C22.2226 32.649 22.5276 32.8425 22.8698 32.9215C23.212 33.0005 23.5709 32.9602 23.887 32.8073C24.2032 32.6545 24.4577 32.3982 24.6083 32.0809C24.8019 31.8099 25.0509 31.5832 25.3388 31.4158C25.6267 31.2484 25.9469 31.1441 26.2782 31.11C26.6415 31.1248 26.9943 31.2363 27.3001 31.433C27.5851 31.6399 27.8001 31.8589 27.8001 32.6329C27.799 32.9793 27.9148 33.3159 28.1288 33.5883C28.3428 33.8607 28.6425 34.0529 28.9793 34.1339C29.3161 34.2149 29.6704 34.1798 29.9848 34.0344C30.2992 33.8891 30.5554 33.6419 30.7119 33.3328C31.2038 32.3489 31.3948 32.3459 31.8118 32.3399C32.1545 32.3716 32.4852 32.4825 32.7777 32.6639C32.9743 32.7899 33.1298 32.9706 33.2251 33.1838C33.3205 33.3969 33.3516 33.6332 33.3147 33.8638C33.3125 34.1643 33.3982 34.459 33.561 34.7115C33.7239 34.9641 33.957 35.1637 34.2316 35.2857C34.5032 35.4005 34.8014 35.4374 35.0928 35.3924C35.3841 35.3473 35.6572 35.2221 35.8815 35.0307C36.2905 34.8457 36.7382 34.7623 37.1864 34.7877C38.4513 34.9547 39.1363 35.7137 39.6432 37.4875C40.1534 39.8302 40.1895 42.2512 39.7492 44.608C39.3201 47.3738 38.5357 50.0726 37.4154 52.6375C36.6833 54.4287 35.6028 56.0567 34.2366 57.4271H19.0517C14.499 51.5779 10.8161 45.101 8.11748 38.1975C7.7187 37.4266 7.55429 36.5559 7.64451 35.6927" fill="#008FA4"/>
</svg>
