<svg width="24" height="24" viewBox="0 0 24 24" fill="none" xmlns="http://www.w3.org/2000/svg">
<g opacity="0.5">
<path d="M12 0.5C5.64873 0.5 0.5 5.64873 0.5 12C0.5 18.3513 5.64873 23.5 12 23.5C18.3513 23.5 23.5 18.3513 23.5 12C23.5 5.64873 18.3513 0.5 12 0.5Z" stroke="#8C8C8C"/>
<path d="M13.4911 12L10.1831 15.0245C9.93898 15.2477 9.93898 15.6095 10.1831 15.8326C10.4271 16.0558 10.8229 16.0558 11.0669 15.8326L14.8169 12.4041C15.061 12.1809 15.061 11.8191 14.8169 11.5959L11.0669 8.16737C10.8229 7.94421 10.4271 7.94421 10.1831 8.16737C9.93898 8.39053 9.93898 8.75233 10.1831 8.97549L13.4911 12Z" fill="#8C8C8C" stroke="#191919"/>
</g>
</svg>
