<svg width="61" height="61" viewBox="0 0 61 61" fill="none" xmlns="http://www.w3.org/2000/svg">
<path d="M58.459 38.7259L58.534 38.6259C59.841 37.0836 60.5382 35.1161 60.494 33.0949V33.0379C60.3782 31.3041 59.7367 29.6468 58.655 28.2869L58.58 28.1869L58.627 28.0729C59.2711 26.647 59.4524 25.0551 59.1453 23.5209C58.8382 21.9866 58.0583 20.5871 56.915 19.5189C53.794 16.6639 48.402 16.0289 41.323 17.6819L41.069 17.7409L41.033 17.7469C40.251 17.8889 39.448 18.0519 38.647 18.2329L38.416 18.2849L38.388 18.0489C38.5821 16.2623 38.9284 14.4956 39.423 12.7679C39.723 11.4679 40.014 10.2489 40.175 9.41392C40.24 9.07792 40.309 8.74892 40.375 8.42592C40.775 6.53492 41.12 4.90092 40.292 3.17892C39.5789 2.2193 38.6232 1.46682 37.523 0.998811C36.4228 0.530801 35.2179 0.36413 34.032 0.515923C33.879 0.521923 33.745 0.525923 33.632 0.525923C32.776 0.525923 30.756 3.25892 28.987 7.67492C27.504 11.3749 22.047 17.8159 17.308 21.4599C17.2373 21.5117 17.1705 21.5685 17.108 21.6299C15.938 22.8813 14.9909 24.3238 14.308 25.8949L14.208 26.1119L14.003 25.9939C13.1505 25.5022 12.1841 25.2423 11.2 25.2399H6.145C4.64755 25.2423 3.21219 25.8386 2.15389 26.8981C1.0956 27.9575 0.500793 29.3935 0.5 30.8909L0.5 54.2909C0.500793 55.7884 1.0956 57.2244 2.15389 58.2838C3.21219 59.3432 4.64755 59.9395 6.145 59.9419H11.2C12.4328 59.9424 13.6312 59.5357 14.609 58.7849L14.681 58.7299L18.081 59.2499C24.4302 60.022 30.8235 60.3727 37.219 60.2999C38.955 60.4319 40.568 60.4999 42.035 60.4999C44.2574 60.5304 46.4771 60.3324 48.659 59.9089C52.431 59.1089 53.218 57.6349 54.408 55.4089C54.56 55.1229 54.719 54.8259 54.891 54.5179C55.7836 52.8773 56.1088 50.9876 55.816 49.1429L55.799 49.0299L55.884 48.9539C57.3243 47.7542 58.3515 46.1325 58.8209 44.3177C59.2903 42.5029 59.178 40.5865 58.5 38.8389L58.459 38.7259ZM13.659 54.2929C13.6585 54.9425 13.4003 55.5653 12.9412 56.0248C12.4821 56.4842 11.8595 56.7429 11.21 56.7439H6.149C5.4993 56.7434 4.87639 56.4849 4.41717 56.0253C3.95795 55.5657 3.7 54.9426 3.7 54.2929V30.8929C3.7 30.2434 3.95761 29.6204 4.41634 29.1605C4.87507 28.7007 5.49746 28.4415 6.147 28.4399H11.206C11.6111 28.4398 12.0099 28.5403 12.3667 28.7323C12.7234 28.9242 13.0269 29.2018 13.25 29.5399L13.277 29.5809L13.284 29.6299C13.3176 29.8977 13.4184 30.1526 13.577 30.3709L13.606 30.4099L13.615 30.4579C13.6427 30.5999 13.6567 30.7442 13.657 30.8889L13.659 54.2929ZM55.4 37.3659L55.355 37.4129C55.1289 37.6658 54.99 37.9847 54.9591 38.3225C54.9281 38.6603 55.0066 38.9992 55.183 39.2889C55.446 39.7349 57.608 43.7259 53.063 47.1409C52.7893 47.3414 52.5878 47.625 52.4885 47.9494C52.3892 48.2738 52.3975 48.6216 52.512 48.9409C52.9105 50.2985 52.754 51.7586 52.077 53.0009C51.8864 53.3464 51.7162 53.7027 51.567 54.0679C51.052 55.2679 50.646 56.2169 47.997 56.7799C46.0383 57.1586 44.0457 57.3342 42.051 57.3039C40.6243 57.3039 39.075 57.2373 37.403 57.1039C37.351 57.1009 37.299 57.1009 37.247 57.1039C30.9851 57.172 24.7254 56.8306 18.508 56.0819L16.654 55.7959L16.706 55.5719C16.8047 55.1534 16.855 54.7249 16.856 54.2949V30.8949C16.8552 30.3114 16.7642 29.7316 16.586 29.1759L16.567 29.1169L16.583 29.0569C17.0857 27.1513 18.0345 25.3925 19.351 23.9259L19.375 23.9039C25.432 19.1039 30.388 11.1039 31.787 8.42492C32.0202 7.95446 32.2295 7.47251 32.414 6.98092C33.114 5.20692 33.914 3.19692 36.314 3.91692L36.338 3.92592C36.429 3.96592 38.562 4.94892 37.138 8.40892C34.78 15.5719 34.538 19.3169 36.338 20.9149C36.7164 21.2429 37.1765 21.4621 37.6696 21.5493C38.1627 21.6364 38.6701 21.5883 39.138 21.4099L39.164 21.4019C40.006 21.2089 40.858 21.0349 41.698 20.8859L41.732 20.8789C41.773 20.8699 41.817 20.8609 41.858 20.8509C48.158 19.4679 52.501 19.8169 54.758 21.8869C57.293 24.2069 55.519 27.2369 55.309 27.5749C55.1051 27.8945 55.0206 28.2759 55.0706 28.6518C55.1205 29.0276 55.3017 29.3737 55.582 29.6289C56.5735 30.5929 57.1854 31.8813 57.306 33.2589C57.2834 34.0367 57.1033 34.8018 56.7768 35.508C56.4502 36.2142 55.9839 36.8469 55.406 37.3679" fill="white"/>
</svg>
