<svg width="47" height="61" viewBox="0 0 47 61" fill="none" xmlns="http://www.w3.org/2000/svg">
<path d="M38.5565 12.6851C38.5505 12.6911 38.5415 12.6931 38.5355 12.6991C38.5295 12.7051 38.5275 12.7141 38.5205 12.7211L38.5435 12.6971L38.5565 12.6851Z" fill="white"/>
<path d="M45.9274 0.933498C45.6382 0.664208 45.2588 0.51275 44.8637 0.508866C44.4685 0.504981 44.0862 0.64895 43.7918 0.912503C43.7798 0.9245 43.7698 0.929499 43.7568 0.942496L30.0599 14.6834L23.7933 8.46782C23.5053 8.1845 23.1183 8.02456 22.7144 8.02194C22.3104 8.01933 21.9214 8.17425 21.6298 8.45382L21.6168 8.46582L21.5938 8.48981C21.3243 8.76834 21.1715 9.13937 21.1666 9.52691C21.1618 9.91446 21.3053 10.2892 21.5678 10.5743C22.5836 11.5931 27.0176 16.0261 29.2261 18.2226C29.3592 18.3563 29.5204 18.4588 29.698 18.5226C29.8157 18.562 29.9388 18.5829 30.0629 18.5846C30.2225 18.5752 30.3786 18.5336 30.5217 18.4623C30.6649 18.391 30.7921 18.2914 30.8957 18.1697L45.9274 3.11801C46.1869 2.85025 46.3395 2.49676 46.3563 2.12423C46.3738 1.90665 46.3446 1.68783 46.2706 1.48246C46.1967 1.27709 46.0796 1.08991 45.9274 0.933498Z" fill="white"/>
<path d="M16.3853 55.1553C16.6819 55.1553 16.9719 55.0673 17.2186 54.9025C17.4653 54.7377 17.6575 54.5034 17.7711 54.2293C17.8846 53.9552 17.9143 53.6536 17.8564 53.3626C17.7986 53.0717 17.6557 52.8044 17.4459 52.5946C17.2361 52.3848 16.9689 52.242 16.6779 52.1841C16.3869 52.1262 16.0853 52.1559 15.8112 52.2695C15.5371 52.383 15.3029 52.5753 15.1381 52.8219C14.9732 53.0686 14.8853 53.3586 14.8853 53.6553C14.8853 54.0531 15.0433 54.4346 15.3246 54.7159C15.6059 54.9972 15.9874 55.1553 16.3853 55.1553Z" fill="white"/>
<path d="M30.5235 22.6719C30.3134 22.6719 30.1054 22.7132 29.9113 22.7936C29.7172 22.874 29.5409 22.9918 29.3924 23.1404C29.2438 23.2889 29.126 23.4653 29.0456 23.6594C28.9652 23.8534 28.9238 24.0614 28.9238 24.2715V34.3663V46.9045H3.84542V11.9882H15.3259C15.7236 11.9882 16.105 11.8302 16.3863 11.549C16.6675 11.2678 16.8255 10.8863 16.8255 10.4886C16.8255 10.0908 16.6675 9.7094 16.3863 9.42816C16.105 9.14692 15.7236 8.98892 15.3259 8.98892H3.84542V6.31652C3.89692 5.52885 4.25684 4.79324 4.84713 4.2692C5.43742 3.74516 6.2105 3.47494 6.99872 3.51714H25.7695C26.5209 3.4817 27.2585 3.72821 27.8376 4.20835C28.4166 4.68848 28.7955 5.3676 28.8998 6.11256V7.14733C28.8998 7.57158 29.0684 7.97846 29.3684 8.27845C29.6683 8.57844 30.0752 8.74697 30.4995 8.74697C30.9237 8.74697 31.3306 8.57844 31.6306 8.27845C31.9306 7.97846 32.0991 7.57158 32.0991 7.14733C32.0991 7.14733 32.0991 6.08357 32.0991 6.06857C32.0779 5.66437 32.0108 5.2639 31.8992 4.87484C31.4874 3.58257 30.6671 2.45899 29.5616 1.67321C28.4561 0.88743 27.1253 0.481955 25.7695 0.517809H6.99872C5.38791 0.448788 3.8152 1.0198 2.6239 2.10621C1.4326 3.19261 0.719458 4.70618 0.640137 6.31652L0.640137 54.6947C0.719458 56.3051 1.4326 57.8186 2.6239 58.905C3.8152 59.9914 5.38791 60.5625 6.99872 60.4934H25.7695C27.3801 60.5622 28.9524 59.991 30.1433 58.9046C31.3343 57.8182 32.047 56.3048 32.1261 54.6947V24.2755C32.1245 23.8517 31.9555 23.4458 31.6558 23.1461C31.3562 22.8465 30.9502 22.6774 30.5265 22.6759M28.9268 54.6987C28.8753 55.4864 28.5154 56.222 27.9251 56.746C27.3348 57.2701 26.5617 57.5403 25.7735 57.4981H6.99872C6.2105 57.5403 5.43742 57.2701 4.84713 56.746C4.25684 56.222 3.89692 55.4864 3.84542 54.6987V49.9098H28.9228L28.9268 54.6987Z" fill="white"/>
</svg>
