<svg width="60" height="60" viewBox="0 0 60 60" fill="none" xmlns="http://www.w3.org/2000/svg">
<path d="M30 0C24.0665 0 18.2663 1.75947 13.3329 5.05591C8.39939 8.35235 4.55424 13.0377 2.28361 18.5195C0.0129845 24.0013 -0.581097 30.0333 0.57646 35.8527C1.73402 41.6721 4.59121 47.0176 8.78679 51.2132C12.9824 55.4088 18.3279 58.266 24.1473 59.4236C29.9668 60.5811 35.9987 59.987 41.4805 57.7164C46.9623 55.4458 51.6476 51.6006 54.9441 46.6671C58.2405 41.7336 60 35.9334 60 30C60 22.0435 56.8393 14.4129 51.2132 8.7868C45.5871 3.16071 37.9565 0 30 0ZM49.092 49.092C44.0285 54.1558 37.1608 57.0007 29.9997 57.0009C22.8386 57.0011 15.9708 54.1565 10.907 49.093C5.84325 44.0295 2.99834 37.1618 2.99815 30.0007C2.99796 22.8396 5.84248 15.9718 10.906 10.908C13.4132 8.4008 16.3897 6.41199 19.6655 5.0551C22.9413 3.69821 26.4523 2.99983 29.998 2.99983C33.5437 2.99983 37.0547 3.69821 40.3305 5.0551C43.6063 6.41199 46.5828 8.4008 49.09 10.908C51.5972 13.4152 53.586 16.3917 54.9429 19.6675C56.2998 22.9433 56.9982 26.4543 56.9982 30C56.9982 33.5457 56.2998 37.0567 54.9429 40.3325C53.586 43.6083 51.5972 46.5848 49.09 49.092H49.092Z" fill="#008FA4"/>
<path d="M38.8702 16.918C38.9897 16.7042 39.051 16.4628 39.0481 16.218C39.0504 16.0089 39.0109 15.8014 38.932 15.6078C38.853 15.4142 38.7363 15.2383 38.5885 15.0904C38.4407 14.9425 38.2648 14.8256 38.0713 14.7465C37.8777 14.6674 37.6702 14.6278 37.4612 14.63H23.6181C23.1971 14.63 22.7934 14.7972 22.4956 15.0949C22.1979 15.3926 22.0307 15.7964 22.0307 16.2175C22.0307 16.6385 22.1979 17.0423 22.4956 17.34C22.7934 17.6377 23.1971 17.805 23.6181 17.805H33.7112L27.2232 24.479C26.9223 24.7804 26.7532 25.189 26.7532 25.615C26.7532 26.0409 26.9223 26.4495 27.2232 26.751L27.3782 26.906H27.4151C27.7063 27.1765 28.0887 27.3275 28.4862 27.329C30.4426 27.3379 32.3163 28.1191 33.6997 29.5024C35.0831 30.8858 35.8642 32.7596 35.8731 34.716C35.8766 35.691 35.6868 36.6571 35.3147 37.5584C34.9426 38.4597 34.3955 39.2783 33.7052 39.967C32.305 41.3343 30.4258 42.1002 28.4687 42.1012C26.5116 42.1021 24.6316 41.338 23.2301 39.972C23.0772 39.818 22.8943 39.697 22.6927 39.6165C22.4911 39.536 22.2751 39.4977 22.0581 39.504C21.8568 39.5077 21.6582 39.5524 21.4746 39.6353C21.2911 39.7181 21.1262 39.8374 20.9902 39.986C20.8395 40.139 20.721 40.3207 20.6416 40.5202C20.5623 40.7198 20.5237 40.9332 20.5282 41.148C20.5321 41.3486 20.5765 41.5464 20.6589 41.7294C20.7412 41.9124 20.8596 42.0769 21.0072 42.213C21.9752 43.2033 23.1323 43.989 24.4099 44.5234C25.6874 45.0578 27.0594 45.3301 28.4442 45.324C31.2508 45.3108 33.939 44.1919 35.9262 42.21C36.9225 41.2349 37.7124 40.0692 38.2488 38.7824C38.7851 37.4956 39.057 36.114 39.0481 34.72C39.0652 32.4474 38.3414 30.2312 36.9864 28.4068C35.6313 26.5824 33.7187 25.2492 31.5382 24.609L38.5572 17.396C38.6921 17.2589 38.7985 17.0964 38.8702 16.918Z" fill="#008FA4"/>
</svg>
