<svg width="48" height="60" viewBox="0 0 48 60" fill="none" xmlns="http://www.w3.org/2000/svg">
<path d="M23.0946 10.8037C21.4855 10.8037 19.9125 11.2808 18.5745 12.1747C17.2366 13.0686 16.1938 14.3392 15.578 15.8257C14.9623 17.3122 14.8011 18.9479 15.1151 20.526C15.429 22.104 16.2039 23.5536 17.3417 24.6913C18.4795 25.829 19.9292 26.6038 21.5074 26.9177C23.0855 27.2316 24.7214 27.0705 26.208 26.4548C27.6946 25.8391 28.9653 24.7964 29.8593 23.4585C30.7532 22.1207 31.2304 20.5479 31.2304 18.9389C31.2304 16.7813 30.3732 14.7121 28.8475 13.1864C27.3217 11.6608 25.2523 10.8037 23.0946 10.8037ZM23.0946 24.0264C22.2568 24.0265 21.432 23.8199 20.6932 23.4249C19.9544 23.0298 19.3246 22.4586 18.8595 21.7619C18.3944 21.0651 18.1085 20.2643 18.027 19.4306C17.9456 18.5969 18.0712 17.7559 18.3927 16.9824C18.7142 16.2088 19.2217 15.5266 19.8701 14.9961C20.5184 14.4656 21.2877 14.1034 22.1097 13.9414C22.9317 13.7795 23.7809 13.8229 24.582 14.0678C25.3832 14.3126 26.1116 14.7514 26.7025 15.3452C27.1754 15.8155 27.5502 16.3749 27.8051 16.9911C28.06 17.6073 28.19 18.268 28.1875 18.9349C28.1853 20.2849 27.6479 21.579 26.693 22.5335C25.7381 23.4879 24.4447 24.0248 23.0946 24.0264Z" fill="#008FA4"/>
<path d="M47.429 46.7736L38.0902 31.4682L38.4842 31.1072C38.6505 30.9581 38.8012 30.7926 38.9342 30.6133L38.9702 30.5683C39.4905 29.9475 39.7971 29.1757 39.8446 28.3671C39.8922 27.5586 39.6781 26.7562 39.2342 26.0787C39.0636 25.7756 38.9588 25.44 38.9268 25.0937C38.8947 24.7473 38.9361 24.3982 39.0482 24.0689C39.1598 23.7403 39.3384 23.4384 39.5726 23.1823C39.8069 22.9262 40.0917 22.7214 40.4092 22.5811C41.1366 22.2883 41.7598 21.7843 42.1982 21.1342C42.6366 20.4841 42.8703 19.7176 42.8691 18.9334C42.8945 18.1694 42.6875 17.4156 42.2757 16.7716C41.8638 16.1275 41.2664 15.6234 40.5622 15.3258C40.2238 15.1831 39.92 14.9697 39.6711 14.6997C39.4222 14.4298 39.234 14.1097 39.1192 13.761C38.932 13.0855 39.0148 12.3637 39.3502 11.7482C39.7659 11.1071 39.9829 10.3575 39.9742 9.59349C39.9655 8.82949 39.7314 8.08508 39.3012 7.45361L39.2662 7.40361C38.8079 6.74139 38.1595 6.23382 37.4065 5.94799C36.6536 5.66216 35.8316 5.61152 35.0493 5.80278C34.701 5.88414 34.3386 5.88425 33.9902 5.8031C33.6419 5.72195 33.3168 5.56173 33.0403 5.33483C32.7651 5.13798 32.5352 4.88439 32.3664 4.59115C32.1975 4.29791 32.0935 3.97186 32.0613 3.635C32.0071 2.85553 31.7185 2.11068 31.2332 1.49824C30.748 0.885807 30.0889 0.434418 29.3424 0.203348C28.6119 -0.0340487 27.828 -0.0528221 27.087 0.149336C26.346 0.351494 25.6802 0.765772 25.1715 1.34123C24.9268 1.60929 24.6286 1.82314 24.2962 1.96901C23.9638 2.11487 23.6045 2.18952 23.2415 2.18815C22.9017 2.19452 22.5642 2.13087 22.2501 2.00117C21.936 1.87146 21.6519 1.67847 21.4156 1.43422L21.3876 1.40323C20.8908 0.799874 20.2222 0.361946 19.4706 0.147625C18.719 -0.0666946 17.92 -0.0472597 17.1797 0.203348C16.4537 0.415185 15.8074 0.83883 15.3235 1.42006C14.8397 2.00129 14.5403 2.71367 14.4637 3.46602L14.4587 3.51701C14.3774 4.22373 14.0241 4.87103 13.4737 5.32183L13.4447 5.34282C13.1363 5.55187 12.789 5.69684 12.4235 5.76915C12.0579 5.84146 11.6816 5.83964 11.3168 5.76378C10.5874 5.63071 9.83568 5.69662 9.14061 5.95457C8.44553 6.21252 7.83281 6.65298 7.36688 7.22963C6.84831 7.85164 6.54324 8.62374 6.49661 9.43219C6.44998 10.2406 6.66426 11.0427 7.10788 11.7202C7.28073 12.0215 7.38711 12.3562 7.41988 12.702C7.45265 13.0478 7.41105 13.3966 7.29788 13.725C7.18751 14.0544 7.0094 14.357 6.775 14.6134C6.5406 14.8699 6.25511 15.0744 5.93691 15.2138C5.21148 15.5075 4.59028 16.0111 4.1529 16.6601C3.71552 17.3091 3.4819 18.0739 3.48196 18.8564C3.45567 19.6205 3.66131 20.3747 4.07183 21.0197C4.48235 21.6647 5.07852 22.1703 5.78191 22.4701C6.12251 22.6127 6.42824 22.8273 6.67816 23.0991C6.92809 23.371 7.11629 23.6936 7.22988 24.0449C7.40989 24.7171 7.3258 25.4326 6.99488 26.0447C6.59022 26.699 6.38205 27.4557 6.39517 28.2249C6.40829 28.994 6.64214 29.7432 7.06888 30.3833C7.3489 30.8123 7.71322 31.18 8.1397 31.464C8.56618 31.7479 9.04594 31.9422 9.54983 32.0351L10.4498 32.2161L1.28301 47.4985C0.913759 48.0074 0.718846 48.622 0.727316 49.2507C0.735785 49.8793 0.947183 50.4884 1.33 50.9872L1.363 51.0292C1.71674 51.5413 2.21757 51.934 2.79928 52.1553C3.381 52.3767 4.0162 52.4164 4.62093 52.269L11.7528 50.5982L13.6127 57.6265C13.7623 58.2209 14.0811 58.759 14.5306 59.1758C14.98 59.5925 15.5407 59.8699 16.1447 59.9743C16.2267 59.9813 16.5187 59.9913 16.6157 59.9913C17.1713 59.9745 17.7131 59.8145 18.1887 59.5266C18.6642 59.2388 19.0572 58.8329 19.3296 58.3484L24.1045 49.2684L29.4364 57.7125C29.7674 58.206 30.2246 58.6019 30.7604 58.8588C31.2963 59.1157 31.8913 59.2243 32.4833 59.1733C33.0943 59.0904 33.6662 58.8252 34.1242 58.4125C34.5823 57.9998 34.9054 57.4586 35.0513 56.8596L36.9112 49.8013L44.0051 51.4591C44.6084 51.6042 45.2412 51.5675 45.8238 51.3536C46.4063 51.1397 46.9125 50.7583 47.2786 50.2573C47.6447 49.7562 47.8543 49.1581 47.8811 48.5382C47.9079 47.9183 47.7506 47.3043 47.429 46.7736ZM10.1378 28.7004C10.0928 28.6655 10.0208 28.6105 9.98082 28.5855L9.15384 28.4005L9.60283 27.6336C9.98513 26.9653 10.2309 26.2278 10.3258 25.4637C10.4207 24.6997 10.363 23.9245 10.1558 23.183C9.92548 22.425 9.53557 21.7251 9.01227 21.1302C8.48896 20.5354 7.8444 20.0594 7.12188 19.7344C6.972 19.6755 6.8487 19.5641 6.77507 19.4209C6.70144 19.2777 6.68254 19.1126 6.72189 18.9564L5.92991 18.5565L7.16088 17.9915C7.89093 17.6764 8.54361 17.2061 9.07358 16.6133C9.60354 16.0205 9.99809 15.3195 10.2298 14.5589C10.6444 12.9084 10.5396 11.1702 9.92982 9.58139L9.56283 8.48151L10.6908 8.73448C11.4687 8.89756 12.2717 8.89991 13.0505 8.74137C13.8293 8.58283 14.5675 8.26676 15.2197 7.81257C16.5352 6.70961 17.5011 5.24762 17.9996 3.605L18.3736 2.6131L19.0876 3.39702C21.2536 5.77578 24.8285 5.76578 27.9874 3.37103L28.9444 2.6451L29.0274 3.84498C29.0847 4.6296 29.3156 5.39168 29.7036 6.07613C30.0915 6.76057 30.6266 7.35027 31.2704 7.80257L31.3034 7.82557C32.7236 8.80818 34.4309 9.28949 36.1553 9.19343L37.3352 9.14444L36.7433 10.1673C35.9794 11.5197 35.782 13.1194 36.1943 14.6169C36.4261 15.3774 36.8185 16.0793 37.3448 16.6753C37.8711 17.2713 38.5191 17.7474 39.2452 18.0715C39.3886 18.1338 39.5053 18.245 39.5745 18.3852C39.6438 18.5255 39.661 18.6857 39.6232 18.8375L40.4092 19.2304L39.1832 19.7964C38.455 20.1145 37.8044 20.5866 37.2761 21.1802C36.7479 21.7738 36.3546 22.4748 36.1233 23.235C35.7081 24.881 35.8089 26.6148 36.4123 28.2015L36.7013 29.0584H35.6773L35.6133 29.0454C34.8425 28.8974 34.0501 28.9029 33.2815 29.0618C32.5129 29.2207 31.7832 29.5298 31.1344 29.9713C29.8156 31.0776 28.8466 32.5432 28.3454 34.1899L27.9704 35.1788L27.2595 34.3999C26.7355 33.8138 26.0936 33.3451 25.3759 33.0244C24.6581 32.7038 23.8807 32.5383 23.0945 32.5391C21.3537 32.6181 19.691 33.2846 18.3776 34.4299L17.4227 35.1598L17.3357 33.9599C17.2689 33.1527 17.0223 32.3707 16.6139 31.6711C16.2056 30.9716 15.6458 30.3724 14.9757 29.9173C14.4324 29.4818 13.799 29.1724 13.1214 29.0116C12.4438 28.8507 11.739 28.8425 11.0578 28.9874L10.9338 29.0294L10.8038 29.0204C10.5548 28.9837 10.3229 28.8721 10.1388 28.7004M16.6017 57.0336L14.3217 48.3984C14.2367 48.0741 14.0466 47.7871 13.7812 47.5821C13.5159 47.3772 13.1901 47.2659 12.8548 47.2656C12.741 47.2656 12.6277 47.2804 12.5178 47.3096L3.71795 49.3663L14.0207 32.2001L14.2787 34.0099C14.2878 34.0675 14.2935 34.1256 14.2957 34.1839C14.3497 34.9606 14.6386 35.7025 15.124 36.3113C15.6094 36.9201 16.2684 37.3669 17.0137 37.5925C17.7441 37.8267 18.5268 37.8438 19.2667 37.6416C20.0066 37.4394 20.6718 37.0267 21.1816 36.4537C21.4266 36.1833 21.7258 35.9676 22.0597 35.8205C22.3936 35.6733 22.7547 35.5981 23.1195 35.5997C23.459 35.5943 23.7959 35.6594 24.1089 35.7907C24.422 35.922 24.7045 36.1167 24.9385 36.3627L24.9615 36.3897C25.2769 36.7756 25.6657 37.095 26.1055 37.3296L26.6725 37.6295L16.6017 57.0336ZM36.1763 46.5146C35.7912 46.428 35.3876 46.4928 35.0491 46.6958C34.7106 46.8987 34.4633 47.2241 34.3583 47.6045L32.0833 56.2136L25.7295 46.1617L30.4404 36.9346L30.5404 36.8486C30.922 36.5458 31.2369 36.1675 31.4656 35.7373C31.6943 35.3072 31.8317 34.8345 31.8694 34.3489L31.8754 34.2919C31.9621 33.5839 32.3149 32.9354 32.8623 32.4781L32.8993 32.4521C33.3672 32.1474 33.913 31.9842 34.4713 31.9821H34.8353L44.9671 48.5654L36.1763 46.5146Z" fill="#008FA4"/>
</svg>
