<svg width="61" height="61" viewBox="0 0 61 61" fill="none" xmlns="http://www.w3.org/2000/svg">
<path d="M30.9397 0.499023C22.9895 0.513576 15.37 3.67971 9.75024 9.30322C4.13048 14.9267 0.969456 22.5488 0.960205 30.499C0.969204 38.4528 4.13294 46.0785 9.75708 51.7026C15.3812 57.3268 23.0065 60.49 30.9602 60.499C38.9148 60.4879 46.5404 57.3224 52.1643 51.6968C57.7882 46.0711 60.9515 38.4449 60.9602 30.4902C60.9427 22.5365 57.7736 14.9139 52.1467 9.29248C46.5198 3.67102 38.8935 0.508795 30.9397 0.499023ZM30.9602 57.457C26.7053 57.4523 22.5113 56.4435 18.72 54.5122C18.773 53.2872 18.8702 52.1742 19.0012 51.2012C19.2922 49.0502 20.015 48.642 20.718 48.249C21.3301 48.0155 21.8367 47.5675 22.1428 46.9883C22.449 46.4091 22.5338 45.7384 22.3821 45.1011C22.3449 44.4512 22.4917 43.8044 22.8059 43.2344C23.5492 41.7732 23.7247 40.0883 23.2981 38.5054C22.6891 36.3624 20.962 35.528 19.134 34.645C16.9802 33.6789 14.9806 32.4012 13.1985 30.853C10.1345 28.18 8.27433 28.1431 7.16333 28.1221C6.91933 28.1221 6.91862 28.1223 6.60962 26.9883C6.53162 26.6953 6.35653 26.0493 6.32153 25.8013C6.34453 25.7913 6.37359 25.7801 6.40259 25.7661C7.19414 25.44 7.91261 24.958 8.51392 24.3486C9.11522 23.7393 9.58706 23.0151 9.90259 22.2192C10.9537 20.1422 12.5232 18.3712 14.4583 17.0771C14.6393 17.2565 14.8546 17.398 15.0911 17.4932C15.3275 17.5883 15.5804 17.6353 15.8352 17.6313C16.7412 17.6313 17.614 17.0755 18.759 15.7725C19.1643 15.4071 19.4917 14.9634 19.7209 14.4683C19.9502 13.9731 20.0766 13.4365 20.093 12.8911C20.0557 12.5368 19.945 12.1943 19.7678 11.8853C19.5906 11.5762 19.3506 11.3074 19.0637 11.0962C19.2333 10.8092 19.4255 10.5361 19.6379 10.2793C19.7669 10.1143 19.8816 9.96605 19.9836 9.83105C20.0294 10.0474 20.0927 10.26 20.1721 10.4663C20.2999 10.9016 20.5605 11.2862 20.9172 11.5664C21.274 11.8466 21.7092 12.0083 22.1624 12.0293C22.4709 12.0271 22.774 11.9511 23.0471 11.8076C23.3203 11.6641 23.5548 11.4569 23.7317 11.2041C23.9997 10.8461 25.3939 10.0273 31.7239 8.57227C32.8342 8.32213 33.8554 7.77356 34.677 6.98584C35.4986 6.19812 36.0894 5.20091 36.386 4.10205C37.9354 4.4211 39.4537 4.87655 40.9231 5.4624C40.6117 5.77967 40.2255 6.0132 39.8 6.14209L39.3157 6.29199C38.1707 6.63599 37.1852 6.93224 36.7112 7.94824C36.5672 8.31729 36.4976 8.7114 36.5071 9.10742C36.5165 9.50344 36.6045 9.8936 36.7659 10.2554C35.7604 10.6291 34.7056 10.8529 33.635 10.9194C33.3956 10.9344 33.1637 11.0078 32.9592 11.1333C32.2523 11.5704 31.642 12.1468 31.1653 12.8276C30.6885 13.5085 30.3548 14.2794 30.1858 15.0933C30.1109 15.8239 30.2076 16.5618 30.468 17.2485C30.7284 17.9353 31.1453 18.552 31.6858 19.0493C31.7038 19.0663 31.7167 19.0792 31.7307 19.0952C31.5847 19.2262 31.3092 19.4521 30.7952 19.8291C28.6722 21.4091 25.4589 23.7951 26.9709 29.6431C28.3579 35.0321 31.8543 36.1631 34.5393 36.1631C35.8269 36.1481 37.102 35.9152 38.3118 35.4741C39.0248 36.3741 40.0622 38.5303 39.4192 43.1743C38.9402 46.6743 39.4544 49.4971 40.8684 51.1191C41.2483 51.5743 41.7236 51.9401 42.261 52.1904C42.7984 52.4407 43.384 52.5695 43.9768 52.5674C45.8768 52.5674 47.8775 51.2832 49.6145 48.9492C54.0075 43.0412 55.0008 40.3261 54.2288 36.3091C54.0428 35.3451 54.2505 35.0342 55.6165 34.2202C56.1234 34.0151 56.5718 33.6893 56.9241 33.271C57.2763 32.8527 57.5211 32.3547 57.637 31.8203C57.682 31.7833 57.7315 31.7451 57.7825 31.7051L57.8372 31.666C57.8532 31.652 57.8719 31.6404 57.8879 31.6274C57.6115 38.4897 54.7126 44.9837 49.7883 49.771C44.7656 54.7074 38.0026 57.4685 30.9602 57.457ZM16.8918 13.2314C16.762 13.4168 16.6212 13.5939 16.47 13.7622L16.3635 13.8843C16.2285 13.6525 16.0339 13.4611 15.8 13.3296C15.5662 13.1981 15.3016 13.1313 15.0334 13.1362C14.7669 13.135 14.5043 13.201 14.2698 13.3276C14.0353 13.4543 13.8357 13.6378 13.6907 13.8613C13.4554 14.0613 13.2083 14.2457 12.9495 14.4141C10.481 16.0187 8.48513 18.253 7.16821 20.8862C6.87382 21.676 6.32005 22.3427 5.5979 22.7773C7.46346 16.8721 11.26 11.7654 16.3772 8.27734C16.4243 8.35164 16.4774 8.42213 16.5354 8.48828C16.6473 8.62084 16.7774 8.73644 16.9221 8.83203C15.6351 10.64 15.6258 12.0404 16.8918 13.2314ZM20.3713 39.3413C20.5927 40.2791 20.4525 41.2659 19.9797 42.1055C19.4513 43.1597 19.2404 44.3442 19.3713 45.5161L19.3049 45.5542L19.2229 45.5991C18.1289 46.2111 16.4806 47.1373 15.9846 50.7993C15.9066 51.3813 15.8424 51.9993 15.7854 52.6533C12.2994 50.1357 9.4543 46.8336 7.47974 43.0137C5.50517 39.1938 4.45631 34.963 4.41821 30.6631C4.41821 30.3681 4.42584 30.0632 4.43384 29.7632C4.69898 30.2269 5.0916 30.605 5.5647 30.853C6.03779 31.1011 6.57153 31.2087 7.10376 31.1631C7.84176 31.1761 8.95949 31.1965 11.1985 33.1475C13.1846 34.874 15.411 36.3017 17.8088 37.3862C19.5328 38.2172 20.1434 38.5463 20.3694 39.3403L20.3713 39.3413ZM31.0393 5.59912C28.3057 6.11634 25.636 6.927 23.0764 8.01709C23.1827 7.75459 23.3459 7.51922 23.5549 7.32812C23.9187 7.06609 24.188 6.69334 24.3225 6.26562C24.457 5.83791 24.4495 5.37815 24.301 4.95508C24.2644 4.86117 24.2201 4.77052 24.1682 4.68408C27.1292 3.87317 30.2047 3.56416 33.2678 3.77002C33.0679 4.22785 32.7628 4.63206 32.3772 4.94971C31.9916 5.26735 31.5367 5.48958 31.0491 5.59814L31.0745 5.69824L31.0393 5.59912ZM55.6946 25.3994C55.4856 25.808 55.395 26.2667 55.4319 26.7241C55.4688 27.1816 55.6317 27.6195 55.9036 27.9893C56.4346 28.8973 56.4348 28.8974 56.0168 29.2124C55.6547 29.4318 55.3433 29.7255 55.1038 30.0747C54.8642 30.4239 54.7024 30.8204 54.6282 31.2373C54.5282 31.3053 54.3576 31.4183 54.0686 31.5923C52.9496 32.2543 50.6244 33.6331 51.2454 36.8721C51.8254 39.8871 50.987 41.9941 47.175 47.1201C46.093 48.5731 44.9193 49.4611 44.0383 49.4951C43.8727 49.5064 43.7067 49.4774 43.5549 49.4102C43.4032 49.3429 43.2701 49.2397 43.1672 49.1094C42.3492 48.1724 42.0847 46.1542 42.4377 43.5762C43.6527 34.7762 39.5181 32.4495 39.3381 32.3555C39.1181 32.2359 38.8718 32.1732 38.6213 32.1733C38.387 32.173 38.155 32.2261 37.9446 32.3291C36.8721 32.8125 35.7152 33.0788 34.5393 33.1123C32.1953 33.1123 30.6393 31.685 29.9163 28.873C28.9163 24.999 30.8032 23.6025 32.6272 22.2515C33.7272 21.4335 34.7701 20.6621 34.8831 19.3311C34.9047 18.8829 34.8265 18.4359 34.6536 18.022C34.4806 17.608 34.2171 17.2379 33.8831 16.9385C33.6676 16.7587 33.494 16.5335 33.3752 16.2793C33.2565 16.0251 33.1961 15.7479 33.1965 15.4673C33.3713 14.8371 33.7557 14.2855 34.2864 13.9033C35.8864 13.7433 38.6807 13.2424 39.6077 11.7104C39.8092 11.3849 39.9278 11.0144 39.9524 10.6323C39.977 10.2502 39.9074 9.86778 39.7493 9.51904C39.7243 9.46004 39.6999 9.40547 39.6809 9.35547C39.8699 9.29347 40.0677 9.23429 40.1887 9.19629L40.7014 9.04004C41.9262 8.6677 42.9855 7.8854 43.7014 6.82422C47.0414 8.64155 49.9579 11.1463 52.259 14.1733C54.5602 17.2004 56.1933 20.6809 57.051 24.3853C56.7683 24.4553 56.5029 24.5812 56.2698 24.7559C56.0367 24.9306 55.8402 25.1506 55.6936 25.4023L55.6946 25.3994Z" fill="#008FA4"/>
</svg>
