<svg width="41" height="40" viewBox="0 0 41 40" fill="none" xmlns="http://www.w3.org/2000/svg">
<path d="M14.5816 27.4757C15.767 28.4061 17.1575 29.0399 18.6373 29.3243C20.1171 29.6087 21.6434 29.5355 23.0892 29.1109C24.535 28.6862 25.8585 27.9224 26.9495 26.8829C28.0406 25.8434 28.8676 24.5583 29.3618 23.1346C29.856 21.7108 30.0031 20.1897 29.7908 18.6976C29.5785 17.2056 29.013 15.7858 28.1414 14.5565C27.2697 13.3272 26.117 12.3238 24.7794 11.63C23.4417 10.9361 21.9577 10.5718 20.4508 10.5674C20.0706 10.5675 19.6907 10.5902 19.3132 10.6354C17.0271 10.9088 14.9192 12.0067 13.3845 13.7233C11.8498 15.4398 10.9937 17.6572 10.9767 19.9599C10.9605 21.4053 11.2773 22.835 11.9027 24.1382C12.528 25.4414 13.445 26.5831 14.5826 27.4747M14.6636 15.4976C15.5613 14.3576 16.7768 13.5093 18.1565 13.06C19.5361 12.6107 21.018 12.5804 22.4148 12.9731C23.8116 13.3658 25.0607 14.1638 26.0042 15.2663C26.9477 16.3687 27.5433 17.7261 27.7157 19.167C27.7523 19.4772 27.7693 19.7895 27.7667 20.1019C27.7507 21.8871 27.085 23.6055 25.8942 24.9356C24.7034 26.2656 23.069 27.1164 21.2966 27.3287C21.0037 27.3639 20.7089 27.3816 20.4139 27.3817C19.0381 27.3766 17.6915 26.9852 16.5273 26.2522C15.3631 25.5191 14.4281 24.4738 13.8288 23.2352C13.2295 21.9967 12.99 20.6148 13.1376 19.2468C13.2852 17.8788 13.8139 16.5798 14.6636 15.4976Z" fill="white"/>
<path d="M38.6312 10.8245C38.5843 10.6929 38.5115 10.5719 38.417 10.4689C38.3226 10.3658 38.2085 10.2828 38.0814 10.2246C37.9551 10.1656 37.8183 10.1321 37.679 10.1261C37.5397 10.1201 37.4006 10.1417 37.2696 10.1896L33.5188 11.5734C33.3777 11.6215 33.2257 11.627 33.0815 11.5893C32.9374 11.5516 32.8075 11.4724 32.708 11.3614C32.1211 10.445 31.398 9.62335 30.5636 8.92482C30.464 8.84176 30.3948 8.72792 30.3669 8.60122C30.3391 8.47452 30.3541 8.34215 30.4097 8.22494L32.1702 4.56752C32.2307 4.44172 32.2658 4.30521 32.2734 4.16582C32.281 4.02642 32.261 3.88689 32.2146 3.75524C32.1682 3.6236 32.0962 3.50242 32.0028 3.39868C31.9093 3.29494 31.7964 3.21068 31.6703 3.15074L26.6288 0.718129C26.5039 0.657453 26.3682 0.622148 26.2295 0.614254C26.0909 0.606359 25.952 0.626032 25.8211 0.672136C25.5579 0.766747 25.3425 0.961019 25.2212 1.21305L23.5217 4.80348C23.467 4.91911 23.3758 5.01361 23.2623 5.07248C23.1487 5.13135 23.019 5.15136 22.8929 5.12943C21.8029 4.92992 20.6911 4.87612 19.5869 4.96945C19.4579 4.98003 19.329 4.94748 19.2204 4.87691C19.1119 4.80634 19.0298 4.70175 18.9871 4.57952L17.6325 0.714129C17.5392 0.450063 17.3457 0.233368 17.0939 0.110978C16.842 -0.0114124 16.5521 -0.0296435 16.2869 0.0602332L11.0155 1.87195C10.8816 1.91786 10.7582 1.99019 10.6528 2.08465C10.5474 2.17911 10.462 2.29378 10.4016 2.42186C10.342 2.54961 10.3081 2.68786 10.302 2.82871C10.2958 2.96956 10.3174 3.11025 10.3657 3.24273L11.7253 7.05012C11.7685 7.1718 11.7703 7.30439 11.7304 7.42719C11.6904 7.55 11.6109 7.65613 11.5043 7.72901C10.6097 8.32109 9.80215 9.0352 9.10503 9.85068C9.02125 9.95181 8.90587 10.0218 8.77748 10.0494C8.64908 10.0769 8.51515 10.0605 8.39725 10.0027L4.65836 8.20294C4.53263 8.14255 4.39623 8.10758 4.25696 8.10004C4.11769 8.09249 3.97831 8.11251 3.84679 8.15896C3.71528 8.2054 3.59423 8.27736 3.49058 8.37069C3.38693 8.46403 3.30272 8.57691 3.24278 8.70286L0.877487 13.6191C0.816364 13.7437 0.780642 13.8792 0.772404 14.0177C0.764165 14.1562 0.783575 14.295 0.829501 14.426C0.875396 14.5586 0.947195 14.6809 1.04073 14.7856C1.13426 14.8903 1.24766 14.9754 1.37434 15.0359L5.12722 16.8136C5.24265 16.8683 5.337 16.9593 5.39585 17.0727C5.4547 17.186 5.47481 17.3156 5.45312 17.4415C5.25676 18.5249 5.19765 19.6287 5.27717 20.7269C5.28711 20.8572 5.25312 20.9871 5.18065 21.0958C5.10817 21.2046 5.00137 21.2859 4.87729 21.3269L1.05743 22.5947C0.922954 22.6397 0.798795 22.7111 0.692204 22.8046C0.585613 22.8982 0.498727 23.0121 0.436618 23.1396C0.366417 23.2813 0.32949 23.4373 0.32865 23.5955C0.32759 23.7213 0.349265 23.8463 0.392631 23.9644L2.28607 29.1756C2.38249 29.4372 2.57758 29.6507 2.82951 29.7701C3.08143 29.8895 3.37012 29.9055 3.63367 29.8145L7.28058 28.5207C7.30507 28.512 7.33012 28.505 7.35556 28.4997C7.48186 28.465 7.6146 28.4608 7.74286 28.4874C7.87112 28.514 7.99123 28.5706 8.09334 28.6527C8.1385 28.6913 8.1776 28.7364 8.2093 28.7867C8.78991 29.6779 9.50018 30.4776 10.3167 31.1593C10.4165 31.2422 10.4859 31.356 10.5139 31.4827C10.542 31.6094 10.5271 31.7419 10.4716 31.8592L8.71115 35.5206C8.58985 35.7751 8.57368 36.0671 8.66617 36.3335C8.71265 36.4642 8.78443 36.5844 8.8774 36.6873C8.97037 36.7903 9.08271 36.8739 9.208 36.9334L14.2475 39.362C14.3731 39.4222 14.5093 39.457 14.6484 39.4645C14.7875 39.4719 14.9267 39.4519 15.058 39.4054C15.1893 39.359 15.3102 39.2871 15.4137 39.1938C15.5172 39.1006 15.6012 38.9879 15.6611 38.8621L17.3996 35.1926C17.4542 35.0774 17.545 34.9832 17.6582 34.9243C17.7714 34.8655 17.9006 34.8452 18.0264 34.8667C19.1167 35.0637 20.2282 35.1172 21.3324 35.0257H21.3844C21.5056 35.0257 21.6239 35.0635 21.7227 35.1337C21.8216 35.2039 21.8962 35.3031 21.9362 35.4176L23.2858 39.279C23.3784 39.5431 23.5715 39.7599 23.8231 39.8824C24.0747 40.0048 24.3645 40.023 24.6294 39.9329L29.8988 38.1222C30.0327 38.0757 30.156 38.0032 30.2617 37.9088C30.3674 37.8144 30.4534 37.7 30.5147 37.5723C30.5752 37.4459 30.6098 37.3087 30.6164 37.1687C30.6229 37.0287 30.6012 36.8888 30.5526 36.7574L29.194 32.943C29.1507 32.8214 29.1487 32.6889 29.1885 32.5661C29.2283 32.4433 29.3076 32.3371 29.414 32.2641C30.3073 31.6695 31.1146 30.955 31.8133 30.1405C31.8984 30.0416 32.014 29.9741 32.1419 29.9485C32.2698 29.923 32.4025 29.9409 32.5191 29.9995L36.2579 31.7992C36.3835 31.8594 36.5198 31.8942 36.6589 31.9017C36.798 31.9091 36.9371 31.8891 37.0685 31.8426C37.1998 31.7962 37.3206 31.7243 37.4241 31.631C37.5276 31.5378 37.6117 31.4251 37.6715 31.2993L40.0398 26.3811C40.1007 26.2555 40.1361 26.119 40.1438 25.9796C40.1516 25.8403 40.1315 25.7007 40.0848 25.5692C39.9909 25.3041 39.7967 25.0865 39.544 24.9633L35.7921 23.1896C35.6765 23.1348 35.582 23.0436 35.5231 22.9301C35.4643 22.8165 35.4442 22.6867 35.4662 22.5607C35.6628 21.4759 35.7215 20.3707 35.6411 19.2712C35.6312 19.1409 35.6652 19.011 35.7377 18.9023C35.8101 18.7935 35.9169 18.7122 36.041 18.6713L39.8609 17.4015C39.9953 17.3567 40.1195 17.2854 40.226 17.1919C40.3325 17.0984 40.4193 16.9845 40.4811 16.857C40.543 16.7294 40.5787 16.5908 40.5862 16.4492C40.5936 16.3077 40.5727 16.166 40.5247 16.0327L38.6312 10.8245ZM37.9314 15.6238C37.8974 15.6941 37.8496 15.7568 37.7908 15.8083C37.7321 15.8599 37.6637 15.8991 37.5895 15.9237L35.3472 16.6686C35.0097 16.7827 34.698 16.9624 34.43 17.1973C34.1621 17.4322 33.9431 17.7177 33.7857 18.0374C33.5928 18.4812 33.5062 18.9639 33.5328 19.4472C33.5956 20.3978 33.5409 21.3525 33.3698 22.2897C33.3096 22.8536 33.4227 23.4226 33.694 23.9206C33.9653 24.4186 34.3819 24.8221 34.8883 25.0773L37.1447 26.1651C37.2841 26.2324 37.3912 26.3524 37.4424 26.4986C37.4935 26.6448 37.4846 26.8053 37.4176 26.945L36.4779 28.8996C36.4446 28.9689 36.398 29.031 36.3408 29.0823C36.2836 29.1335 36.2168 29.173 36.1443 29.1985C36.0717 29.2239 35.9949 29.2348 35.9182 29.2305C35.8415 29.2263 35.7664 29.2069 35.6971 29.1736L33.4378 28.0868C32.903 27.8284 32.2981 27.7529 31.7162 27.8717C31.1343 27.9906 30.6075 28.2973 30.2167 28.7447C29.6523 29.4158 28.9956 30.0035 28.2663 30.4904C28.2502 30.5016 28.2335 30.5119 28.2163 30.5214C27.7856 30.775 27.448 31.1607 27.2536 31.6212C27.101 31.9503 27.0153 32.3066 27.0018 32.6691C26.9882 33.0317 27.047 33.3933 27.1746 33.7329L27.9744 35.9205C28.0013 35.9936 28.0132 36.0713 28.0097 36.1491C28.0061 36.2268 27.987 36.3031 27.9536 36.3734C27.9202 36.4437 27.8731 36.5067 27.815 36.5585C27.757 36.6104 27.6891 36.6501 27.6155 36.6754L25.4832 37.4083C25.337 37.4584 25.177 37.4487 25.0381 37.3813C24.8991 37.3139 24.7924 37.1942 24.7414 37.0484L23.9316 34.7307C23.7396 34.1617 23.36 33.6748 22.8551 33.3498C22.3502 33.0248 21.7498 32.881 21.1524 32.942C20.2441 33.0075 19.3311 32.9605 18.4343 32.802H18.4153C17.8323 32.6855 17.2271 32.7704 16.6987 33.0429C16.1704 33.3153 15.7502 33.7592 15.5071 34.3018L14.4614 36.4764C14.4281 36.5456 14.3814 36.6076 14.3242 36.6588C14.2669 36.7099 14.2001 36.7493 14.1276 36.7747C14.0551 36.8 13.9783 36.8108 13.9016 36.8065C13.8249 36.8022 13.7499 36.7828 13.6807 36.7494L11.6043 35.7496C11.4648 35.6822 11.3578 35.5623 11.3066 35.4161C11.2554 35.2699 11.2643 35.1093 11.3314 34.9697L12.3771 32.795C12.6351 32.2585 12.7102 31.6522 12.5909 31.0689C12.4715 30.4856 12.1643 29.9575 11.7163 29.5655C11.0244 29.0031 10.4279 28.3325 9.94978 27.5799C9.9305 27.5485 9.90912 27.5184 9.8858 27.4899C9.5175 27.0353 9.02471 26.698 8.46773 26.5192C7.91076 26.3404 7.31375 26.3278 6.74974 26.483L4.46142 27.2829C4.31621 27.3337 4.15682 27.3253 4.01779 27.2594C3.87875 27.1936 3.77127 27.0755 3.71864 26.931L2.96486 24.8303C2.93827 24.757 2.92658 24.6792 2.93049 24.6013C2.9344 24.5235 2.95383 24.4472 2.98764 24.377C3.02145 24.3067 3.06895 24.244 3.12736 24.1923C3.18577 24.1407 3.2539 24.1013 3.32776 24.0764L5.56109 23.3355C5.9007 23.221 6.21434 23.0405 6.48403 22.8044C6.75371 22.5683 6.97413 22.2812 7.13262 21.9598C7.30678 21.5553 7.39201 21.1182 7.38255 20.678C7.38255 20.636 7.38255 20.597 7.38255 20.561C7.32171 19.6107 7.37642 18.6565 7.5455 17.7194C7.61145 17.1539 7.50093 16.5817 7.22907 16.0814C6.95722 15.5812 6.53733 15.1772 6.02695 14.9249L3.77262 13.838C3.70344 13.8047 3.64149 13.758 3.59033 13.7008C3.53917 13.6435 3.4998 13.5767 3.47446 13.5041C3.44911 13.4316 3.4383 13.3548 3.44263 13.2781C3.44696 13.2015 3.46636 13.1264 3.49971 13.0572L4.44042 11.1025C4.47377 11.0333 4.52041 10.9713 4.5777 10.9202C4.63498 10.869 4.70178 10.8296 4.77428 10.8043C4.84678 10.7789 4.92357 10.7681 5.00025 10.7724C5.07693 10.7768 5.15201 10.7962 5.22119 10.8295L7.47752 11.9173C8.01322 12.1758 8.61898 12.2511 9.20166 12.1317C9.78434 12.0123 10.3117 11.7048 10.7026 11.2565C11.267 10.5856 11.9236 9.99818 12.653 9.51173C12.669 9.50073 12.686 9.49073 12.702 9.48074C13.1317 9.22615 13.4687 8.84076 13.6637 8.38091C13.9634 7.71438 13.9917 6.95731 13.7427 6.27025L12.9359 4.08259C12.909 4.00952 12.8971 3.93182 12.9006 3.85405C12.9042 3.77628 12.9233 3.70001 12.9567 3.6297C12.9901 3.55939 13.0372 3.49647 13.0953 3.44461C13.1533 3.39276 13.2212 3.35301 13.2948 3.32771L15.4301 2.60383C15.5763 2.55369 15.7363 2.56339 15.8752 2.63083C16.0142 2.69827 16.1209 2.81796 16.1719 2.96377L16.9837 5.2844C17.1759 5.85277 17.5553 6.33909 18.0598 6.66383C18.5643 6.98856 19.164 7.13251 19.7609 7.07212C20.6695 7.00594 21.5829 7.05296 22.48 7.2121H22.499C23.082 7.32866 23.6872 7.24374 24.2156 6.97126C24.7439 6.69878 25.1641 6.25489 25.4072 5.71234L26.4129 3.62167C26.4462 3.55247 26.4929 3.49052 26.5501 3.43935C26.6074 3.38819 26.6742 3.3488 26.7467 3.32346C26.8192 3.29811 26.896 3.2873 26.9727 3.29163C27.0494 3.29596 27.1245 3.31536 27.1936 3.34871L29.27 4.34855C29.4095 4.41591 29.5166 4.53584 29.5677 4.68205C29.6189 4.82825 29.61 4.98879 29.5429 5.12843L28.4973 7.30308C28.238 7.83878 28.1619 8.44485 28.2808 9.02801C28.3996 9.61118 28.7068 10.1391 29.1551 10.5306C29.8801 11.1271 30.5048 11.8359 31.0055 12.6302C31.3506 13.0615 31.8102 13.3869 32.3315 13.5692C32.8529 13.7515 33.415 13.7833 33.9536 13.6611C34.0032 13.6506 34.052 13.6366 34.0996 13.6191L36.4519 12.7532C36.5241 12.7266 36.6009 12.7145 36.6779 12.7176C36.7548 12.7208 36.8304 12.7391 36.9002 12.7715C36.9701 12.8039 37.0329 12.8498 37.0849 12.9066C37.137 12.9633 37.1773 13.0298 37.2037 13.1022L37.9534 15.1668C37.9801 15.2402 37.9918 15.3182 37.9878 15.3961C37.9839 15.4741 37.9644 15.5505 37.9304 15.6208" fill="white"/>
</svg>
