<svg width="191" height="61" viewBox="0 0 191 61" fill="none" xmlns="http://www.w3.org/2000/svg">
<path d="M189.281 55.1159H181.691V7.54144C181.691 2.78479 179.408 0.501953 174.651 0.501953H102.615C97.8582 0.501953 95.5753 2.78479 95.5753 7.54144V55.1159H87.9838C87.7478 55.1159 87.5151 55.1716 87.3046 55.2785C87.0942 55.3854 86.9119 55.5404 86.7727 55.731C86.6334 55.9216 86.5411 56.1424 86.5033 56.3753C86.4655 56.6083 86.4831 56.8469 86.5549 57.0718C86.6139 57.2038 86.6759 57.3338 86.7449 57.4608C87.2279 58.368 87.9462 59.1286 88.8242 59.6629C89.7022 60.1971 90.7078 60.4854 91.7356 60.4975H185.53C186.557 60.4852 187.562 60.197 188.44 59.6629C189.318 59.1288 190.036 58.3686 190.519 57.4618C190.673 57.2364 190.763 56.9733 190.778 56.7008C190.794 56.4283 190.734 56.1567 190.607 55.9154C190.48 55.674 190.289 55.472 190.055 55.3312C189.821 55.1903 189.553 55.1159 189.28 55.1159M98.5862 55.1159V7.54144C98.5862 4.44166 99.5201 3.50873 102.619 3.50873H174.655C177.755 3.50873 178.688 4.44266 178.688 7.54144V55.1159H98.5862Z" fill="white"/>
<path d="M24.0984 19.2276C23.4896 18.6157 22.7656 18.1305 21.9683 17.8C21.1709 17.4694 20.3159 17.3001 19.4528 17.3018H6.76972C5.02812 17.3036 3.35836 17.9962 2.12677 19.2276C0.895172 20.459 0.202313 22.1287 0.200195 23.8703V53.9251C0.201255 55.6679 0.894058 57.339 2.12641 58.5714C3.35877 59.8037 5.0299 60.4965 6.77271 60.4976H19.4518C21.194 60.4955 22.8642 59.8022 24.0959 58.57C25.3275 57.3378 26.02 55.6673 26.0213 53.9251V23.8703C26.0231 23.0078 25.8541 22.1535 25.5241 21.3567C25.194 20.5599 24.7095 19.8363 24.0984 19.2276ZM22.9175 53.9251C22.9151 54.8443 22.5489 55.7252 21.8989 56.3752C21.2489 57.0252 20.368 57.3914 19.4488 57.3938H6.77071C5.85113 57.392 4.96971 57.026 4.31928 56.3759C3.66884 55.7259 3.30235 54.8447 3.29997 53.9251V23.8723C3.30192 23.0056 3.62738 22.1709 4.2126 21.5317C4.79782 20.8925 5.60062 20.4948 6.46374 20.4165C6.55524 20.9873 6.84703 21.5067 7.2868 21.8818C7.72657 22.2569 8.28556 22.4631 8.86356 22.4634H17.3449C17.923 22.4633 18.4821 22.2572 18.9219 21.882C19.3617 21.5069 19.6535 20.9873 19.7448 20.4165C20.6095 20.4927 21.4145 20.8894 22.0016 21.5289C22.5887 22.1683 22.9154 23.0042 22.9175 23.8723V53.9251Z" fill="white"/>
<path d="M71.2762 8.90137H41.2244C39.8917 8.90269 38.6139 9.4327 37.6715 10.3751C36.7291 11.3175 36.1991 12.5953 36.1978 13.928V55.4709C36.1991 56.8037 36.7291 58.0815 37.6715 59.0238C38.6139 59.9662 39.8917 60.4963 41.2244 60.4976H71.2802C72.6129 60.496 73.8905 59.9659 74.8328 59.0236C75.7751 58.0812 76.3052 56.8036 76.3068 55.4709V13.928C76.3052 12.5953 75.7751 11.3177 74.8328 10.3754C73.8905 9.43305 72.6129 8.90295 71.2802 8.90137M73.222 55.4709C73.2215 55.9861 73.0167 56.4799 72.6524 56.8442C72.2882 57.2084 71.7943 57.4133 71.2792 57.4138H41.2244C40.7093 57.4133 40.2154 57.2084 39.8512 56.8442C39.4869 56.4799 39.2821 55.9861 39.2815 55.4709V13.928C39.2821 13.4129 39.4869 12.919 39.8512 12.5548C40.2154 12.1905 40.7093 11.9857 41.2244 11.9851H71.2802C71.7953 11.9857 72.2892 12.1905 72.6534 12.5548C73.0177 12.919 73.2225 13.4129 73.223 13.928L73.222 55.4709Z" fill="white"/>
</svg>
