<svg width="62" height="60" viewBox="0 0 62 60" fill="none" xmlns="http://www.w3.org/2000/svg">
<path d="M31 0C25.0661 0 19.2656 1.75947 14.3318 5.05591C9.39801 8.35235 5.55259 13.0377 3.28182 18.5195C1.01105 24.0013 0.416909 30.0333 1.57454 35.8527C2.73217 41.6721 5.58957 47.0176 9.78541 51.2132C13.9813 55.4088 19.3271 58.266 25.1469 59.4236C30.9667 60.5811 36.9991 59.987 42.4812 57.7164C47.9633 55.4458 52.649 51.6006 55.9456 46.6671C59.2423 41.7336 61.0019 35.9334 61.0019 30C61.0019 22.0435 57.8409 14.4129 52.2145 8.7868C46.5881 3.16071 38.957 0 31 0ZM50.0933 49.0921C45.0294 54.1556 38.1613 57.0003 31 57.0003C23.8386 57.0003 16.9705 54.1556 11.9067 49.0921C6.84281 44.0286 3.99796 37.1609 3.99796 30C3.99796 22.8391 6.84281 15.9714 11.9067 10.9079C16.9705 5.84438 23.8386 2.99971 31 2.99971C38.1613 2.99971 45.0294 5.84438 50.0933 10.9079C55.1571 15.9714 58.0019 22.8391 58.0019 30C58.0019 37.1609 55.1571 44.0286 50.0933 49.0921Z" fill="#008FA4"/>
<path d="M34.2642 14.8247C33.8732 14.7179 33.4563 14.7632 33.0973 14.9514L27.3775 18.4251C27.2052 18.5126 27.0521 18.6335 26.9269 18.7807C26.8017 18.928 26.7071 19.0987 26.6485 19.2828C26.5859 19.4925 26.5666 19.7128 26.5918 19.9302C26.617 20.1476 26.6862 20.3576 26.7951 20.5474C26.9318 20.7838 27.1284 20.9799 27.3652 21.116C27.602 21.2521 27.8704 21.3232 28.1435 21.3224C28.4232 21.3112 28.6949 21.2255 28.9304 21.074L32.3134 19.0853V43.7785C32.3188 44.1865 32.4833 44.5763 32.7718 44.8649C33.0604 45.1534 33.4502 45.3179 33.8582 45.3234C34.0617 45.3255 34.2636 45.287 34.452 45.2101C34.6404 45.1332 34.8115 45.0195 34.9554 44.8756C35.0993 44.7317 35.213 44.5606 35.2899 44.3722C35.3668 44.1838 35.4053 43.9819 35.4031 43.7785V16.598C35.4502 16.2349 35.3833 15.8662 35.2116 15.5428C35.1103 15.3654 34.9741 15.2103 34.8113 15.0869C34.6485 14.9635 34.4624 14.8743 34.2642 14.8247Z" fill="#008FA4"/>
</svg>
