<svg width="26" height="37" viewBox="0 0 26 37" fill="none" xmlns="http://www.w3.org/2000/svg">
<path d="M3.92996 11.584H1.45066C1.20649 11.584 0.972326 11.681 0.799675 11.8536C0.627024 12.0263 0.530029 12.2604 0.530029 12.5046C0.530029 12.7488 0.627024 12.9829 0.799675 13.1556C0.972326 13.3282 1.20649 13.4252 1.45066 13.4252H3.92996C4.17413 13.4252 4.40829 13.3282 4.58094 13.1556C4.75359 12.9829 4.85059 12.7488 4.85059 12.5046C4.85059 12.2604 4.75359 12.0263 4.58094 11.8536C4.40829 11.681 4.17413 11.584 3.92996 11.584Z" fill="#008FA4"/>
<path d="M11.675 0.810547C11.4309 0.810785 11.1969 0.907856 11.0243 1.08046C10.8517 1.25306 10.7546 1.48708 10.7544 1.73117V3.67862C10.7544 3.92279 10.8514 4.15695 11.024 4.3296C11.1967 4.50225 11.4309 4.59925 11.675 4.59925C11.9192 4.59925 12.1534 4.50225 12.326 4.3296C12.4987 4.15695 12.5956 3.92279 12.5956 3.67862V1.73117C12.5954 1.48708 12.4983 1.25306 12.3257 1.08046C12.1531 0.907856 11.9191 0.810785 11.675 0.810547Z" fill="#008FA4"/>
<path d="M22.4514 11.6123H19.9721C19.728 11.6123 19.4938 11.7093 19.3212 11.8819C19.1485 12.0546 19.0515 12.2888 19.0515 12.5329C19.0515 12.7771 19.1485 13.0113 19.3212 13.1839C19.4938 13.3566 19.728 13.4536 19.9721 13.4536H22.4514C22.6956 13.4536 22.9298 13.3566 23.1024 13.1839C23.2751 13.0113 23.3721 12.7771 23.3721 12.5329C23.3721 12.2888 23.2751 12.0546 23.1024 11.8819C22.9298 11.7093 22.6956 11.6123 22.4514 11.6123Z" fill="#008FA4"/>
<path d="M6.7174 5.98608L5.12272 4.62809C4.93638 4.47403 4.69692 4.39946 4.45605 4.42048C4.21519 4.44151 3.99227 4.55644 3.83544 4.74045C3.6786 4.92447 3.60046 5.16279 3.61787 5.40394C3.63529 5.64509 3.74687 5.86971 3.92852 6.02928L5.52139 7.38637C5.61334 7.4649 5.71985 7.52455 5.83484 7.56192C5.94984 7.59929 6.07108 7.61364 6.19162 7.60415C6.31216 7.59467 6.42966 7.56154 6.5374 7.50664C6.64514 7.45175 6.74101 7.37617 6.81954 7.28423C6.89807 7.19228 6.95772 7.08577 6.99509 6.97077C7.03246 6.85578 7.04681 6.73454 7.03732 6.614C7.02784 6.49346 6.9947 6.37596 6.93981 6.26822C6.88492 6.16048 6.80934 6.06461 6.7174 5.98608Z" fill="#008FA4"/>
<path d="M20.1936 3.94753C20.0159 3.78353 19.7812 3.69526 19.5394 3.70148C19.2976 3.7077 19.0678 3.8079 18.8986 3.98083L17.1888 5.75189C17.0223 5.929 16.9317 6.16421 16.9365 6.40722C16.9412 6.65024 17.0408 6.88176 17.214 7.05229L17.2221 7.06039C17.3927 7.22078 17.6179 7.31023 17.852 7.31057C17.9761 7.30982 18.0989 7.28437 18.2131 7.2357C18.3272 7.18703 18.4306 7.11612 18.5171 7.02709L20.2269 5.25603C20.3942 5.07716 20.4844 4.83974 20.4782 4.59496C20.4719 4.35019 20.3697 4.11766 20.1936 3.94753Z" fill="#008FA4"/>
<path d="M25.555 22.4938C25.4069 21.7444 25.0325 21.0584 24.4824 20.5284C23.9323 19.9983 23.233 19.6497 22.4787 19.5295H22.4571C22.1402 19.5275 21.8238 19.5531 21.5114 19.606C21.341 19.209 21.0714 18.8626 20.7286 18.5999C20.2435 18.2441 19.6564 18.0547 19.0549 18.0599C18.6559 18.0704 18.2671 18.1882 17.9293 18.401C17.8043 18.1976 17.6451 18.0173 17.4587 17.8682C16.965 17.5133 16.3715 17.3242 15.7635 17.3283C15.4518 17.332 15.143 17.3886 14.8502 17.4956V11.6299C14.8545 11.2189 14.7768 10.8112 14.6216 10.4307C14.4663 10.0501 14.2367 9.70438 13.9462 9.41372C13.6557 9.12306 13.3101 8.89332 12.9296 8.73795C12.5492 8.58259 12.1415 8.50474 11.7306 8.50895H11.7225C10.8934 8.51014 10.0987 8.84013 9.51254 9.42654C8.92639 10.0129 8.59668 10.8079 8.59573 11.6371V21.0072C8.15046 20.189 7.41654 19.566 6.537 19.2595C6.15066 19.1723 5.75074 19.1635 5.36094 19.2337C4.97114 19.3038 4.59939 19.4516 4.26772 19.6681C3.58899 20.06 3.07362 20.6828 2.81545 21.4229C2.63227 22.3254 2.74787 23.263 3.14478 24.0939C4.88011 28.5669 7.29142 32.7472 10.2945 36.4886C10.3813 36.5873 10.4878 36.6665 10.6072 36.7212C10.7265 36.776 10.8561 36.805 10.9874 36.8063H20.9067C21.1047 36.8051 21.297 36.7397 21.4547 36.62C22.6534 35.6077 23.5749 34.307 24.1325 32.8403C24.8716 31.1529 25.3897 29.3771 25.6738 27.5568C25.9777 25.8798 25.9373 24.1584 25.555 22.4974M4.58985 21.9269C4.70463 21.6411 4.90905 21.4003 5.17238 21.2406C5.43572 21.0809 5.74376 21.011 6.05021 21.0414C6.29432 21.1426 6.51528 21.2925 6.69967 21.4819C6.88405 21.6712 7.028 21.8961 7.12277 22.1429C7.16146 22.2149 7.20105 22.2878 7.23884 22.3544L8.69741 25.2845C8.79156 25.4692 8.94511 25.6168 9.13332 25.7036C9.32153 25.7903 9.53346 25.8113 9.735 25.7629C9.93654 25.7146 10.116 25.5999 10.2444 25.4372C10.3728 25.2745 10.4428 25.0733 10.443 24.8661V11.6371C10.4519 11.3032 10.5907 10.986 10.8299 10.753C11.0692 10.52 11.3899 10.3896 11.7239 10.3896C12.0578 10.3896 12.3786 10.52 12.6178 10.753C12.857 10.986 12.9959 11.3032 13.0047 11.6371V19.3504C13.0024 19.5611 13.0722 19.7663 13.2025 19.9319C13.3328 20.0975 13.5157 20.2137 13.721 20.261C13.9263 20.3084 14.1417 20.2842 14.3313 20.1924C14.521 20.1006 14.6736 19.9467 14.7638 19.7563C14.8799 19.5937 15.0293 19.4578 15.2019 19.3574C15.3746 19.257 15.5666 19.1945 15.7653 19.174C15.9831 19.1828 16.1946 19.2496 16.378 19.3675C16.549 19.4917 16.6795 19.6231 16.6795 20.0874C16.6795 20.295 16.7494 20.4964 16.878 20.6593C17.0065 20.8222 17.1862 20.9371 17.388 20.9853C17.5898 21.0336 17.802 21.0124 17.9903 20.9253C18.1786 20.8381 18.3321 20.6901 18.426 20.505C18.7211 19.9147 18.8354 19.9129 19.0837 19.9093C19.2893 19.9283 19.4877 19.9948 19.6632 20.1036C19.7811 20.1793 19.8744 20.2877 19.9316 20.4156C19.9888 20.5434 20.0075 20.6852 19.9853 20.8236C19.984 21.0039 20.0353 21.1806 20.1329 21.3322C20.2306 21.4837 20.3704 21.6035 20.5351 21.6767C20.698 21.7456 20.8769 21.7678 21.0517 21.7408C21.2265 21.7137 21.3903 21.6386 21.5249 21.5237C21.7702 21.4127 22.0388 21.3627 22.3077 21.3779C23.0662 21.4778 23.4774 21.9332 23.7816 22.9978C24.0877 24.4033 24.1094 25.8558 23.8454 27.2698C23.588 28.9291 23.1174 30.5483 22.4454 32.0871C22.0062 33.1617 21.3582 34.1384 20.5387 34.9606H11.431C8.70004 31.4521 6.49068 27.5671 4.87148 23.4262C4.63236 22.9636 4.53383 22.4412 4.58805 21.9233" fill="#008FA4"/>
</svg>
