<svg width="12" height="8" viewBox="0 0 12 8" fill="none" xmlns="http://www.w3.org/2000/svg">
<path d="M6.15291 6.56349L10.9099 1.80653C10.9561 1.75585 10.9809 1.68932 10.9794 1.62076C10.9778 1.5522 10.9498 1.48689 10.9013 1.43839C10.8528 1.3899 10.7875 1.36196 10.719 1.36037C10.6504 1.35879 10.5839 1.38368 10.5332 1.42987L5.96458 5.99744L1.4023 1.43516C1.3775 1.41036 1.34806 1.39069 1.31565 1.37726C1.28325 1.36384 1.24852 1.35693 1.21344 1.35693C1.17837 1.35693 1.14364 1.36384 1.11123 1.37726C1.07883 1.39069 1.04939 1.41036 1.02458 1.43516C0.999782 1.45996 0.980108 1.48941 0.966685 1.52181C0.953263 1.55422 0.946355 1.58895 0.946355 1.62402C0.946355 1.6591 0.953263 1.69383 0.966685 1.72623C0.980108 1.75864 0.999782 1.78808 1.02458 1.81288L5.77519 6.56349C5.79996 6.58834 5.82939 6.60807 5.8618 6.62152C5.89421 6.63498 5.92896 6.64191 5.96405 6.64191C5.99914 6.64191 6.03389 6.63498 6.06629 6.62152C6.0987 6.60807 6.12814 6.58834 6.15291 6.56349Z" fill="white" stroke="black" stroke-width="1.58706"/>
</svg>
