<svg width="14" height="22" viewBox="0 0 14 22" fill="none" xmlns="http://www.w3.org/2000/svg">
<path d="M0.669952 8.3087C0.669952 8.15865 0.730772 8.01828 0.841202 7.91343C1.06043 7.70535 1.4171 7.70535 1.63629 7.91342L6.91649 12.9244L12.2036 7.90681C12.4228 7.69887 12.7794 7.69887 12.9986 7.90677C13.1091 8.01168 13.1699 8.15205 13.1699 8.30212C13.1699 8.45218 13.1091 8.59255 12.9987 8.69739L7.31401 14.0923C7.09483 14.3003 6.73816 14.3003 6.51896 14.0923L0.841242 8.704C0.730742 8.59899 0.669952 8.45864 0.669952 8.3087Z" fill="#373737"/>
<path d="M12.9199 8.30209C12.9199 8.22465 12.8888 8.14722 12.8265 8.08812C12.702 7.97002 12.5002 7.97002 12.3757 8.08812L6.91648 13.269L1.46417 8.09471C1.33967 7.97653 1.13783 7.97653 1.01333 8.09471C0.888847 8.21288 0.888895 8.4044 1.01333 8.52263L6.69106 13.9109C6.81556 14.0291 7.01741 14.0291 7.14191 13.9109L12.8265 8.51605C12.8888 8.45696 12.9199 8.37952 12.9199 8.30209ZM13.4199 8.30208C13.4199 8.5182 13.3291 8.72835 13.1708 8.87866L7.4861 14.2736C7.16671 14.5768 6.66626 14.5768 6.34683 14.2735L0.669142 8.88531C0.510692 8.73475 0.419942 8.52465 0.419942 8.30867C0.419942 8.09254 0.510761 7.88238 0.669102 7.73207C0.988531 7.42886 1.48897 7.42886 1.8084 7.73207L6.91648 12.5797L12.0315 7.72544C12.351 7.42242 12.8513 7.42242 13.1707 7.72537C13.3291 7.87578 13.4199 8.08595 13.4199 8.30208Z" fill="#373737"/>
</svg>
