<svg width="43" height="61" viewBox="0 0 43 61" fill="none" xmlns="http://www.w3.org/2000/svg">
<path d="M37.88 24.131L37.232 24.0079H36.8219V15.8021C36.8889 13.715 36.5204 11.6371 35.7396 9.70038C34.9589 7.76369 33.7829 6.01076 32.2871 4.55364C29.3702 1.8716 25.5292 0.421173 21.5674 0.505375C17.5757 0.395354 13.6969 1.83718 10.7466 4.52776C9.24345 5.98603 8.06116 7.74161 7.27547 9.6828C6.48977 11.624 6.11798 13.708 6.1837 15.8011V24.007H5.77672L5.12976 24.13C3.75866 24.3413 2.50369 25.0224 1.57955 26.057C0.655421 27.0915 0.119669 28.4151 0.0639648 29.8011V54.6975C0.0639648 57.8911 2.92077 60.4916 6.43369 60.4916H36.5761C38.1875 60.562 39.7614 59.9924 40.9544 58.9069C42.1473 57.8214 42.8625 56.3083 42.9438 54.6975V29.8011C42.8882 28.4155 42.3527 27.0923 41.429 26.058C40.5052 25.0236 39.2506 24.3425 37.88 24.131ZM9.1807 15.8021C9.10842 14.1336 9.38367 12.4685 9.98927 10.9121C10.5949 9.35577 11.5177 7.94222 12.6987 6.76134C15.0486 4.60069 18.1299 3.41057 21.3223 3.43075H21.3345L21.5735 3.44295C24.7886 3.38078 27.9042 4.55921 30.2732 6.73351C31.4601 7.91713 32.388 9.3344 32.9983 10.8955C33.6085 12.4566 33.8877 14.1274 33.8181 15.8021V24.0079H9.17874L9.1807 15.8021ZM39.971 54.7024C39.9187 55.5537 39.5318 56.3499 38.895 56.9174C38.2581 57.4849 37.4227 57.7779 36.5709 57.7322H6.42881C5.57699 57.7779 4.74149 57.4849 4.10464 56.9174C3.4678 56.3499 3.08108 55.5537 3.02874 54.7024V29.806C3.08058 28.9542 3.46704 28.1575 4.10391 27.5895C4.74078 27.0214 5.57657 26.7283 6.42881 26.7737H36.5709C37.4232 26.7283 38.2588 27.0214 38.8957 27.5895C39.5326 28.1575 39.9192 28.9542 39.971 29.806V54.7024Z" fill="white"/>
<path d="M21.498 36.2144C20.6987 36.2144 19.9322 36.5314 19.3671 37.0966C18.8019 37.6617 18.4844 38.4284 18.4844 39.2276C18.4845 39.7561 18.6239 40.2752 18.8884 40.7328C19.1529 41.1903 19.5333 41.5703 19.9912 41.8342V46.7617C19.9912 47.1613 20.15 47.5444 20.4326 47.827C20.7152 48.1096 21.0984 48.2683 21.498 48.2683C21.8976 48.2683 22.2809 48.1096 22.5635 47.827C22.8461 47.5444 23.0047 47.1613 23.0047 46.7617V41.8342C23.4627 41.5703 23.8431 41.1903 24.1076 40.7328C24.3721 40.2752 24.5115 39.7561 24.5116 39.2276C24.5117 38.8318 24.4339 38.4401 24.2825 38.0744C24.1311 37.7088 23.909 37.3764 23.6292 37.0966C23.3493 36.8167 23.0171 36.5947 22.6514 36.4433C22.2857 36.2919 21.8938 36.2142 21.498 36.2144Z" fill="white"/>
</svg>
