<svg width="24" height="16" viewBox="0 0 24 16" fill="none" xmlns="http://www.w3.org/2000/svg">
<path d="M22.8819 0.454006C22.5936 0.166399 22.2029 0.00488281 21.7956 0.00488281C21.3883 0.00488281 20.9976 0.166399 20.7092 0.454006L8.82341 12.2845L3.30637 6.64181C3.16279 6.49581 2.99166 6.37976 2.80289 6.30038C2.61412 6.221 2.41147 6.17986 2.20669 6.17936C1.90493 6.17853 1.60964 6.26683 1.35791 6.43321C1.10617 6.59958 0.909199 6.8366 0.791722 7.11451C0.674246 7.39242 0.641499 7.69884 0.697592 7.99529C0.753686 8.29175 0.89612 8.56503 1.10701 8.78083L7.70907 15.5337C7.99648 15.826 8.38815 15.9923 8.79808 15.9962H8.80075C9.00381 15.9971 9.20502 15.9577 9.39268 15.8801C9.58033 15.8025 9.75067 15.6884 9.89376 15.5444L22.8806 2.61701C23.1672 2.33012 23.3283 1.94128 23.3286 1.53578C23.3288 1.13029 23.1682 0.74125 22.8819 0.454006Z" fill="#008FA4"/>
</svg>
