<svg width="60" height="60" viewBox="0 0 60 60" fill="none" xmlns="http://www.w3.org/2000/svg">
<path d="M45.8116 25.1963H39.5127C39.1217 25.1968 38.7469 25.3524 38.4705 25.6288C38.194 25.9053 38.0385 26.2801 38.038 26.671V52.5275C38.0385 52.9185 38.194 53.2933 38.4705 53.5697C38.7469 53.8462 39.1217 54.0017 39.5127 54.0022H45.8116C46.2026 54.0017 46.5774 53.8462 46.8538 53.5697C47.1303 53.2933 47.2858 52.9185 47.2863 52.5275V26.671C47.2858 26.2801 47.1303 25.9053 46.8538 25.6288C46.5774 25.3524 46.2026 25.1968 45.8116 25.1963ZM44.3369 51.0528H40.9865V28.1458H44.3369V51.0528Z" fill="#008FA4"/>
<path d="M58.4879 21.1992H52.189C51.798 21.1997 51.4232 21.3553 51.1468 21.6317C50.8703 21.9082 50.7148 22.283 50.7142 22.674V52.5257C50.7148 52.9167 50.8703 53.2915 51.1468 53.568C51.4232 53.8444 51.798 53.9999 52.189 54.0005H58.4879C58.8788 53.9999 59.2536 53.8444 59.5301 53.568C59.8065 53.2915 59.9621 52.9167 59.9626 52.5257V22.674C59.9621 22.283 59.8065 21.9082 59.5301 21.6317C59.2536 21.3553 58.8788 21.1997 58.4879 21.1992ZM57.0131 51.051H53.6587V24.1487H57.0091L57.0131 51.051Z" fill="#008FA4"/>
<path d="M7.79466 43.1768H1.49576C1.10462 43.177 0.729569 43.3325 0.4529 43.6089C0.17623 43.8854 0.0205491 44.2604 0.0200195 44.6515L0.0200195 52.5261C0.0205486 52.9171 0.176093 53.2919 0.452546 53.5683C0.728999 53.8448 1.1038 54.0003 1.49476 54.0009H7.79366C8.18462 54.0003 8.55942 53.8448 8.83587 53.5683C9.11233 53.2919 9.26787 52.9171 9.2684 52.5261V44.6515C9.26787 44.2605 9.11233 43.8857 8.83587 43.6093C8.55942 43.3328 8.18562 43.1773 7.79466 43.1768ZM6.31892 51.0514H2.9695V46.1262H6.31892V51.0514Z" fill="#008FA4"/>
<path d="M33.1392 29.1914H26.8403C26.4494 29.1919 26.0746 29.3475 25.7981 29.6239C25.5217 29.9004 25.3661 30.2752 25.3656 30.6662V52.5263C25.3661 52.9173 25.5217 53.2921 25.7981 53.5685C26.0746 53.845 26.4494 54.0005 26.8403 54.0011H33.1392C33.5302 54.0005 33.905 53.845 34.1814 53.5685C34.4579 53.2921 34.6134 52.9173 34.614 52.5263V30.6662C34.6134 30.2752 34.4579 29.9004 34.1814 29.6239C33.905 29.3475 33.5302 29.1919 33.1392 29.1914ZM31.6645 51.0556H28.3141V32.1409H31.6645V51.0556Z" fill="#008FA4"/>
<path d="M20.467 35.1855H14.1681C13.7771 35.1861 13.4023 35.3416 13.1259 35.6181C12.8494 35.8945 12.6939 36.2693 12.6934 36.6603V52.5265C12.6939 52.9175 12.8494 53.2923 13.1259 53.5687C13.4023 53.8452 13.7771 54.0007 14.1681 54.0013H20.467C20.858 54.0007 21.2328 53.8452 21.5092 53.5687C21.7857 53.2923 21.9412 52.9175 21.9417 52.5265V36.6603C21.9412 36.2693 21.7857 35.8945 21.5092 35.6181C21.2328 35.3416 20.858 35.1861 20.467 35.1855ZM18.9923 51.0528H15.6418V38.135H18.9923V51.0528Z" fill="#008FA4"/>
<path d="M58.2802 56.8966H1.69878C1.4848 56.8794 1.26957 56.9067 1.06665 56.9768C0.863733 57.0468 0.677528 57.1582 0.519764 57.3038C0.361999 57.4493 0.236094 57.626 0.14998 57.8227C0.0638664 58.0193 0.0194092 58.2317 0.0194092 58.4463C0.0194092 58.661 0.0638664 58.8733 0.14998 59.07C0.236094 59.2666 0.361999 59.4433 0.519764 59.5889C0.677528 59.7345 0.863733 59.8458 1.06665 59.9159C1.26957 59.986 1.4848 60.0132 1.69878 59.996H58.2802C58.4942 60.0132 58.7094 59.986 58.9124 59.9159C59.1153 59.8458 59.3015 59.7345 59.4592 59.5889C59.617 59.4433 59.7429 59.2666 59.829 59.07C59.9151 58.8733 59.9596 58.661 59.9596 58.4463C59.9596 58.2317 59.9151 58.0193 59.829 57.8227C59.7429 57.626 59.617 57.4493 59.4592 57.3038C59.3015 57.1582 59.1153 57.0468 58.9124 56.9768C58.7094 56.9067 58.4942 56.8794 58.2802 56.8966Z" fill="#008FA4"/>
<path d="M45.423 3.73765L33.7935 0.0782901C33.4105 -0.0418353 32.9954 -0.00520869 32.6393 0.180143C32.2832 0.365495 32.0151 0.684453 31.8938 1.06712C31.8086 1.4495 31.861 1.8497 32.0419 2.19721C32.2228 2.54472 32.5205 2.81725 32.8827 2.96678L40.9816 5.51434L14.5771 18.869C14.3613 18.9322 14.162 19.0421 13.9935 19.1909C13.8249 19.3397 13.6912 19.5238 13.6018 19.7301C13.5124 19.9365 13.4696 20.1599 13.4763 20.3847C13.483 20.6094 13.5391 20.8299 13.6406 21.0306C13.7421 21.2312 13.8865 21.407 14.0636 21.5456C14.2408 21.6841 14.4462 21.7819 14.6654 21.8321C14.8846 21.8823 15.1121 21.8837 15.3319 21.836C15.5516 21.7884 15.7582 21.693 15.9369 21.5565L42.4624 8.12188L39.8707 16.3604C39.75 16.7435 39.7864 17.1588 39.9718 17.515C40.1573 17.8712 40.4766 18.1392 40.8596 18.2601C41.2427 18.3707 41.6536 18.3297 42.0072 18.1456C42.3609 17.9615 42.6302 17.6485 42.7593 17.2713L46.4159 5.63532C46.5114 5.25255 46.4635 4.84806 46.2814 4.49812C46.0992 4.14818 45.7953 3.87698 45.427 3.73565" fill="#008FA4"/>
</svg>
