<svg width="10" height="22" viewBox="0 0 10 22" fill="none" xmlns="http://www.w3.org/2000/svg">
<path d="M5.13177 13.1923L9.20018 9.12482C9.2214 9.1036 9.23822 9.07842 9.2497 9.05071C9.26118 9.02299 9.26709 8.99329 9.26709 8.96329C9.26709 8.90271 9.24302 8.84461 9.20018 8.80177C9.15735 8.75893 9.09924 8.73486 9.03866 8.73486C8.97808 8.73486 8.91998 8.75893 8.87714 8.80177L4.9707 12.7091L1.06879 8.8072C1.04758 8.78599 1.0224 8.76916 0.994686 8.75768C0.966971 8.7462 0.937268 8.74029 0.90727 8.74029C0.877273 8.74029 0.847569 8.7462 0.819854 8.75768C0.79214 8.76916 0.766958 8.78599 0.745747 8.8072C0.724535 8.82841 0.707708 8.85359 0.696229 8.88131C0.684749 8.90902 0.678841 8.93872 0.678841 8.96872C0.678841 8.99872 0.684749 9.02842 0.696229 9.05614C0.707708 9.08385 0.724535 9.10903 0.745747 9.13025L4.80873 13.1932C4.82997 13.2144 4.85519 13.2312 4.88294 13.2427C4.91069 13.2541 4.94043 13.2599 4.97044 13.2598C5.00045 13.2598 5.03015 13.2538 5.05784 13.2422C5.08552 13.2306 5.11065 13.2136 5.13177 13.1923Z" fill="black" stroke="black" stroke-width="1.35734"/>
</svg>
