<svg width="61" height="61" viewBox="0 0 61 61" fill="none" xmlns="http://www.w3.org/2000/svg">
<path d="M30.4395 0.499023C22.4893 0.513576 14.8698 3.67971 9.25 9.30322C3.63024 14.9267 0.469212 22.5488 0.459961 30.499C0.46896 38.4528 3.63269 46.0785 9.25684 51.7026C14.881 57.3268 22.5062 60.49 30.46 60.499C38.4146 60.4879 46.0401 57.3224 51.6641 51.6968C57.288 46.0711 60.4512 38.4449 60.46 30.4902C60.4425 22.5365 57.2734 14.9139 51.6465 9.29248C46.0196 3.67102 38.3932 0.508795 30.4395 0.499023ZM30.46 57.457C26.205 57.4523 22.0111 56.4435 18.2197 54.5122C18.2727 53.2872 18.37 52.1742 18.501 51.2012C18.792 49.0502 19.5148 48.642 20.2178 48.249C20.8298 48.0155 21.3364 47.5675 21.6426 46.9883C21.9487 46.4091 22.0336 45.7384 21.8818 45.1011C21.8446 44.4512 21.9914 43.8044 22.3057 43.2344C23.049 41.7732 23.2244 40.0883 22.7979 38.5054C22.1889 36.3624 20.4618 35.528 18.6338 34.645C16.4799 33.6789 14.4803 32.4012 12.6982 30.853C9.63424 28.18 7.77409 28.1431 6.66309 28.1221C6.41909 28.1221 6.41838 28.1223 6.10938 26.9883C6.03137 26.6953 5.85629 26.0493 5.82129 25.8013C5.84429 25.7913 5.87334 25.7801 5.90234 25.7661C6.6939 25.44 7.41237 24.958 8.01367 24.3486C8.61498 23.7393 9.08682 23.0151 9.40234 22.2192C10.4535 20.1422 12.023 18.3712 13.958 17.0771C14.1391 17.2565 14.3544 17.398 14.5908 17.4932C14.8273 17.5883 15.0801 17.6353 15.335 17.6313C16.241 17.6313 17.1138 17.0755 18.2588 15.7725C18.664 15.4071 18.9914 14.9634 19.2207 14.4683C19.45 13.9731 19.5763 13.4365 19.5928 12.8911C19.5555 12.5368 19.4448 12.1943 19.2676 11.8853C19.0904 11.5762 18.8504 11.3074 18.5635 11.0962C18.7331 10.8092 18.9252 10.5361 19.1377 10.2793C19.2667 10.1143 19.3814 9.96605 19.4834 9.83105C19.5292 10.0474 19.5925 10.26 19.6719 10.4663C19.7996 10.9016 20.0603 11.2862 20.417 11.5664C20.7737 11.8466 21.209 12.0083 21.6621 12.0293C21.9707 12.0271 22.2737 11.9511 22.5469 11.8076C22.82 11.6641 23.0546 11.4569 23.2314 11.2041C23.4994 10.8461 24.8936 10.0273 31.2236 8.57227C32.334 8.32213 33.3552 7.77356 34.1768 6.98584C34.9983 6.19812 35.5892 5.20091 35.8857 4.10205C37.4351 4.4211 38.9534 4.87655 40.4229 5.4624C40.1115 5.77967 39.7252 6.0132 39.2998 6.14209L38.8154 6.29199C37.6704 6.63599 36.6849 6.93224 36.2109 7.94824C36.067 8.31729 35.9974 8.7114 36.0068 9.10742C36.0163 9.50344 36.1042 9.8936 36.2656 10.2554C35.2602 10.6291 34.2053 10.8529 33.1348 10.9194C32.8953 10.9344 32.6634 11.0078 32.459 11.1333C31.752 11.5704 31.1418 12.1468 30.665 12.8276C30.1883 13.5085 29.8545 14.2794 29.6855 15.0933C29.6106 15.8239 29.7074 16.5618 29.9678 17.2485C30.2282 17.9353 30.645 18.552 31.1855 19.0493C31.2035 19.0663 31.2165 19.0792 31.2305 19.0952C31.0845 19.2262 30.8089 19.4521 30.2949 19.8291C28.1719 21.4091 24.9587 23.7951 26.4707 29.6431C27.8577 35.0321 31.3541 36.1631 34.0391 36.1631C35.3266 36.1481 36.6018 35.9152 37.8115 35.4741C38.5245 36.3741 39.5619 38.5303 38.9189 43.1743C38.4399 46.6743 38.9542 49.4971 40.3682 51.1191C40.748 51.5743 41.2234 51.9401 41.7607 52.1904C42.2981 52.4407 42.8838 52.5695 43.4766 52.5674C45.3766 52.5674 47.3773 51.2832 49.1143 48.9492C53.5073 43.0412 54.5005 40.3261 53.7285 36.3091C53.5425 35.3451 53.7502 35.0342 55.1162 34.2202C55.6231 34.0151 56.0716 33.6893 56.4238 33.271C56.7761 32.8527 57.0209 32.3547 57.1367 31.8203C57.1817 31.7833 57.2312 31.7451 57.2822 31.7051L57.3369 31.666C57.3529 31.652 57.3717 31.6404 57.3877 31.6274C57.1113 38.4897 54.2124 44.9837 49.2881 49.771C44.2654 54.7074 37.5024 57.4685 30.46 57.457ZM16.3916 13.2314C16.2618 13.4168 16.121 13.5939 15.9697 13.7622L15.8633 13.8843C15.7282 13.6525 15.5336 13.4611 15.2998 13.3296C15.066 13.1981 14.8014 13.1313 14.5332 13.1362C14.2667 13.135 14.004 13.201 13.7695 13.3276C13.535 13.4543 13.3355 13.6378 13.1904 13.8613C12.9551 14.0613 12.7081 14.2457 12.4492 14.4141C9.98076 16.0187 7.98488 18.253 6.66797 20.8862C6.37358 21.676 5.81981 22.3427 5.09766 22.7773C6.96321 16.8721 10.7598 11.7654 15.877 8.27734C15.9241 8.35164 15.9771 8.42213 16.0352 8.48828C16.1471 8.62084 16.2771 8.73644 16.4219 8.83203C15.1349 10.64 15.1256 12.0404 16.3916 13.2314ZM19.8711 39.3413C20.0924 40.2791 19.9522 41.2659 19.4795 42.1055C18.951 43.1597 18.7401 44.3442 18.8711 45.5161L18.8047 45.5542L18.7227 45.5991C17.6287 46.2111 15.9804 47.1373 15.4844 50.7993C15.4064 51.3813 15.3422 51.9993 15.2852 52.6533C11.7992 50.1357 8.95406 46.8336 6.97949 43.0137C5.00493 39.1938 3.95607 34.963 3.91797 30.6631C3.91797 30.3681 3.92559 30.0632 3.93359 29.7632C4.19873 30.2269 4.59136 30.605 5.06445 30.853C5.53755 31.1011 6.07128 31.2087 6.60352 31.1631C7.34152 31.1761 8.45924 31.1965 10.6982 33.1475C12.6844 34.874 14.9108 36.3017 17.3086 37.3862C19.0326 38.2172 19.6431 38.5463 19.8691 39.3403L19.8711 39.3413ZM30.5391 5.59912C27.8055 6.11634 25.1358 6.927 22.5762 8.01709C22.6825 7.75459 22.8457 7.51922 23.0547 7.32812C23.4185 7.06609 23.6878 6.69334 23.8223 6.26562C23.9567 5.83791 23.9492 5.37815 23.8008 4.95508C23.7641 4.86117 23.7198 4.77052 23.668 4.68408C26.6289 3.87317 29.7045 3.56416 32.7676 3.77002C32.5677 4.22785 32.2625 4.63206 31.877 4.94971C31.4914 5.26735 31.0365 5.48958 30.5488 5.59814L30.5742 5.69824L30.5391 5.59912ZM55.1943 25.3994C54.9853 25.808 54.8947 26.2667 54.9316 26.7241C54.9686 27.1816 55.1315 27.6195 55.4033 27.9893C55.9343 28.8973 55.9346 28.8974 55.5166 29.2124C55.1544 29.4318 54.843 29.7255 54.6035 30.0747C54.364 30.4239 54.2022 30.8204 54.1279 31.2373C54.0279 31.3053 53.8574 31.4183 53.5684 31.5923C52.4494 32.2543 50.1241 33.6331 50.7451 36.8721C51.3251 39.8871 50.4868 41.9941 46.6748 47.1201C45.5928 48.5731 44.4191 49.4611 43.5381 49.4951C43.3725 49.5064 43.2065 49.4774 43.0547 49.4102C42.9029 49.3429 42.7699 49.2397 42.667 49.1094C41.849 48.1724 41.5845 46.1542 41.9375 43.5762C43.1525 34.7762 39.0179 32.4495 38.8379 32.3555C38.6178 32.2359 38.3715 32.1732 38.1211 32.1733C37.8868 32.173 37.6548 32.2261 37.4443 32.3291C36.3719 32.8125 35.215 33.0788 34.0391 33.1123C31.6951 33.1123 30.139 31.685 29.416 28.873C28.416 24.999 30.303 23.6025 32.127 22.2515C33.227 21.4335 34.2698 20.6621 34.3828 19.3311C34.4045 18.8829 34.3263 18.4359 34.1533 18.022C33.9803 17.608 33.7169 17.2379 33.3828 16.9385C33.1674 16.7587 32.9937 16.5335 32.875 16.2793C32.7563 16.0251 32.6959 15.7479 32.6963 15.4673C32.8711 14.8371 33.2554 14.2855 33.7861 13.9033C35.3861 13.7433 38.1804 13.2424 39.1074 11.7104C39.3089 11.3849 39.4276 11.0144 39.4521 10.6323C39.4767 10.2502 39.4071 9.86778 39.249 9.51904C39.224 9.46004 39.1997 9.40547 39.1807 9.35547C39.3697 9.29347 39.5675 9.23429 39.6885 9.19629L40.2012 9.04004C41.4259 8.6677 42.4852 7.8854 43.2012 6.82422C46.5411 8.64155 49.4576 11.1463 51.7588 14.1733C54.0599 17.2004 55.6931 20.6809 56.5508 24.3853C56.268 24.4553 56.0026 24.5812 55.7695 24.7559C55.5364 24.9306 55.34 25.1506 55.1934 25.4023L55.1943 25.3994Z" fill="white"/>
</svg>
