<svg width="61" height="61" viewBox="0 0 61 61" fill="none" xmlns="http://www.w3.org/2000/svg">
<path d="M44.056 13.764L44.065 13.737C44.1945 13.3495 44.1649 12.9265 43.9825 12.5609C43.8001 12.1952 43.48 11.9171 43.0925 11.7875C42.705 11.658 42.2819 11.6876 41.9163 11.87C41.5507 12.0524 41.2725 12.3725 41.143 12.76C40.386 15.266 37.991 21.229 35.335 23.886L24.029 35.299L22.914 36.424V20.224C22.9191 20.0262 22.8846 19.8294 22.8125 19.6452C22.7403 19.4609 22.632 19.293 22.4939 19.1513C22.3559 19.0096 22.1908 18.8969 22.0085 18.82C21.8262 18.7431 21.6303 18.7035 21.4325 18.7035C21.2346 18.7035 21.0388 18.7431 20.8565 18.82C20.6742 18.8969 20.5091 19.0096 20.371 19.1513C20.2329 19.293 20.1246 19.4609 20.0525 19.6452C19.9804 19.8294 19.9458 20.0262 19.951 20.224V37.614C19.9423 37.8991 20.0152 38.1808 20.161 38.426L20.461 38.871L20.083 39.249L1.08998 58.238C0.802239 58.5262 0.640625 58.9168 0.640625 59.324C0.640625 59.7313 0.802239 60.1218 1.08998 60.41C1.22396 60.5494 1.38423 60.6608 1.56154 60.7379C1.73884 60.815 1.92967 60.8561 2.12298 60.859C2.31628 60.8561 2.50709 60.8149 2.68439 60.7378C2.86169 60.6608 3.02197 60.5494 3.15598 60.41L37.4 26.163C41.058 22.506 43.587 15.193 44.056 13.764Z" fill="#008FA4"/>
<path d="M60.574 7.692C60.5352 7.3095 60.3604 6.95361 60.0815 6.689C59.8026 6.42439 59.438 6.26862 59.054 6.25C59.014 6.25 58.974 6.25 58.934 6.256C58.5301 6.29309 58.1558 6.4838 57.8884 6.78877C57.621 7.09375 57.4809 7.48972 57.497 7.895C58.365 17.871 58.232 36.195 47.597 46.823C41.324 53.097 35.554 56.147 29.959 56.147C26.1636 56.0128 22.5 54.7218 19.459 52.447C19.2125 52.2852 18.9238 52.1996 18.629 52.201C18.3821 52.198 18.1388 52.2595 17.923 52.3795C17.7073 52.4995 17.5266 52.6737 17.399 52.885L17.391 52.898L17.382 52.911C17.2694 53.0814 17.1924 53.2728 17.1556 53.4737C17.1189 53.6745 17.1231 53.8808 17.168 54.08C17.2089 54.2662 17.2874 54.442 17.3986 54.5968C17.5099 54.7515 17.6515 54.8819 17.815 54.98L17.833 54.991L17.85 55.003C21.399 57.6141 25.6688 59.0634 30.074 59.152C36.51 59.152 43.138 55.736 49.774 48.998C54.842 43.976 58.231 36.922 59.852 28.027C60.9864 21.31 61.2291 14.4726 60.574 7.692Z" fill="#008FA4"/>
<path d="M6.39202 43.6832H6.44502C6.71272 43.6835 6.97545 43.6109 7.20502 43.4732C7.53023 43.2477 7.75824 42.9077 7.84336 42.5212C7.92848 42.1348 7.86442 41.7304 7.66402 41.3892C5.29576 38.1047 4.13687 34.1019 4.38402 30.0602C4.85502 24.8732 7.91002 19.5502 13.722 13.7862C17.485 10.0222 22.622 7.2512 28.986 5.5522C34.25 4.20785 39.6663 3.55336 45.099 3.6052C46.84 3.6052 48.583 3.6652 50.28 3.7832H50.292C50.332 3.7832 50.372 3.7882 50.412 3.7882C50.7958 3.76984 51.1602 3.61442 51.4392 3.35018C51.7181 3.08594 51.893 2.73042 51.932 2.3482C51.9469 2.15117 51.9213 1.95318 51.8568 1.76641C51.7923 1.57964 51.6903 1.40805 51.557 1.2622C51.2888 0.952097 50.9135 0.754612 50.506 0.709195C48.844 0.620195 47.183 0.575195 45.569 0.575195C35.083 0.575195 20.669 2.4912 11.544 11.6152C5.98602 17.1752 2.76402 22.4142 1.69202 27.6362C0.632018 32.8062 1.71902 37.8362 5.01302 43.0192C5.17057 43.2337 5.37827 43.4064 5.61796 43.5222C5.85765 43.6379 6.12203 43.6932 6.38802 43.6832" fill="#008FA4"/>
<path d="M48.955 31.5439H38.501C38.108 31.5439 37.731 31.7001 37.4531 31.978C37.1752 32.2559 37.019 32.6329 37.019 33.0259C37.019 33.419 37.1752 33.7959 37.4531 34.0739C37.731 34.3518 38.108 34.5079 38.501 34.5079H48.955C49.3481 34.5079 49.725 34.3518 50.003 34.0739C50.2809 33.7959 50.437 33.419 50.437 33.0259C50.437 32.6329 50.2809 32.2559 50.003 31.978C49.725 31.7001 49.3481 31.5439 48.955 31.5439Z" fill="#008FA4"/>
</svg>
