<svg width="23" height="28" viewBox="0 0 23 28" fill="none" xmlns="http://www.w3.org/2000/svg">
<path d="M11.9208 3.16896e-06C9.21306 -0.00212724 6.61503 1.06999 4.69678 2.9811C2.77854 4.89222 1.69677 7.48624 1.68883 10.194C1.66045 11.904 2.08774 13.5907 2.92683 15.081C2.98683 15.181 10.9858 27.221 11.4488 27.818C11.5777 27.9355 11.7459 28.0006 11.9203 28.0006C12.0948 28.0006 12.2629 27.9355 12.3918 27.818C12.8368 27.242 20.8558 15.173 20.9178 15.074C21.7533 13.5858 22.1784 11.9024 22.1498 10.196C22.1424 7.48842 21.0613 4.89433 19.1436 2.98287C17.226 1.07141 14.6284 -0.00133112 11.9208 3.16896e-06ZM19.8208 14.213L19.8098 14.232C19.6098 14.545 14.9628 21.511 12.2098 25.637L11.9168 26.077L11.6228 25.638C4.56083 15.062 4.05683 14.292 4.02283 14.243L4.01283 14.227C3.35194 12.9877 3.021 11.5992 3.05183 10.195C3.05183 7.84532 3.98523 5.59187 5.64671 3.93039C7.30819 2.26891 9.56164 1.3355 11.9113 1.3355C14.261 1.3355 16.5145 2.26891 18.1759 3.93039C19.8374 5.59187 20.7708 7.84532 20.7708 10.195C20.8038 11.5931 20.4781 12.9764 19.8248 14.213H19.8208Z" fill="black"/>
<path d="M11.92 5.82101C12.7562 5.82101 13.5737 6.06898 14.269 6.53356C14.9643 6.99814 15.5062 7.65846 15.8262 8.43103C16.1462 9.20359 16.2299 10.0537 16.0668 10.8739C15.9036 11.694 15.501 12.4474 14.9097 13.0387C14.3184 13.63 13.565 14.0326 12.7449 14.1958C11.9247 14.3589 11.0746 14.2752 10.302 13.9552C9.52946 13.6352 8.86914 13.0933 8.40456 12.398C7.93998 11.7027 7.69201 10.8852 7.69201 10.049C7.69386 8.92824 8.1399 7.85391 8.9324 7.06141C9.72491 6.26891 10.7992 5.82286 11.92 5.82101ZM11.92 4.41101C10.8047 4.41101 9.71448 4.74173 8.78715 5.36135C7.85982 5.98098 7.13705 6.86167 6.71025 7.89206C6.28345 8.92245 6.17178 10.0563 6.38936 11.1501C6.60694 12.244 7.14401 13.2488 7.93263 14.0374C8.72126 14.826 9.72604 15.3631 10.8199 15.5807C11.9138 15.7982 13.0476 15.6866 14.078 15.2598C15.1084 14.833 15.989 14.1102 16.6087 13.1829C17.2283 12.2555 17.559 11.1653 17.559 10.05C17.5588 8.55463 16.9645 7.12058 15.907 6.06328C14.8495 5.00598 13.4154 4.41101 11.92 4.41101Z" fill="black"/>
</svg>
