<svg width="60" height="61" viewBox="0 0 60 61" fill="none" xmlns="http://www.w3.org/2000/svg">
<g clip-path="url(#clip0_1_39543)">
<g clip-path="url(#clip1_1_39543)">
<g clip-path="url(#clip2_1_39543)">
<path d="M42.3519 31.9529C41.5576 31.1715 40.5486 30.6442 39.4536 30.4382C38.3585 30.2321 37.2269 30.3566 36.2029 30.7959L21.6609 16.2569L19.6349 8.7329C19.3877 7.92903 18.8434 7.24959 18.1129 6.8329L8.92991 1.9669C8.47429 1.74719 7.96273 1.67086 7.46281 1.74799C6.96289 1.82512 6.49813 2.05208 6.12991 2.3989L1.60591 6.9179C1.24993 7.28273 1.01757 7.75018 0.941668 8.25422C0.865765 8.75827 0.950154 9.27342 1.18291 9.7269L6.03791 18.8959C6.4481 19.6324 7.12997 20.1793 7.93791 20.4199L15.4559 22.4529L30.0019 37.0009C29.5516 38.0225 29.4211 39.1565 29.6276 40.2537C29.8341 41.3509 30.368 42.3599 31.1589 43.1479L46.2589 58.2429C46.7742 58.7603 47.3866 59.1708 48.0609 59.4509C48.7352 59.731 49.4582 59.8752 50.1884 59.8752C50.9186 59.8752 51.6416 59.731 52.3159 59.4509C52.9903 59.1708 53.6026 58.7603 54.1179 58.2429L57.4559 54.9089C58.4955 53.8668 59.0793 52.4549 59.0793 50.9829C59.0793 49.5109 58.4955 48.099 57.4559 47.0569L42.3519 31.9529ZM32.9659 37.6319C33.1777 37.353 33.2812 37.0067 33.2571 36.6573C33.233 36.3079 33.083 35.9791 32.8349 35.7319L17.2349 20.1319C17.0568 19.9499 16.8324 19.8199 16.5859 19.7559L8.72091 17.6369C8.67363 17.609 8.62997 17.5755 8.59091 17.5369L3.86791 8.7469L7.85791 4.6769L16.7409 9.3769C16.78 9.41449 16.8155 9.45567 16.8469 9.4999L18.9669 17.3659C19.0289 17.6159 19.1587 17.8439 19.3419 18.0249L34.9419 33.6249C35.1894 33.8696 35.5166 34.0173 35.8638 34.0411C36.211 34.065 36.5553 33.9634 36.8339 33.7549C37.3492 33.3796 37.9805 33.1983 38.6164 33.2429C39.2523 33.2876 39.8521 33.5553 40.3099 33.9989L55.4099 49.0989C55.9064 49.5984 56.1851 50.2741 56.1851 50.9784C56.1851 51.6827 55.9064 52.3584 55.4099 52.8579L52.0719 56.1909C51.8256 56.4394 51.5326 56.6367 51.2096 56.7713C50.8867 56.9059 50.5403 56.9752 50.1904 56.9752C49.8405 56.9752 49.4941 56.9059 49.1712 56.7713C48.8483 56.6367 48.5552 56.4394 48.3089 56.1909L33.2089 41.0909C32.7588 40.6394 32.4863 40.0409 32.4415 39.4049C32.3967 38.7689 32.5825 38.1381 32.9649 37.6279" fill="#008FA4"/>
<path d="M31.3239 24.1818L39.9409 15.5628C40.116 15.3871 40.2431 15.1695 40.3103 14.9308C40.3775 14.692 40.3826 14.4401 40.3249 14.1988C40.0387 13.0264 40.0054 11.8065 40.2272 10.6202C40.4491 9.43393 40.921 8.30849 41.6116 7.31877C42.3022 6.32904 43.1956 5.49772 44.2325 4.88011C45.2693 4.2625 46.4258 3.87276 47.6249 3.73682L44.4799 6.88882C44.2995 7.06839 44.1696 7.29239 44.1034 7.5382C44.0372 7.78401 44.0371 8.04292 44.1029 8.28882L45.6589 14.1068C45.7254 14.3516 45.8548 14.5746 46.0343 14.7538C46.2137 14.9329 46.4371 15.0619 46.6819 15.1278L52.4989 16.6908C52.7447 16.7557 53.0031 16.7554 53.2486 16.6898C53.4942 16.6242 53.7183 16.4956 53.8989 16.3168L57.0539 13.1638C56.9181 14.3636 56.5282 15.5207 55.9103 16.5581C55.2923 17.5954 54.4604 18.4892 53.47 19.1799C52.4795 19.8706 51.3533 20.3423 50.1663 20.5637C48.9793 20.7851 47.7588 20.751 46.5859 20.4638C46.3454 20.4058 46.094 20.4108 45.856 20.4783C45.618 20.5457 45.4013 20.6733 45.2269 20.8488L36.8329 29.2378L37.9159 29.1838C38.0075 29.1779 38.0986 29.1669 38.1889 29.1508C38.2572 29.1377 38.3264 29.1297 38.3959 29.1268C39.0751 29.136 39.7491 29.2458 40.3959 29.4528L40.6359 29.5258L46.7189 23.4468C48.5752 23.7587 50.4797 23.6056 52.2624 23.0014C54.045 22.3972 55.6501 21.3606 56.9341 19.9843C58.2182 18.608 59.1411 16.935 59.6205 15.1148C60.0998 13.2946 60.1206 11.384 59.6809 9.55382C59.6219 9.30284 59.4967 9.07223 59.3184 8.88593C59.1402 8.69963 58.9153 8.56442 58.6672 8.49432C58.4191 8.42423 58.1567 8.42181 57.9073 8.48731C57.6579 8.55281 57.4306 8.68384 57.2489 8.86682L52.4429 13.6778L48.2429 12.5458L47.1189 8.34582L51.9189 3.54582C52.101 3.36379 52.2312 3.13647 52.2961 2.88731C52.3611 2.63816 52.3583 2.3762 52.2882 2.12846C52.2181 1.88072 52.0831 1.65617 51.8973 1.47799C51.7114 1.2998 51.4814 1.17444 51.2309 1.11482C49.4015 0.676053 47.4918 0.697364 45.6726 1.17685C43.8534 1.65634 42.1813 2.57906 40.8058 3.86257C39.4303 5.14607 38.3942 6.75036 37.7901 8.53207C37.186 10.3138 37.0327 12.2174 37.3439 14.0728L29.2789 22.1378L31.3239 24.1818Z" fill="#008FA4"/>
<path d="M28.6319 41.2269C28.3799 40.4351 28.2801 39.6027 28.3379 38.7738L28.4129 37.6649L20.0579 46.0179C19.8822 46.1927 19.7547 46.41 19.6876 46.6486C19.6205 46.8872 19.6161 47.1391 19.6749 47.3799C20.0244 48.7978 20.0013 50.2821 19.608 51.6886C19.2146 53.095 18.4643 54.3759 17.4299 55.4068C16.0762 56.7918 14.2803 57.659 12.3539 57.8578L15.5199 54.6929C15.699 54.5124 15.8277 54.2882 15.8933 54.0426C15.9589 53.7971 15.9591 53.5386 15.8939 53.2928L14.3389 47.4769C14.2716 47.232 14.1417 47.0089 13.962 46.8295C13.7822 46.6502 13.5589 46.5207 13.3139 46.4538L7.4889 44.8938C7.24433 44.8322 6.98799 44.8347 6.74467 44.9011C6.50134 44.9675 6.27926 45.0955 6.0999 45.2728L2.9449 48.4238C3.07968 47.2223 3.46924 46.0634 4.08758 45.0244C4.70591 43.9854 5.53878 43.0903 6.53058 42.3988C7.52239 41.7073 8.6503 41.2353 9.83902 41.0145C11.0277 40.7936 12.2499 40.8288 13.4239 41.1178C13.6633 41.1715 13.9124 41.1641 14.1483 41.0965C14.3841 41.0289 14.5992 40.9032 14.7739 40.7309L23.3909 32.1158L21.3439 30.0688L13.2799 38.1328C11.4237 37.8205 9.51898 37.9732 7.7362 38.5772C5.95342 39.1812 4.34816 40.2177 3.06403 41.594C1.77989 42.9703 0.856928 44.6434 0.3777 46.4637C-0.101528 48.284 -0.122073 50.1947 0.317901 52.0249C0.377283 52.2749 0.502119 52.5047 0.679606 52.6906C0.857093 52.8766 1.08084 53.0119 1.3279 53.0829C1.5762 53.1549 1.83935 53.1584 2.0895 53.0931C2.33965 53.0278 2.56748 52.896 2.7489 52.7119L7.5559 47.9118L11.7559 49.0358L12.8819 53.2359L8.0819 58.0419C7.89997 58.2235 7.7698 58.4504 7.7048 58.6991C7.6398 58.9478 7.64233 59.2094 7.71213 59.4568C7.78194 59.7042 7.91648 59.9285 8.10189 60.1066C8.2873 60.2847 8.51687 60.4101 8.7669 60.4698C9.64853 60.6819 10.5521 60.789 11.4589 60.7888C12.9504 60.7915 14.4276 60.4979 15.8047 59.9251C17.1818 59.3522 18.4313 58.5116 19.4809 57.4518C20.7629 56.1679 21.72 54.5967 22.2729 52.8686C22.8258 51.1405 22.9585 49.3055 22.6599 47.5159L28.7079 41.4678L28.6319 41.2269Z" fill="#008FA4"/>
</g>
</g>
</g>
<defs>
<clipPath id="clip0_1_39543">
<rect width="60" height="60" fill="white" transform="translate(0 0.790039)"/>
</clipPath>
<clipPath id="clip1_1_39543">
<rect width="60" height="60" fill="white" transform="translate(0 0.790039)"/>
</clipPath>
<clipPath id="clip2_1_39543">
<rect width="59.996" height="60" fill="white" transform="translate(0.00195312 0.790039)"/>
</clipPath>
</defs>
</svg>
