<svg width="60" height="61" viewBox="0 0 60 61" fill="none" xmlns="http://www.w3.org/2000/svg">
<g clip-path="url(#clip0_1_39554)">
<g clip-path="url(#clip1_1_39554)">
<g clip-path="url(#clip2_1_39554)">
<path d="M30 0.790039C24.0666 0.790039 18.2664 2.54951 13.3329 5.84595C8.39943 9.14239 4.55426 13.8278 2.28363 19.3095C0.0129986 24.7913 -0.581102 30.8233 0.576455 36.6427C1.73401 42.4622 4.59123 47.8077 8.78681 52.0032C12.9824 56.1988 18.3279 59.056 24.1473 60.2136C29.9667 61.3712 35.9987 60.7771 41.4805 58.5064C46.9623 56.2358 51.6477 52.3906 54.9441 47.4571C58.2405 42.5237 60 36.7235 60 30.79C60 22.8335 56.8393 15.2029 51.2132 9.57684C45.5871 3.95074 37.9565 0.790039 30 0.790039ZM49.092 49.882C44.0285 54.9456 37.1609 57.7902 30 57.7902C22.8391 57.7902 15.9715 54.9456 10.908 49.882C5.8445 44.8185 2.99985 37.9509 2.99985 30.79C2.99985 23.6292 5.8445 16.7616 10.908 11.698C15.9715 6.63453 22.8391 3.78987 30 3.78987C37.1609 3.78987 44.0285 6.63453 49.092 11.698C54.1555 16.7616 57.0002 23.6292 57.0002 30.79C57.0002 37.9509 54.1555 44.8185 49.092 49.882Z" fill="#008FA4"/>
<path d="M40.331 29.2052L26.115 18.9952C25.8517 18.7561 25.5252 18.5978 25.1745 18.5391C24.8237 18.4804 24.4634 18.5239 24.1367 18.6643C23.8099 18.8047 23.5304 19.0361 23.3315 19.3309C23.1327 19.6258 23.0228 19.9716 23.015 20.3272V41.2552C23.0226 41.6108 23.1323 41.9568 23.3311 42.2518C23.5299 42.5468 23.8094 42.7784 24.1362 42.9189C24.463 43.0594 24.8233 43.103 25.1742 43.0443C25.5251 42.9857 25.8517 42.8273 26.115 42.5882L40.331 32.3752C40.6034 32.2099 40.8286 31.9772 40.9848 31.6996C41.1411 31.422 41.2232 31.1088 41.2232 30.7902C41.2232 30.4716 41.1411 30.1584 40.9848 29.8808C40.8286 29.6031 40.6034 29.3705 40.331 29.2052ZM26.731 37.5732V24.0072L36.172 30.7902L26.731 37.5732Z" fill="#008FA4"/>
</g>
</g>
</g>
<defs>
<clipPath id="clip0_1_39554">
<rect width="60" height="60" fill="white" transform="translate(0 0.790039)"/>
</clipPath>
<clipPath id="clip1_1_39554">
<rect width="60" height="60" fill="white" transform="translate(0 0.790039)"/>
</clipPath>
<clipPath id="clip2_1_39554">
<rect width="60" height="60" fill="white" transform="translate(0 0.790039)"/>
</clipPath>
</defs>
</svg>
