<svg width="123" height="28" viewBox="0 0 123 28" fill="none" xmlns="http://www.w3.org/2000/svg">
<g clip-path="url(#clip0_1_48438)">
<g clip-path="url(#clip1_1_48438)">
<g clip-path="url(#clip2_1_48438)">
<path d="M49.1491 22.4513C49.8789 22.4511 50.5923 22.2345 51.199 21.8289C51.8057 21.4232 52.2785 20.8468 52.5576 20.1725C52.8367 19.4981 52.9096 18.7562 52.767 18.0404C52.6245 17.3247 52.2729 16.6673 51.7567 16.1514C51.2405 15.6354 50.5829 15.2842 49.867 15.142C49.1512 14.9998 48.4093 15.0731 47.7351 15.3526C47.0609 15.632 46.4848 16.1051 46.0795 16.7121C45.6742 17.319 45.4579 18.0325 45.4581 18.7623C45.4576 19.2471 45.5527 19.7272 45.7381 20.1751C45.9234 20.623 46.1953 21.03 46.5381 21.3727C46.881 21.7154 47.2881 21.987 47.7362 22.1721C48.1842 22.3572 48.6644 22.4521 49.1491 22.4513Z" fill="black"/>
<path d="M73.1122 27.2865C69.3566 27.2865 65.931 25.7786 63.2133 21.6961C60.4956 17.6135 57.1319 12.2271 55.2871 9.48638C53.4973 6.82167 51.8215 5.44781 48.9368 5.44781C46.0521 5.44781 44.3713 6.82067 42.5855 9.48638C40.7357 12.2271 37.3801 17.6155 34.6643 21.6961C31.9486 25.7766 28.524 27.2865 24.7534 27.2865C20.9828 27.2865 17.5672 25.7786 14.8415 21.6961C12.1158 17.6135 8.91909 12.794 7.08629 10.0583C5.28548 7.39661 3.60566 5.96876 0.719971 5.96876V1.43024C4.88553 1.43024 8.42615 3.42303 11.3368 7.82956C14.2475 12.2361 16.4273 15.4507 18.3581 18.4164C20.2729 21.3741 22.1087 22.784 24.7494 22.784C27.3901 22.784 29.2249 21.3741 31.1487 18.4164C33.0725 15.4587 35.4093 11.6701 38.32 7.26162C41.2306 2.85309 44.7663 0.862305 48.9318 0.862305C53.0974 0.862305 56.631 2.85509 59.5437 7.26162C62.4564 11.6681 64.7991 15.4507 66.7249 18.4164C68.6507 21.3821 70.4715 22.834 73.1122 22.834V27.2865Z" fill="black"/>
<path d="M83.8691 0.00195312C81.6294 2.24171 80.2695 4.1925 80.2695 9.8689V27.367H85.18V9.62592C85.18 6.84022 85.38 5.50036 86.7958 4.04252L83.8691 0.00195312Z" fill="black"/>
<path d="M94.4299 14.0748C94.4305 11.3209 95.2477 8.62893 96.7782 6.3394C98.3087 4.04988 100.484 2.26561 103.028 1.21221C105.573 0.15882 108.373 -0.116387 111.074 0.421394C113.775 0.959176 116.255 2.28579 118.202 4.23349C120.149 6.18119 121.475 8.66249 122.012 11.3636C122.549 14.0648 122.272 16.8644 121.218 19.4086C120.164 21.9528 118.379 24.1272 116.089 25.6568C113.799 27.1865 111.106 28.0027 108.352 28.0023C106.524 28.0023 104.713 27.6422 103.024 26.9424C101.335 26.2426 99.7999 25.2169 98.507 23.9238C97.2142 22.6308 96.1887 21.0958 95.4891 19.4064C94.7896 17.717 94.4297 15.9063 94.4299 14.0778M108.352 23.3768C110.783 23.3408 113.101 22.3411 114.795 20.5975C116.489 18.8538 117.422 16.5089 117.388 14.0778C117.422 12.87 117.213 11.6676 116.774 10.5419C116.335 9.41614 115.675 8.38982 114.833 7.5236C113.99 6.65738 112.983 5.96885 111.869 5.49869C110.756 5.02853 109.56 4.78629 108.352 4.78629C107.144 4.78629 105.948 5.02853 104.834 5.49869C103.721 5.96885 102.714 6.65738 101.871 7.5236C101.029 8.38982 100.369 9.41614 99.9297 10.5419C99.4907 11.6676 99.2818 12.87 99.3154 14.0778C99.2818 16.5089 100.215 18.8538 101.909 20.5975C103.603 22.3411 105.921 23.3408 108.352 23.3768Z" fill="black"/>
</g>
</g>
</g>
<defs>
<clipPath id="clip0_1_48438">
<rect width="121.56" height="28" fill="white" transform="translate(0.719971)"/>
</clipPath>
<clipPath id="clip1_1_48438">
<rect width="121.56" height="28" fill="white" transform="translate(0.719971)"/>
</clipPath>
<clipPath id="clip2_1_48438">
<rect width="121.56" height="27.997" fill="white" transform="translate(0.719971 0.00195312)"/>
</clipPath>
</defs>
</svg>
