<svg width="41" height="40" viewBox="0 0 41 40" fill="none" xmlns="http://www.w3.org/2000/svg">
<path d="M20.5057 -0.00146484C15.2058 0.00858825 10.1256 2.11966 6.37921 5.86847C2.63284 9.61727 0.52565 14.698 0.519043 19.9979C0.52513 25.3002 2.63383 30.3839 6.38312 34.1332C10.1324 37.8825 15.2161 39.9912 20.5184 39.9973C25.8212 39.9899 30.9046 37.8799 34.6537 34.1298C38.4029 30.3797 40.5117 25.2958 40.5178 19.993C40.5061 14.6906 38.393 9.6093 34.642 5.86163C30.8909 2.11396 25.8081 0.00540208 20.5057 -0.00146484ZM20.5184 37.9695C17.6822 37.9661 14.8866 37.2933 12.3595 36.0057C12.3945 35.1897 12.46 34.4477 12.548 33.7987C12.742 32.3638 13.2235 32.0925 13.6915 31.8305C14.0997 31.6748 14.4376 31.3761 14.6416 30.9897C14.8457 30.6034 14.9024 30.156 14.8008 29.731C14.7763 29.2977 14.8736 28.8661 15.083 28.4859C15.5784 27.5117 15.6954 26.3881 15.4112 25.3327C15.0052 23.9037 13.8538 23.348 12.6358 22.759C11.2003 22.1152 9.86731 21.2635 8.67992 20.2313C6.63598 18.4494 5.39658 18.4251 4.65661 18.4101C4.49361 18.4101 4.49347 18.4102 4.28748 17.6552C4.23548 17.4552 4.11908 17.0292 4.09608 16.8632L4.15076 16.8403C4.67844 16.6229 5.15699 16.3016 5.55795 15.8955C5.9589 15.4894 6.27406 15.0065 6.48467 14.4761C7.18538 13.0917 8.23108 11.9114 9.52071 11.0485C9.64159 11.1682 9.78478 11.2623 9.94257 11.3258C10.1004 11.3893 10.2695 11.4211 10.4396 11.4186C11.0396 11.4186 11.6258 11.0474 12.3888 10.1784C12.659 9.935 12.8766 9.63926 13.0294 9.30928C13.1822 8.9793 13.2666 8.622 13.2774 8.25853C13.2531 8.02172 13.1798 7.79236 13.0616 7.5857C12.9435 7.37904 12.7836 7.19945 12.5919 7.05837C12.7049 6.8674 12.8325 6.68558 12.9737 6.51444C13.0597 6.40445 13.1362 6.30564 13.2042 6.21465C13.2345 6.35875 13.2763 6.50005 13.3292 6.63749C13.4141 6.92782 13.5883 7.18452 13.8262 7.37135C14.0642 7.55817 14.3541 7.66577 14.6563 7.67944C14.8619 7.67791 15.0641 7.62718 15.2461 7.5315C15.4281 7.43582 15.5844 7.29816 15.7022 7.12966C15.8812 6.89067 16.8102 6.34531 21.0301 5.37434C21.7703 5.20777 22.4511 4.84269 22.9988 4.31773C23.5465 3.79277 23.9406 3.12785 24.1384 2.39543C25.1711 2.60817 26.1824 2.9119 27.1618 3.30263C26.9544 3.51424 26.6972 3.67045 26.4137 3.75672L26.0915 3.85681C25.3285 4.0858 24.6702 4.28341 24.3542 4.95639C24.2586 5.20249 24.2121 5.46535 24.2185 5.72931C24.2248 5.99328 24.284 6.25321 24.3913 6.49442C23.7207 6.74313 23.0174 6.89195 22.3035 6.9363C22.1441 6.94638 21.9893 6.99555 21.8533 7.07937C21.3818 7.37058 20.9742 7.75483 20.6561 8.20872C20.338 8.66262 20.1156 9.17677 20.0028 9.71942C19.953 10.2064 20.0177 10.6982 20.1913 11.1559C20.3649 11.6136 20.6426 12.025 21.0028 12.3565L21.0321 12.3863C20.9321 12.4743 20.751 12.6246 20.409 12.8765C18.9931 13.9295 16.8504 15.5204 17.8583 19.4193C18.7843 23.0112 21.1141 23.7649 22.9041 23.7649C23.7626 23.7551 24.6129 23.5999 25.4196 23.3059C25.8956 23.9059 26.5869 25.3427 26.1579 28.4366C25.8399 30.7705 26.1807 32.6528 27.1246 33.7367C27.3779 34.0399 27.6952 34.2838 28.0533 34.4506C28.4114 34.6174 28.8018 34.7028 29.1968 34.7015C30.4618 34.7015 31.7966 33.8455 32.9555 32.2895C35.8834 28.3516 36.5456 26.5409 36.0316 23.864C35.9086 23.221 36.0464 23.013 36.9564 22.471C37.2944 22.3345 37.5946 22.1176 37.8294 21.8387C38.0642 21.5598 38.2271 21.2273 38.304 20.8709L38.4036 20.7952L38.4397 20.7689L38.4739 20.743C38.29 25.3189 36.3568 29.6499 33.0737 32.8427C29.7247 36.1357 25.2151 37.9774 20.5184 37.9695ZM11.1408 8.48655C11.0539 8.60976 10.9598 8.72794 10.8595 8.84054L10.7873 8.92257C10.6978 8.76743 10.5683 8.63895 10.4123 8.551C10.2563 8.46305 10.0797 8.41885 9.90058 8.42259C9.72299 8.42151 9.54806 8.46512 9.39181 8.54953C9.23556 8.63395 9.10349 8.75635 9.00706 8.90548C8.84793 9.03807 8.68097 9.16112 8.50707 9.27363C6.86141 10.343 5.5305 11.8321 4.6527 13.5875C4.45623 14.1138 4.08729 14.5577 3.60586 14.8472C4.84933 10.9098 7.38006 7.50482 10.7922 5.17952C10.8222 5.22878 10.8562 5.27601 10.8927 5.32063C10.9679 5.40875 11.0549 5.48584 11.1515 5.54963C10.3015 6.76059 10.2968 7.69655 11.1398 8.48752L11.1408 8.48655ZM13.4581 25.8927C13.6058 26.518 13.5129 27.1763 13.1974 27.7359C12.8453 28.4388 12.7041 29.2285 12.7911 30.0098L12.7472 30.0347L12.6925 30.065C11.9635 30.473 10.8644 31.0898 10.5334 33.5297C10.4814 33.9177 10.4385 34.3295 10.4035 34.7655C8.07969 33.0871 6.18273 30.886 4.86656 28.3394C3.5504 25.7929 2.85177 22.9727 2.82659 20.1063C2.82659 19.9063 2.82635 19.7062 2.83635 19.5062C3.01341 19.815 3.27587 20.0667 3.59121 20.2318C3.90655 20.3969 4.26192 20.4687 4.61657 20.4383C5.10855 20.4473 5.85302 20.4601 7.34598 21.761C8.67047 22.9117 10.1545 23.8639 11.7531 24.5871C12.901 25.1401 13.3061 25.3628 13.4581 25.8927ZM20.5702 3.39979C18.7477 3.74417 16.9682 4.28412 15.2617 5.01058C15.3322 4.83578 15.4402 4.67897 15.5791 4.55161C15.8222 4.37709 16.0026 4.12846 16.0928 3.84314C16.1829 3.55782 16.1778 3.25112 16.0791 2.96866C16.0548 2.90584 16.0251 2.84513 15.9902 2.78751C17.9647 2.24754 20.016 2.04182 22.0584 2.17864C21.9253 2.48392 21.7217 2.75342 21.4647 2.96524C21.2077 3.17706 20.904 3.32546 20.579 3.39784L20.5965 3.46571L20.5702 3.39979ZM37.0081 16.5991C36.8689 16.8716 36.8076 17.1774 36.8323 17.4824C36.8571 17.7873 36.9665 18.0796 37.1478 18.3261C37.5018 18.9311 37.502 18.931 37.223 19.141C36.9814 19.2873 36.7733 19.4837 36.6136 19.7167C36.4539 19.9496 36.3466 20.2139 36.2972 20.492C36.2332 20.537 36.1172 20.6119 35.9242 20.7279C35.254 21.0096 34.7007 21.5135 34.3578 22.1546C34.015 22.7957 33.9026 23.5349 34.0404 24.2487C34.4284 26.2587 33.8696 27.6637 31.3276 31.0806C31.1007 31.4692 30.7998 31.8094 30.4409 32.081C30.0821 32.3527 29.6726 32.5505 29.2369 32.6635C29.1265 32.671 29.0159 32.6517 28.9146 32.6069C28.8134 32.5621 28.7246 32.4935 28.6558 32.4067C28.1099 31.7817 27.9335 30.4368 28.1705 28.7188C28.9805 22.849 26.2241 21.3011 26.1071 21.2391C25.9604 21.1595 25.7955 21.1178 25.6286 21.118C25.473 21.1167 25.3199 21.151 25.1794 21.2181C24.4644 21.5407 23.692 21.7181 22.908 21.74C21.346 21.74 20.308 20.7889 19.826 18.914C19.1591 16.331 20.4176 15.4 21.6346 14.4991C22.3686 13.9541 23.0635 13.4393 23.1345 12.5523C23.149 12.2536 23.0966 11.9552 22.9812 11.6793C22.8658 11.4034 22.6904 11.1567 22.4676 10.9572C22.324 10.8372 22.2079 10.6873 22.1287 10.5177C22.0496 10.3482 22.0093 10.1633 22.0096 9.97625C22.1263 9.55635 22.3823 9.18882 22.7361 8.93429C23.8051 8.82729 25.6659 8.49339 26.2839 7.47242C26.4183 7.25537 26.4979 7.00851 26.5143 6.75369C26.5307 6.49888 26.4832 6.24403 26.3776 6.01153C26.3606 5.97153 26.3457 5.93567 26.3327 5.90167C26.4587 5.86067 26.5906 5.82071 26.6706 5.79572L27.0133 5.69562C27.8301 5.44765 28.5364 4.92565 29.0133 4.21764C31.2395 5.42946 33.1832 7.09907 34.7172 9.1169C36.2512 11.1347 37.3402 13.455 37.9124 15.9243C37.7239 15.9707 37.5465 16.0543 37.3909 16.1704C37.2353 16.2865 37.1053 16.4326 37.0071 16.6001L37.0081 16.5991Z" fill="#008FA4"/>
</svg>
